<svg xmlns="http://www.w3.org/2000/svg" xmlns:xlink="http://www.w3.org/1999/xlink" viewBox="0 0 602.60761 360.90471"><defs><style>.cls-1{fill:#fff;}.cls-2{fill:#ffe0e0;}.cls-3{fill:#ad5a26;}.cls-4{fill:#5367eb;}.cls-5{fill:#91c0eb;}.cls-6{fill:#f0a678;}.cls-7{fill:#7c67eb;}.cls-8{fill:#de9e27;}.cls-9{fill:#ff4242;}.cls-10{fill:#d6d6d6;opacity:0.42;}.cls-11{fill:#f0c48f;}.cls-12{fill:#040302;}.cls-13{fill:#f3d231;}.cls-14{fill:#9e9e9d;}.cls-15{fill:#ffc2c2;}.cls-16{clip-path:url(#clip-path);}.cls-17{fill:#f09359;}.cls-18{fill:#6b87eb;}.cls-19{fill:#21273b;}.cls-20{fill:url(#Nueva_muestra_de_degradado);}</style><clipPath id="clip-path"><path class="cls-1" d="M117.36389,38.58381a7.13965,7.13965,0,0,1,7.3383-7.2486,5.86635,5.86635,0,0,1,5.6016,4.9417,7.21336,7.21336,0,0,1-6.2563,8.4374A5.929,5.929,0,0,1,117.36389,38.58381Zm18.2958,22.0415a20.44144,20.44144,0,0,0-4.9895-4.6926,41.78591,41.78591,0,0,0-15.0793-6.2944,10.25708,10.25708,0,0,0-3.4129-.1107,3.10409,3.10409,0,0,0-2.3619,4.6299,7.82928,7.82928,0,0,0,.9931,1.3906c.3022.3744.654.7087,1.0172,1.0963-.271.5693-.4877,1.0959-.7623,1.5904q-3.124,5.6241-6.2338,11.2567a18.10089,18.10089,0,0,1,3.355,1.6666,13.45068,13.45068,0,0,1,5.5813,6.6291c.32.8387.6383,1.0357,1.5011.8332a14.49459,14.49459,0,0,1,10.0134,1.5183c1.3471-2.8454,2.7015-5.6872,4.0223-8.5454.789-1.7076,1.6957-3.3612,2.5653-5.0305a11.33646,11.33646,0,0,1,.7071-1.0511,17.76428,17.76428,0,0,0,2.2104-.015,2.17064,2.17064,0,0,0,1.8957-3.2036A7.60736,7.60736,0,0,0,135.65969,60.62531Zm-30.5429-14.0097a3.91118,3.91118,0,0,0,3.9426-2.6939,5.33119,5.33119,0,0,0,.117-.7785,4.12632,4.12632,0,0,0-6.04-3.387,3.42839,3.42839,0,0,0-1.8989,4.075A3.918,3.918,0,0,0,105.11679,46.61561Zm43.2151,10.7125a6.74321,6.74321,0,0,0-7.46,6.6298,4.97469,4.97469,0,0,0,4.8661,5.1149,6.87367,6.87367,0,0,0,6.996-6.705A4.93609,4.93609,0,0,0,148.33189,57.32811Zm-6.9959-7.7172a4.12632,4.12632,0,0,0-6.0401-3.3868,3.4285,3.4285,0,0,0-1.8989,4.075,4.16182,4.16182,0,0,0,7.8219.0903A5.28536,5.28536,0,0,0,141.336,49.61091Zm-30.0754,53.3816a8.47731,8.47731,0,0,0,2.8005.3198q-4.9284,9.98805-9.8986,19.9553c-1.5849,3.1853-3.2491,6.3286-5.0321,9.4016a109.33766,109.33766,0,0,1-6.0736,9.4026,68.30937,68.30937,0,0,1-5.4619,6.6213,19.89107,19.89107,0,0,1-4.2313,3.3148c-4.4232,2.6647-8.2268.5558-10.2495-2.4829a10.77558,10.77558,0,0,1-1.7262-5.3138,23.0719,23.0719,0,0,1,.8412-7.5333,82.2138,82.2138,0,0,1,4.4055-12.233c.4053-.9183.8215-1.8312,1.2319-2.747a12.82875,12.82875,0,0,0,4.6965,3.3582c2.5178,1.0089,5.1173,1.7285,7.8732.918a5.52728,5.52728,0,0,1,.733-.0502,2.409,2.409,0,0,1,1.2168.0901l-.0001-.0001h0l1.7206-1.8503a8.39549,8.39549,0,0,0,1.7588-4.9315,10.79454,10.79454,0,0,0-1.4781-4.8624.32084.32084,0,0,0-.1985-.1336l-.6243-1.6329a9.90136,9.90136,0,0,0,4.8429-2.3332,4.14767,4.14767,0,0,0,1.5649-2.9387.52421.52421,0,0,0-.3465-.5624l.579-2.6584a7.55406,7.55406,0,0,0,3.3601-.8636,3.66594,3.66594,0,0,0,1.5266-1.5466l1.4669-1.72s.0723.073.1913.1838A9.27732,9.27732,0,0,0,111.26059,102.99251Zm-18.2778,23.4086c.0135.0134.0278.0252.0412.0392C93.01059,126.42641,92.99629,126.41431,92.98279,126.40111Zm-.28-.2263.0205.0131Zm.583.5923c-.0154-.023-.0322-.0419-.0479-.0639C93.25349,126.72551,93.27039,126.74381,93.28579,126.76711Z"/></clipPath><linearGradient id="Nueva_muestra_de_degradado" x1="251.83112" y1="341.74661" x2="353.86531" y2="341.74661" gradientUnits="userSpaceOnUse"><stop offset="0" stop-color="#ad286b"/><stop offset="1" stop-color="#45296b"/></linearGradient></defs><g id="Capa_2" data-name="Capa 2"><g id="BACKGROUND"><ellipse class="cls-2" cx="301.30383" cy="180.45233" rx="301.30382" ry="180.45238"/></g><g id="OBJECTS"><path class="cls-3" d="M259.82019,79.71761c.3943-7.7231-.9379-13.6154-4.1925-18.5434-4.7123-7.1375-11.6758-12.6501-21.2838-16.8518-7.7493-3.3892-16.439-5.6341-27.3465-7.0639-10.494-1.3758-19.8324-.4191-28.5489,2.9251-4.1708,1.6-10.1508,4.4124-13.9148,10.3329-3.6858,5.7976-4.7276,11.2213-3.1846,16.5808a10.31541,10.31541,0,0,0,2.9045,4.9829,12.98079,12.98079,0,0,0,6.1995,3.1365,44.81545,44.81545,0,0,0,9.7989.1826c1.3776-.08,2.6792-.1559,3.9547-.1596.351-.0012.7025-.0057,1.0544-.0103,2.6079-.0347,5.0713-.0677,7.3194,1.3335a4.45393,4.45393,0,0,1,2.0602,3.1657,3.73148,3.73148,0,0,1-.9837,3.0966c-.7059.748-1.4797,1.4712-2.2283,2.1706-.4222.3948-.8446.7895-1.2596,1.1916-.4847.4703-.9867.9274-1.4896,1.385-2.0579,1.8729-4.1854,3.8096-5.1932,6.6921-.9515,2.7215-.7199,5.1708.67,7.0829q.29625.4068.6144.7914a16.67227,16.67227,0,0,0,7.7711,5.17,103.52319,103.52319,0,0,0,11.6779,2.9014l.5189.1077a71.72718,71.72718,0,0,0,14.176,1.6121,57.26408,57.26408,0,0,0,12.3342-1.4268,41.07613,41.07613,0,0,0,17.9879-8.5988C255.85409,96.85361,259.31619,89.596,259.82019,79.71761Zm-52.7717,19.8793a11.18464,11.18464,0,0,1-5.3148,1.4785,16.46668,16.46668,0,0,1-4.0586-.393q-.6654-.147-1.3234-.3452a10.59172,10.59172,0,0,1-4.0139-2.318,1.37589,1.37589,0,0,1-.4548-1.3933,3.12205,3.12205,0,0,1,.735-1.6389c.2794-.2984.5617-.5988.8552-.8861a9.87108,9.87108,0,0,1,.9216-.808,19.82139,19.82139,0,0,1,5.3892-2.8181c1.5866-.5672,3.2114-1.0373,4.839-1.4778a13.32971,13.32971,0,0,1,3.9956-.3843,6.1839,6.1839,0,0,1,2.1482.4463,1.78651,1.78651,0,0,1,1.1695,1.4368,6.36214,6.36214,0,0,1,.1317,1.5475c-.0288.3373-.075.6677-.1296.9946a9.74745,9.74745,0,0,1-.3692,1.4922,7.75413,7.75413,0,0,1-.8617,1.8054,7.39424,7.39424,0,0,1-.9899,1.2057A12.95072,12.95072,0,0,1,207.04849,99.59691Z"/><path class="cls-4" d="M210.86089,48.60921a6.43311,6.43311,0,0,0-1.5052-2.8394,6.95889,6.95889,0,0,0-6.5266-2.4098,5.17246,5.17246,0,0,0-4.342,6.1743,18.11488,18.11488,0,0,0,.6031,1.9787,9.32066,9.32066,0,0,0,2.1774,2.4125,6.771,6.771,0,0,0,5.2664,1.3358A5.28835,5.28835,0,0,0,210.86089,48.60921Z"/><path class="cls-1" d="M205.14119,48.73341a3.11607,3.11607,0,0,1-4.0539-1.214,1.06463,1.06463,0,0,1,.2058-1.5022,3.02758,3.02758,0,0,1,4.9307,1.0319.8693.8693,0,0,1-.0527.7454A2.12548,2.12548,0,0,1,205.14119,48.73341Z"/><path class="cls-5" d="M225.47029,52.307a6.53683,6.53683,0,0,0-1.7701-3.8245,6.82749,6.82749,0,0,0-6.0566-2.3383,5.16952,5.16952,0,0,0-4.575,5.6505,6.736,6.736,0,0,0,.8043,2.728,7.01128,7.01128,0,0,0,6.2077,3.8276A5.25688,5.25688,0,0,0,225.47029,52.307Z"/><path class="cls-1" d="M216.59119,49.51971a1.13769,1.13769,0,0,1-.1002-1.1776.86959.86959,0,0,1,.5531-.5083,3.02963,3.02963,0,0,1,1.8976.0554,5.02415,5.02415,0,0,1,1.98,1.6064.88535.88535,0,0,1-.386,1.4652A2.8748,2.8748,0,0,1,216.59119,49.51971Z"/><path class="cls-6" d="M238.85759,60.05221a7.24838,7.24838,0,0,0-4.9584-7.7664,5.26466,5.26466,0,0,0-6.96,4.7438,7.17982,7.17982,0,0,0,.8573,4.0083,6.96854,6.96854,0,0,0,4.0551,3.4342A5.31776,5.31776,0,0,0,238.85759,60.05221Z"/><path class="cls-1" d="M230.92139,55.49511a.88739.88739,0,0,1,.5304-1.4327,3.14667,3.14667,0,0,1,2.9621.8866,2.17389,2.17389,0,0,1,.2292.5952,3.27442,3.27442,0,0,0,.2339.7316c.4586.7179.0772,1.0939-.7065,1.2371a1.97153,1.97153,0,0,1-1.0268-.0851A5.73224,5.73224,0,0,1,230.92139,55.49511Z"/><path class="cls-7" d="M195.24669,47.60251a7.20771,7.20771,0,0,0-8.2836-2.7056,5.23737,5.23737,0,0,0-3.0223,7.496,7.20154,7.20154,0,0,0,8.3892,3.5618A5.34518,5.34518,0,0,0,195.24669,47.60251Z"/><path class="cls-1" d="M191.03239,50.01351a4.24656,4.24656,0,0,1-4.7405-.5474,1.2316,1.2316,0,0,1-.2006-1.739,2.56632,2.56632,0,0,1,2.5531-1.1785,5.40168,5.40168,0,0,1,2.959,1.1788c.7691.6624.8075,1.2795.0356,1.9108A4.08023,4.08023,0,0,1,191.03239,50.01351Z"/><path class="cls-8" d="M184.968,57.37051a7.20568,7.20568,0,0,0-8.1505-4.6847,5.50075,5.50075,0,0,0-2.4424,1.1502,5.27628,5.27628,0,0,0-1.1707,6.7141,7.20837,7.20837,0,0,0,7.312,3.8927A5.29663,5.29663,0,0,0,184.968,57.37051Z"/><path class="cls-1" d="M179.17809,57.98651a3.85716,3.85716,0,0,1-4.348-.537.97383.97383,0,0,1-.145-1.0746,3.32861,3.32861,0,0,1,3.5553-1.7079,2.99022,2.99022,0,0,1,1.9593,1.715.675.675,0,0,1-.1012.7295C179.77279,57.44861,179.51379,57.86861,179.17809,57.98651Z"/><path class="cls-9" d="M250.42519,70.80851a7.204,7.204,0,0,0-5.3586-8.3001,5.21891,5.21891,0,0,0-6.4346,4.4534,6.90855,6.90855,0,0,0,.8018,4.3952,6.71718,6.71718,0,0,0,4.4108,3.5537A5.26676,5.26676,0,0,0,250.42519,70.80851Z"/><path class="cls-1" d="M247.08069,67.62641a3.37555,3.37555,0,0,1-4.3196-1.3154.90219.90219,0,0,1,.4236-1.3892,1.84393,1.84393,0,0,1,1.1157-.2454,4.663,4.663,0,0,1,3.2493,1.889.61863.61863,0,0,1-.1932.8971C247.25109,67.53551,247.13539,67.59411,247.08069,67.62641Z"/><path class="cls-5" d="M407.19148,100.19071q2.5032-7.4178,5.0198-14.831a.36212.36212,0,0,1,.0955-.1276,2.14171,2.14171,0,0,1,.1972-.1437c.3039.0389.6737.087,1.0437.1335a29.49118,29.49118,0,0,0,24.8366-7.8745,32.01881,32.01881,0,0,0,6.8249-38.1825,27.26512,27.26512,0,0,0-16.2572-13.8667c-.8172-.2705-1.6365-.5343-2.4515-.8119a27.24879,27.24879,0,0,0-16.36539-.4043,28.93746,28.93746,0,0,0-11.25551,6.1067,31.64724,31.64724,0,0,0-10.4117,16.5279,31.28943,31.28943,0,0,0,3.2455,24.0049,29.367,29.367,0,0,0,11.3329,10.9944c.411.2324.8182.4719,1.21.6983a3.25319,3.25319,0,0,1-.0603.5697q-2.2566,7.0746-4.5298,14.1446a6.31081,6.31081,0,0,1-.4179.8462,14.43587,14.43587,0,0,1-1.5415-.2519l.0262.0356c.7156.1052,1.80511.3307,3.048.6465q.089.126.1775.2521.21975.05655.43961.113.22153.05625.44259.1127c.7985-.0484,1.428.565,2.2141.5652q.4194.2358.8392.4717a.41782.41782,0,0,1,.4398.1067l.4448.0524a.31061.31061,0,0,1,.08851-.0516c.46779.1847.92489.3748,1.35079.5772A1.35562,1.35562,0,0,1,407.19148,100.19071Z"/><path class="cls-1" d="M432.59278,70.44781a21.425,21.425,0,0,0,7.2236-16.9465,19.75208,19.75208,0,0,0-2.0166-8.3943c-.06669-.6994-.787-1.0862-.8535-1.7859q-.254-.394-.5077-.7885l-.0001.0001a16.34684,16.34684,0,0,0-2.3085-3.0756,19.27123,19.27123,0,0,0-6.3011-4.8869,26.446,26.446,0,0,0-5.4691-1.871,16.67066,16.67066,0,0,0-4.4675-.3975,24.4379,24.4379,0,0,0-10.9927,3.2415,19.66794,19.66794,0,0,0-4.9063,4.1129,20.87876,20.87876,0,0,0-5.3956,11.6236,23.66708,23.66708,0,0,0,.0668,6.8923,23.23953,23.23953,0,0,0,3.1657,8.5333,22.57652,22.57652,0,0,0,5.1376,5.7012,13.63631,13.63631,0,0,0,4.0501,2.5555,11.458,11.458,0,0,0,4.7273,1.5198A22.42628,22.42628,0,0,0,432.59278,70.44781Z"/><path class="cls-10" d="M439.78458,53.08311a19.56945,19.56945,0,0,0-1.9848-7.9761c-.06669-.6994-.787-1.0862-.8535-1.7859q-.254-.394-.5077-.7885l-.0001.0001a16.34684,16.34684,0,0,0-2.3085-3.0756c-.2422-.2829-.5052-.5374-.7592-.804l-36.97369,16.4892a22.57673,22.57673,0,0,0,.26739,3.0297,23.23953,23.23953,0,0,0,3.1657,8.5333,19.84919,19.84919,0,0,0,1.552,2.1445Z"/><path class="cls-3" d="M400.95188,133.82971a50.28052,50.28052,0,0,0,6.2701-18.705,18.46538,18.46538,0,0,0-.0825-5.6274c-.0616-.359-.0739-.7267-.1112-1.1169.709-.139,1.3462-.2351,1.9681-.3925a1.878,1.878,0,0,0,1.5223-1.6728c.1276-.9056.2755-1.8088.429-2.7105a1.01625,1.01625,0,0,0-.4728-1.1126c-.7237-.4579-1.4626-.8925-2.2035-1.3226-.3591-.2085-.7368-.3848-1.05129-.5475l-.00221-.0176c-.7076-.3361-1.48879-.6459-2.2895-.9363-.9884-.3154-1.9365-.6192-2.8575-.9171a38.39194,38.39194,0,0,0-4.3379-.9925l-.0262-.0356a5.63564,5.63564,0,0,0-3.0253-.0174c-.4929.9262-.9809,1.8819-1.5049,2.8174a1.95541,1.95541,0,0,0,.2664,2.3869c.3719.4525.7713.8821,1.2283,1.4015a3.41467,3.41467,0,0,1-.366.5244,20.838,20.838,0,0,0-4.6787,6.5119,52.35753,52.35753,0,0,0-4.7991,14.3393,34.77614,34.77614,0,0,0-.40739,9.4848,12.796,12.796,0,0,0,1.09809,4.1934,6.86615,6.86615,0,0,0,2.10491,2.6156,4.27407,4.27407,0,0,0,3.34449.8362,9.39276,9.39276,0,0,0,4.9654-2.4981A28.65274,28.65274,0,0,0,400.95188,133.82971Zm3.3023-26.5096c.0017-.0051.00791-.0101.0094-.015l-.0063.0209Zm-.0005-.1252.0399.0094-.0237.0795A.29343.29343,0,0,0,404.25368,107.19491Z"/><path class="cls-8" d="M397.49058,105.383c.0979-.1834.1398-.3884.2414-.4242a1.02586,1.02586,0,0,1,.6117-.0301c1.8363.5876,3.6658,1.195,5.4961,1.8006a.55181.55181,0,0,1,.2744.1563.63091.63091,0,0,1,.1572.4066.48223.48223,0,0,1-.3079.3046,1.54281,1.54281,0,0,1-.6319-.0218,24.53149,24.53149,0,0,1-5.1784-1.719A4.46589,4.46589,0,0,1,397.49058,105.383Z"/><path class="cls-9" d="M369.107,303.72831c-.3952,1.0205-.7086,1.6965-.9233,2.4052a44.32709,44.32709,0,0,1-12.53439,19.8964,43.43869,43.43869,0,0,1-16.9155,10.1235,30.21573,30.21573,0,0,1-9.9066,1.6312c-1.3908-.0523-2.7857-.0405-4.1772-.0026a42.5315,42.5315,0,0,1-13.0602-2.0797,47.65589,47.65589,0,0,1-9.6255-3.8379,3.44166,3.44166,0,0,0-3.495.0085,56.82219,56.82219,0,0,1-17.8125,5.5622,31.15283,31.15283,0,0,1-3.4148.3245c-1.8827.0537-3.7678.0048-5.6517.0184a33.88567,33.88567,0,0,1-14.9448-3.6365,44.77467,44.77467,0,0,1-10.5824-6.9275,45.23384,45.23384,0,0,1-10.2872-12.6237,38.81809,38.81809,0,0,1-3.9002-9.6442,5.20805,5.20805,0,0,0-.5081-1.0172c-.3366.2207-.6859.3259-.8344.5663-1.8279,2.9559-4.7269,4.4725-7.5945,5.8879a31.07366,31.07366,0,0,1-12.5397,3.3278c-.4875.02-.9686.188-1.4566.2203a21.96143,21.96143,0,0,1-3.9121.1674,90.81723,90.81723,0,0,1-13.0779-2.1857,45.99478,45.99478,0,0,1-13.4408-6.1298,62.0039,62.0039,0,0,1-12.7849-11.5258,73.75581,73.75581,0,0,1-14.665-29.8356,32.19233,32.19233,0,0,1-.9956-8.626c.0145-.3413.0174-.6848-.0007-1.0258a49.20419,49.20419,0,0,1,1.6545-14.1971c.7624-3.1665.8248-2.9897-1.7168-4.7791-2.9191-2.0549-5.8648-4.0753-8.7025-6.248a58.0698,58.0698,0,0,1-9.9081-9.892,63.09391,63.09391,0,0,1-7.2294-11.2614,66.52762,66.52762,0,0,1-6.602-21.0956c-.676-5.0359-.4371-10.071-.3416-15.1007a38.61914,38.61914,0,0,1,1.3654-8.3195,54.99,54.99,0,0,1,6.7102-15.8815c4.1249-6.7078,9.9826-11.1975,16.8999-14.3253a47.39,47.39,0,0,1,12.2818-3.5286,1.85044,1.85044,0,0,1,.2427-.0388c4.9079-.1144,9.8252-.4502,14.7157.194,5.2751.6948,10.5365,1.5038,15.7982,2.3037,3.4017.5173,6.7868,1.1537,10.1906,1.6524,3.563.5218,7.148.8807,10.708,1.4214,5.7109.8673,11.4467.3308,17.1703.4216a20.39637,20.39637,0,0,0,3.8928-.4975c4.3672-.7888,8.6957-1.7513,12.6329-3.9982a43.85083,43.85083,0,0,0,4.3609-2.8636,5.3807,5.3807,0,0,0,1.5959-1.889,8.3715,8.3715,0,0,1,3.0001-3.3031,56.94821,56.94821,0,0,1,11.6213-6.0572,113.20773,113.20773,0,0,1,25.0262-6.3094,51.41842,51.41842,0,0,1,9.0459-.7152c2.6177.0995,5.2438.0903,7.8625.006a103.8105,103.8105,0,0,1,42.28,9.0511,65.40073,65.40073,0,0,1,7.8871,4.685,6.05176,6.05176,0,0,1,1.9147,2.2712,8.63267,8.63267,0,0,0,3.0173,3.2878,36.11465,36.11465,0,0,0,12.476,5.2169,42.42317,42.42317,0,0,0,10.7196,1.1707c1.7997-.0696,3.605-.0561,5.40561-.0032a82.74428,82.74428,0,0,0,11.97879-.9045c6.5125-.7561,12.9584-1.9499,19.4226-3.0354,4.6847-.7866,9.3919-1.4279,14.0922-2.11a15.98894,15.98894,0,0,1,2.2061-.1119c2.6212-.0134,5.243.0307,7.8636-.0156a37.55482,37.55482,0,0,1,16.2011,3.6247,47.10239,47.10239,0,0,1,11.8805,7.624,28.21093,28.21093,0,0,1,4.307,5.2397,52.598,52.598,0,0,1,8.9369,23.8621,76.0781,76.0781,0,0,1,.30521,13.0486,51.96376,51.96376,0,0,1-2.08071,12.0852,70.85038,70.85038,0,0,1-6.671,16.2123c-1.5837,2.7142-3.4802,5.1708-5.2848,7.7076a37.606,37.606,0,0,1-5.3184,6.0223,88.51983,88.51983,0,0,1-12.81009,9.905c-3.70451,2.2983-3.14311,2.1439-2.30671,5.8571a55.75658,55.75658,0,0,1,1.6175,15.7447,47.17382,47.17382,0,0,1-2.019,11.0502,83.4867,83.4867,0,0,1-3.5929,10.0867c-.8082,1.7708-1.715,3.5007-2.6853,5.1812a68.99264,68.99264,0,0,1-12.4491,16.4226c-7.6368,7.0896-16.3734,11.873-26.578,13.4523q-3.76123.58215-7.54349,1.0108a12.64736,12.64736,0,0,1-2.94371.0199,55.43214,55.43214,0,0,1-11.7936-2.3424A24.40192,24.40192,0,0,1,369.107,303.72831Z"/><path class="cls-8" d="M227.77059,267.90951q0-6.2658.0009-12.5315c.0001-.4095.025-.8193.0167-1.2285-.0277-1.3641-.143-1.5437-1.4205-1.8869-2.135-.5736-4.2083-1.3211-6.2786-2.0905a64.72458,64.72458,0,0,1-13.0117-6.8133,204.4281,204.4281,0,0,1-17.3822-12.797c-3.5369-2.9074-6.905-6.0195-10.302-9.0956-6.2579-5.6668-12.17-11.6803-18.0356-17.7369a171.93923,171.93923,0,0,1-14.4595-16.675c-1.2222-1.6382-2.5481-3.2029-3.7067-4.884-1.1114-1.6126-2.075-3.3278-3.0845-5.0094a2.34029,2.34029,0,0,1-.3279-.9088c-.1829-1.6217-.4169-3.2448-.4706-4.8728q-.1377-4.17345-.0739-8.3532a38.69207,38.69207,0,0,1,5.3564-19.1527,20.08211,20.08211,0,0,1,2.289-3.1815,42.11365,42.11365,0,0,1,13.245-10.3828,26.331,26.331,0,0,1,5.0403-1.9045,11.73276,11.73276,0,0,0,3.6793-1.3052,1.09068,1.09068,0,0,1,1.535.1969c3.6235,3.7996,7.84,6.9278,11.7611,10.3906q4.69065,4.14255,9.3936,8.2713c3.6259,3.1837,7.27,6.347,10.8825,9.546,2.0825,1.844,4.1095,3.7507,6.1775,5.6115,2.7967,2.5169,5.6134,5.0116,8.4124,7.5259,1.765,1.5854,3.4753,3.2278,5.2658,4.7894,2.9592,2.5809,5.7278,5.3795,8.672,7.9784,2.9485,2.6027,5.7581,5.346,8.586,8.0732.2355.2272.4801.4461.7337.6526,1.5382,1.2527,1.4998,1.1915,3.2236.0436a72.9316,72.9316,0,0,1,9.4276-5.2405c6.8721-3.2323,14.1912-4.9088,21.5881-6.2733,3.2021-.5906,6.4809-.7608,9.7205-1.1561,7.1792-.8759,14.3876-.3989,21.5835-.4894,1.0644-.0134,2.1299.0488,3.194.029a83.72325,83.72325,0,0,1,10.7321.8633,118.62744,118.62744,0,0,1,12.5467,2.1065,70.7545,70.7545,0,0,1,20.747,7.9725,27.13611,27.13611,0,0,1,4.4914,2.98c.53779.4796.91129.4091,1.5225-.0922.18959-.1553.36219-.3316.541-.5002,3.63219-3.426,7.24119-6.877,10.90389-10.2699,2.5196-2.3339,5.1159-4.5849,7.6734-6.8778,1.7665-1.5838,3.4564-3.2469,5.26971-4.7856,2.49389-2.1163,4.82429-4.424,7.26309-6.6069,3.839-3.4364,7.7124-6.8343,11.5663-10.2542,1.7744-1.5747,3.5228-3.1791,5.3081-4.7413q5.44665-4.76625,10.9223-9.4994c3.3395-2.8901,6.7049-5.7507,10.0291-8.6583a19.45372,19.45372,0,0,0,1.4007-1.6897c.3667-.4049.8336-.552,1.265-.0788a3.55757,3.55757,0,0,0,1.92941.9818,38.00924,38.00924,0,0,1,16.02729,8.6414,32.22108,32.22108,0,0,1,7.8091,9.9638,39.77061,39.77061,0,0,1,3.3594,10.7224c.4436,2.3454.284,4.73.7838,7.0592a6.19161,6.19161,0,0,1,.001,2.446,38.29025,38.29025,0,0,0-.4044,6.6067,10.955,10.955,0,0,1-1.6359,5.5333,104.15078,104.15078,0,0,1-8.0934,11.0882,218.40317,218.40317,0,0,1-16.8797,18.4809q-5.04285,5.0349-10.12419,10.0314c-2.73621,2.7059-5.70531,5.1529-8.56361,7.7229-2.4357,2.1899-4.9147,4.3212-7.4826,6.3501a162.023,162.023,0,0,1-21.413,14.7233,60.881,60.881,0,0,1-12.5331,4.9353c-.2346.0691-.4855.0826-.72.1521a1.19738,1.19738,0,0,0-1.0044,1.2189c.0582,2.2897.0712,4.5838.2399,6.8661.0661.893.1873,1.7858.1895,2.6853.0076,3.1946.1935,6.4025-.0368,9.58-.278,3.8394-.1766,7.692-.5028,11.5149a99.71138,99.71138,0,0,1-1.80809,13.3332,60.57284,60.57284,0,0,1-4.56561,13.6912,44.428,44.428,0,0,1-7.6862,11.0342A58.222,58.222,0,0,1,338.721,335.435c-1.5758.6856-3.0739,1.5596-4.6722,2.1811a60.36407,60.36407,0,0,1-13.2541,3.4552,62.96244,62.96244,0,0,1-9.2857.6836c-4.661-.0224-9.3066.5932-13.9774.3811-4.2479-.1931-8.5032-.2521-12.7462-.5158a64.94285,64.94285,0,0,1-16.7665-3.3044c-.851-.287-1.6887-.6209-2.5139-.9761a92.81459,92.81459,0,0,1-14.1688-7.274,48.308,48.308,0,0,1-13.8519-13.3881,51.2121,51.2121,0,0,1-6.77-15.1761,113.69747,113.69747,0,0,1-2.4173-12.7441c-.0382-.2413-.0234-.4907-.0457-.7353A187.79886,187.79886,0,0,1,227.77059,267.90951Z"/><path d="M299.72849,338.61391a4.15588,4.15588,0,0,1-.2908-2.3844c-.0194-5.4923-.0133-10.9845-.0196-16.4768q-.0534-46.35615-.1041-92.712a26.02327,26.02327,0,0,1,.1438-2.9372c.0236-.209.4383-.5106.6823-.5198a1.15647,1.15647,0,0,1,.762.4588,1.27963,1.27963,0,0,1,.1121.7136c.0159.7375.0166,1.4753.016,2.213q-.0378,54.34875-.0802,108.6971a17.56976,17.56976,0,0,1-.0954,2.4513C300.77039,338.70831,300.30309,338.86611,299.72849,338.61391Z"/><path class="cls-1" d="M353.38279,185.25521c-.9881-.7261-2.0572-1.3417-3.086-2.0126-10.1134-6.5956-21.2876-9.0455-33.2235-8.5176-.1935.0085-.3907.0145-.5853.0305l-.0798-.0533-32.8292.0471.0017.0067c-.1324-.0103-.2646-.0262-.397-.0288a75.597,75.597,0,0,0-12.4894.6199c-8.6985,1.2778-16.4245,4.8596-23.5873,9.8035-1.4999,1.0353-1.6352,1.9883-.6363,3.5496a14.03978,14.03978,0,0,0,3.5931,3.6629,41.60338,41.60338,0,0,0,7.8274,4.5816c4.1843,1.863,8.4146,3.6222,12.6246,5.4272.5735.246,1.2383.357,1.6425,1.0829a12.18611,12.18611,0,0,1-.9724,1.0682q-1.66545,1.4526-3.3754,2.8544c-2.5539,2.0982-2.5457,2.6244.2561,4.4097a140.76954,140.76954,0,0,0,14.6673,7.9521,88.2012,88.2012,0,0,1,9.4669,5.1822c.2808.1805.5615.3639.8535.5237l.0077.0093,7.2265,4.6818,8.0783-5.3486a94.20739,94.20739,0,0,1,8.2321-4.5869c4.3255-2.1451,8.5881-4.419,12.8552-6.6798,1.155-.6119,2.2421-1.3563,3.3359-2.0771a7.85691,7.85691,0,0,0,1.3153-1.0911,1.13406,1.13406,0,0,0-.0044-1.5648,18.325,18.325,0,0,0-1.4553-1.3157c-1.1854-1.0086-2.3909-1.9934-3.5643-3.0155a11.73117,11.73117,0,0,1-1.0046-1.1409,9.98056,9.98056,0,0,1,2.7208-1.3424c4.2007-1.8318,8.431-3.598,12.6028-5.4935a37.173,37.173,0,0,0,7.3329-4.4622,12.68472,12.68472,0,0,0,3.3064-3.5984C354.84619,187.03831,354.69939,186.22251,353.38279,185.25521Z"/><path class="cls-11" d="M524.78318,105.33041a4.457,4.457,0,0,0-.2963-.3918.88378.88378,0,0,1-.0554-1.1218,26.47242,26.47242,0,0,0,1.3254-2.3448,5.241,5.241,0,0,0,.7364-2.8184c-.3463-2.4667-1.0794-4.7611-3.2027-6.3823-1.0524-.8037-2.2968-1.2341-3.5839-2.025.2372-.785.3878-1.4219.621-2.0269a5.01313,5.01313,0,0,0-.1917-3.8256,6.847,6.847,0,0,0-3.1598-3.6103,16.53978,16.53978,0,0,0-4.6484-1.4805c-.9438-.1931-1.0873-.3724-.8214-1.3494a5.736,5.736,0,0,0,.0329-3.1344,8.09079,8.09079,0,0,0-5.7543-5.86,16.20753,16.20753,0,0,0-10.35489.4753,15.04,15.04,0,0,0-9.10321,8.3916c-.409.9242-.4407.9899-1.4571.7419a13.46857,13.46857,0,0,0-7.9375.7096,25.01676,25.01676,0,0,0-10.3815,7.5328c-3.4572,3.9931-4.8465,8.6555-5.27969,13.6976a27.181,27.181,0,0,0,2.64669,13.5817,37.154,37.154,0,0,0,10.3971,13.472,33.65691,33.65691,0,0,0,12.1531,6.6939,15.15645,15.15645,0,0,0,8.1989.5589,42.15939,42.15939,0,0,0,4.2253-1.2417c3.3071-1.2317,6.0887-3.1592,7.6591-6.4533a1.81146,1.81146,0,0,1,2.1226-1.2078,7.97542,7.97542,0,0,1,1.21821.1149c2.15759.7039,4.19229.0804,6.25009-.4795a10.82321,10.82321,0,0,0,4.3357-2.2027,18.49959,18.49959,0,0,0,4.93121-6.3497C527.21548,112.99821,527.29468,109.09451,524.78318,105.33041Z"/><path class="cls-12" d="M496.21258,90.11391c.772.0756,1.13551-.4358,1.5783-.7693q5.1996-3.9138,10.3857-7.8459a5.63873,5.63873,0,0,1,1.0186-.6737.74973.74973,0,0,1,.6624.0878c.3091.2684.1777.6102-.1004.8283q-4.05855,3.18165-8.1346,6.3407c-1.4886,1.1527-2.9809,2.302-4.4994,3.4144a2.254,2.254,0,0,0-.9645,1.8616,11.01127,11.01127,0,0,1-2.5441,6.5231,8.98033,8.98033,0,0,1-7.2936,3.4242,6.91243,6.91243,0,0,1-5.2328-2.3193,9.453,9.453,0,0,1-2.66909-6.4274c-.01631-1.1444.05969-2.292.14119-3.4347a3.70771,3.70771,0,0,1,.31981-1.1684.45174.45174,0,0,1,.60159-.2513c.1271.0564.3051.1898.3111.2967.0362.6484.0411,1.2993.0349,1.9491-.0103,1.0631-.0967,2.129-.04359,3.1884a7.6769,7.6769,0,0,0,2.31589,5.0214c2.0075,2.0745,4.4587,2.2682,7.0326,1.3557a8.38016,8.38016,0,0,0,5.4924-6.7157c1.0959-5.4125-.9436-9.7727-4.9082-13.3713-.4189-.3804-.9485-.6385-1.3706-1.016-.1146-.1024-.0687-.4478-.0074-.6556.0287-.097.2682-.182.4141-.185a2.13531,2.13531,0,0,1,1.31021.5939,15.64011,15.64011,0,0,1,5.53159,7.9254C495.81738,88.77511,496.01588,89.467,496.21258,90.11391Z"/><path class="cls-12" d="M500.13438,104.10791a6.35719,6.35719,0,0,1-4.6334-1.6838,1.51238,1.51238,0,0,1-.527-1.0632.6123.6123,0,0,1,.1892-.4159.50147.50147,0,0,1,.4337-.1028,10.90689,10.90689,0,0,1,1.0025.6748,6.03171,6.03171,0,0,0,6.4814.477,33.44929,33.44929,0,0,0,4.8966-2.7703,77.011,77.011,0,0,0,8.1811-6.2378c.30061-.2761.62461-.5274.9467-.7784.6711-.5224,1.337-.6376,1.4373-.2582.1634.6169-.3441.8492-.6835,1.1631a92.25493,92.25493,0,0,1-10.8564,8.3799,14.21369,14.21369,0,0,1-5.8216,2.4561C500.77828,104.011,500.37509,104.07121,500.13438,104.10791Z"/><path class="cls-12" d="M509.41548,112.84321a11.53507,11.53507,0,0,1-6.9605-1.9522,4.92981,4.92981,0,0,1-2.3661-3.543.51636.51636,0,0,1,.3473-.5644.43553.43553,0,0,1,.6087.2368,5.6988,5.6988,0,0,0,3.4205,3.6,10.45633,10.45633,0,0,0,6.2049.7725,22.18846,22.18846,0,0,0,8.9764-4.2592c.7173-.5356,1.4353-1.0713,2.1751-1.5745a.43729.43729,0,0,1,.6336.1523,1.13428,1.13428,0,0,1,.0589.6659c-.0241.1368-.183.2646-.3059.3671-3.0299,2.5283-6.2579,4.7122-10.1646,5.6522C511.01868,112.64321,509.96068,112.75291,509.41548,112.84321Z"/><path class="cls-12" d="M504.30128,118.84651a9.24923,9.24923,0,0,1,1.3975-4.4349.51271.51271,0,0,1,.6349-.2221.57875.57875,0,0,1,.3816.7771,7.7421,7.7421,0,0,1-.43319,1.1437,6.98418,6.98418,0,0,0,.22129,6.8089c.2275.4179.6225.8103.25371,1.3272-.233.3265-.86061-.0432-1.28611-.7523A8.57353,8.57353,0,0,1,504.30128,118.84651Z"/><path class="cls-11" d="M138.00889,95.67961a13.96758,13.96758,0,0,0-.71-3.0853c-2.5712-4.8666-5.888-9.0604-10.7583-11.7916-3.4904-1.9576-7.1829-3.1427-11.2729-2.1823-.8628.2025-1.1811.0055-1.5011-.8332a13.45068,13.45068,0,0,0-5.5813-6.6291,17.88944,17.88944,0,0,0-12.22-2.6346,8.15838,8.15838,0,0,0-6.7601,4.6914,6.558,6.558,0,0,0-.6303,4.7351c.2562.8897.0035,1.1432-.9045,1.3538-.716.1659-1.458.2425-2.1546.4647-3.0844.984-5.3432,2.7569-5.9013,6.1875a7.29808,7.29808,0,0,0,.4571,3.109c.3044,1.163.3239,1.2456-.719,1.6995a9.21246,9.21246,0,0,0-3.7268,2.7233c-1.9853,2.5538-2.7559,5.5087-1.0504,8.6628a6.60818,6.60818,0,0,0,.7522,1.2605,1.3854,1.3854,0,0,1-.0107,1.9787c-.0983.1301-.1732.2777-.2674.4114a10.16324,10.16324,0,0,0-1.3573,8.4443,15.1,15.1,0,0,0,2.738,5.6948,14.19784,14.19784,0,0,0,6.1328,5.1158c2.5178,1.0089,5.1173,1.7285,7.8732.918a5.52728,5.52728,0,0,1,.733-.0502,1.97637,1.97637,0,0,1,2.3441,1.2428,11.9371,11.9371,0,0,0,3.8253,4.3755,20.5259,20.5259,0,0,0,7.8699,3.2107,11.59237,11.59237,0,0,0,4.3701.39,30.99693,30.99693,0,0,0,11.8627-4.3991,40.23314,40.23314,0,0,0,10.9314-10.099,30.53092,30.53092,0,0,0,6.4364-18.1637A20.68759,20.68759,0,0,0,138.00889,95.67961Z"/><path class="cls-12" d="M103.76019,90.11541a4.51879,4.51879,0,0,0,.6683-1.8231,15.83438,15.83438,0,0,1,5.2331-7.834,3.60819,3.60819,0,0,1,1.4528-.8776.61831.61831,0,0,1,.6697.1745.52666.52666,0,0,1-.1716.8232,13.58365,13.58365,0,0,0-5.9873,8.3647,10.89774,10.89774,0,0,0,1.7686,9.9978,7.56215,7.56215,0,0,0,6.147,3.0487,5.88309,5.88309,0,0,0,4.906-2.3233,8.93444,8.93444,0,0,0,1.9617-6.4055c-.0626-.9782-.1655-1.9539-.221-2.9323a.58591.58591,0,0,1,.551-.6726.73477.73477,0,0,1,.667.616,2.24392,2.24392,0,0,1,.0953.4786c.0579,1.3065.1483,2.6136.1493,3.9205a9.01838,9.01838,0,0,1-1.9278,5.4533,7.48964,7.48964,0,0,1-8.4617,2.8682,9.33958,9.33958,0,0,1-5.2802-3.7609,10.56194,10.56194,0,0,1-2.0107-5.4571,3.433,3.433,0,0,0-1.6366-2.7744c-3.8522-2.9012-7.6563-5.8662-11.4731-8.8142-.7235-.5588-.9798-1.136-.6311-1.328.5475-.3015.9259.0779,1.3029.3608q5.296,3.9738,10.583,7.9598C102.62049,89.55791,103.01379,90.15311,103.76019,90.11541Z"/><path class="cls-12" d="M100.20469,104.11061a12.85191,12.85191,0,0,1-3.0502-.5893,17.20685,17.20685,0,0,1-4.3581-2.2105,93.16336,93.16336,0,0,1-10.4541-8.1126,7.01656,7.01656,0,0,1-.8167-.8975c-.0544-.0722.0381-.313.1288-.4209.0926-.1103.2878-.2395.4003-.211a3.9597,3.9597,0,0,1,1.5993,1.0899,82.89113,82.89113,0,0,0,8.3726,6.4002,36.28959,36.28959,0,0,0,4.8892,2.7914,6.119,6.119,0,0,0,6.6975-.5159,3.91008,3.91008,0,0,1,.794-.5555.699.699,0,0,1,.6366.1517.76679.76679,0,0,1,.0475.6697,3.66594,3.66594,0,0,1-1.5266,1.5466A7.55581,7.55581,0,0,1,100.20469,104.11061Z"/><path class="cls-12" d="M91.37509,112.85311a16.3579,16.3579,0,0,1-5.645-1.1873,28.2266,28.2266,0,0,1-7.8325-4.927,1.546,1.546,0,0,1-.4086-.5893.51811.51811,0,0,1,.1209-.4238c.0958-.1131.31-.254.4062-.2157a5.0478,5.0478,0,0,1,1.0546.5543c1.1302.802,2.2105,1.6778,3.3676,2.4375a19.36478,19.36478,0,0,0,7.1992,2.9266,10.25743,10.25743,0,0,0,7.0476-1.3655,5.13431,5.13431,0,0,0,2.3375-3.0233.46441.46441,0,0,1,.6031-.2707.52421.52421,0,0,1,.3465.5624,4.147,4.147,0,0,1-1.565,2.9387,10.04376,10.04376,0,0,1-5.0176,2.3776A15.52777,15.52777,0,0,1,91.37509,112.85311Z"/><path class="cls-12" d="M95.86529,119.23211a8.39557,8.39557,0,0,1-1.7587,4.9315.53955.53955,0,0,1-.6477.1922c-.3719-.1695-.3608-.4879-.2454-.8078a2.7835,2.7835,0,0,1,.2516-.414c.0814-.1403.1544-.2855.2303-.4292a7.00257,7.00257,0,0,0,.2514-6.3284,3.051,3.051,0,0,1-.5152-1.8336.54934.54934,0,0,1,.3017-.3329.882.882,0,0,1,.4553.0262.32078.32078,0,0,1,.1986.1336A10.79454,10.79454,0,0,1,95.86529,119.23211Z"/><path class="cls-13" d="M170.865,124.90981a15.41957,15.41957,0,0,0-1.2167-2.1284,39.821,39.821,0,0,0-4.292-5.3618q-7.07775-7.3446-14.8419-13.9634a16.90758,16.90758,0,0,0-3.8847-2.5565,11.22948,11.22948,0,0,0-3.5413-.9194,12.62876,12.62876,0,0,0-3.7985.9654,27.73559,27.73559,0,0,0-4.8937,2.8009,76.657,76.657,0,0,0-12.9787,11.5932,46.395,46.395,0,0,0-7.9452,12.3369c-3.2544,7.4511-4.2255,15.0691-1.6233,22.9451a30.831,30.831,0,0,0,2.6952,6.0383,57.96181,57.96181,0,0,0,15.2238,16.8203,32.01526,32.01526,0,0,0,8.4876,4.3395c1.798.6579,3.2318-.2092,3.6327-2.1369a17.77111,17.77111,0,0,0,.341-2.9173c.0699-1.7986.1026-3.6012.0707-5.4006a29.426,29.426,0,0,1,.5176-5.8497c2.1273-11.6262,7.9154-20.8263,17.9491-27.2451a35.51307,35.51307,0,0,1,7.7129-3.7288C171.17629,129.62241,172.05349,127.47171,170.865,124.90981Z"/><path class="cls-1" d="M131.00069,156.13951c.0349,1.5114-.7943,2.1692-2.0703,1.8885a6.18018,6.18018,0,0,1-2.3818-1.2313,17.90185,17.90185,0,0,1-5.2103-7.0304,2.6678,2.6678,0,0,1-.1449-.4685,1.873,1.873,0,0,1,2.4997-2.4213,5.85678,5.85678,0,0,1,1.7661.8268,14.61569,14.61569,0,0,1,5.4185,7.6924A3.66513,3.66513,0,0,1,131.00069,156.13951Z"/><path class="cls-13" d="M489.89918,137.08451a39.56165,39.56165,0,0,0-6.41309-16.0536,67.41218,67.41218,0,0,0-19.13221-18.4654,24.04314,24.04314,0,0,0-3.0404-1.5954,8.24425,8.24425,0,0,0-8.2026.3836,23.359,23.359,0,0,0-3.2072,2.2556,184.7735,184.7735,0,0,0-15.6373,14.9027,34.72286,34.72286,0,0,0-3.8419,5.0877,10.19384,10.19384,0,0,0-1.0702,2.1983,3.60085,3.60085,0,0,0,1.7982,4.3763,9.24722,9.24722,0,0,0,1.36461.5524,36.9835,36.9835,0,0,1,16.94719,12.1184,40.02875,40.02875,0,0,1,8.8221,25.44,36.48,36.48,0,0,0,.3775,7.3612,2.55754,2.55754,0,0,0,3.6229,2.173,31.21031,31.21031,0,0,0,7.6907-3.7592,57.25373,57.25373,0,0,0,14.8712-15.4937,34.19852,34.19852,0,0,0,4.4595-10.0409A28.398,28.398,0,0,0,489.89918,137.08451Z"/><path class="cls-1" d="M469.57768,155.96191c.1112-.3773.2343-.9371.439-1.4653a14.99573,14.99573,0,0,1,4.2615-6.1552,7.04669,7.04669,0,0,1,2.51291-1.4617,2.21985,2.21985,0,0,1,2.27229.473,1.69536,1.69536,0,0,1,.2819,2.0385,16.09275,16.09275,0,0,1-6.1485,7.9766,5.43568,5.43568,0,0,1-1.5618.6582C470.30328,158.35831,469.413,157.522,469.57768,155.96191Z"/><path class="cls-14" d="M492.14568,52.092a10.39241,10.39241,0,0,0-1.807-2.3113c-1.4232-1.3475-2.8898-2.6628-4.4395-3.8606a48.98285,48.98285,0,0,0-13.7144-6.9936,4.477,4.477,0,0,0-1.0906-.0602c.457.9098.8214,1.6322,1.1832,2.3561,1.7559,3.5131,3.5311,7.0168,5.2555,10.5454.5734,1.1736,1.04721,2.3994,1.50321,3.625a8.34829,8.34829,0,0,1,.29179,1.5057,2.49642,2.49642,0,0,1-.2713.3355c-2.4743,1.7986-5.3631,2.7629-8.1046,4.0239a2.023,2.023,0,0,1-.4706.1327,1.30539,1.30539,0,0,1-1.4665-.6361c-.2116-.3485-.3776-.7248-.561-1.0902-1.3581-2.7061-2.6697-5.4366-4.0885-8.1104-.99629-1.8772-2.13029-3.6818-3.2237-5.5061a5.18753,5.18753,0,0,0-.7639-.7726,6.04807,6.04807,0,0,0-.3425,1.0486,59.667,59.667,0,0,0-.5695,6.1067c-.009,4.3374.1219,8.677.291,13.0119a18.956,18.956,0,0,0,.6526,4.1094,4.90577,4.90577,0,0,0,4.7376,3.9289,11.43344,11.43344,0,0,0,4.3733-.3846c.8603-.2515,1.7154-.5204,2.6926-.818a4.71811,4.71811,0,0,1,.6458.6967c1.1379,2.096,2.4267,4.4599,3.48341,6.5965a16.31339,16.31339,0,0,1,12.17379,0,7.25726,7.25726,0,0,0,.6226-8.3507c-.923-1.5429-1.7428-3.1486-2.5803-4.7411a10.10157,10.10157,0,0,1-.4813-1.3293c.8859-.6929,1.6678-1.2798,2.4225-1.8998a16.28982,16.28982,0,0,0,3.6385-3.9569A6.55828,6.55828,0,0,0,492.14568,52.092Z"/><path class="cls-14" d="M518.09988,124.73761c-5.46579,2.6873-9.474,1.4575-11.34279-.4913-.233.3266-.86051-.0431-1.28611-.7522-.0518-.0863-.0876-.1806-.13589-.2686a1.13256,1.13256,0,0,1-.42661-.8866,9.05574,9.05574,0,0,1-.6072-3.4924,9.24956,9.24956,0,0,1,1.3975-4.4349.50211.50211,0,0,1,.2348-.2083,5.97923,5.97923,0,0,1,1.0011-1.0063q-.1608-.31065-.3221-.6211a10.67575,10.67575,0,0,1-4.1577-1.6849,6.39571,6.39571,0,0,1-1.4854-1.3764l-.02139-.022c-.01491-.0173-.02641-.0381-.04081-.056-.0176-.0242-.0357-.0479-.0528-.0724-1.1175-1.4676-1.05239-4.1822-.9722-5.2735a7.17765,7.17765,0,0,1-3.4817-.9342l-.0133-.0032a2.29882,2.29882,0,0,1-.8359-.683c-.01629-.0166-.0341-.0293-.0504-.0462a1.82257,1.82257,0,0,1-.4894-.7666,12.52158,12.52158,0,0,1-.9652-2.3923c-.1469.204-.2698.4181-.4318.6157a8.96985,8.96985,0,0,1-4.61849,3.0679c.69979,1.3278,1.36339,2.5639,1.99969,3.8076q3.6342,7.1028,7.2542,14.2132c1.4147,2.7695,2.81611,5.5464,4.2666,8.2973a3.00276,3.00276,0,0,1,.2091,2.7928,11.07546,11.07546,0,0,0-.7029,5.0651,11.38817,11.38817,0,0,0,8.1786,10.2702,11.82389,11.82389,0,0,0,14.4375-8.1943A12.12143,12.12143,0,0,0,518.09988,124.73761Zm-4.1807,16.6261a5.344,5.344,0,0,1-5.0407-5.5542,5.16,5.16,0,0,1,5.0619-5.216,5.39525,5.39525,0,0,1-.0212,10.7702Z"/><path class="cls-1" d="M353.22129,186.87431a28.64851,28.64851,0,0,0-5.5593-3.697,63.58573,63.58573,0,0,0-6.1194-3.1244,49.25946,49.25946,0,0,0-6.2574-2.161,52.86453,52.86453,0,0,0-6.4798-1.3738c-2.264-.3297-4.5614-.4447-6.8479-.6006-2.1818-.1486-4.3811.0015-7.0233-.1396.5396-.547.6987-.8379.9274-.911a4.69436,4.69436,0,0,1,1.2117-.1419c11.9359-.5279,23.1102,1.922,33.2235,8.5176,1.0288.671,2.0979,1.2865,3.086,2.0126,1.3166.9673,1.4634,1.7831.6568,3.1641a12.6851,12.6851,0,0,1-3.3064,3.5985,37.17733,37.17733,0,0,1-7.3329,4.4621c-4.1718,1.8955-8.4021,3.6617-12.6028,5.4935a9.98248,9.98248,0,0,0-2.7208,1.3425,11.741,11.741,0,0,0,1.0046,1.1408c1.1734,1.0221,2.3789,2.0069,3.5643,3.0155a18.325,18.325,0,0,1,1.4553,1.3157,1.13406,1.13406,0,0,1,.0044,1.5648,7.85266,7.85266,0,0,1-1.3153,1.0912c-1.0938.7207-2.1809,1.4651-3.3359,2.077-4.2672,2.2608-8.5297,4.5345-12.8552,6.6798a93.20692,93.20692,0,0,0-8.7771,4.9233c-.446.2848-.8649.8273-1.6281.2949a6.54371,6.54371,0,0,1,2.6434-2.4354c2.5897-1.4034,5.1916-2.7843,7.789-4.1734,4.6911-2.5086,9.3885-5.0057,14.0681-7.5358.7789-.4211,1.4807-.9853,2.3515-1.5735-.4472-.4691-.7422-.8346-1.0926-1.1356-1.1187-.9604-2.2652-1.8885-3.3858-2.8467a11.07572,11.07572,0,0,1-1.2354-1.1941c-.995-1.1645-.8261-2.0285.5761-2.7099,1.0289-.5,2.1159-.8783,3.1675-1.3329,3.7559-1.6237,7.5591-3.15,11.2429-4.9242a72.70755,72.70755,0,0,0,6.9881-4.0826,10.92338,10.92338,0,0,0,3.3233-3.2397A8.65629,8.65629,0,0,0,353.22129,186.87431Z"/><path class="cls-1" d="M285.13109,175.29341c-.2527.1893-.4623.4763-.6953.4968-.8126.0711-1.6334.0651-2.4509.0617a68.21169,68.21169,0,0,0-11.9783.9185,48.63634,48.63634,0,0,0-16.3268,5.8183c-1.768,1.0288-3.5072,2.1083-5.2396,3.1961a12.5285,12.5285,0,0,0-1.2788,1.047,4.28984,4.28984,0,0,0,1.6747,2.7438,34.28471,34.28471,0,0,0,3.8516,3.027,71.5519,71.5519,0,0,0,11.5983,5.8575c2.1811.9331,4.3995,1.7782,6.5972,2.6727a16.97079,16.97079,0,0,1,1.7907.8015,1.45873,1.45873,0,0,1,.4449,2.4464,15.81687,15.81687,0,0,1-1.7632,1.7018c-1.2882,1.1236-2.6004,2.2196-4.02,3.4268a10.13253,10.13253,0,0,0,1.1484,1.0222c1.3115.8352,2.6112,1.7016,3.9852,2.4232,4.1281,2.168,8.3006,4.2512,12.4329,6.4117,2.319,1.2126,4.6004,2.499,6.8806,3.784a7.95914,7.95914,0,0,1,1.3535,1.049,13.18147,13.18147,0,0,1,.9131.9813c-.179.6236-.5197.5089-.8011.3736a9.96653,9.96653,0,0,1-1.0474-.6329,88.19161,88.19161,0,0,0-9.4669-5.1822,140.77969,140.77969,0,0,1-14.6673-7.9521c-2.8018-1.7852-2.81-2.3115-.2559-4.4097q1.7076-1.40295,3.3751-2.8544a12.14134,12.14134,0,0,0,.9725-1.0682c-.4041-.7258-1.069-.8369-1.6425-1.0829-4.21-1.805-8.4403-3.5642-12.6244-5.4272a41.59863,41.59863,0,0,1-7.8276-4.5816,14.03978,14.03978,0,0,1-3.5931-3.6629c-.9989-1.5613-.8636-2.5143.6363-3.5496,7.1628-4.9439,14.8888-8.5257,23.5871-9.8034a75.57867,75.57867,0,0,1,12.4896-.6199,10.03239,10.03239,0,0,1,1.4583.1592C284.77129,174.90811,284.87629,175.07441,285.13109,175.29341Z"/><path d="M234.89939,214.81821c.7844-.1239,1.1005.1667,1.0393.6143a17.47017,17.47017,0,0,1-.5469,2.3821c-1.855,6.5299-3.6255,13.0823-4.9304,19.7474a80.99264,80.99264,0,0,0-1.7969,13.3584,2.00307,2.00307,0,0,1-.146.7089c-.0541.1286-.2712.3098-.3503.2821-.206-.0719-.5039-.2208-.5364-.3846a5.00119,5.00119,0,0,1-.0895-1.4526c.2941-2.9284.5011-5.8722.9568-8.7764a206.069,206.069,0,0,1,5.3273-22.6733C234.17209,217.36861,234.53289,216.11681,234.89939,214.81821Z"/><path d="M372.47388,251.89591c-.7736.0303-.7075-.5361-.7571-1.0013-.24169-2.2734-.4209-4.5553-.7242-6.8204a166.67424,166.67424,0,0,0-4.4046-20.3453c-.6041-2.2904-1.2578-4.5676-1.877-6.854a5.47961,5.47961,0,0,1-.2693-1.4294c.0013-.2289.2961-.5043.5257-.6568.0782-.0519.3886.1817.5445.3343a.99247.99247,0,0,1,.18421.4452c1.88539,7.0203,3.89269,14.011,5.32939,21.1434a82.82789,82.82789,0,0,1,1.7531,12.8583C372.81148,250.348,373.03688,251.18961,372.47388,251.89591Z"/><path class="cls-15" d="M508.87848,135.80951a5.15981,5.15981,0,0,1,5.0619-5.2159,5.39519,5.39519,0,0,1-.0212,10.7701A5.344,5.344,0,0,1,508.87848,135.80951Z"/><path class="cls-13" d="M358.79688,233.87791a16.50962,16.50962,0,0,0-.3901-1.7952c-1.90529.5168-3.53659,1.0748-5.21389,1.3877-2.5686.4789-5.1625.8392-7.7567,1.1592a59.43738,59.43738,0,0,1-12.9842.0989,76.98777,76.98777,0,0,1-15.1918-2.6789c-.9075-.2767-1.4548.0897-1.5395,1.0234-.0959,1.0585-.1095,2.1248-.1461,3.1883a70.46809,70.46809,0,0,0,4.0778,27.2613,40.327,40.327,0,0,0,5.6686,10.5595,22.19517,22.19517,0,0,0,5.6702,5.3808,13.33911,13.33911,0,0,0,6.6647,2.2374,13.0566,13.0566,0,0,0,8.6532-2.9061,23.26389,23.26389,0,0,0,5.3908-5.9947,38.81962,38.81962,0,0,0,4.2057-8.8456C359.19538,254.15681,359.80448,244.092,358.79688,233.87791Z"/><path class="cls-1" d="M117.36389,38.58381a7.13965,7.13965,0,0,1,7.3383-7.2486,5.86635,5.86635,0,0,1,5.6016,4.9417,7.21336,7.21336,0,0,1-6.2563,8.4374A5.929,5.929,0,0,1,117.36389,38.58381Zm18.2958,22.0415a20.44144,20.44144,0,0,0-4.9895-4.6926,41.78591,41.78591,0,0,0-15.0793-6.2944,10.25708,10.25708,0,0,0-3.4129-.1107,3.10409,3.10409,0,0,0-2.3619,4.6299,7.82928,7.82928,0,0,0,.9931,1.3906c.3022.3744.654.7087,1.0172,1.0963-.271.5693-.4877,1.0959-.7623,1.5904q-3.124,5.6241-6.2338,11.2567a18.10089,18.10089,0,0,1,3.355,1.6666,13.45068,13.45068,0,0,1,5.5813,6.6291c.32.8387.6383,1.0357,1.5011.8332a14.49459,14.49459,0,0,1,10.0134,1.5183c1.3471-2.8454,2.7015-5.6872,4.0223-8.5454.789-1.7076,1.6957-3.3612,2.5653-5.0305a11.33646,11.33646,0,0,1,.7071-1.0511,17.76428,17.76428,0,0,0,2.2104-.015,2.17064,2.17064,0,0,0,1.8957-3.2036A7.60736,7.60736,0,0,0,135.65969,60.62531Zm-30.5429-14.0097a3.91118,3.91118,0,0,0,3.9426-2.6939,5.33119,5.33119,0,0,0,.117-.7785,4.12632,4.12632,0,0,0-6.04-3.387,3.42839,3.42839,0,0,0-1.8989,4.075A3.918,3.918,0,0,0,105.11679,46.61561Zm43.2151,10.7125a6.74321,6.74321,0,0,0-7.46,6.6298,4.97469,4.97469,0,0,0,4.8661,5.1149,6.87367,6.87367,0,0,0,6.996-6.705A4.93609,4.93609,0,0,0,148.33189,57.32811Zm-6.9959-7.7172a4.12632,4.12632,0,0,0-6.0401-3.3868,3.4285,3.4285,0,0,0-1.8989,4.075,4.16182,4.16182,0,0,0,7.8219.0903A5.28536,5.28536,0,0,0,141.336,49.61091Zm-30.0754,53.3816a8.47731,8.47731,0,0,0,2.8005.3198q-4.9284,9.98805-9.8986,19.9553c-1.5849,3.1853-3.2491,6.3286-5.0321,9.4016a109.33766,109.33766,0,0,1-6.0736,9.4026,68.30937,68.30937,0,0,1-5.4619,6.6213,19.89107,19.89107,0,0,1-4.2313,3.3148c-4.4232,2.6647-8.2268.5558-10.2495-2.4829a10.77558,10.77558,0,0,1-1.7262-5.3138,23.0719,23.0719,0,0,1,.8412-7.5333,82.2138,82.2138,0,0,1,4.4055-12.233c.4053-.9183.8215-1.8312,1.2319-2.747a12.82875,12.82875,0,0,0,4.6965,3.3582c2.5178,1.0089,5.1173,1.7285,7.8732.918a5.52728,5.52728,0,0,1,.733-.0502,2.409,2.409,0,0,1,1.2168.0901l-.0001-.0001h0l1.7206-1.8503a8.39549,8.39549,0,0,0,1.7588-4.9315,10.79454,10.79454,0,0,0-1.4781-4.8624.32084.32084,0,0,0-.1985-.1336l-.6243-1.6329a9.90136,9.90136,0,0,0,4.8429-2.3332,4.14767,4.14767,0,0,0,1.5649-2.9387.52421.52421,0,0,0-.3465-.5624l.579-2.6584a7.55406,7.55406,0,0,0,3.3601-.8636,3.66594,3.66594,0,0,0,1.5266-1.5466l1.4669-1.72s.0723.073.1913.1838A9.27732,9.27732,0,0,0,111.26059,102.99251Zm-18.2778,23.4086c.0135.0134.0278.0252.0412.0392C93.01059,126.42641,92.99629,126.41431,92.98279,126.40111Zm-.28-.2263.0205.0131Zm.583.5923c-.0154-.023-.0322-.0419-.0479-.0639C93.25349,126.72551,93.27039,126.74381,93.28579,126.76711Z"/><g class="cls-16"><path class="cls-14" d="M111.82639,56.64441c-.3632-.3876-.715-.7219-1.0172-1.0963a7.82363,7.82363,0,0,1-.993-1.3906,3.104,3.104,0,0,1,2.3618-4.6299,10.25971,10.25971,0,0,1,3.4129.1106,41.78982,41.78982,0,0,1,15.0793,6.2946,20.43913,20.43913,0,0,1,4.9895,4.6925,7.60736,7.60736,0,0,1,1.0222,1.6678,2.17061,2.17061,0,0,1-1.8955,3.2036,17.76764,17.76764,0,0,1-2.2106.015,11.33646,11.33646,0,0,0-.7071,1.0511c-.8698,1.6693-1.7763,3.3229-2.5653,5.0305-8.0373,17.3921-16.6067,34.5249-25.1409,51.6745a131.33609,131.33609,0,0,1-11.1057,18.804,68.28527,68.28527,0,0,1-5.4619,6.6213,19.89471,19.89471,0,0,1-4.2313,3.3149c-4.4232,2.6646-8.2268.5557-10.2495-2.483a10.77555,10.77555,0,0,1-1.7262-5.3137,23.0722,23.0722,0,0,1,.8412-7.5334,82.22426,82.22426,0,0,1,4.4056-12.2329,488.81007,488.81007,0,0,1,22.5954-44.9689c4.0166-7.0393,7.8982-14.1559,11.834-21.2413C111.33869,57.74041,111.55539,57.21371,111.82639,56.64441Zm1.4713-.2789c-.2728.5988-.4191.9795-.6123,1.3345-3.3277,6.1155-6.5302,12.304-10.0191,18.3261a488.1041,488.1041,0,0,0-24.5025,48.1581c-1.4814,3.3676-2.703,6.8526-3.9689,10.3112a30.6468,30.6468,0,0,0-1.5566,6.9398,11.49166,11.49166,0,0,0,.9217,6.248c1.6919,3.6782,5.4523,5.656,9.5221,3.0179a21.47049,21.47049,0,0,0,3.9735-3.2567,61.2744,61.2744,0,0,0,4.6681-5.6948,109.4534,109.4534,0,0,0,9.2128-15.0887c4.0541-7.9537,8.0706-15.9288,11.9602-23.964,5.1743-10.6887,10.6687-21.2236,15.4633-32.0962.5938-1.3469,1.3084-2.6416,1.993-3.9468.4481-.8546.9433-1.6844,1.3994-2.4937,1.1496,0,2.1287.0294,3.1047-.0124a.852.852,0,0,0,.7023-1.0795,8.74423,8.74423,0,0,0-.9463-1.7029,20.12045,20.12045,0,0,0-5.0415-4.637,42.83707,42.83707,0,0,0-13.2613-5.6641,16.53238,16.53238,0,0,0-2.6731-.3769,4.55662,4.55662,0,0,0-1.4537.1381,1.85281,1.85281,0,0,0-1.3391,2.6574,5.66206,5.66206,0,0,0,.9792,1.3897C112.24279,55.35941,112.72519,55.79161,113.29769,56.36551Z"/><path class="cls-14" d="M117.36389,38.58381a7.13959,7.13959,0,0,1,7.3383-7.2486,5.86634,5.86634,0,0,1,5.6016,4.9419,7.21336,7.21336,0,0,1-6.2563,8.4373A5.9291,5.9291,0,0,1,117.36389,38.58381Zm11.8162-.8778a4.79144,4.79144,0,0,0-6.2048-4.8992,6.197,6.197,0,0,0-4.3945,5.8332,4.79616,4.79616,0,0,0,6.2239,4.6403A6.0785,6.0785,0,0,0,129.18009,37.706Z"/><path class="cls-14" d="M152.734,62.36781a6.87361,6.87361,0,0,1-6.996,6.705,4.97456,4.97456,0,0,1-4.8661-5.1149,6.74325,6.74325,0,0,1,7.46-6.6297A4.93592,4.93592,0,0,1,152.734,62.36781Zm-6.7227,5.4431a5.61864,5.61864,0,0,0,5.3734-4.7873,3.83187,3.83187,0,0,0-5.1129-4.2954,5.50727,5.50727,0,0,0-4.0669,4.7289A3.73822,3.73822,0,0,0,146.01129,67.81091Z"/><path class="cls-14" d="M141.33589,49.61091a5.26824,5.26824,0,0,1-.117.7785,4.16182,4.16182,0,0,1-7.8219-.0903,3.4285,3.4285,0,0,1,1.8989-4.075A4.12622,4.12622,0,0,1,141.33589,49.61091Zm-4.1573-2.5587a2.70836,2.70836,0,0,0-2.6421,2.1249,2.49206,2.49206,0,0,0,1.8964,2.5212,2.84093,2.84093,0,0,0,2.7596-.5191,2.15647,2.15647,0,0,0,.19-3.2346A2.95265,2.95265,0,0,0,137.17859,47.05221Z"/><path class="cls-14" d="M113.65139,59.98251c-.4413,1.0564-.7035,1.8139-1.0633,2.5218-1.4828,2.9183-2.9526,5.8448-4.5062,8.7254-2.7968,5.1863-5.6652,10.3337-8.4771,15.5118-5.943,10.9442-10.8524,22.3797-15.9528,33.7232a97.866,97.866,0,0,0-5.5222,14.692,37.7088,37.7088,0,0,0-1.0167,5.5384,8.9062,8.9062,0,0,0,.2793,3.1521,3.26284,3.26284,0,0,0,4.248,2.2645,7.27063,7.27063,0,0,0,2.3376-1.2933,18.42839,18.42839,0,0,0,2.7281-2.8055,68.35684,68.35684,0,0,0,3.9554-5.6175c2.4984-4.0351,4.9711-8.0907,7.3046-12.2227,9.9416-17.6049,19.4776-35.4252,28.1979-53.6741.4186-.8758.9875-1.679,1.4695-2.5256a10.77868,10.77868,0,0,0,.4291-1.005c-2.6897-.6278-5.2765-.9921-7.6272-2.1702A29.75593,29.75593,0,0,1,113.65139,59.98251Zm17.7908.973a6.48029,6.48029,0,0,0-1.3191-.6525,38.013,38.013,0,0,1-12.2523-5.5057c-.4815-.3107-.9498-.6419-1.4311-.9531a1.71552,1.71552,0,0,0-.6446-.3349.72281.72281,0,0,0-.6091.2217c-.0822.1618.0538.4428.1176.6652.0193.0672.1095.1192.1754.1669a38.81216,38.81216,0,0,0,14.7202,7.0588,1.22827,1.22827,0,0,0,.7184-.0263C131.10219,61.51061,131.20829,61.25511,131.44219,60.95551Z"/><path class="cls-14" d="M129.18009,37.706a6.0785,6.0785,0,0,1-4.3754,5.5743,4.79616,4.79616,0,0,1-6.2239-4.6403,6.197,6.197,0,0,1,4.3945-5.8332A4.79144,4.79144,0,0,1,129.18009,37.706Z"/><path class="cls-14" d="M146.01129,67.81091a3.73822,3.73822,0,0,1-3.8064-4.3538,5.50727,5.50727,0,0,1,4.0669-4.7289,3.83187,3.83187,0,0,1,5.1129,4.2954A5.61864,5.61864,0,0,1,146.01129,67.81091Z"/><path class="cls-14" d="M137.17879,47.05191a2.95391,2.95391,0,0,1,2.2037.8927,2.15647,2.15647,0,0,1-.19,3.2346,2.84093,2.84093,0,0,1-2.7596.5191,2.49206,2.49206,0,0,1-1.8964-2.5212A2.709,2.709,0,0,1,137.17879,47.05191Z"/><path class="cls-14" d="M109.17639,43.14321a5.3134,5.3134,0,0,1-.117.7785,4.1618,4.1618,0,0,1-7.8219-.0904,3.42851,3.42851,0,0,1,1.8989-4.0751A4.12639,4.12639,0,0,1,109.17639,43.14321Zm-4.1573-2.5588a2.70821,2.70821,0,0,0-2.6423,2.1248,2.49233,2.49233,0,0,0,1.8965,2.5212,2.84039,2.84039,0,0,0,2.7596-.5191,2.15633,2.15633,0,0,0,.1898-3.2347A2.95189,2.95189,0,0,0,105.01909,40.58441Z"/><path class="cls-14" d="M105.01919,40.58421a2.95275,2.95275,0,0,1,2.2035.8924,2.15633,2.15633,0,0,1-.1898,3.2347,2.84039,2.84039,0,0,1-2.7596.5191,2.49233,2.49233,0,0,1-1.8965-2.5212A2.70862,2.70862,0,0,1,105.01919,40.58421Z"/><path class="cls-9" d="M113.65139,59.98251a29.75593,29.75593,0,0,0,6.784,4.8153c2.3507,1.1781,4.9375,1.5424,7.6272,2.1702a10.77868,10.77868,0,0,1-.4291,1.005c-.482.8466-1.0509,1.6498-1.4695,2.5256-8.7203,18.2489-18.2563,36.0692-28.1979,53.6741-2.3335,4.132-4.8062,8.1876-7.3046,12.2227a68.35684,68.35684,0,0,1-3.9554,5.6175,18.42839,18.42839,0,0,1-2.7281,2.8055,7.27063,7.27063,0,0,1-2.3376,1.2933,3.26284,3.26284,0,0,1-4.248-2.2645,8.9062,8.9062,0,0,1-.2793-3.1521,37.7088,37.7088,0,0,1,1.0167-5.5384,97.866,97.866,0,0,1,5.5222-14.692c5.1004-11.3435,10.0098-22.779,15.9528-33.7232,2.8119-5.1781,5.6803-10.3255,8.4771-15.5118,1.5536-2.8806,3.0234-5.8071,4.5062-8.7254C112.94789,61.79641,113.21009,61.03891,113.65139,59.98251Z"/><path class="cls-14" d="M131.44219,60.95551c-.2339.2996-.34.5551-.5246.6401a1.22827,1.22827,0,0,1-.7184.0263,38.81216,38.81216,0,0,1-14.7202-7.0588c-.0659-.0477-.1561-.0997-.1754-.1669-.0638-.2224-.1998-.5034-.1176-.6652a.72281.72281,0,0,1,.6091-.2217,1.71552,1.71552,0,0,1,.6446.3349c.4813.3112.9496.6424,1.4311.9531a38.013,38.013,0,0,0,12.2523,5.5057A6.48029,6.48029,0,0,1,131.44219,60.95551Z"/></g><path class="cls-11" d="M300.11379,199.53051a34.83872,34.83872,0,0,1-10.4495-1.8725,11.46329,11.46329,0,0,1-4.918-3.5394,2.38838,2.38838,0,0,1-.5684-1.8068c.4883-6.4423.6765-12.8983.8869-19.3537.0666-2.0405.2526-4.0769.3499-6.1167a2.28266,2.28266,0,0,1,.6877-1.5174c.7847-.8333,1.537-1.6981,2.3438-2.5091a10.63322,10.63322,0,0,1,3.9818-2.3617,22.16044,22.16044,0,0,1,15.8316.0133c2.7491,1.0144,4.6003,3.0425,6.4784,5.0944a2.6781,2.6781,0,0,1,.5589,1.8325q.3315,8.94915.6859,17.8971c.0875,2.1225.1761,4.2498.4009,6.3604a3.84165,3.84165,0,0,1-1.2621,3.2647,11.89274,11.89274,0,0,1-5.2108,3.1114A35.06057,35.06057,0,0,1,300.11379,199.53051Z"/><path class="cls-6" d="M315.29689,167.39341a2.67759,2.67759,0,0,0-.5589-1.8325c-1.8781-2.0519-3.7293-4.0802-6.4784-5.0946a22.16043,22.16043,0,0,0-15.8316-.0131,10.63191,10.63191,0,0,0-3.9818,2.3617c-.8068.811-1.5591,1.6757-2.3438,2.5091a2.2822,2.2822,0,0,0-.6877,1.5174c-.0507,1.0628-.1239,2.1248-.1935,3.1869a53.33616,53.33616,0,0,0,7.1275,2.6423,62.19132,62.19132,0,0,0,15.1577,2.6076,74.21255,74.21255,0,0,0,8.0873-.1422C315.49659,172.55511,315.39259,169.97441,315.29689,167.39341Z"/><path class="cls-11" d="M373.64478,110.98361c-1.4302-4.405-4.1319-7.6166-8.7553-8.7966a13.9677,13.9677,0,0,0-9.11489.7763c-.7516.3211-1.4658.729-2.2116,1.065-.7438.3351-1.22.0705-1.4079-.7707-.1422-.6364-.2169-1.2887-.3737-1.9212a57.278,57.278,0,0,0-5.9593-14.9861,53.19891,53.19891,0,0,0-13.4239-15.4495,49.92688,49.92688,0,0,0-11.1546-6.5998,47.74706,47.74706,0,0,0-13.384-3.7797,33.641,33.641,0,0,1-4.1147-.5911,16.29034,16.29034,0,0,0-5.8572-.1996c-2.9074.358-5.8276.6753-8.7112,1.2764a52.14479,52.14479,0,0,0-30.5912,19.0441,51.21085,51.21085,0,0,0-8.3077,14.935,49.15392,49.15392,0,0,0-2.413,8.4756c-.108.6747-.4468.8691-1.0086.6247-.4496-.1958-.8711-.4555-1.32-.6532a17.58961,17.58961,0,0,0-7.108-1.6224,11.765,11.765,0,0,0-10.2875,5.6093,15.35926,15.35926,0,0,0-2.1181,11.7755,24.20311,24.20311,0,0,0,9.7675,15.9007,17.43837,17.43837,0,0,0,10.7416,3.5923,17.16424,17.16424,0,0,0,2.6499-.4522c1.6164-.2872,1.8608-.212,2.5393,1.1766,2.7299,5.5868,6.6859,10.259,10.9611,14.6807a70.49438,70.49438,0,0,0,7.2917,6.1798,30.64731,30.64731,0,0,0,3.6036,2.5419,50.37819,50.37819,0,0,0,20.5916,6.7012,54.4489,54.4489,0,0,0,13.4624-.2591,52.67845,52.67845,0,0,0,11.8222-3.0555,37.92845,37.92845,0,0,0,10.0877-5.4472c.758-.6231,1.5107-1.2542,2.2929-1.8461a62.87859,62.87859,0,0,0,13.1511-13.7933,47.53489,47.53489,0,0,0,3.5565-6.1559c.611-1.1992.6789-1.25,1.8607-.8647a13.58313,13.58313,0,0,0,9.566-.6285,22.04256,22.04256,0,0,0,10.2148-8.4938,22.61324,22.61324,0,0,0,4.0517-13.4438A12.49838,12.49838,0,0,0,373.64478,110.98361Z"/><path class="cls-6" d="M263.10259,141.50691a9.74664,9.74664,0,0,1-3.4595-.5259,14.69021,14.69021,0,0,1-9.3644-18.5128,11.35782,11.35782,0,0,1,14.686-7.0867,14.58815,14.58815,0,0,1,8.9783,18.4889A11.36888,11.36888,0,0,1,263.10259,141.50691Z"/><path class="cls-6" d="M325.34609,128.98611c.2689-5.429,2.5976-9.7304,7.3639-12.5023,7.6903-4.4726,16.5245-.1872,17.7638,8.6255a14.78087,14.78087,0,0,1-10.5144,16.0137,11.4964,11.4964,0,0,1-14.4153-9.6436C325.41189,130.67531,325.41129,129.84951,325.34609,128.98611Z"/><path class="cls-9" d="M255.85829,102.52751a41.495,41.495,0,0,1-.4873,8.8075,12.11787,12.11787,0,0,1-.9537,3.5436c-.9008,1.9227-2.72,2.2294-4.1241.6542a9.78234,9.78234,0,0,1-1.4533-2.2589,88.939,88.939,0,0,1-4.5452-12.9524,4.02927,4.02927,0,0,1,.2609-2.63,74.73472,74.73472,0,0,1,5.3924-11.5493,56.07833,56.07833,0,0,1,13.1862-15.0761,61.05583,61.05583,0,0,1,11.2522-7.4255,54.66956,54.66956,0,0,1,20.5545-6.1251,55.71522,55.71522,0,0,1,19.9511,1.6266,59.786,59.786,0,0,1,20.3031,10.1444,61.441,61.441,0,0,1,11.1807,10.6451,54.36654,54.36654,0,0,1,7.5232,12.6109c.6309,1.5089,1.2626,3.018,1.9211,4.5151a5.77792,5.77792,0,0,1,.1817,4.2926,90.57946,90.57946,0,0,1-4.1813,11.7831,8.092,8.092,0,0,1-1.7573,2.6391,2.2099,2.2099,0,0,1-3.698-.5504,7.38458,7.38458,0,0,1-.8802-2.5339,57.42833,57.42833,0,0,1-.8397-12.9529c.0353-.8175.078-1.6368.0615-2.4542-.0186-.9289-.2432-1.1987-1.1061-1.3027-9.3888-1.1324-17.7391-4.9819-25.7084-9.8158a84.88679,84.88679,0,0,1-15.6093-12.264c-.1748-.1725-.3506-.3442-.522-.5202-1.4999-1.5386-1.4307-1.497-3.0464.075-1.6422,1.5982-3.2824,3.2064-5.0216,4.6958a83.24652,83.24652,0,0,1-27.0344,15.6677,43.87334,43.87334,0,0,1-9.558,2.1479c-1.0613.1175-1.2231.3036-1.2369,1.4065C255.84279,99.08971,255.85829,100.80871,255.85829,102.52751Z"/><path class="cls-3" d="M300.17009,144.34981a36.77016,36.77016,0,0,1-12.721-2.4965,18.24625,18.24625,0,0,1-3.8789-2.0973,8.253,8.253,0,0,1-2.943-3.5487c-1.6433-3.9929,1.1984-6.4624,4.3292-6.1413a15.89755,15.89755,0,0,1,4.7051,1.3373c1.7243.7494,3.4143,1.5804,5.0999,2.4154a25.27818,25.27818,0,0,0,3.6306,1.4764,5.54133,5.54133,0,0,0,3.3701-.0166,26.07641,26.07641,0,0,0,4.2871-1.813,36.37944,36.37944,0,0,1,6.9931-2.9564,12.22529,12.22529,0,0,1,2.1588-.4373c3.5674-.2745,5.7018,2.6363,4.359,5.9584a8.52151,8.52151,0,0,1-3.0707,3.7534,18.42718,18.42718,0,0,1-3.8847,2.0862A37.01743,37.01743,0,0,1,300.17009,144.34981Z"/><path class="cls-9" d="M277.25559,99.36471a7.05894,7.05894,0,0,0-4.8745,1.161,8.42285,8.42285,0,0,1-2.2271,1.0325,3.53552,3.53552,0,0,1-1.9447.0788,2.76568,2.76568,0,0,1-1.8531-3.2498,3.9257,3.9257,0,0,1,1.139-2.1444,7.64536,7.64536,0,0,1,1.4187-1.1052,11.93745,11.93745,0,0,1,8.8677-1.333,5.42469,5.42469,0,0,1,3.7173,2.9658,1.39069,1.39069,0,0,1-.4862,1.9964,3.11369,3.11369,0,0,1-1.9813.6768C278.48429,99.42481,277.93749,99.39541,277.25559,99.36471Z"/><path class="cls-9" d="M331.49509,99.14151a2.392,2.392,0,0,1-2.6682,2.5816,4.45754,4.45754,0,0,1-2.2363-.7597,8.05373,8.05373,0,0,0-5.9555-1.3305,3.20225,3.20225,0,0,1-2.4104-.5408,1.31138,1.31138,0,0,1-.4713-1.9303,4.85444,4.85444,0,0,1,3.1272-2.5666,10.75469,10.75469,0,0,1,8.5811,1.3486,4.26487,4.26487,0,0,1,1.7548,1.9734A3.00324,3.00324,0,0,1,331.49509,99.14151Z"/><path class="cls-12" d="M358.05928,113.76651c4.122,2.5985,5.2466,6.2189,3.4534,10.4726a1.82606,1.82606,0,0,1-.3783.606.50508.50508,0,0,1-.6651.0766c-.1187-.0866-.2821-.2602-.2624-.363a12.04357,12.04357,0,0,1,.4123-1.6516,7.92744,7.92744,0,0,0,.2895-3.6347,4.61747,4.61747,0,0,0-3.40479-4.0565.92267.92267,0,0,0-1.0818.3516c-2.1331,3.2376-3.0512,6.6884-1.5733,10.4446,1.0219,2.5969,3.03959,3.6908,5.84859,3.3568.2423-.0288.4786-.1048.7202-.1435.64851-.1042,1.2496.0975,1.2036.4085-.0666.4511-.3888.6576-.8072.7937a6.38069,6.38069,0,0,1-7.75909-3.0337,9.95551,9.95551,0,0,1-1.0829-6.1731,13.11841,13.11841,0,0,1,4.99179-9.2217,7.72252,7.72252,0,0,1,5.6811-1.8456,8.71768,8.71768,0,0,1,1.2089.1835c.7579.1824,1.2409.7149,1.022,1.0986-.3426.6009-.8656.2928-1.3025.1895A6.45305,6.45305,0,0,0,358.05928,113.76651Z"/><path class="cls-12" d="M242.00559,113.697a6.45027,6.45027,0,0,0-6.1376-2.1389c-.3208.0605-.6383.1407-.9608.1879-.3569.0522-.6781-.0691-.7371-.4414-.0571-.3607.2134-.59.5305-.7266a6.46309,6.46309,0,0,1,4.5521-.1235,8.78109,8.78109,0,0,1,3.7349,2.2775c3.4514,3.4987,4.9695,7.6519,3.8797,12.5239a6.634,6.634,0,0,1-5.113,5.3824,5.86529,5.86529,0,0,1-3.8342-.3719.58128.58128,0,0,1,.2715-1.1216c.5645.0817,1.1225.2225,1.689.2728a4.95027,4.95027,0,0,0,5.1734-2.9528,8.054,8.054,0,0,0,.8784-3.5378,12.15122,12.15122,0,0,0-1.9721-6.9711c-.5348-.842-.9436-.9313-1.8501-.5872a4.338,4.338,0,0,0-2.5336,2.5141,6.61988,6.61988,0,0,0-.275,4.3265c.1853.7098.43,1.4041.617,2.1136a.50907.50907,0,0,1-.2768.6058c-.3503.1683-.6211-.0144-.8588-.255a.68226.68226,0,0,1-.1207-.2126,9.499,9.499,0,0,1-.5112-6.4723,5.78308,5.78308,0,0,1,2.4068-3.3024C241.01509,114.37911,241.62419,114.30351,242.00559,113.697Z"/><path class="cls-12" d="M327.56089,108.45931a5.039,5.039,0,0,1-.7808,3.0183,3.71547,3.71547,0,0,1-2.0669,1.6384,2.063,2.063,0,0,1-2.4193-.687,5.81649,5.81649,0,0,1,.7422-7.7908,3.028,3.028,0,0,1,2.5478-.5989,1.72465,1.72465,0,0,1,1.2617,1.0736A6.58268,6.58268,0,0,1,327.56089,108.45931Z"/><path class="cls-12" d="M278.89949,108.90591a4.97666,4.97666,0,0,1-.9453,3.3385,2.178,2.178,0,0,1-2.8085.7882,3.7514,3.7514,0,0,1-2.0708-1.9901,6.52765,6.52765,0,0,1-.1128-5.2521,2.51308,2.51308,0,0,1,4.4546-.8158A5.30112,5.30112,0,0,1,278.89949,108.90591Z"/><path class="cls-12" d="M300.00419,155.78521a3.86209,3.86209,0,0,1-2.7437-.6913.47164.47164,0,0,1-.1422-.6308.92127.92127,0,0,1,.3623-.2598.35793.35793,0,0,1,.2353-.0123,10.37963,10.37963,0,0,0,4.7909-.0125.41859.41859,0,0,1,.5251.368.85084.85084,0,0,1-.2537.6182A4.19862,4.19862,0,0,1,300.00419,155.78521Z"/><path class="cls-17" d="M304.092,121.94691c-1.0887-2.8936-2.2221-5.7704-3.3445-8.6514a1.95164,1.95164,0,0,0-.2762-.4001.55174.55174,0,0,0-.8424,0,5.25879,5.25879,0,0,0-.465.8509q-1.3371,3.4086-2.649,6.8269c-.2051.5313-.4202,1.0611-.583,1.6058-.3009,1.0065.0325,1.5023,1.0821,1.7274a8.77218,8.77218,0,0,0,2.8976.0196,13.21077,13.21077,0,0,0,2.9446.0258C304.19779,123.70111,304.56249,123.19751,304.092,121.94691Z"/><path class="cls-1" d="M313.53139,130.38691c-.1629.0417-.3273.0795-.4891.1222a36.37944,36.37944,0,0,0-6.9931,2.9564,26.09367,26.09367,0,0,1-4.2871,1.813,5.53982,5.53982,0,0,1-3.3701.0164,25.25422,25.25422,0,0,1-3.6306-1.4762c-1.6856-.8349-3.3756-1.666-5.0999-2.4154a17.81607,17.81607,0,0,0-3.4261-1.1337,15.06522,15.06522,0,0,0,27.296.1173Z"/><path class="cls-18" d="M392.95158,305.33491c2.7912,1.5638,5.3689,2.9784,7.9161,4.4459,1.55041.8933,3.0818,1.8264,4.5693,2.82,1.2173.8132,1.2765,1.9556.07711,2.8105a50.40338,50.40338,0,0,1-4.80581,3.023c-6.6281,3.6755-13.3417,7.2008-19.9095,10.9798-4.2865,2.4663-8.3708,5.282-12.5556,7.9254-3.347,2.1142-3.4547,2.0961-5.5022-1.3949-3.5693-6.0855-7.112-12.1879-9.54219-18.8484-1.0454-2.8651-2.0102-5.7598-3.0883-8.6123a1.43626,1.43626,0,0,1,.3842-1.6977,18.53735,18.53735,0,0,1,2.7908-2.044,99.65455,99.65455,0,0,1,18.36239-8.3595,194.01621,194.01621,0,0,1,23.8127-6.2374c.2062-.0434.414-.082.6231-.1065,2.7683-.3254,3.1527,1.045,2.3487,2.8746-1.3118,2.9857-2.6108,5.9768-3.922,8.9626C394.04878,302.92751,393.56738,303.97041,392.95158,305.33491Z"/><path class="cls-18" d="M207.19809,304.46751c-2.7912,1.5638-5.369,2.9784-7.9161,4.4461-1.5505.8933-3.082,1.8263-4.5695,2.8198-1.2172.8134-1.2763,1.9558-.0769,2.8105a50.38415,50.38415,0,0,0,4.8056,3.023c6.6282,3.6756,13.3419,7.2009,19.9097,10.98,4.2864,2.4662,8.3708,5.2819,12.5556,7.9253,3.3469,2.1141,3.4546,2.096,5.5022-1.395,3.5693-6.0853,7.1119-12.1879,9.5421-18.8485,1.0455-2.8649,2.0103-5.7596,3.0882-8.6121a1.43655,1.43655,0,0,0-.384-1.6978,18.57008,18.57008,0,0,0-2.7908-2.044,99.67207,99.67207,0,0,0-18.3625-8.3595,194.04235,194.04235,0,0,0-23.8127-6.2373c-.2061-.0434-.4141-.0821-.623-.1065-2.7684-.3254-3.1528,1.045-2.3488,2.8746,1.3118,2.9857,2.6109,5.9767,3.9221,8.9627C206.10089,302.06021,206.58229,303.103,207.19809,304.46751Z"/><path class="cls-4" d="M224.71769,298.20731a28.90225,28.90225,0,0,1,8.5659,1.3687c4.7994,1.5884,9.5532,3.3204,14.2898,5.0897,2.2531.8414,2.6656,1.6308,2.5784,3.991a9.9683,9.9683,0,0,1-.184,1.7414,45.88582,45.88582,0,0,1-3.2583,9.6665c-.8135,1.7467-1.6401,2.1487-3.5052,1.7554a15.4752,15.4752,0,0,1-3.0502-.9701,44.43614,44.43614,0,0,1-19.3854-15.8842,14.89224,14.89224,0,0,1-1.4206-2.5444c-.7823-1.871-.288-2.9366,1.5947-3.6376a7.47539,7.47539,0,0,1,1.6816-.4632C223.49089,298.21611,224.37089,298.22331,224.71769,298.20731Z"/><path class="cls-4" d="M375.16028,298.15411a10.08054,10.08054,0,0,1,4.5666.8291,2.0771,2.0771,0,0,1,1.26321,2.8616,16.68532,16.68532,0,0,1-1.612,3.0988,40.89126,40.89126,0,0,1-10.76821,11.0038,39.26111,39.26111,0,0,1-9.7022,5.3104c-3.81339,1.3386-4.71539.9915-6.17319-2.7749-.8421-2.1754-1.5756-4.4006-2.2115-6.6449a18.53766,18.53766,0,0,1-.5248-3.7461,2.97217,2.97217,0,0,1,1.996-3.2258c6.4349-2.5079,12.81249-5.2017,19.68549-6.3413C372.82878,298.33431,373.99948,298.27441,375.16028,298.15411Z"/><path class="cls-5" d="M300.08809,360.90471c-4.4797-.1998-9.1778-.1936-13.8249-.6785-4.4477-.4642-8.8611-1.3423-13.2558-2.2101a162.34022,162.34022,0,0,1-23.6697-6.3448,124.75626,124.75626,0,0,1-27.9428-14.446c-.5625-.383-1.0966-.8092-1.6283-1.2347a2.00505,2.00505,0,0,1-.7568-1.4597,220.95985,220.95985,0,0,1-1.2388-30.0511,35.57984,35.57984,0,0,1,.2844-3.7818,3.27958,3.27958,0,0,1,.5439-1.3193.84148.84148,0,0,1,1.2704-.2548,27.15647,27.15647,0,0,1,2.3747,2.162,109.22927,109.22927,0,0,0,12.1259,10.5438,91.4004,91.4004,0,0,0,25.357,13.0206,99.06758,99.06758,0,0,0,25.0572,5.4326c3.0114.2332,6.0429.1939,9.0616.351a176.49226,176.49226,0,0,0,25.123-.7084,96.05957,96.05957,0,0,0,22.6897-5.3774,91.57889,91.57889,0,0,0,31.97859-18.8929c1.7311-1.5721,3.3665-3.2495,5.0506-4.8737.4909-.4733.9792-.9521,1.5012-1.39.8295-.6955,1.5877-.45,2.012.5927a8.239,8.239,0,0,1,.434,3.1651c.0058,4.5805.0146,9.1612-.018,13.7414a108.80356,108.80356,0,0,1-1.0392,15.1507,11.4769,11.4769,0,0,0-.1465,2.3282,1.82083,1.82083,0,0,1-.8765,1.7134c-.7912.5674-1.5615,1.1649-2.3667,1.7112a125.24892,125.24892,0,0,1-42.91739,18.5177c-6.1762,1.4074-12.3769,2.6711-18.6375,3.6337a33.99722,33.99722,0,0,1-3.4843.3934C308.86379,360.54981,304.57629,360.71431,300.08809,360.90471Z"/><path class="cls-19" d="M266.25768,339.27216q-2.59859-.68257-5.177-1.46393.47819-1.5775.95632-3.15515a5.648,5.648,0,0,0,.36151-1.76709q-.05583-.38923-.59661-.55627a.7774.7774,0,0,0-.90678.1701,6.29084,6.29084,0,0,0-.73329,1.73447q-1.33555,4.199-2.67108,8.398a5.36638,5.36638,0,0,0-.36718,1.77688c.03487.30609.26329.52588.68483.65689a.81347.81347,0,0,0,.917-.16037,6.02509,6.02509,0,0,0,.7627-1.84323q.34589-1.14107.69174-2.28222,2.6337.79833,5.289,1.49557l-.18777.715a12.67626,12.67626,0,0,1-1.524,3.9194,4.36746,4.36746,0,0,1-2.6264,1.52005,7.94687,7.94687,0,0,1-4.20862-.27731,9.23337,9.23337,0,0,1-3.75246-2.04517,3.94705,3.94705,0,0,1-1.33737-2.76724,12.30645,12.30645,0,0,1,.91658-4.10928q.93883-2.60771,1.87761-5.21528a23.38665,23.38665,0,0,1,1.18242-2.84381,4.28683,4.28683,0,0,1,1.49249-1.56533,5.02245,5.02245,0,0,1,2.38526-.76075,8.88706,8.88706,0,0,1,6.2613,2.24063,4.214,4.214,0,0,1,1.3116,2.53708,12.21742,12.21742,0,0,1-.54417,3.9057Q266.4865,338.40085,266.25768,339.27216Z"/><path class="cls-19" d="M281.87724,334.10324q-2.72809,9.1756-5.80809,18.26828-4.30063-.7542-8.56542-1.7539.54414-9.61606,1.49268-19.1698,2.58532.66549,5.18948,1.22729c-.49667,5.23981-.9296,9.66565-1.37375,13.26725q1.52516-5.28539,2.79543-9.369.521-1.695,1.03308-3.39234Q279.25182,333.694,281.87724,334.10324Z"/><path class="cls-19" d="M297.39658,341.35987q-2.43046-.09183-4.8578-.2674l.10152-1.40259a2.66669,2.66669,0,0,0-.09217-1.264.68605.68605,0,0,0-.5879-.31494.78829.78829,0,0,0-.72887.30661,2.04034,2.04034,0,0,0-.33078,1.07766,2.95305,2.95305,0,0,0,.15067,1.44837,3.792,3.792,0,0,0,1.39209,1.27185,17.01419,17.01419,0,0,1,4.30267,3.45807,6.91451,6.91451,0,0,1,.79532,4.07595,6.24471,6.24471,0,0,1-.64768,2.96665,4.02791,4.02791,0,0,1-2.18577,1.51422,9.04492,9.04492,0,0,1-3.71106.41406,8.81815,8.81815,0,0,1-3.8477-1.09466,3.86073,3.86073,0,0,1-1.89548-2.12732,8.57719,8.57719,0,0,1-.10439-3.32779q.07338-.61674.14676-1.23349,2.52915.30088,5.06549.51413-.09675,1.15017-.19346,2.30047a2.70187,2.70187,0,0,0,.10446,1.38456.89772.89772,0,0,0,.75444.366.94787.94787,0,0,0,.86082-.32354,1.98124,1.98124,0,0,0,.35291-1.12628,3.29076,3.29076,0,0,0-.354-2.22245,18.23741,18.23741,0,0,0-2.40393-1.92617,20.904,20.904,0,0,1-2.47548-2.02659,4.02093,4.02093,0,0,1-.89243-1.63436,6.23532,6.23532,0,0,1-.12305-2.51639,6.75389,6.75389,0,0,1,.95134-3.09735,3.927,3.927,0,0,1,2.00716-1.36664,7.85373,7.85373,0,0,1,3.09393-.28989,8.59072,8.59072,0,0,1,3.28566.8425,3.57868,3.57868,0,0,1,1.76285,1.65054,8.10588,8.10588,0,0,1,.33214,3.22065Z"/><path class="cls-19" d="M311.57442,335.4281q-1.15818,4.36832-2.4999,8.716,1.90657,5.12388,4.05413,10.19513-2.95413.19968-5.913.286-1.278-4.03089-2.43411-8.08182.05736,4.06595.11477,8.132-2.86383.04047-5.72775-.02554.2184-9.48392.43674-18.96759,2.51123.05776,5.02325.02237.052,3.68512.104,7.37036,1.12749-3.70185,2.13284-7.42044Q309.22133,335.58233,311.57442,335.4281Z"/><path class="cls-19" d="M317.7188,334.88422q1.05171,9.42787,2.10352,18.85568-2.85059.318-5.70914.52963-.70069-9.46045-1.40137-18.92086Q315.21844,335.16314,317.7188,334.88422Z"/><path class="cls-19" d="M324.708,333.91947q1.23326,7.487,2.46658,14.974,1.68156-.27695,3.358-.59229.35093,1.86571.70188,3.73145-4.54523.85491-9.125,1.43487-1.19234-9.41116-2.38483-18.82223Q322.22126,334.32912,324.708,333.91947Z"/><path class="cls-19" d="M333.864,332.08463q1.74682,7.38414,3.49368,14.76822,1.66392-.39368,3.32092-.82566.479,1.83706.95789,3.674-4.49208,1.17128-9.03339,2.06759-1.83778-9.30669-3.67548-18.61328Q331.40325,332.6667,333.864,332.08463Z"/><path class="cls-19" d="M350.075,333.27192q-2.32434.82854-4.66964,1.57333-.21282-.67013-.42563-1.3403a2.63935,2.63935,0,0,0-.55609-1.13916.69712.69712,0,0,0-.669-.07263.799.799,0,0,0-.57028.55706,2.02364,2.02364,0,0,0,.08984,1.12418,2.93093,2.93093,0,0,0,.67926,1.2886,3.82391,3.82391,0,0,0,1.77991.6605,17.30329,17.30329,0,0,1,5.33173,1.5978,6.83807,6.83807,0,0,1,2.2641,3.48511,6.16747,6.16747,0,0,1,.49209,2.99784,4.07832,4.07832,0,0,1-1.49554,2.22668,9.2535,9.2535,0,0,1-3.33475,1.7742,8.96068,8.96068,0,0,1-4.01535.41974,3.87439,3.87439,0,0,1-2.56415-1.26965,8.52332,8.52332,0,0,1-1.33255-3.05164l-.32043-1.20016q2.47723-.66152,4.93634-1.41059.33645,1.10418.67279,2.20838a2.68094,2.68094,0,0,0,.61224,1.24661.91155.91155,0,0,0,.84412.058.96262.96262,0,0,0,.68826-.62231,1.965,1.965,0,0,0-.08685-1.17777,3.26306,3.26306,0,0,0-1.15808-1.93118,18.50529,18.50529,0,0,0-2.97138-.8905,21.023,21.023,0,0,1-3.07171-.9592,4.02118,4.02118,0,0,1-1.44169-1.18558,6.1933,6.1933,0,0,1-1.04885-2.2912,6.71341,6.71341,0,0,1-.2595-3.23047,3.94524,3.94524,0,0,1,1.37177-2.0166,7.99052,7.99052,0,0,1,2.79367-1.42376,8.79532,8.79532,0,0,1,3.40085-.44773,3.62174,3.62174,0,0,1,2.27292.87067,8.00316,8.00316,0,0,1,1.50976,2.86529Z"/><path class="cls-20" d="M266.25768,339.27216q-2.59859-.68257-5.177-1.46393.47819-1.5775.95632-3.15515a5.648,5.648,0,0,0,.36151-1.76709q-.05583-.38923-.59661-.55627a.7774.7774,0,0,0-.90678.1701,6.29084,6.29084,0,0,0-.73329,1.73447q-1.33555,4.199-2.67108,8.398a5.36638,5.36638,0,0,0-.36718,1.77688c.03487.30609.26329.52588.68483.65689a.81347.81347,0,0,0,.917-.16037,6.02509,6.02509,0,0,0,.7627-1.84323q.34589-1.14107.69174-2.28222,2.6337.79833,5.289,1.49557l-.18777.715a12.67626,12.67626,0,0,1-1.524,3.9194,4.36746,4.36746,0,0,1-2.6264,1.52005,7.94687,7.94687,0,0,1-4.20862-.27731,9.23337,9.23337,0,0,1-3.75246-2.04517,3.94705,3.94705,0,0,1-1.33737-2.76724,12.30645,12.30645,0,0,1,.91658-4.10928q.93883-2.60771,1.87761-5.21528a23.38665,23.38665,0,0,1,1.18242-2.84381,4.28683,4.28683,0,0,1,1.49249-1.56533,5.02245,5.02245,0,0,1,2.38526-.76075,8.88706,8.88706,0,0,1,6.2613,2.24063,4.214,4.214,0,0,1,1.3116,2.53708,12.21742,12.21742,0,0,1-.54417,3.9057Q266.4865,338.40085,266.25768,339.27216Z"/><path class="cls-20" d="M281.87724,334.10324q-2.72809,9.1756-5.80809,18.26828-4.30063-.7542-8.56542-1.7539.54414-9.61606,1.49268-19.1698,2.58532.66549,5.18948,1.22729c-.49667,5.23981-.9296,9.66565-1.37375,13.26725q1.52516-5.28539,2.79543-9.369.521-1.695,1.03308-3.39234Q279.25182,333.694,281.87724,334.10324Z"/><path class="cls-20" d="M297.39658,341.35987q-2.43046-.09183-4.8578-.2674l.10152-1.40259a2.66669,2.66669,0,0,0-.09217-1.264.68605.68605,0,0,0-.5879-.31494.78829.78829,0,0,0-.72887.30661,2.04034,2.04034,0,0,0-.33078,1.07766,2.95305,2.95305,0,0,0,.15067,1.44837,3.792,3.792,0,0,0,1.39209,1.27185,17.01419,17.01419,0,0,1,4.30267,3.45807,6.91451,6.91451,0,0,1,.79532,4.07595,6.24471,6.24471,0,0,1-.64768,2.96665,4.02791,4.02791,0,0,1-2.18577,1.51422,9.04492,9.04492,0,0,1-3.71106.41406,8.81815,8.81815,0,0,1-3.8477-1.09466,3.86073,3.86073,0,0,1-1.89548-2.12732,8.57719,8.57719,0,0,1-.10439-3.32779q.07338-.61674.14676-1.23349,2.52915.30088,5.06549.51413-.09675,1.15017-.19346,2.30047a2.70187,2.70187,0,0,0,.10446,1.38456.89772.89772,0,0,0,.75444.366.94787.94787,0,0,0,.86082-.32354,1.98124,1.98124,0,0,0,.35291-1.12628,3.29076,3.29076,0,0,0-.354-2.22245,18.23741,18.23741,0,0,0-2.40393-1.92617,20.904,20.904,0,0,1-2.47548-2.02659,4.02093,4.02093,0,0,1-.89243-1.63436,6.23532,6.23532,0,0,1-.12305-2.51639,6.75389,6.75389,0,0,1,.95134-3.09735,3.927,3.927,0,0,1,2.00716-1.36664,7.85373,7.85373,0,0,1,3.09393-.28989,8.59072,8.59072,0,0,1,3.28566.8425,3.57868,3.57868,0,0,1,1.76285,1.65054,8.10588,8.10588,0,0,1,.33214,3.22065Z"/><path class="cls-20" d="M311.57442,335.4281q-1.15818,4.36832-2.4999,8.716,1.90657,5.12388,4.05413,10.19513-2.95413.19968-5.913.286-1.278-4.03089-2.43411-8.08182.05736,4.06595.11477,8.132-2.86383.04047-5.72775-.02554.2184-9.48392.43674-18.96759,2.51123.05776,5.02325.02237.052,3.68512.104,7.37036,1.12749-3.70185,2.13284-7.42044Q309.22133,335.58233,311.57442,335.4281Z"/><path class="cls-20" d="M317.7188,334.88422q1.05171,9.42787,2.10352,18.85568-2.85059.318-5.70914.52963-.70069-9.46045-1.40137-18.92086Q315.21844,335.16314,317.7188,334.88422Z"/><path class="cls-20" d="M324.708,333.91947q1.23326,7.487,2.46658,14.974,1.68156-.27695,3.358-.59229.35093,1.86571.70188,3.73145-4.54523.85491-9.125,1.43487-1.19234-9.41116-2.38483-18.82223Q322.22126,334.32912,324.708,333.91947Z"/><path class="cls-20" d="M333.864,332.08463q1.74682,7.38414,3.49368,14.76822,1.66392-.39368,3.32092-.82566.479,1.83706.95789,3.674-4.49208,1.17128-9.03339,2.06759-1.83778-9.30669-3.67548-18.61328Q331.40325,332.6667,333.864,332.08463Z"/><path class="cls-20" d="M350.075,333.27192q-2.32434.82854-4.66964,1.57333-.21282-.67013-.42563-1.3403a2.63935,2.63935,0,0,0-.55609-1.13916.69712.69712,0,0,0-.669-.07263.799.799,0,0,0-.57028.55706,2.02364,2.02364,0,0,0,.08984,1.12418,2.93093,2.93093,0,0,0,.67926,1.2886,3.82391,3.82391,0,0,0,1.77991.6605,17.30329,17.30329,0,0,1,5.33173,1.5978,6.83807,6.83807,0,0,1,2.2641,3.48511,6.16747,6.16747,0,0,1,.49209,2.99784,4.07832,4.07832,0,0,1-1.49554,2.22668,9.2535,9.2535,0,0,1-3.33475,1.7742,8.96068,8.96068,0,0,1-4.01535.41974,3.87439,3.87439,0,0,1-2.56415-1.26965,8.52332,8.52332,0,0,1-1.33255-3.05164l-.32043-1.20016q2.47723-.66152,4.93634-1.41059.33645,1.10418.67279,2.20838a2.68094,2.68094,0,0,0,.61224,1.24661.91155.91155,0,0,0,.84412.058.96262.96262,0,0,0,.68826-.62231,1.965,1.965,0,0,0-.08685-1.17777,3.26306,3.26306,0,0,0-1.15808-1.93118,18.50529,18.50529,0,0,0-2.97138-.8905,21.023,21.023,0,0,1-3.07171-.9592,4.02118,4.02118,0,0,1-1.44169-1.18558,6.1933,6.1933,0,0,1-1.04885-2.2912,6.71341,6.71341,0,0,1-.2595-3.23047,3.94524,3.94524,0,0,1,1.37177-2.0166,7.99052,7.99052,0,0,1,2.79367-1.42376,8.79532,8.79532,0,0,1,3.40085-.44773,3.62174,3.62174,0,0,1,2.27292.87067,8.00316,8.00316,0,0,1,1.50976,2.86529Z"/></g></g></svg>