<svg id="illustration" xmlns="http://www.w3.org/2000/svg" xmlns:xlink="http://www.w3.org/1999/xlink" viewBox="0 0 1021.27 631.34"><defs><style>.cls-1,.cls-2{opacity:0.26;}.cls-1{fill:url(#linear-gradient);}.cls-2{fill:url(#linear-gradient-2);}.cls-3{fill:url(#linear-gradient-3);}.cls-4{fill:url(#linear-gradient-4);}.cls-5{fill:#6030dc;}.cls-6{fill:url(#linear-gradient-5);}.cls-7{fill:#4838da;}.cls-8{fill:url(#linear-gradient-6);}.cls-9{fill:url(#linear-gradient-7);}.cls-10{fill:#1f5aa9;}.cls-11{fill:url(#linear-gradient-8);}.cls-12{fill:url(#linear-gradient-9);}.cls-13{fill:url(#linear-gradient-10);}.cls-14{fill:#fff;}.cls-15{opacity:0.5;fill:url(#linear-gradient-11);}.cls-16{fill:url(#linear-gradient-12);}.cls-17{opacity:0.54;}.cls-18{fill:url(#linear-gradient-13);}.cls-19{fill:url(#linear-gradient-14);}.cls-20{fill:url(#linear-gradient-15);}.cls-21{fill:url(#linear-gradient-16);}.cls-22{fill:url(#linear-gradient-17);}.cls-23{fill:url(#linear-gradient-18);}.cls-24{fill:url(#linear-gradient-19);}.cls-25{fill:url(#linear-gradient-20);}.cls-26{fill:url(#linear-gradient-21);}.cls-27{fill:url(#linear-gradient-22);}.cls-28{fill:url(#linear-gradient-23);}.cls-29{fill:url(#linear-gradient-24);}.cls-30{fill:url(#linear-gradient-25);}.cls-31{fill:url(#linear-gradient-26);}.cls-32{fill:url(#linear-gradient-27);}.cls-33{fill:url(#linear-gradient-28);}.cls-34{fill:url(#linear-gradient-29);}.cls-35{fill:url(#linear-gradient-30);}.cls-36{fill:url(#linear-gradient-31);}.cls-37{fill:url(#linear-gradient-32);}.cls-38{fill:url(#linear-gradient-33);}.cls-39{fill:#f2bd4a;}.cls-40{fill:url(#linear-gradient-34);}.cls-41{fill:url(#linear-gradient-35);}.cls-42{fill:url(#linear-gradient-36);}.cls-43{fill:url(#linear-gradient-37);}.cls-44{fill:url(#linear-gradient-38);}.cls-45{fill:url(#linear-gradient-39);}.cls-46{fill:url(#linear-gradient-40);}.cls-47{fill:url(#linear-gradient-41);}.cls-48{fill:url(#linear-gradient-42);}.cls-49{fill:url(#linear-gradient-43);}.cls-50,.cls-51{opacity:0.6;}.cls-50{fill:url(#linear-gradient-44);}.cls-51{fill:url(#linear-gradient-45);}.cls-52{fill:url(#linear-gradient-46);}.cls-53{fill:url(#linear-gradient-47);}.cls-54{fill:url(#linear-gradient-48);}.cls-55{fill:url(#linear-gradient-49);}.cls-56{fill:url(#linear-gradient-50);}.cls-57{fill:url(#linear-gradient-51);}.cls-58{fill:url(#linear-gradient-52);}.cls-59{fill:url(#linear-gradient-53);}.cls-60{fill:url(#linear-gradient-54);}.cls-61{fill:url(#linear-gradient-55);}.cls-62{fill:url(#linear-gradient-56);}.cls-63{fill:url(#linear-gradient-57);}.cls-64{fill:url(#linear-gradient-58);}.cls-65{fill:url(#linear-gradient-59);}.cls-66{fill:url(#linear-gradient-60);}.cls-67{fill:url(#linear-gradient-61);}.cls-68{fill:url(#linear-gradient-62);}.cls-69{fill:url(#linear-gradient-63);}.cls-70{fill:url(#linear-gradient-64);}.cls-71{fill:url(#linear-gradient-65);}.cls-72{fill:url(#linear-gradient-66);}.cls-73{fill:url(#linear-gradient-67);}.cls-74{fill:url(#linear-gradient-68);}.cls-75{opacity:0.8;}.cls-76{fill:url(#linear-gradient-69);}.cls-77{fill:url(#linear-gradient-70);}.cls-78{fill:url(#linear-gradient-71);}.cls-79{fill:url(#linear-gradient-72);}.cls-80{fill:url(#linear-gradient-73);}.cls-81{fill:url(#linear-gradient-74);}.cls-82{fill:url(#linear-gradient-75);}.cls-83{fill:url(#linear-gradient-76);}.cls-84{fill:url(#linear-gradient-77);}.cls-85{fill:url(#linear-gradient-78);}.cls-86{fill:url(#linear-gradient-79);}.cls-87{fill:url(#linear-gradient-80);}.cls-88{fill:url(#linear-gradient-81);}.cls-89{fill:url(#linear-gradient-82);}.cls-90{fill:url(#linear-gradient-83);}.cls-91{fill:url(#linear-gradient-84);}.cls-92{fill:url(#linear-gradient-85);}.cls-93{fill:url(#linear-gradient-86);}.cls-94{fill:url(#linear-gradient-87);}.cls-95{fill:url(#linear-gradient-88);}.cls-96{fill:url(#linear-gradient-89);}.cls-97{fill:url(#linear-gradient-90);}.cls-98{fill:#eeaa4e;}.cls-99{fill:url(#linear-gradient-91);}.cls-100{fill:url(#linear-gradient-92);}.cls-101{fill:url(#linear-gradient-93);}.cls-102{fill:url(#linear-gradient-94);}.cls-103{fill:#f8a570;}.cls-104{fill:url(#linear-gradient-95);}.cls-105{fill:url(#linear-gradient-96);}.cls-106{fill:url(#linear-gradient-97);}.cls-107{fill:url(#linear-gradient-98);}.cls-108{fill:url(#linear-gradient-99);}.cls-109{fill:url(#linear-gradient-100);}.cls-110{fill:url(#linear-gradient-101);}.cls-111{fill:url(#linear-gradient-102);}.cls-112{fill:url(#linear-gradient-103);}.cls-113{fill:url(#linear-gradient-104);}.cls-114{fill:url(#linear-gradient-105);}</style><linearGradient id="linear-gradient" x1="958.42" y1="385.64" x2="-32.41" y2="389.38" gradientTransform="translate(8.03 11.47) rotate(-1.07)" gradientUnits="userSpaceOnUse"><stop offset="0" stop-color="#b37cff"/><stop offset="1" stop-color="#f895e7"/></linearGradient><linearGradient id="linear-gradient-2" x1="935.5" y1="376.47" x2="2.7" y2="379.99" gradientTransform="matrix(1, -0.02, 0.02, 1.02, 8.54, 14.81)" xlink:href="#linear-gradient"/><linearGradient id="linear-gradient-3" x1="898.7" y1="403.76" x2="1013.55" y2="403.76" gradientUnits="userSpaceOnUse"><stop offset="0" stop-color="#53d8ff"/><stop offset="1" stop-color="#3840f7"/></linearGradient><linearGradient id="linear-gradient-4" x1="793.57" y1="465.76" x2="1152.9" y2="99.3" gradientUnits="userSpaceOnUse"><stop offset="0" stop-color="#a737d5"/><stop offset="1" stop-color="#ef497a"/></linearGradient><linearGradient id="linear-gradient-5" x1="893.04" y1="405.59" x2="1070.35" y2="405.59" gradientTransform="matrix(0.99, 0.1, -0.1, 0.99, 51.58, -100.34)" xlink:href="#linear-gradient-4"/><linearGradient id="linear-gradient-6" x1="467.81" y1="556.24" x2="240.94" y2="43.12" xlink:href="#linear-gradient-4"/><linearGradient id="linear-gradient-7" x1="137.25" y1="387.39" x2="297.1" y2="387.39" xlink:href="#linear-gradient-3"/><linearGradient id="linear-gradient-8" x1="95.26" y1="469.24" x2="291.6" y2="469.24" xlink:href="#linear-gradient-4"/><linearGradient id="linear-gradient-9" x1="538.53" y1="613.5" x2="681.6" y2="184.3" gradientUnits="userSpaceOnUse"><stop offset="0" stop-color="#2b3582"/><stop offset="1" stop-color="#150e42"/></linearGradient><linearGradient id="linear-gradient-10" x1="572.45" y1="635.45" x2="637.13" y2="98.23" xlink:href="#linear-gradient-4"/><linearGradient id="linear-gradient-11" x1="319.41" y1="449.18" x2="884.32" y2="449.18" gradientTransform="matrix(1, 0, 0, 1, 0, 0)" xlink:href="#linear-gradient"/><linearGradient id="linear-gradient-12" x1="573.3" y1="799.87" x2="627.21" y2="505.1" xlink:href="#linear-gradient-9"/><linearGradient id="linear-gradient-13" x1="800.43" y1="67.78" x2="558.53" y2="237.4" xlink:href="#linear-gradient-3"/><linearGradient id="linear-gradient-14" x1="843.84" y1="129.68" x2="601.94" y2="299.3" xlink:href="#linear-gradient-3"/><linearGradient id="linear-gradient-15" x1="808.4" y1="79.14" x2="566.5" y2="248.77" xlink:href="#linear-gradient-3"/><linearGradient id="linear-gradient-16" x1="845.35" y1="131.83" x2="603.45" y2="301.46" xlink:href="#linear-gradient-3"/><linearGradient id="linear-gradient-17" x1="-7340.25" y1="459.2" x2="-7547.28" y2="604.37" gradientTransform="matrix(-1, 0, 0, 1, -6889.32, 0)" gradientUnits="userSpaceOnUse"><stop offset="0" stop-color="#9cfffb"/><stop offset="1" stop-color="#9bfffa"/></linearGradient><linearGradient id="linear-gradient-18" x1="-7303.1" y1="512.18" x2="-7510.13" y2="657.35" xlink:href="#linear-gradient-17"/><linearGradient id="linear-gradient-19" x1="-7333.43" y1="468.93" x2="-7540.46" y2="614.1" xlink:href="#linear-gradient-17"/><linearGradient id="linear-gradient-20" x1="-7301.81" y1="514.02" x2="-7508.84" y2="659.19" xlink:href="#linear-gradient-17"/><linearGradient id="linear-gradient-21" x1="201.27" y1="604.35" x2="131.77" y2="761.65" gradientUnits="userSpaceOnUse"><stop offset="0" stop-color="#fdf53f"/><stop offset="0.66" stop-color="#e57a58"/><stop offset="1" stop-color="#d93c65"/></linearGradient><linearGradient id="linear-gradient-22" x1="258.64" y1="629.7" x2="189.14" y2="787" xlink:href="#linear-gradient-21"/><linearGradient id="linear-gradient-23" x1="191.77" y1="696.64" x2="203.96" y2="638.11" xlink:href="#linear-gradient-21"/><linearGradient id="linear-gradient-24" x1="276.91" y1="709.92" x2="326" y2="709.92" gradientUnits="userSpaceOnUse"><stop offset="0" stop-color="#cb236d"/><stop offset="1" stop-color="#4c246d"/></linearGradient><linearGradient id="linear-gradient-25" x1="314.73" y1="615.52" x2="301.32" y2="708.19" xlink:href="#linear-gradient-24"/><linearGradient id="linear-gradient-26" x1="279.36" y1="695.12" x2="292.65" y2="695.12" gradientUnits="userSpaceOnUse"><stop offset="0" stop-color="#f9b776"/><stop offset="1" stop-color="#f47960"/></linearGradient><linearGradient id="linear-gradient-27" x1="353.91" y1="700.19" x2="393.54" y2="700.19" xlink:href="#linear-gradient-24"/><linearGradient id="linear-gradient-28" x1="381.17" y1="625.14" x2="367.76" y2="717.81" xlink:href="#linear-gradient-24"/><linearGradient id="linear-gradient-29" x1="205.92" y1="635.19" x2="311.06" y2="635.19" xlink:href="#linear-gradient-9"/><linearGradient id="linear-gradient-30" x1="342.28" y1="696.24" x2="358.13" y2="696.24" xlink:href="#linear-gradient-26"/><linearGradient id="linear-gradient-31" x1="301.43" y1="591.38" x2="185.99" y2="722.26" xlink:href="#linear-gradient-9"/><linearGradient id="linear-gradient-32" x1="241.9" y1="461.59" x2="281.42" y2="461.59" xlink:href="#linear-gradient-26"/><linearGradient id="linear-gradient-33" x1="174.84" y1="521.62" x2="325.87" y2="521.62" xlink:href="#linear-gradient-21"/><linearGradient id="linear-gradient-34" x1="320.98" y1="549.45" x2="357.61" y2="549.45" xlink:href="#linear-gradient-26"/><linearGradient id="linear-gradient-35" x1="-68.41" y1="2122.52" x2="-106.56" y2="2172.99" gradientTransform="translate(55.79 -1675.14) rotate(-8.21)" xlink:href="#linear-gradient-26"/><linearGradient id="linear-gradient-36" x1="-97.54" y1="2134.69" x2="-51.97" y2="2134.69" gradientTransform="translate(55.79 -1675.14) rotate(-8.21)" xlink:href="#linear-gradient-9"/><linearGradient id="linear-gradient-37" x1="-124.28" y1="2162.49" x2="-93.68" y2="2131.09" gradientTransform="translate(55.79 -1675.14) rotate(-8.21)" xlink:href="#linear-gradient-26"/><linearGradient id="linear-gradient-38" x1="89.25" y1="-5577.85" x2="-8.72" y2="-5483.14" gradientTransform="matrix(-1.39, -0.07, -0.07, 1.39, -7786.78, -95.81)" xlink:href="#linear-gradient-17"/><linearGradient id="linear-gradient-39" x1="-2432.38" y1="-5170.41" x2="-2530.34" y2="-5075.7" gradientTransform="matrix(0.65, -1.23, -1.23, -0.65, 6547.72, -9410.84)" xlink:href="#linear-gradient-17"/><linearGradient id="linear-gradient-40" x1="327.13" y1="725" x2="334.45" y2="897.54" xlink:href="#linear-gradient-3"/><linearGradient id="linear-gradient-41" x1="377.14" y1="722.88" x2="384.46" y2="895.42" xlink:href="#linear-gradient-3"/><linearGradient id="linear-gradient-42" x1="355.4" y1="723.8" x2="362.72" y2="896.34" xlink:href="#linear-gradient-3"/><linearGradient id="linear-gradient-43" x1="347.01" y1="556.17" x2="333.52" y2="655.87" xlink:href="#linear-gradient-9"/><linearGradient id="linear-gradient-44" x1="276.71" y1="388.87" x2="500.98" y2="434.61" gradientTransform="matrix(0.94, 0.01, -0.01, 0.81, 54.35, -145.6)" xlink:href="#linear-gradient"/><linearGradient id="linear-gradient-45" x1="519.11" y1="470.06" x2="643.07" y2="495.34" gradientTransform="matrix(0.94, 0.01, -0.01, 0.81, 54.35, -145.6)" xlink:href="#linear-gradient"/><linearGradient id="linear-gradient-46" x1="873.96" y1="612.84" x2="888.52" y2="521.26" xlink:href="#linear-gradient-3"/><linearGradient id="linear-gradient-47" x1="879.8" y1="613.77" x2="894.36" y2="522.16" xlink:href="#linear-gradient-3"/><linearGradient id="linear-gradient-48" x1="816.07" y1="538.72" x2="1060.56" y2="534.22" xlink:href="#linear-gradient-21"/><linearGradient id="linear-gradient-49" x1="895.07" y1="638.86" x2="942.97" y2="638.86" xlink:href="#linear-gradient-26"/><linearGradient id="linear-gradient-50" x1="924.38" y1="670.07" x2="917.33" y2="778.1" xlink:href="#linear-gradient-24"/><linearGradient id="linear-gradient-51" x1="838.83" y1="642.13" x2="939.9" y2="642.13" xlink:href="#linear-gradient-26"/><linearGradient id="linear-gradient-52" x1="936.39" y1="671.6" x2="954.55" y2="604.64" xlink:href="#linear-gradient-4"/><linearGradient id="linear-gradient-53" x1="856.39" y1="665.64" x2="849.35" y2="773.66" xlink:href="#linear-gradient-24"/><linearGradient id="linear-gradient-54" x1="951.06" y1="495.65" x2="1004.77" y2="612.54" xlink:href="#linear-gradient-4"/><linearGradient id="linear-gradient-55" x1="952.36" y1="503.41" x2="947.3" y2="470.97" xlink:href="#linear-gradient-26"/><linearGradient id="linear-gradient-56" x1="930.5" y1="442.27" x2="975.16" y2="472.61" xlink:href="#linear-gradient-26"/><linearGradient id="linear-gradient-57" x1="1008.44" y1="385.29" x2="933.54" y2="463.22" xlink:href="#linear-gradient-24"/><linearGradient id="linear-gradient-58" x1="933.18" y1="438.33" x2="977.84" y2="468.67" xlink:href="#linear-gradient-26"/><linearGradient id="linear-gradient-59" x1="981.38" y1="559.58" x2="1076.33" y2="559.58" xlink:href="#linear-gradient-26"/><linearGradient id="linear-gradient-60" x1="1041.73" y1="417.29" x2="966.83" y2="495.22" xlink:href="#linear-gradient-24"/><linearGradient id="linear-gradient-61" x1="920.07" y1="714.89" x2="860.3" y2="731.27" gradientTransform="translate(28.9 -118.78) rotate(-2.83)" xlink:href="#linear-gradient-9"/><linearGradient id="linear-gradient-62" x1="902.29" y1="511.19" x2="859.88" y2="556.01" xlink:href="#linear-gradient-9"/><linearGradient id="linear-gradient-63" x1="876.65" y1="522.35" x2="857.4" y2="551.33" xlink:href="#linear-gradient-3"/><linearGradient id="linear-gradient-64" x1="758.19" y1="575.83" x2="1074.34" y2="575.83" gradientTransform="matrix(1, 0, 0, 1, 0, 0)" xlink:href="#linear-gradient-17"/><linearGradient id="linear-gradient-65" x1="776.34" y1="645.13" x2="838.75" y2="645.13" gradientTransform="matrix(1, 0, 0, 1, 0, 0)" xlink:href="#linear-gradient-17"/><linearGradient id="linear-gradient-66" x1="783.55" y1="645.13" x2="845.96" y2="645.13" gradientTransform="matrix(1, 0, 0, 1, 0, 0)" xlink:href="#linear-gradient-17"/><linearGradient id="linear-gradient-67" x1="989.93" y1="645.13" x2="1052.34" y2="645.13" gradientTransform="matrix(1, 0, 0, 1, 0, 0)" xlink:href="#linear-gradient-17"/><linearGradient id="linear-gradient-68" x1="997.14" y1="645.13" x2="1059.55" y2="645.13" gradientTransform="matrix(1, 0, 0, 1, 0, 0)" xlink:href="#linear-gradient-17"/><linearGradient id="linear-gradient-69" x1="511.71" y1="357.16" x2="605.3" y2="357.16" gradientTransform="matrix(1, 0, 0, 1, 0, 0)" xlink:href="#linear-gradient-17"/><linearGradient id="linear-gradient-70" x1="396.17" y1="416.12" x2="583.85" y2="416.12" gradientTransform="matrix(1, 0, 0, 1, 0, 0)" xlink:href="#linear-gradient-17"/><linearGradient id="linear-gradient-71" x1="413.83" y1="416.12" x2="566.19" y2="416.12" gradientTransform="matrix(1, 0, 0, 1, 0, 0)" xlink:href="#linear-gradient-17"/><linearGradient id="linear-gradient-72" x1="506.5" y1="351.62" x2="510.96" y2="351.62" gradientTransform="matrix(1, 0, 0, 1, 0, 0)" xlink:href="#linear-gradient-17"/><linearGradient id="linear-gradient-73" x1="422.24" y1="416.16" x2="557.23" y2="416.16" gradientTransform="matrix(1, 0, 0, 1, 0, 0)" xlink:href="#linear-gradient-17"/><linearGradient id="linear-gradient-74" x1="556.61" y1="416.02" x2="557.78" y2="416.02" gradientTransform="matrix(1, 0, 0, 1, 0, 0)" xlink:href="#linear-gradient-17"/><linearGradient id="linear-gradient-75" x1="461.32" y1="416.13" x2="518.69" y2="416.13" gradientTransform="matrix(1, 0, 0, 1, 0, 0)" xlink:href="#linear-gradient-17"/><linearGradient id="linear-gradient-76" x1="522.71" y1="358.43" x2="587.97" y2="358.43" gradientTransform="matrix(1, 0, 0, 1, 0, 0)" xlink:href="#linear-gradient-17"/><linearGradient id="linear-gradient-77" x1="663.9" y1="429.43" x2="683.97" y2="429.43" gradientTransform="matrix(1, 0, 0, 1, 0, 0)" xlink:href="#linear-gradient-17"/><linearGradient id="linear-gradient-78" x1="686.18" y1="415.91" x2="711.34" y2="415.91" gradientTransform="matrix(1, 0, 0, 1, 0, 0)" xlink:href="#linear-gradient-17"/><linearGradient id="linear-gradient-79" x1="714.6" y1="408.65" x2="747.13" y2="408.65" gradientTransform="matrix(1, 0, 0, 1, 0, 0)" xlink:href="#linear-gradient-17"/><linearGradient id="linear-gradient-80" x1="757.1" y1="399.93" x2="794.83" y2="399.93" gradientTransform="matrix(1, 0, 0, 1, 0, 0)" xlink:href="#linear-gradient-17"/><linearGradient id="linear-gradient-81" x1="-6701.02" y1="690.26" x2="-6660.75" y2="690.26" gradientTransform="matrix(-1, 0, 0, 1, -5981.88, 0)" xlink:href="#linear-gradient-3"/><linearGradient id="linear-gradient-82" x1="-6701.02" y1="682.36" x2="-6661.88" y2="682.36" gradientTransform="matrix(-1, 0, 0, 1, -5981.88, 0)" xlink:href="#linear-gradient-9"/><linearGradient id="linear-gradient-83" x1="-6697.3" y1="671.34" x2="-6685.96" y2="671.34" gradientTransform="matrix(-1, 0, 0, 1, -5981.88, 0)" xlink:href="#linear-gradient-26"/><linearGradient id="linear-gradient-84" x1="-6772.9" y1="700.24" x2="-6757.47" y2="700.24" gradientTransform="matrix(-1, 0, 0, 1, -5981.88, 0)" xlink:href="#linear-gradient-3"/><linearGradient id="linear-gradient-85" x1="-6772.79" y1="684.89" x2="-6750.14" y2="684.89" gradientTransform="matrix(-1, 0, 0, 1, -5981.88, 0)" xlink:href="#linear-gradient-9"/><linearGradient id="linear-gradient-86" x1="-6761.02" y1="665.43" x2="-6747.46" y2="665.43" gradientTransform="matrix(-1, 0, 0, 1, -5981.88, 0)" xlink:href="#linear-gradient-26"/><linearGradient id="linear-gradient-87" x1="-6651.35" y1="519.12" x2="-6767.11" y2="708.74" gradientTransform="matrix(-1, 0, 0, 1, -5981.88, 0)" xlink:href="#linear-gradient-3"/><linearGradient id="linear-gradient-88" x1="-6687.84" y1="554.3" x2="-6677.03" y2="533.11" gradientTransform="matrix(-1, 0, 0, 1, -5981.88, 0)" xlink:href="#linear-gradient-3"/><linearGradient id="linear-gradient-89" x1="-6574.54" y1="379.85" x2="-6628.23" y2="449.71" gradientTransform="matrix(-1, 0, 0, 1, -5981.88, 0)" xlink:href="#linear-gradient-26"/><linearGradient id="linear-gradient-90" x1="-6638.24" y1="396.21" x2="-6817.51" y2="608.68" gradientTransform="matrix(-1, 0, 0, 1, -5981.88, 0)" gradientUnits="userSpaceOnUse"><stop offset="0" stop-color="#fdf53f"/><stop offset="1" stop-color="#d93c65"/></linearGradient><linearGradient id="linear-gradient-91" x1="-6694.22" y1="425" x2="-6688.35" y2="394.16" gradientTransform="matrix(-1, 0, 0, 1, -5981.88, 0)" xlink:href="#linear-gradient-26"/><linearGradient id="linear-gradient-92" x1="-6678.33" y1="368.42" x2="-6711.85" y2="394.06" gradientTransform="matrix(-1, 0, 0, 1, -5981.88, 0)" xlink:href="#linear-gradient-26"/><linearGradient id="linear-gradient-93" x1="-6701.92" y1="348.11" x2="-6670.71" y2="388.3" gradientTransform="matrix(-1, 0, 0, 1, -5981.88, 0)" xlink:href="#linear-gradient-9"/><linearGradient id="linear-gradient-94" x1="-6682.49" y1="362.98" x2="-6716" y2="388.63" gradientTransform="matrix(-1, 0, 0, 1, -5981.88, 0)" xlink:href="#linear-gradient-26"/><linearGradient id="linear-gradient-95" x1="-6669.2" y1="458.46" x2="-6688.43" y2="487.31" gradientTransform="matrix(-1, 0, 0, 1, -5981.88, 0)" xlink:href="#linear-gradient-26"/><linearGradient id="linear-gradient-96" x1="725.68" y1="463.12" x2="706.84" y2="491.39" xlink:href="#linear-gradient-26"/><linearGradient id="linear-gradient-97" x1="1708.17" y1="692.2" x2="1655.17" y2="706.73" gradientTransform="translate(-1020.24 -118.78) rotate(-2.83)" xlink:href="#linear-gradient-9"/><linearGradient id="linear-gradient-98" x1="1697.34" y1="454.4" x2="1659.96" y2="493.91" gradientTransform="translate(-1049.15)" xlink:href="#linear-gradient-9"/><linearGradient id="linear-gradient-99" x1="1674.68" y1="464.27" x2="1657.78" y2="489.72" gradientTransform="translate(-1049.15)" xlink:href="#linear-gradient-3"/><linearGradient id="linear-gradient-100" x1="4282.01" y1="-2162.49" x2="4166.93" y2="-2232.23" gradientTransform="matrix(0.97, 0.26, -0.41, 0.83, -4059.38, 862.57)" xlink:href="#linear-gradient-3"/><linearGradient id="linear-gradient-101" x1="4218.14" y1="-2188.27" x2="4086.45" y2="-2327.52" gradientTransform="matrix(0.97, 0.26, -0.41, 0.83, -3970.01, 946.91)" xlink:href="#linear-gradient-3"/><linearGradient id="linear-gradient-102" x1="4273.61" y1="-2163.65" x2="4166.11" y2="-2228.8" gradientTransform="matrix(0.97, 0.26, -0.41, 0.83, -4059.38, 862.57)" xlink:href="#linear-gradient-3"/><linearGradient id="linear-gradient-103" x1="-6985" y1="-1915.01" x2="-6935.88" y2="-1929.24" gradientTransform="matrix(-0.97, -0.26, -0.26, 0.97, -6327.63, 166.09)" xlink:href="#linear-gradient-3"/><linearGradient id="linear-gradient-104" x1="899.92" y1="311.51" x2="1016.67" y2="311.51" gradientTransform="matrix(1, 0, 0, 1, 0, 0)" xlink:href="#linear-gradient-17"/><linearGradient id="linear-gradient-105" x1="724.84" y1="465.73" x2="706.98" y2="492.52" xlink:href="#linear-gradient-26"/></defs><path class="cls-1" d="M1071.52,430.16l-21.83-24.93s-98-86.71-101.53-184.55-46.91-111-150.8-117.14c-87.83-5.19-189.36-19.92-271,35.6a202.94,202.94,0,0,1-121.18,35.27l-94.72-3.26a201.75,201.75,0,0,0-126.42,39.16c-54.48,40-113.15,113.62-89.21,238.85a391.22,391.22,0,0,1,7,65.21l1,53.2c.87,46.73,37.34,84.45,82.91,85.45l711,15.57c73.09,1.6,143.35-28.53,193.57-83a77.29,77.29,0,0,0,20.28-53.83A158.87,158.87,0,0,0,1071.52,430.16Z" transform="translate(-89.37 -84.33)"/><path class="cls-2" d="M1043.43,427.58l-20.53-22.93S930.69,325,927.44,235s-44.08-102-141.83-107.66c-82.63-4.74-178.15-18.25-255,32.85a194.38,194.38,0,0,1-114,32.48l-89.12-3a193.05,193.05,0,0,0-118.95,36.06c-51.28,36.81-107.19,104.55-84.72,219.7a350.62,350.62,0,0,1,5.9,60l.91,48.93c.81,43,35.8,77.63,78.67,78.53l669.25,14a243.83,243.83,0,0,0,182.33-76.37A70.33,70.33,0,0,0,1080.09,521,144.05,144.05,0,0,0,1043.43,427.58Z" transform="translate(-89.37 -84.33)"/><path class="cls-3" d="M906.23,548.54a.91.91,0,0,0,1.68-.67c-3.35-14.68-10.92-62,24.1-84.68,40.82-26.47,111.14-38,68-197.93a9.09,9.09,0,0,0-13.51-5.4c-24,14.58-81.52,55-84.54,108.51-3.82,67.73,7.89,82.08,1.89,107C893.28,519.48,901.46,540.68,906.23,548.54Z" transform="translate(-89.37 -84.33)"/><path class="cls-4" d="M888.19,563.53a.52.52,0,0,1-1-.21C891,537,901.94,453.92,898.82,387.57c-3.76-79.94-18-115.07-24.24-155.78s19.55-92.31,88.64-75.64c56.41,13.61,100.73,22.9,121.51,19.9a5,5,0,0,1,5.14,7.19c-11.93,23.72-44.34,77.33-95.34,81.6-65.67,5.49-66.59-12.49-80.42,4.94s-13.11,34.55-12,66.63C903.1,367.33,907.44,489.27,888.19,563.53Z" transform="translate(-89.37 -84.33)"/><path class="cls-5" d="M896.26,310.22s-.1-.23-.28-.68l-.75-2c-.63-1.73-1.51-4.27-2.5-7.55a134.79,134.79,0,0,1-5.35-27.83,96,96,0,0,1,.29-19.08,74.67,74.67,0,0,1,2-10.31,62.89,62.89,0,0,1,3.83-10.35,56.22,56.22,0,0,1,2.67-5c.45-.85,1-1.6,1.57-2.41s1-1.62,1.68-2.36a51.48,51.48,0,0,1,3.81-4.43c.69-.7,1.36-1.42,2.06-2.11l2.23-1.93a53.41,53.41,0,0,1,4.72-3.6l.6-.43c.27-.2.43-.28.64-.42l1.22-.76,2.44-1.53c1.61-1,3.38-2,5.07-3s3.46-1.82,5.19-2.74a103.67,103.67,0,0,1,21.94-8.12l1.4-.35,1.42-.29,2.83-.57c1.9-.27,3.77-.64,5.66-.8a98.55,98.55,0,0,1,11.17-.67,187.46,187.46,0,0,1,21,1.32c6.61.72,12.8,1.48,18.53,2s11,.76,15.64.78,8.71-.24,12-.54,5.94-.65,7.71-1l2.72-.43h0a.86.86,0,0,1,1,.72.88.88,0,0,1-.7,1l-2.74.5c-1.78.36-4.42.76-7.8,1.18s-7.49.74-12.22.88-10.08,0-15.88-.39-12-1-18.62-1.61a181.25,181.25,0,0,0-20.61-.91,101.37,101.37,0,0,0-10.78.8c-1.81.18-3.61.56-5.43.84l-2.7.58-1.36.29-1.35.36a99.12,99.12,0,0,0-21,8.09c-1.66.91-3.37,1.75-5,2.71S921,210,919.38,211a74,74,0,0,0-9.08,6.46l-2,1.79c-.64.64-1.25,1.31-1.88,2a46.18,46.18,0,0,0-3.47,4.08c-.58.68-1,1.46-1.53,2.18s-1,1.44-1.43,2.22a51.12,51.12,0,0,0-2.43,4.63A59.34,59.34,0,0,0,894,244a76.86,76.86,0,0,0-1.8,9.69,92.26,92.26,0,0,0-.33,18.18A134.85,134.85,0,0,0,894,287.16c.9,4.54,1.9,8.45,2.82,11.64s1.74,5.67,2.33,7.34c.3.82.53,1.46.69,1.88l.24.64,0,0a2.08,2.08,0,0,1-3.87,1.53Z" transform="translate(-89.37 -84.33)"/><path class="cls-6" d="M900.22,530.76a.57.57,0,0,1-1-.52c3.47-9.31,11-33.61,9.2-65.44-2.3-41-32.46-140.11,45.5-158,68.68-15.79,109.27-19.25,128.31-32.59a4.1,4.1,0,0,1,6.46,3.48c-.87,24.56-7.28,89.38-50.2,105.47-53.25,20-105-1.91-121.93,17.26C900.08,419,927.85,490.28,900.22,530.76Z" transform="translate(-89.37 -84.33)"/><path class="cls-7" d="M904.6,415.32s0-.21-.05-.62-.06-1-.11-1.79c-.08-1.56-.19-3.84-.18-6.74s.08-6.41.32-10.44.64-8.58,1.39-13.52a135.9,135.9,0,0,1,3.3-15.8,103,103,0,0,1,6.27-17.06,73.9,73.9,0,0,1,10.72-16.49,55.71,55.71,0,0,1,16.06-12.79,20.15,20.15,0,0,1,2.34-1.13l2.37-1.07c.78-.38,1.62-.6,2.43-.9l2.45-.83.61-.21.07,0,.15-.05.15,0,.29-.07,1.18-.31c.8-.2,1.53-.42,2.4-.59l2.52-.54c.83-.16,1.66-.28,2.48-.42a83.32,83.32,0,0,1,19.48-.73c6.25.46,12.15,1.32,17.66,2a96,96,0,0,0,15.4.84,54.74,54.74,0,0,0,12.75-2,58.35,58.35,0,0,0,9.42-3.51c1.29-.56,2.39-1.17,3.36-1.67s1.8-.95,2.45-1.33l2-1.17,0,0a.78.78,0,0,1,.85,1.31l-1.92,1.39c-.62.46-1.4,1-2.35,1.63s-2,1.33-3.3,2a56,56,0,0,1-23,7.48,91.11,91.11,0,0,1-16.18,0c-5.67-.38-11.51-1.08-17.49-1.3a84.92,84.92,0,0,0-18.15,1.1c-.75.15-1.52.28-2.27.44l-2.21.51c-.72.15-1.54.41-2.31.62l-1.17.33-.29.08-.15,0s.08,0,0,0l-.07,0-.54.19-2.17.76a19.79,19.79,0,0,0-2.15.81l-2.09.95a19.71,19.71,0,0,0-2.06,1,50.78,50.78,0,0,0-14.19,11.41,67.9,67.9,0,0,0-9.85,15,99.41,99.41,0,0,0-6.15,15.94,139.39,139.39,0,0,0-3.54,15.06c-.84,4.74-1.47,9.11-1.87,13s-.62,7.31-.75,10.13-.2,5-.2,6.53,0,2.28,0,2.28v.06a2.08,2.08,0,0,1-4.16.17Z" transform="translate(-89.37 -84.33)"/><path class="cls-8" d="M354.5,398.77s2.58-67.81-28.4-86.42S235.87,281.55,235,184.11c-.49-57-1.54-82-2.33-92.88a6.42,6.42,0,0,1,7.68-6.77c29.51,6,125.31,30.32,144.52,96.22C407.69,258.81,354.5,398.77,354.5,398.77Z" transform="translate(-89.37 -84.33)"/><path class="cls-7" d="M262.89,111.9s.85.77,2.41,2.26,3.82,3.68,6.58,6.58,6.09,6.45,9.78,10.64c1.84,2.09,3.81,4.32,5.81,6.73l3.08,3.7,3.14,3.94,3.27,4.12,3.3,4.35,3.38,4.52,3.37,4.75c1.14,1.61,2.31,3.23,3.46,4.89l3.41,5.09c1.14,1.73,2.32,3.46,3.46,5.24s2.24,3.6,3.38,5.42,2.3,3.66,3.42,5.53,2.2,3.79,3.32,5.7,2.23,3.84,3.33,5.79l3.17,6,3.2,6,3,6.15c1,2.05,2,4.11,3,6.17l.38.78.21.44.17.39.68,1.56,1.38,3.13a221.81,221.81,0,0,1,9.21,26,246.28,246.28,0,0,1,5.84,26c1.45,8.52,2.35,16.84,2.94,24.73s.77,15.37.73,22.27-.36,13.21-.77,18.8S363,360.05,362.5,364s-1,7.12-1.42,9.25c-.2,1.07-.36,1.88-.46,2.44l-.18.85a2.15,2.15,0,0,1-4.24-.76v-.06l.12-.79c.07-.53.18-1.33.33-2.37.27-2.08.6-5.16,1-9.09s.69-8.71.91-14.21.27-11.7.16-18.46-.5-14.07-1.17-21.78-1.76-15.79-3.21-24.09a246.08,246.08,0,0,0-5.83-25.28,215.56,215.56,0,0,0-8.84-25.18l-1.37-3.12-.68-1.57-.18-.39-.15-.33-.36-.76-2.9-6.11c-1-2-1.93-4-2.89-6.07L328,210.22l-3.05-5.9-3.2-5.75q-1.57-2.87-3.15-5.68c-1.06-1.87-2.18-3.69-3.25-5.52L312.16,182c-1.08-1.77-2.21-3.5-3.29-5.23l-3.22-5.13c-1.08-1.67-2.19-3.3-3.26-4.92l-3.19-4.79L296,157.31l-3.08-4.42-3.07-4.2-3-4L284,140.9c-1.85-2.49-3.68-4.79-5.4-7-3.42-4.33-6.52-8-9.11-11s-4.65-5.33-6.08-6.9-2.22-2.37-2.22-2.37a1.22,1.22,0,0,1,1.7-1.76Z" transform="translate(-89.37 -84.33)"/><path class="cls-9" d="M296.76,551.68c4.24,3.27-32.48-68.82-28.11-169.42,2.06-47.41,13.67-105-8-132.46-18-22.88-94.48-26.3-119.62-26.81a3.71,3.71,0,0,0-3,6c9.63,12.13,29.82,40.21,31.58,64.74,2.31,32.33,27.44,57.7,52.41,68.27s38.41,18.62,42.62,62.83S284.7,542.38,296.76,551.68Z" transform="translate(-89.37 -84.33)"/><path class="cls-10" d="M172.52,242.86s.74.16,2.1.51,3.35.9,5.83,1.73,5.48,1.9,8.85,3.3a117.88,117.88,0,0,1,11.08,5.26,120.43,120.43,0,0,1,12.37,7.66,102.1,102.1,0,0,1,12.54,10.42,91.67,91.67,0,0,1,11.23,13.42,82.54,82.54,0,0,1,8.44,16l.81,2.14a22.7,22.7,0,0,1,.74,2.15c.45,1.45.91,2.91,1.32,4.36.75,2.86,1.51,5.7,2.26,8.53s1.45,5.65,2.16,8.44,1.34,5.54,2,8.25c1.29,5.43,2.48,10.69,3.53,15.69s2,9.74,2.85,14.13q.6,3.28,1.16,6.29l1,5.7c.58,3.58,1.07,6.7,1.44,9.28s.63,4.61.8,6,.25,2.14.25,2.14a.85.85,0,0,1-1.67.25v0s-.14-.73-.39-2.09-.66-3.36-1.16-5.9c-1-5.08-2.59-12.32-4.53-21-1-4.33-2.11-9-3.26-14s-2.5-10.15-3.82-15.55-2.83-10.92-4.29-16.57l-2.29-8.52c-.39-1.39-.85-2.75-1.25-4.14-.2-.7-.44-1.38-.7-2l-.75-2a83.8,83.8,0,0,0-18.46-28.32A104.59,104.59,0,0,0,210.82,264,120,120,0,0,0,199,256.12c-3.82-2.19-7.39-4.08-10.64-5.61s-6.13-2.74-8.54-3.67-4.31-1.61-5.62-2-2-.63-2-.63a.67.67,0,0,1-.47-.83.67.67,0,0,1,.79-.48Z" transform="translate(-89.37 -84.33)"/><path class="cls-11" d="M291.31,564.52c2.85,1.5-16.08-31.09-17.54-59.8s-7.93-77.73-32.69-107-51.88-32-86.05-5.34c-28.47,22.21-46.23,33.41-56.65,35.5a3.94,3.94,0,0,0-2.64,5.74c6.68,12.3,25.57,40.56,57.29,38.57,40.45-2.54,89.48-28.83,104.42-6.9s13,34.22,13.48,44.61S272.42,554.56,291.31,564.52Z" transform="translate(-89.37 -84.33)"/><path class="cls-7" d="M166.52,427.54l1.21-1.14c.79-.74,2-1.79,3.54-3.06a95.44,95.44,0,0,1,13.83-9.41,76.35,76.35,0,0,1,10.24-4.74,53.43,53.43,0,0,1,12.38-3c1.11-.16,2.25-.17,3.39-.25s2.3,0,3.46.08l1.75.13,1.76.26c.58.07,1.16.21,1.75.34s1.12.22,1.79.44a70.4,70.4,0,0,1,13,5.11,58.53,58.53,0,0,1,11.47,8.18l2.43,2.48c.39.42.81.81,1.18,1.25l1.09,1.32c.71.88,1.46,1.73,2.12,2.63l1.89,2.74.92,1.35.81,1.41,1.6,2.76c1,1.85,1.85,3.72,2.73,5.51s1.47,3.64,2.18,5.37,1.18,3.48,1.75,5.11c.29.82.53,1.63.74,2.43s.43,1.57.64,2.33c.4,1.52.84,2.94,1.12,4.32l.84,3.82c.27,1.18.5,2.26.66,3.26.67,3.94,1.05,6.2,1.05,6.2a.75.75,0,0,1-1.46.31v0L266.85,469c-.44-1.94-1.19-4.23-1.92-6.88-.34-1.34-.85-2.71-1.32-4.18s-.95-3-1.6-4.58-1.22-3.22-1.9-4.9l-2.33-5.1c-.91-1.68-1.78-3.45-2.78-5.19-.52-.85-1.06-1.71-1.6-2.58l-.81-1.31-.91-1.25c-.61-.84-1.22-1.68-1.85-2.53s-1.35-1.61-2-2.42l-1-1.22c-.35-.4-.75-.75-1.13-1.14l-2.29-2.26a59.21,59.21,0,0,0-10.7-7.43,66.23,66.23,0,0,0-12.29-4.72,29.77,29.77,0,0,0-6.06-1c-1-.12-2.06-.07-3.08-.09s-2.05.06-3.05.19a50.69,50.69,0,0,0-11.53,2.53,75.9,75.9,0,0,0-10,4.1c-3,1.45-5.71,3-8.07,4.36s-4.36,2.7-6,3.8-2.9,2-3.75,2.62l-1.29,1,0,0a.78.78,0,0,1-1-1.19Z" transform="translate(-89.37 -84.33)"/><path class="cls-12" d="M907.94,629.07a11.24,11.24,0,0,1-11.21,11.19H291a11.23,11.23,0,0,1-11.21-11.19l-5-348.11c0-6.15,7.26-18.17,20.55-17.27l592-15.31a28.21,28.21,0,0,1,29,28.87Z" transform="translate(-89.37 -84.33)"/><path class="cls-13" d="M896.88,618.33a10.63,10.63,0,0,1-10.6,10.6H305.59A10.63,10.63,0,0,1,295,618.33l-4.76-316c.56-19,17.23-25.85,27.34-25.45L885,261.65A19.79,19.79,0,0,1,905.31,282Z" transform="translate(-89.37 -84.33)"/><path class="cls-14" d="M301.27,467.65a1,1,0,0,1-1-1L299.9,441a1,1,0,1,1,2,0l.37,25.62a1,1,0,0,1-1,1Z" transform="translate(-89.37 -84.33)"/><path class="cls-14" d="M300.35,404.85a1,1,0,0,1-1-1l-1.44-98.15c0-6.6,2.06-11.87,6-15.69,7.23-6.93,18.55-6.59,19-6.57l181.18-4.86a1,1,0,0,1,1,1,1,1,0,0,1-1,1L323,285.45c-.52,0-11-.34-17.64,6-3.58,3.43-5.4,8.22-5.43,14.24l1.44,98.13a1,1,0,0,1-1,1Z" transform="translate(-89.37 -84.33)"/><path class="cls-15" d="M320.58,600.8c.61-26.12.38-257.41-1.12-277.38s29.61-23.72,77.38-26S847.6,286.3,858,285.46c23.32-1.89,28.15,33,25.81,108.65-1.75,56.86-4.65,150.53-6,193.6a23.77,23.77,0,0,1-23.71,23c-97,.26-468.67,1.33-493.41,2.07C332.2,613.66,320.34,611.16,320.58,600.8Z" transform="translate(-89.37 -84.33)"/><path class="cls-16" d="M941.78,669.16H258.22a15.35,15.35,0,0,1-15.3-15.3h0a15.34,15.34,0,0,1,15.3-15.29H941.78a15.34,15.34,0,0,1,15.3,15.29h0A15.35,15.35,0,0,1,941.78,669.16Z" transform="translate(-89.37 -84.33)"/><g class="cls-17"><path class="cls-18" d="M747,154.06l-162.91-.91a8.55,8.55,0,0,0-7.38,12.95l.82,1.36a8.55,8.55,0,0,0,7.33,4.15H747a8.55,8.55,0,0,0,8.55-8.55v-.45A8.54,8.54,0,0,0,747,154.06Z" transform="translate(-89.37 -84.33)"/><path class="cls-19" d="M769.78,162.8v.26a8.55,8.55,0,0,0,8.55,8.55h36.16a8.55,8.55,0,0,0,8.27-6.34h0a8.56,8.56,0,0,0-8.2-10.76l-36.16-.26A8.55,8.55,0,0,0,769.78,162.8Z" transform="translate(-89.37 -84.33)"/></g><g class="cls-17"><path class="cls-20" d="M707.84,184.75l-123.72-.91a8.56,8.56,0,0,0-7.38,13l.82,1.36a8.57,8.57,0,0,0,7.33,4.15h122.9a8.55,8.55,0,0,0,8.55-8.55v-.46A8.55,8.55,0,0,0,707.84,184.75Z" transform="translate(-89.37 -84.33)"/><path class="cls-21" d="M730.6,193.49v.27a8.55,8.55,0,0,0,8.55,8.55h36.16a8.55,8.55,0,0,0,8.26-6.35h0a8.55,8.55,0,0,0-8.2-10.75l-36.16-.27A8.55,8.55,0,0,0,730.6,193.49Z" transform="translate(-89.37 -84.33)"/></g><g class="cls-17"><path class="cls-22" d="M496.63,533l139.42-.77a7.32,7.32,0,0,1,6.32,11.08l-.7,1.17a7.34,7.34,0,0,1-6.28,3.55H496.67a7.31,7.31,0,0,1-7.31-7.32v-.39A7.33,7.33,0,0,1,496.63,533Z" transform="translate(-89.37 -84.33)"/><path class="cls-23" d="M477.16,540.52v.23a7.32,7.32,0,0,1-7.32,7.32H438.89a7.33,7.33,0,0,1-7.07-5.43h0a7.32,7.32,0,0,1,7-9.21l31-.22A7.31,7.31,0,0,1,477.16,540.52Z" transform="translate(-89.37 -84.33)"/></g><g class="cls-17"><path class="cls-24" d="M530.17,559.31l105.88-.77a7.32,7.32,0,0,1,6.32,11.08l-.7,1.17a7.34,7.34,0,0,1-6.28,3.55H530.21a7.32,7.32,0,0,1-7.32-7.32v-.39A7.33,7.33,0,0,1,530.17,559.31Z" transform="translate(-89.37 -84.33)"/><path class="cls-25" d="M510.69,566.79V567a7.31,7.31,0,0,1-7.31,7.32H472.43a7.31,7.31,0,0,1-7.07-5.43h0a7.32,7.32,0,0,1,7-9.21l30.95-.22A7.31,7.31,0,0,1,510.69,566.79Z" transform="translate(-89.37 -84.33)"/></g><path class="cls-26" d="M177.06,617.16c-2,3-10,70.48-11.28,95.42a3,3,0,0,0,2.95,3.09h0a3,3,0,0,0,2.92-2.5l14.65-93.86Z" transform="translate(-89.37 -84.33)"/><path class="cls-27" d="M241.44,617.16c2,3,10,70.48,11.28,95.42a3,3,0,0,1-3,3.09h0a3,3,0,0,1-2.91-2.5L232.2,619.31Z" transform="translate(-89.37 -84.33)"/><path class="cls-28" d="M164.94,611.89v.74c-.05,5.29,4.51,9.64,10.22,9.73l67.7,1.16c5.64.09,10.33-4,10.6-9.19l0-.67c.28-5.44-4.34-10-10.21-10.13l-67.73-1.21C169.77,602.21,165,606.52,164.94,611.89Z" transform="translate(-89.37 -84.33)"/><path class="cls-29" d="M296.65,710.12c-12,0-17.36-1-19.74-2a4.56,4.56,0,0,0,4.45,3.54h42.57a2.08,2.08,0,0,0,2-2.62C321.08,709.46,310.77,710.12,296.65,710.12Z" transform="translate(-89.37 -84.33)"/><path class="cls-30" d="M325.93,709.07a1.93,1.93,0,0,0-.35-.72c-3.24-4.14-9.76-10.65-18.62-10.52-13,.18-17.51,1.59-27.6.08L277,705.8a4.59,4.59,0,0,0-.07,2.35c2.38.94,7.71,2,19.74,2C310.77,710.12,321.08,709.46,325.93,709.07Z" transform="translate(-89.37 -84.33)"/><path class="cls-31" d="M282.28,689.41l-2.92,9.93s6.47,2.95,12.17.58l1.12-8.61Z" transform="translate(-89.37 -84.33)"/><path class="cls-32" d="M370.53,703.87c-9.38,7.53-14.18,10.07-16.62,10.83a4.57,4.57,0,0,0,5.67,0L392.77,688a2.06,2.06,0,0,0-.07-3.28C389.16,688.05,381.53,695,370.53,703.87Z" transform="translate(-89.37 -84.33)"/><path class="cls-33" d="M392.7,684.71a2,2,0,0,0-.73-.34c-5.11-1.18-14.24-2.15-21.07,3.5-10,8.27-12.66,12.2-21.47,17.35l3.07,7.61a4.51,4.51,0,0,0,1.41,1.87c2.44-.76,7.24-3.3,16.62-10.83C381.53,695,389.16,688.05,392.7,684.71Z" transform="translate(-89.37 -84.33)"/><path class="cls-34" d="M219.79,576.2s72,5.88,86.83,12.84-12.06,104.48-12.06,104.48-4,1.94-13-.84c0,0,9.18-72,2.35-87.58l-78-12.76Z" transform="translate(-89.37 -84.33)"/><path class="cls-35" d="M342.28,691.52c.66.61,7.15,13.7,7.15,13.7s7.23-1.57,8.7-6.14l-6.5-11.81Z" transform="translate(-89.37 -84.33)"/><path class="cls-36" d="M176.39,575.6a36.42,36.42,0,0,0-2.25,13.16A19.75,19.75,0,0,0,193,608.08L278.17,612a4.07,4.07,0,0,1,3.77,3.07c2,7.74,11.78,31.51,59.61,79a3.87,3.87,0,0,0,4.77.52l6.81-4.3a1.57,1.57,0,0,0,.51-2.12l-49.59-84.69a19.18,19.18,0,0,0-11.66-8.65l-72.6-18.56Z" transform="translate(-89.37 -84.33)"/><path class="cls-37" d="M275.21,445.2s-24,14.24-33.31,22.05L261.13,478s10.4-12,20.29-17Z" transform="translate(-89.37 -84.33)"/><path class="cls-38" d="M174.84,576.2s23,5.6,44.95,0c0,0,30.71-41.29,42.59-52.52,0,0,19,29.9,61.14,34.14l2.35-5.26S292.29,537.08,282,513.29s-14.49-33.93-23.9-40.14c-5.86-3.86-9.36-6.5-11.18-7.94a3,3,0,0,0-3.44-.22C233.45,471.07,186.48,503.24,174.84,576.2Z" transform="translate(-89.37 -84.33)"/><path class="cls-39" d="M261.14,523.86a2.25,2.25,0,0,1-1.79-.88,92.79,92.79,0,0,1-11.67-20.7,2.24,2.24,0,1,1,4.18-1.61,89.73,89.73,0,0,0,11.05,19.58,2.24,2.24,0,0,1-1.77,3.61Z" transform="translate(-89.37 -84.33)"/><path class="cls-40" d="M321,549.82l4.75-1.27,14.42-3.34a6.69,6.69,0,0,1,5.07.86l12.39,7.8-34.23-.06Z" transform="translate(-89.37 -84.33)"/><path class="cls-41" d="M298.56,434c.08.5-6.57,33.08-6.57,33.08l-18.53-4.2,1.72-31.81S297.36,425.66,298.56,434Z" transform="translate(-89.37 -84.33)"/><path class="cls-42" d="M279.34,438.16l-2.21,16.68a2.22,2.22,0,0,0,0,.63c.19,1.31,1.16,5.76,5.66,4.49,4.07-1.15,7.81-2.15,10.39-1.36a2.36,2.36,0,0,1,1.62,2.72,101.49,101.49,0,0,1-4.27,15.18,2.34,2.34,0,0,1-2.84,1.38c-3.51-1-10.86-3.39-16.33-6.68a2.33,2.33,0,0,1-1.14-2.11c.17-4.21.67-17,.25-20.6-.39-3.36-4.52-5.38-6.32-6.1a2.33,2.33,0,0,1-1.28-1.3c-.83-2.08-2-6.9,4.1-8.88a2.35,2.35,0,0,0,1.49-3c-.9-2.5-1.28-6.33,3.42-8.43s8.34.4,10.27,2.47a2.34,2.34,0,0,0,3,.35,1.86,1.86,0,0,1,2.11.08,2.31,2.31,0,0,0,3.28-1c1.14-2.35,3.48-4.86,8.15-4.06,8.3,1.42,9.24,10.62,7.05,16s-11.1,3.34-15.57.62c-3.4-2.07-7.8.1-9.72,1.25A2.36,2.36,0,0,0,279.34,438.16Z" transform="translate(-89.37 -84.33)"/><path class="cls-43" d="M269.73,454.57s3.41-9.55-.1-11.89-8.7-1.13-7.55,5.8C263.5,457.09,269.73,454.57,269.73,454.57Z" transform="translate(-89.37 -84.33)"/><path class="cls-44" d="M307.76,560.58h.17l73.13-.08a3.27,3.27,0,1,0,0-6.53l-73.13.07a3.27,3.27,0,0,0-.16,6.53Z" transform="translate(-89.37 -84.33)"/><path class="cls-45" d="M409.38,489l-.07.15-30.77,66.35a3.27,3.27,0,1,0,5.93,2.75l30.77-66.35a3.27,3.27,0,0,0-5.86-2.9Z" transform="translate(-89.37 -84.33)"/><path class="cls-46" d="M340.32,564.25C340,565.58,309.49,680,301.75,709a5.25,5.25,0,0,0,5,6.63h0a5.22,5.22,0,0,0,5.05-4l33.87-137.34Z" transform="translate(-89.37 -84.33)"/><path class="cls-47" d="M357,564.25C357.35,565.58,387.87,680,395.6,709a5.24,5.24,0,0,1-5,6.63h0a5.22,5.22,0,0,1-5-4L351.67,574.34Z" transform="translate(-89.37 -84.33)"/><path class="cls-48" d="M358.3,560.51h-19v15.26a4,4,0,0,0,3.92,4h2.61V614a3,3,0,0,0,3,3h0a3,3,0,0,0,3-3V579.75h1.33a5.24,5.24,0,0,0,5.2-5.28Z" transform="translate(-89.37 -84.33)"/><path class="cls-49" d="M292.57,556.85H398.69a3.26,3.26,0,0,1,3.15,2.46l1.48,5.81a3.29,3.29,0,0,1-3.17,4.12l-108.89-.64a3.27,3.27,0,0,1-3.13-4.09l1.29-5.18A3.25,3.25,0,0,1,292.57,556.85Z" transform="translate(-89.37 -84.33)"/><path class="cls-50" d="M330.87,184.5c-2.06-17.58,18-42.39,54.17-20.47,1-8.33,46.42-34.23,67.46,20.26,3.6-13.21,36.57-6.59,42.5,15.75,12.39-5.51,42.2,22.17,2.75,27-50.38,6.1-165.8,4.34-186.49-25.89S330.87,184.5,330.87,184.5Z" transform="translate(-89.37 -84.33)"/><path class="cls-51" d="M547.21,247.47c-1.14-9.71,9.92-23.43,29.94-11.31.55-4.6,25.65-18.92,37.28,11.2,2-7.31,20.21-3.64,23.49,8.7,6.85-3,23.33,12.26,1.52,14.9-27.84,3.37-91.64,2.39-103.07-14.31S547.21,247.47,547.21,247.47Z" transform="translate(-89.37 -84.33)"/><rect class="cls-52" x="875.85" y="543.34" width="6.74" height="72.85"/><path class="cls-53" d="M854.08,613.21h50.28a4.36,4.36,0,0,1,4.36,4.36v0a0,0,0,0,1,0,0h-59a0,0,0,0,1,0,0v0a4.36,4.36,0,0,1,4.36-4.36Z"/><rect class="cls-54" x="843.29" y="527.02" width="74.18" height="21.04" rx="7.24"/><path class="cls-55" d="M918.85,579.1s-10,1.55-21.26,9.07a5.62,5.62,0,0,0-2.48,5.36c1.35,10.68,6.89,45.23,25.16,79a8.46,8.46,0,0,1,.82,5.82l-3.18,14.78L912,698.63h15.16l10.09-27.32L933,669.94a8.17,8.17,0,0,1-5.71-7.65l-.5-29.3c.43-13.06-8-22.07-8-22.07L943,609.74Z" transform="translate(-89.37 -84.33)"/><path class="cls-56" d="M906.1,701.29c-1.38,1.81,14.87,4.19,23.07.24,0,0,11.38-19.79,11.38-30,0,0-.9-2.08-7.58-1.61,0,0-3.82,23.44-7.86,26.06s-11.28.27-11.28.27S908.14,698.63,906.1,701.29Z" transform="translate(-89.37 -84.33)"/><path class="cls-57" d="M939.9,611.35c-.13-.23-26.07-3.12-26.07-3.12A60,60,0,0,1,912,627c-2.66,10.85-40.75,57.9-40.75,57.9l4,12.66a64.23,64.23,0,0,1-36.45,2.19l24.75-14.85s23.16-78.94,37.35-93l26-9Z" transform="translate(-89.37 -84.33)"/><path class="cls-58" d="M998.08,565.41s14.95,22.24,16.18,32.38-4.1,14.26-19.78,14.94-57.55.67-57.55.67l-35.74-30.54s26-9.29,32.82-11.92S998.08,565.41,998.08,565.41Z" transform="translate(-89.37 -84.33)"/><path class="cls-59" d="M873.77,693.28s4.3,4.16,1.39,8.8c0,0-34.06,6-43.31,3.29,0,0,1.92-4.38,12.33-9.37l-.76.59a1.24,1.24,0,0,0,.82,2.23C851.1,698.43,865.3,697.18,873.77,693.28Z" transform="translate(-89.37 -84.33)"/><path class="cls-60" d="M957.66,562.47s-17.4-16.57-26-27.55a23.3,23.3,0,0,1-4-21c3.92-13.18,10.87-26.83,11.5-29,1-3.25,20.49-3.12,20.49-3.12s38.4,24.93,53.49,67.15l-16.94,5.28s-10-16.83-19.94-27.52c0,0,17.15,22.64,17.75,31.92Z" transform="translate(-89.37 -84.33)"/><path class="cls-61" d="M936.88,466.81c.2.67,5.3,17.56,5.7,17.91s11.17.93,16.24-2.54l-8.6-18Z" transform="translate(-89.37 -84.33)"/><path class="cls-62" d="M945.25,431.34s-9.2,3.88-15.45,17.17-1.58,19.42,4.28,20.26,14.64.72,23.92-7.87S957.2,426.73,945.25,431.34Z" transform="translate(-89.37 -84.33)"/><path class="cls-63" d="M951.76,453.81s6.94-19.44-10.3-19.67L937.4,437s-6.32-10.78,4.06-15.92,25.87-.57,30.29,13.42,1.83,23-5.52,29.71-10.38-.9-10.38-.9,4-6.26,2.37-9.61-5.38.7-5.38.7Z" transform="translate(-89.37 -84.33)"/><path class="cls-64" d="M953.69,456s3.51-10,8.19-6-3.8,9.25-7.12,10.95Z" transform="translate(-89.37 -84.33)"/><path class="cls-65" d="M922.2,563.7,935,551.38l17.69,7.47s17.61,2.73,27.69,0l10.08-2.73,22.77-7.09,3.58,10.11a6.07,6.07,0,0,1-2.22,7,41,41,0,0,1-5.75,3.59c-3,1.31-73.94-.91-73.94-.91Z" transform="translate(-89.37 -84.33)"/><path class="cls-66" d="M970.4,436.66a3.94,3.94,0,0,1,2.35-6.58c10.11-1.57,25.51,0,32,21.67,7.29,24.36,12,36.55,16.91,38.68a4,4,0,0,1,.22,7.28c-2.36,1.06-5.73,1.43-10.56.37C974.06,489.89,983.4,449.94,970.4,436.66Z" transform="translate(-89.37 -84.33)"/><path class="cls-67" d="M970.6,569.51h-.17l-74.19-.08a3.32,3.32,0,0,1,0-6.64l74.18.08a3.32,3.32,0,0,1,.17,6.63Z" transform="translate(-89.37 -84.33)"/><path class="cls-68" d="M829.55,502.16h61.79A11.79,11.79,0,0,1,902,508.91l28.56,60.56H853.77a7.16,7.16,0,0,1-6.66-4.52l-22.14-56A4.93,4.93,0,0,1,829.55,502.16Z" transform="translate(-89.37 -84.33)"/><path class="cls-69" d="M873.08,533.21c1.34,4.16.35,8.2-2.21,9s-5.72-1.88-7.06-6-.35-8.2,2.21-9S871.74,529.05,873.08,533.21Z" transform="translate(-89.37 -84.33)"/><path class="cls-70" d="M1074.28,572.22a2.72,2.72,0,0,0-.64-2.37,3.15,3.15,0,0,0-2.36-1H761.71a3.59,3.59,0,0,0-3,1.52,3.14,3.14,0,0,0-.23,3.17l3.35,6.8a4.74,4.74,0,0,0,4.27,2.56h303a3.51,3.51,0,0,0,3.5-2.7Z" transform="translate(-89.37 -84.33)"/><path class="cls-71" d="M779.06,715.67a2.71,2.71,0,0,1-1.07-.23,2.79,2.79,0,0,1-1.42-3.65l57-135.52a2.69,2.69,0,0,1,3.57-1.45,2.79,2.79,0,0,1,1.42,3.65L781.56,714A2.73,2.73,0,0,1,779.06,715.67Z" transform="translate(-89.37 -84.33)"/><path class="cls-72" d="M843.25,715.67a2.71,2.71,0,0,1-2.5-1.68l-57-135.52a2.81,2.81,0,0,1,1.42-3.65,2.69,2.69,0,0,1,3.57,1.45l57,135.52a2.8,2.8,0,0,1-1.42,3.65A2.75,2.75,0,0,1,843.25,715.67Z" transform="translate(-89.37 -84.33)"/><path class="cls-73" d="M992.65,715.67a2.71,2.71,0,0,1-1.07-.23,2.81,2.81,0,0,1-1.43-3.65l57-135.52a2.69,2.69,0,0,1,3.57-1.45,2.8,2.8,0,0,1,1.42,3.65L995.14,714A2.71,2.71,0,0,1,992.65,715.67Z" transform="translate(-89.37 -84.33)"/><path class="cls-74" d="M1056.83,715.67a2.71,2.71,0,0,1-2.49-1.68l-57-135.52a2.8,2.8,0,0,1,1.42-3.65,2.69,2.69,0,0,1,3.57,1.45l57,135.52a2.81,2.81,0,0,1-1.42,3.65A2.76,2.76,0,0,1,1056.83,715.67Z" transform="translate(-89.37 -84.33)"/><g class="cls-75"><path class="cls-76" d="M514,399.93a2.29,2.29,0,0,1-2-3.37c.23-.42,22.84-43.36,42.76-80.95a2.29,2.29,0,0,1,3.1-.95,93.88,93.88,0,0,1,47.4,61,2.29,2.29,0,0,1-1.69,2.77l-89,21.46A2.48,2.48,0,0,1,514,399.93Zm43.7-80.12c-15.85,29.93-33.11,62.66-39.3,74.4l81.8-19.72A89.34,89.34,0,0,0,557.7,319.81Z" transform="translate(-89.37 -84.33)"/><path class="cls-77" d="M490,510a93.88,93.88,0,0,1-92.19-111.45,93.89,93.89,0,0,1,136-65.36A2.28,2.28,0,0,1,535,334.5a2.31,2.31,0,0,1-.16,1.75c-16.14,30.47-34.06,64.45-40.39,76.46l84.06-20.27a2.29,2.29,0,0,1,2.77,1.69A93.87,93.87,0,0,1,490,510Zm-.22-183.09a89.21,89.21,0,1,0,87.46,70.58l-86.74,20.91a2.29,2.29,0,0,1-2.57-3.3c.23-.42,22-41.82,41.67-78.9a89.24,89.24,0,0,0-22.88-7.67A90.22,90.22,0,0,0,489.82,326.87Z" transform="translate(-89.37 -84.33)"/><path class="cls-78" d="M490,492.3a76.17,76.17,0,1,1,14.28-151,77.64,77.64,0,0,1,8.8,2.23.57.57,0,0,1-.35,1.09,77.45,77.45,0,0,0-8.67-2.19,75,75,0,1,0,59.6,87.77A75.38,75.38,0,0,0,565,414.09a.58.58,0,1,1,1.15,0,77.12,77.12,0,0,1-1.34,16.37A76.3,76.3,0,0,1,490,492.3Z" transform="translate(-89.37 -84.33)"/><path class="cls-79" d="M510.38,352.67l-.17,0c-1.08-.35-2.19-.67-3.28-.95a.57.57,0,0,1,.29-1.11c1.11.29,2.23.61,3.34,1a.57.57,0,0,1-.18,1.12Z" transform="translate(-89.37 -84.33)"/><path class="cls-80" d="M490.08,483.9c-1.58,0-3.17,0-4.74-.17a.57.57,0,0,1-.53-.61.58.58,0,0,1,.61-.53,65.53,65.53,0,0,0,6.72.13h0a.58.58,0,0,1,0,1.15Zm8.83-.59a.57.57,0,0,1-.07-1.14,65.1,65.1,0,0,0,6.61-1.23.57.57,0,1,1,.26,1.12,66.76,66.76,0,0,1-6.72,1.25Zm-20.26-.39h-.1l-1.27-.24c-1.81-.34-3.63-.77-5.39-1.25a.59.59,0,0,1-.41-.71.57.57,0,0,1,.71-.4c1.74.48,3.52.9,5.31,1.24l1.25.22a.59.59,0,0,1,.47.67A.57.57,0,0,1,478.65,482.92Zm33.44-2.75a.58.58,0,0,1-.19-1.12,64.29,64.29,0,0,0,6.22-2.53.59.59,0,0,1,.77.28.58.58,0,0,1-.28.76,68.41,68.41,0,0,1-6.34,2.58A.57.57,0,0,1,512.09,480.17Zm-46.48-.85a.78.78,0,0,1-.21,0c-2.12-.83-4.22-1.77-6.24-2.8a.57.57,0,1,1,.52-1c2,1,4.05,1.94,6.13,2.75a.56.56,0,0,1,.33.74A.57.57,0,0,1,465.61,479.32Zm58.75-4.87a.58.58,0,0,1-.3-1.07c1.92-1.14,3.8-2.4,5.6-3.72a.57.57,0,0,1,.8.12.57.57,0,0,1-.12.8c-1.83,1.35-3.74,2.62-5.69,3.79A.6.6,0,0,1,524.36,474.45Zm-70.81-1.29a.56.56,0,0,1-.31-.09,68.22,68.22,0,0,1-5.54-4,.57.57,0,0,1-.09-.81.56.56,0,0,1,.8-.09c1.74,1.39,3.58,2.71,5.45,3.93a.57.57,0,0,1-.31,1.05Zm81.68-6.77a.55.55,0,0,1-.42-.19.57.57,0,0,1,0-.81,66.52,66.52,0,0,0,4.74-4.76.57.57,0,0,1,.81,0,.58.58,0,0,1,0,.81c-1.52,1.68-3.14,3.31-4.82,4.84A.58.58,0,0,1,535.23,466.39ZM443,464.71a.6.6,0,0,1-.41-.17c-1.61-1.59-3.17-3.28-4.63-5a.57.57,0,0,1,.08-.81.58.58,0,0,1,.81.07,66.55,66.55,0,0,0,4.55,4.94.58.58,0,0,1,0,.81A.59.59,0,0,1,443,464.71Zm101.29-8.38a.62.62,0,0,1-.34-.11.57.57,0,0,1-.12-.8,65.4,65.4,0,0,0,3.68-5.62.58.58,0,0,1,.79-.2.57.57,0,0,1,.2.78,67.52,67.52,0,0,1-3.74,5.71A.58.58,0,0,1,544.28,456.33Zm-110-2a.55.55,0,0,1-.47-.25c-1.27-1.88-2.46-3.85-3.54-5.85a.57.57,0,0,1,.24-.77.56.56,0,0,1,.77.23c1.06,2,2.23,3.9,3.48,5.75a.58.58,0,0,1-.15.8A.63.63,0,0,1,434.32,454.3Zm116.8-9.65a.52.52,0,0,1-.24,0,.57.57,0,0,1-.28-.76,66,66,0,0,0,2.47-6.25.58.58,0,1,1,1.09.37,68.35,68.35,0,0,1-2.52,6.36A.56.56,0,0,1,551.12,444.65Zm-123.21-2.27a.57.57,0,0,1-.53-.35c-.87-2.1-1.64-4.27-2.3-6.44a.57.57,0,1,1,1.1-.33,66.27,66.27,0,0,0,2.26,6.33.58.58,0,0,1-.31.75A.57.57,0,0,1,427.91,442.38Zm127.56-10.55h-.13a.57.57,0,0,1-.43-.69c.19-.82.36-1.66.52-2.49.27-1.37.49-2.76.66-4.13a.57.57,0,0,1,1.14.15c-.18,1.39-.4,2.8-.67,4.19-.16.85-.34,1.7-.53,2.54A.58.58,0,0,1,555.47,431.83ZM424,429.42a.57.57,0,0,1-.56-.47,67.21,67.21,0,0,1-.95-6.77.56.56,0,0,1,.52-.62.57.57,0,0,1,.62.52,64.87,64.87,0,0,0,.94,6.65.59.59,0,0,1-.46.68Zm-1.2-13.49h0a.56.56,0,0,1-.56-.58,64.86,64.86,0,0,1,.43-6.82.57.57,0,0,1,.63-.51.58.58,0,0,1,.51.64,65.32,65.32,0,0,0-.43,6.7A.57.57,0,0,1,422.81,415.93Zm1.53-13.45-.12,0a.57.57,0,0,1-.44-.68c.48-2.22,1.08-4.44,1.77-6.59a.57.57,0,1,1,1.09.35c-.68,2.12-1.27,4.3-1.74,6.48A.58.58,0,0,1,424.34,402.48Zm4.17-12.88a.46.46,0,0,1-.23-.05.56.56,0,0,1-.3-.75,68.37,68.37,0,0,1,3.07-6.11.57.57,0,0,1,1,.56,66.17,66.17,0,0,0-3,6A.57.57,0,0,1,428.51,389.6Zm6.67-11.77a.59.59,0,0,1-.33-.11.56.56,0,0,1-.13-.8,65.93,65.93,0,0,1,4.23-5.36.57.57,0,1,1,.86.75c-1.47,1.69-2.87,3.46-4.16,5.28A.59.59,0,0,1,435.18,377.83Zm8.91-10.19a.59.59,0,0,1-.42-.18.58.58,0,0,1,0-.81c1.66-1.55,3.42-3,5.22-4.41a.59.59,0,0,1,.81.11.57.57,0,0,1-.11.8,64.43,64.43,0,0,0-5.14,4.34A.58.58,0,0,1,444.09,367.64Zm10.77-8.2a.58.58,0,0,1-.49-.28.57.57,0,0,1,.19-.79c1.93-1.18,3.95-2.29,6-3.28a.58.58,0,0,1,.5,1,66,66,0,0,0-5.9,3.22A.55.55,0,0,1,454.86,359.44Zm12.19-5.89a.58.58,0,0,1-.2-1.12c2.14-.78,4.34-1.45,6.54-2a.57.57,0,0,1,.28,1.11,66.06,66.06,0,0,0-6.42,2A.79.79,0,0,1,467.05,353.55Zm33.39-3.22h-.09a65.51,65.51,0,0,0-6.68-.71.57.57,0,0,1-.54-.61.58.58,0,0,1,.6-.54,67.9,67.9,0,0,1,6.8.73.57.57,0,0,1-.09,1.14Zm-20.27-.11a.57.57,0,0,1-.56-.49.56.56,0,0,1,.48-.65,64.84,64.84,0,0,1,6.81-.66.57.57,0,0,1,.6.55.58.58,0,0,1-.55.6,65.26,65.26,0,0,0-6.69.64Z" transform="translate(-89.37 -84.33)"/><path class="cls-81" d="M557.18,418.32h0a.57.57,0,0,1-.56-.59c0-1.13,0-2.28,0-3.41a.57.57,0,0,1,.56-.59.57.57,0,0,1,.59.56c0,1.15,0,2.32,0,3.47A.58.58,0,0,1,557.18,418.32Z" transform="translate(-89.37 -84.33)"/><path class="cls-82" d="M490.06,444.82c-1,0-2-.06-3-.16a28.69,28.69,0,1,1,9.34-56.51.58.58,0,0,1,.44.69.57.57,0,0,1-.69.43,27,27,0,0,0-3.24-.53,27.47,27.47,0,1,0,24.51,24.32.57.57,0,0,1,.5-.64.58.58,0,0,1,.64.51,28.71,28.71,0,0,1-28.46,31.89Z" transform="translate(-89.37 -84.33)"/><path class="cls-83" d="M523.28,389.93a.71.71,0,0,1-.2,0,.57.57,0,0,1-.34-.71c.28-.85,29.42-51.76,35.26-62a.61.61,0,0,1,.36-.27.57.57,0,0,1,.44.07c.19.11,19,11.79,29.09,29.86a.57.57,0,0,1-1,.56c-9-16.17-25.15-27.15-28.19-29.13-12,21-34.37,60.1-34.88,61.27A.61.61,0,0,1,523.28,389.93Z" transform="translate(-89.37 -84.33)"/></g><g class="cls-75"><path class="cls-84" d="M680.88,453.29H667a3.08,3.08,0,0,1-3.09-3.08V408.65a3.09,3.09,0,0,1,3.09-3.09h13.89a3.1,3.1,0,0,1,3.09,3.09v41.56A3.09,3.09,0,0,1,680.88,453.29Zm-10.8-6.17h7.71V411.74h-7.71Z" transform="translate(-89.37 -84.33)"/><path class="cls-85" d="M708.26,453.29h-19a3.09,3.09,0,0,1-3.09-3.08v-68.6a3.09,3.09,0,0,1,3.09-3.09h19a3.08,3.08,0,0,1,3.08,3.09v68.6A3.08,3.08,0,0,1,708.26,453.29Zm-15.9-6.17h12.81V384.69H692.36Z" transform="translate(-89.37 -84.33)"/><path class="cls-86" d="M744,453.29H717.69a3.08,3.08,0,0,1-3.09-3.08V367.09a3.08,3.08,0,0,1,3.09-3.08H744a3.08,3.08,0,0,1,3.09,3.08v83.12A3.08,3.08,0,0,1,744,453.29Zm-23.27-6.17H741V370.18H720.77Z" transform="translate(-89.37 -84.33)"/><path class="cls-87" d="M791.74,453.29H760.19a3.08,3.08,0,0,1-3.09-3.08V349.65a3.08,3.08,0,0,1,3.09-3.08h31.55a3.08,3.08,0,0,1,3.09,3.08V450.21A3.08,3.08,0,0,1,791.74,453.29Zm-28.47-6.17h25.39V352.74H763.27Z" transform="translate(-89.37 -84.33)"/></g><path class="cls-88" d="M680,688.31c6.9.6,18.87,1.56,28.31,2,5.68.25,9-.31,10.83-1.06,0,.21,0,.41,0,.6a1.94,1.94,0,0,1-1.85,1.84,330.19,330.19,0,0,1-37.08,0,1.39,1.39,0,0,1-1.13-2.09A12.24,12.24,0,0,1,680,688.31Z" transform="translate(-89.37 -84.33)"/><path class="cls-89" d="M708.31,690.29c-9.44-.42-21.41-1.38-28.31-2,6.78-8.32,28.31-13.93,28.31-13.93h6.09a25.56,25.56,0,0,1,4.74,14.85C717.26,690,714,690.54,708.31,690.29Z" transform="translate(-89.37 -84.33)"/><path class="cls-90" d="M715.42,664.45l-.57,11.26a2.56,2.56,0,0,1-2.2,2.42,10,10,0,0,1-4.56-.38,3.06,3.06,0,0,1-2.05-2.34l-2-11Z" transform="translate(-89.37 -84.33)"/><path class="cls-91" d="M786,701.3a5.94,5.94,0,0,0,4.91-4.7v.06a5.35,5.35,0,0,1-2.62,5.73,13.67,13.67,0,0,1-7.26,1.47,6.73,6.73,0,0,1-5.44-3.24v0C777.84,702,781,702.2,786,701.3Z" transform="translate(-89.37 -84.33)"/><path class="cls-92" d="M771.89,667.92h5c7.64-.2,12.44,20.62,14,28.68a5.94,5.94,0,0,1-4.91,4.7c-5,.9-8.16.73-10.41-.71-4.13-7-6.17-17.3-7.16-23.3C767.31,670.47,771.89,667.92,771.89,667.92Z" transform="translate(-89.37 -84.33)"/><path class="cls-93" d="M776.26,657.47,779,668.54a3,3,0,0,1-1.56,3.41,10.7,10.7,0,0,1-5.77,1.4,2.55,2.55,0,0,1-2.05-1.68L765.58,660Z" transform="translate(-89.37 -84.33)"/><path class="cls-94" d="M678.3,511.6S703.19,667.15,702.78,668a20.68,20.68,0,0,0,14.36.39s-2.25-83.15-7.52-115c0,0,42.47,74.32,56,111.35a33.71,33.71,0,0,0,12.85-4.67s-45.72-133.78-57.92-151.59Z" transform="translate(-89.37 -84.33)"/><path class="cls-95" d="M708.63,552.82a1,1,0,0,1-.85-.47l-9.07-14.49-6.42-1.29a1,1,0,1,1,.39-2l6.84,1.38a1,1,0,0,1,.65.45l9.3,14.85a1,1,0,0,1-.31,1.38A1,1,0,0,1,708.63,552.82Z" transform="translate(-89.37 -84.33)"/><path class="cls-96" d="M564.11,359.28s16.79,3.7,27,8.42a9.32,9.32,0,0,1,4.57,4.59c3.05,6.69,12.19,23.47,29.92,31.48-2.56,3.39-6.67,10.43-8.46,22.28-10.64-7.93-19.83-21.16-24.24-42.86a8.64,8.64,0,0,1-7.55-.21,75.56,75.56,0,0,1-6.69-3.8,8.7,8.7,0,0,1-3.89-5.22c-.73-2.87-.3-5.39-.3-8.09l-8.63-2.67A3.07,3.07,0,0,1,564.11,359.28Z" transform="translate(-89.37 -84.33)"/><path class="cls-97" d="M617.14,426.05c1.79-11.85,5.9-18.89,8.46-22.28,11,5,25.33,6.56,43.57.24a19.25,19.25,0,0,1,5.21-1c9.71-.57,41.7-1.61,68.18,7.13A20.58,20.58,0,0,1,755,421.42c7.16,16.43,18.75,53.86-13.44,72.76a79.5,79.5,0,0,0-7.76-14.7c5.18-8.75,6.71-20.69-2.48-36.24-6.71,18.11-9.86,44.54-10.52,56.23a25.23,25.23,0,0,0,2,11.25l.17.39a1.34,1.34,0,0,1-.94,1.82c-18.12,4.07-37,3-42.59,2.5a2.33,2.33,0,0,1-2.07-1.78c-8.81-37.12-8.83-62.45-6.68-78.46C662.39,437,637.19,441,617.14,426.05Z" transform="translate(-89.37 -84.33)"/><path class="cls-98" d="M670.6,436.45h-.14a1,1,0,0,1-.86-1.12c2.13-16.06,6.4-22.94,6.58-23.22a1,1,0,0,1,1.38-.31,1,1,0,0,1,.31,1.38c0,.07-4.22,6.86-6.28,22.41A1,1,0,0,1,670.6,436.45Z" transform="translate(-89.37 -84.33)"/><path class="cls-99" d="M715.31,381.36s1.84,19.38,3.45,25.11a2,2,0,0,1-.92,2.24c-2.74,1.57-9.31,4.12-18.3-.29a4.07,4.07,0,0,1-2.26-3.83l.79-18.73Z" transform="translate(-89.37 -84.33)"/><path class="cls-100" d="M697.68,356.56s-5.87,13.47-6.26,20.54-1.92,11.66,6.26,13.08,15.05-2.65,18.79-9.69c0,0,5.84-10.85,4.53-15.29S697.68,356.56,697.68,356.56Z" transform="translate(-89.37 -84.33)"/><path class="cls-101" d="M713.67,375.43l-.46-.21a1.11,1.11,0,0,1-.55-1.54c1.15-2.23,3.4-7.33.5-8.52-3.75-1.54-18.56-4.56-21.76-9.81-3.07-5.06-.35-11.58,3.74-13.44a.58.58,0,0,1,.74.24l.34.65a.55.55,0,0,0,1-.11h0a.55.55,0,0,1,1-.14c1,1.57,3.64,4.12,10.73,5.43,10.09,1.86,16.76,5.94,16.92,12.91a.55.55,0,0,0,.86.46c.75-.45,1.94-.67,3.53.67,2.77,2.33,1.64,8.37-4.44,13.34a.56.56,0,0,0,0,.89c1.1.72,2.74,2.42-1.51,4.69s-7.68,2.16-8.94,1.95a.54.54,0,0,1-.45-.66l1.35-6.13a.56.56,0,0,0-.55-.67Z" transform="translate(-89.37 -84.33)"/><path class="cls-102" d="M713.42,376.72s2.23-8.6,6.09-6.19-2,9.64-5.1,10Z" transform="translate(-89.37 -84.33)"/><path class="cls-103" d="M588.42,381.46a1,1,0,0,1-.78-.37c-2.41-3-6.52-7.68-7.95-8.48a4,4,0,0,1-2.19-2.45,3.08,3.08,0,0,1,.58-2.47,1,1,0,0,1,1-.42l7.33,1.46a1,1,0,0,1,.45.23l3.9,3.34a1,1,0,1,1-1.31,1.52l-3.69-3.18-6.33-1.26a.61.61,0,0,0,0,.32c.09.35.52.76,1.24,1.16,2.21,1.26,7.88,8.18,8.51,9a1,1,0,0,1-.14,1.4A1,1,0,0,1,588.42,381.46Z" transform="translate(-89.37 -84.33)"/><path class="cls-104" d="M713.58,507.41l-26.46-.57s23.08-6.52,24.51-4.75c0,0,14.3-9.39,22.14-22.61a79.5,79.5,0,0,1,7.76,14.7C734.51,498.3,725.28,505.47,713.58,507.41Z" transform="translate(-89.37 -84.33)"/><path class="cls-105" d="M714.33,502.83s.55,10.55-13.29,9c-7.52-.83-19.66-7.84-19.66-7.84S713,503.92,714.33,502.83Z" transform="translate(-89.37 -84.33)"/><path class="cls-106" d="M708.91,505.66h-.15L643,505.59a2.91,2.91,0,1,1,0-5.82l65.79.07a2.91,2.91,0,0,1,.14,5.82Z" transform="translate(-89.37 -84.33)"/><path class="cls-107" d="M583.84,446.56h54.78a10.47,10.47,0,0,1,9.45,5.93l25.32,53.14H605.31a6.36,6.36,0,0,1-5.9-4l-19.64-49.18A4.33,4.33,0,0,1,583.84,446.56Z" transform="translate(-89.37 -84.33)"/><path class="cls-108" d="M622.43,473.81c1.19,3.65.31,7.19-1.95,7.92s-5.08-1.65-6.26-5.3-.31-7.2,2-7.92S621.25,470.16,622.43,473.81Z" transform="translate(-89.37 -84.33)"/><polygon class="cls-109" points="907.86 94.39 897.16 118.1 885.7 100.66 907.86 94.39"/><path class="cls-110" d="M896.74,117l38.69,85.06a6.59,6.59,0,0,0,9,3.16l83.94-42.07a2.63,2.63,0,0,0-.39-4.87Z" transform="translate(-89.37 -84.33)"/><polygon class="cls-111" points="907.85 94.39 807.37 32.67 894.33 101.22 891.64 107.92 907.85 94.39"/><polygon class="cls-112" points="886.28 105.21 897.16 118.1 894.33 101.22 886.28 105.21"/><path class="cls-113" d="M920.07,400.31a1,1,0,0,1-.73-.31,1,1,0,0,1,0-1.42l3.66-3.42a1,1,0,1,1,1.36,1.46q-1.93,1.8-3.65,3.42A1,1,0,0,1,920.07,400.31Zm7.3-6.84a1,1,0,0,1-.72-.32,1,1,0,0,1,0-1.41q1.75-1.65,3.62-3.44a1,1,0,0,1,1.42,0,1,1,0,0,1,0,1.41q-1.87,1.8-3.64,3.46A1,1,0,0,1,927.37,393.47Zm7.22-6.94a1,1,0,0,1-.7-1.71q1.74-1.71,3.52-3.53a1,1,0,1,1,1.43,1.4c-1.19,1.22-2.38,2.4-3.54,3.55A1,1,0,0,1,934.59,386.53Zm7-7.16a1,1,0,0,1-.69-.27,1,1,0,0,1,0-1.41c1.12-1.19,2.24-2.42,3.37-3.67a1,1,0,0,1,1.49,1.33c-1.14,1.27-2.27,2.5-3.4,3.71A1,1,0,0,1,941.59,379.37Zm6.67-7.45a1,1,0,0,1-.76-1.65c1.09-1.28,2.15-2.57,3.17-3.83a1,1,0,0,1,1.41-.16,1,1,0,0,1,.15,1.41c-1,1.28-2.11,2.59-3.21,3.88A1,1,0,0,1,948.26,371.92Zm6.26-7.81a1,1,0,0,1-.6-.2,1,1,0,0,1-.2-1.4c1-1.33,2-2.69,2.92-4a1,1,0,0,1,1.39-.24,1,1,0,0,1,.25,1.39c-.95,1.35-1.94,2.72-3,4.07A1,1,0,0,1,954.52,364.11Zm5.72-8.2a1,1,0,0,1-.83-1.54c.89-1.39,1.77-2.81,2.59-4.22a1,1,0,0,1,1.73,1c-.84,1.42-1.73,2.87-2.64,4.28A1,1,0,0,1,960.24,355.91Zm5.06-8.61a1,1,0,0,1-.88-1.47c.77-1.47,1.52-3,2.2-4.43a1,1,0,0,1,1.82.85c-.71,1.5-1.46,3-2.26,4.51A1,1,0,0,1,965.3,347.3Zm4.23-9.05a1,1,0,0,1-.93-1.38c.63-1.53,1.21-3.09,1.73-4.62a1,1,0,0,1,1.89.65c-.53,1.56-1.13,3.15-1.76,4.73A1,1,0,0,1,969.53,338.25Zm3.22-9.44a1.26,1.26,0,0,1-.27,0,1,1,0,0,1-.7-1.23c.44-1.6.83-3.21,1.17-4.8a1,1,0,0,1,1.95.41c-.34,1.63-.74,3.29-1.19,4.92A1,1,0,0,1,972.75,328.81Zm2-9.78h-.14a1,1,0,0,1-.85-1.13c.23-1.63.4-3.27.52-4.9a1,1,0,1,1,2,.14c-.12,1.67-.29,3.37-.53,5A1,1,0,0,1,974.78,319Zm.7-10a1,1,0,0,1-1-1h0c0-1.63-.06-3.29-.17-4.92a1,1,0,0,1,.92-1.07,1,1,0,0,1,1.07.93c.12,1.68.18,3.38.18,5.06A1,1,0,0,1,975.48,309.06Zm-.7-10a1,1,0,0,1-1-.86c-.23-1.61-.52-3.25-.86-4.85a1,1,0,1,1,2-.42c.35,1.65.65,3.33.88,5a1,1,0,0,1-.85,1.13Zm-2.07-9.77a1,1,0,0,1-1-.73c-.44-1.56-.94-3.15-1.48-4.71a1,1,0,1,1,1.88-.66c.56,1.6,1.08,3.22,1.53,4.82a1,1,0,0,1-.69,1.24A1.35,1.35,0,0,1,972.71,289.33Zm-17.44-7.68h0c-1.69,0-3.39-.12-5-.26a1,1,0,1,1,.16-2c1.62.13,3.28.21,4.93.25a1,1,0,0,1,0,2Zm5,0a1,1,0,0,1,0-2c1.63-.06,3.29-.17,4.93-.32a1,1,0,0,1,1.09.91,1,1,0,0,1-.9,1.08c-1.68.16-3.38.27-5.05.33Zm-15-.76h-.14c-1.68-.24-3.36-.53-5-.87a1,1,0,0,1,.41-2c1.58.33,3.22.62,4.86.85a1,1,0,0,1-.14,2Zm24.92-.16a1,1,0,0,1-1-.81,1,1,0,0,1-.75-.6c-.63-1.5-1.31-3-2-4.51a1,1,0,0,1,1.8-.87c.74,1.53,1.44,3.08,2.08,4.61a.88.88,0,0,1,0,.15c1.53-.23,3.07-.51,4.56-.82a1,1,0,0,1,1.19.78,1,1,0,0,1-.78,1.18c-1.63.34-3.31.64-5,.88Zm-34.7-1.9-.27,0c-1.65-.47-3.27-1-4.83-1.58a1,1,0,0,1,.7-1.88c1.5.56,3.08,1.08,4.68,1.53a1,1,0,0,1,.68,1.24A1,1,0,0,1,935.53,278.79Zm44.49-.12a1,1,0,0,1-.26-2c1.6-.43,3.19-.91,4.73-1.43a1,1,0,1,1,.64,1.89c-1.58.53-3.21,1-4.85,1.47A1.15,1.15,0,0,1,980,278.67Zm9.47-3.2a1,1,0,0,1-.38-1.92c1.54-.64,3-1.33,4.48-2.05a1,1,0,0,1,.9,1.78c-1.48.75-3,1.46-4.61,2.12A1.07,1.07,0,0,1,989.49,275.47Zm-63.32-.16a1,1,0,0,1-.43-.1c-1.55-.73-3.06-1.54-4.49-2.39a1,1,0,1,1,1-1.72c1.37.82,2.83,1.59,4.33,2.3a1,1,0,0,1,.48,1.33A1,1,0,0,1,926.17,275.31ZM998.4,271a1,1,0,0,1-.85-.47,1,1,0,0,1,.33-1.38c1.42-.88,2.78-1.81,4-2.77a1,1,0,0,1,1.4.18,1,1,0,0,1-.19,1.41c-1.31,1-2.73,2-4.2,2.88A1,1,0,0,1,998.4,271Zm-33.33-.05a1,1,0,0,1-.88-.52c-.78-1.42-1.62-2.86-2.49-4.28a1,1,0,0,1,1.7-1.05c.89,1.45,1.74,2.92,2.54,4.37a1,1,0,0,1-.39,1.35A.94.94,0,0,1,965.07,270.9Zm-47.47-.71a1,1,0,0,1-.59-.2c-1.39-1-2.72-2.1-4-3.2a1,1,0,0,1-.09-1.41,1,1,0,0,1,1.42-.09c1.19,1.07,2.47,2.11,3.81,3.1a1,1,0,0,1-.6,1.8Zm88.71-5.32a1,1,0,0,1-.69-1.72,35.07,35.07,0,0,0,3.25-3.61,1,1,0,1,1,1.58,1.24,37.94,37.94,0,0,1-3.44,3.81A1,1,0,0,1,1006.31,264.87Zm-96.15-1.34a1,1,0,0,1-.74-.32,45.15,45.15,0,0,1-3.23-4,1,1,0,1,1,1.63-1.17,42.49,42.49,0,0,0,3.08,3.78,1,1,0,0,1-.74,1.67Zm49.68-1.15a1,1,0,0,1-.82-.44c-.92-1.35-1.88-2.71-2.87-4.05a1,1,0,0,1,1.61-1.19c1,1.36,2,2.75,2.91,4.12a1,1,0,0,1-.27,1.39A1,1,0,0,1,959.84,262.38Zm52.57-5.38a.94.94,0,0,1-.48-.13,1,1,0,0,1-.4-1.35,26.3,26.3,0,0,0,1.92-4.41,1,1,0,0,1,1.9.62,28.31,28.31,0,0,1-2.06,4.75A1,1,0,0,1,1012.41,257Zm-108-1.58a1,1,0,0,1-.89-.53,33.34,33.34,0,0,1-2.06-4.71,1,1,0,0,1,1.89-.66,30.57,30.57,0,0,0,1.94,4.43,1,1,0,0,1-.41,1.36A1,1,0,0,1,904.36,255.42Zm49.56-1.09a1,1,0,0,1-.79-.38c-.88-1.11-1.8-2.22-2.74-3.34l-.42-.48a1,1,0,0,1,1.52-1.31l.42.5c1,1.12,1.89,2.26,2.79,3.39a1,1,0,0,1-.78,1.62Zm61.56-6.77h-.12a1,1,0,0,1-.88-1.11,25.41,25.41,0,0,0,.19-3c0-.58,0-1.18-.06-1.77a1,1,0,1,1,2-.14c0,.64.07,1.28.07,1.91a27.34,27.34,0,0,1-.2,3.27A1,1,0,0,1,1015.48,247.56Zm-68.08-.82a1,1,0,0,1-.73-.32c-1.14-1.23-2.3-2.42-3.45-3.55a1,1,0,0,1,1.4-1.43c1.17,1.15,2.35,2.37,3.52,3.62a1,1,0,0,1-.74,1.68ZM901.16,246a1,1,0,0,1-1-.85,24.05,24.05,0,0,1-.25-3.35c0-.63,0-1.26.09-1.87a1,1,0,1,1,2,.18c0,.55-.08,1.12-.08,1.69a21.33,21.33,0,0,0,.23,3.06,1,1,0,0,1-.85,1.13Zm39.1-6.25a1,1,0,0,1-.66-.25c-1.27-1.12-2.55-2.17-3.8-3.13a1,1,0,0,1-.19-1.41,1,1,0,0,1,1.41-.18c1.28,1,2.6,2.07,3.9,3.22a1,1,0,0,1,.09,1.41A1,1,0,0,1,940.26,239.75Zm74.58-2.12a1,1,0,0,1-1-.76,33.78,33.78,0,0,0-1.47-4.62,1,1,0,1,1,1.85-.74,36.45,36.45,0,0,1,1.57,4.89,1,1,0,0,1-.74,1.21A.93.93,0,0,1,1014.84,237.63Zm-112.7-1.46a1,1,0,0,1-.37-.07,1,1,0,0,1-.55-1.31,14.85,14.85,0,0,1,2.83-4.51,1,1,0,0,1,1.47,1.36,12.71,12.71,0,0,0-2.45,3.9A1,1,0,0,1,902.14,236.17Zm30.19-2.49a1,1,0,0,1-.54-.16,46.9,46.9,0,0,0-4.24-2.45,1,1,0,0,1,.91-1.79,49.48,49.48,0,0,1,4.41,2.56,1,1,0,0,1-.54,1.84Zm-8.91-4.49a1,1,0,0,1-.33-.06,26.08,26.08,0,0,0-4.65-1.19,1,1,0,1,1,.31-2,28.45,28.45,0,0,1,5,1.29,1,1,0,0,1,.61,1.27A1,1,0,0,1,923.42,229.19ZM908.8,229a1,1,0,0,1-.91-.58,1,1,0,0,1,.49-1.33,15.92,15.92,0,0,1,5.13-1.36,1,1,0,0,1,.2,2,13.9,13.9,0,0,0-4.49,1.19A1,1,0,0,1,908.8,229Zm102.39-.69a1,1,0,0,1-.88-.52c-.63-1.18-1.35-2.38-2.12-3.58a1,1,0,0,1,1.67-1.09c.81,1.24,1.55,2.49,2.21,3.72a1,1,0,0,1-.4,1.35A1,1,0,0,1,1011.19,228.35Z" transform="translate(-89.37 -84.33)"/><path class="cls-114" d="M711.9,501.91s-15.9-5.58-14.9-2.08,5,5.23,5,5.23l-17.41.58S717.06,512.41,711.9,501.91Z" transform="translate(-89.37 -84.33)"/></svg>