<svg id="OBJECTS" xmlns="http://www.w3.org/2000/svg" xmlns:xlink="http://www.w3.org/1999/xlink" viewBox="0 0 841.69551 500"><defs><style>.cls-1{fill:none;}.cls-2{fill:#fdf2ed;}.cls-3{clip-path:url(#clip-path);}.cls-4{fill:#d0e5f2;}.cls-5{fill:#8ed3e8;}.cls-6{fill:#fff;}.cls-7{fill:#7d5943;}.cls-8{fill:#603a28;}.cls-9{fill:#785948;}.cls-10{fill:#eb8e4b;}.cls-11{fill:#cfd0d0;}.cls-12{fill:#ac8269;}.cls-13{fill:#ffa3a9;}.cls-14{fill:#f57f8b;}.cls-15{fill:#cfcfcf;}.cls-16{fill:#ffaa63;}.cls-17{fill:#ff8015;}.cls-18{fill:#c1c1c1;}.cls-19{fill:#fea3a8;}.cls-20{fill:#93d0e5;}.cls-21{fill:#f79d59;}.cls-22{fill:#bb741b;}.cls-22,.cls-23,.cls-24,.cls-25{fill-rule:evenodd;}.cls-23{fill:#a66417;}.cls-24{fill:#d28820;}.cls-25{fill:#e69337;}.cls-26{fill:#21273b;}.cls-27{fill:url(#Nueva_muestra_de_degradado);}</style><clipPath id="clip-path"><rect class="cls-1" x="133.81399" y="-63.4862" width="500" height="500"/></clipPath><linearGradient id="Nueva_muestra_de_degradado" x1="293.81021" y1="439.5362" x2="495.02164" y2="439.5362" gradientUnits="userSpaceOnUse"><stop offset="0" stop-color="#ad286b"/><stop offset="1" stop-color="#45296b"/></linearGradient></defs><ellipse class="cls-2" cx="404.85727" cy="291.59212" rx="305.48186" ry="183.93414"/><g class="cls-3"><path class="cls-4" d="M362.31388,323.1849c0-2.902-.0565-5.8054.0165-8.7055.0675-2.6762.2618-5.3495.4218-8.0228.3001-5.0143.3297-10.0335.3547-15.0546.0175-3.5052.0755-7.0146.2772-10.5128.137-2.3772.1176-4.7542.2314-7.1288.147-3.0643.3066-6.128.4571-9.1921.1102-2.2444.203-4.4899.3243-6.7337.1445-2.6732.3296-5.3443.46311-8.018.12719-2.5469.19169-5.0969.31869-7.6438.1268-2.5443.304-5.0859.446-7.6294.171-3.0615.4292-6.1171.6186-9.1776.221-3.5727.4325-7.1495.8842-10.7077.2171-1.71.2056-3.4481.3368-5.1705.0341-.4473-.107-.6437-.5234-.7024a2.22106,2.22106,0,0,1-.3772-.0978c-1.6724-.5486-2.7763-1.3143-2.9445-3.9238a9.07207,9.07207,0,0,1,.142-2.0686c.2224-1.3432.679-1.9189,2.024-2.1318a21.37065,21.37065,0,0,1,4.0112-.2318c1.6425.0519,3.28461.1302,4.92561.2192,5.10429.2768,10.215.1819,15.32119.2925,3.3311.0722,6.6663.0502,9.9952.2286,1.3807.074,2.7605.1648,4.1397.2634a2.514,2.514,0,0,1,2.5687,2.1432,11.39318,11.39318,0,0,1,.2317,3.9967,3.1094,3.1094,0,0,1-3.1693,2.8403c-.7567.0516-1.7353-.3067-2.1934.3679a4.82118,4.82118,0,0,0-.3277,2.1404c-.4184,4.7712-.8909,9.5376-1.3189,14.308-.351,3.912-.7308,7.8233-.9697,11.7427-.1393,2.2854-.2422,4.5753-.3723,6.8626-.1571,2.7594-.3288,5.5181-.4745,8.2781-.1185,2.2445-.1668,4.4933-.3205,6.7351-.2036,2.9701-.3724,5.9424-.6414,8.9091-.2184,2.409-.2746,4.8334-.3779,7.2521-.1603,3.7542-.39389,7.5019-.7324,11.2456-.3382,3.7401-.4896,7.4977-.8571,11.2345-.5913,6.0117-.94239,12.0449-1.6837,18.0438-.3651,2.9538-.5302,5.9319-.8205,8.8956-.5065,5.1719-1.22519,10.2972-3.4265,15.0878a16.485,16.485,0,0,1-2.8773,4.7485,13.67715,13.67715,0,0,1-8.66339,3.9895,12.68746,12.68746,0,0,1-9.20261-2.7579c-3.0675-2.2809-4.3598-5.5113-5.2215-8.9942a37.16462,37.16462,0,0,1-1.1095-9.8905c.0447-1.7753.0079-3.5527.0079-5.3292Z"/><path class="cls-5" d="M373.66738,234.5998c4.0944.2166,8.24761.1961,12.3895.5029,2.23911.1659,4.4928.1493,6.7222.4394,2.0998.2733,2.2358.428,1.9992,2.5653-.2468,2.2294-.6671,4.4392-.7895,6.6838-.2139,3.9233-.68579,7.8237-1.032,11.7353-.3119,3.5243-.5382,7.0562-.8391,10.5816-.286,3.3518-.6838,6.6952-.9075,10.0506-.12919,1.9384-.2871,3.8765-.3818,5.8176-.2105,4.3142-.4046,8.6289-.7511,12.9356-.2977,3.6994-.494,7.4076-.8297,11.1032-.5582,6.1434-1.0413,12.298-2.0429,18.3912a56.82375,56.82375,0,0,1-2.8006,11.687,9.8376,9.8376,0,0,1-4.2767,5.0577,7.18219,7.18219,0,0,1-7.76039-.0049,8.1897,8.1897,0,0,1-3.34941-4.9443,29.42325,29.42325,0,0,1-1.07159-7.2822c-.22441-4.8883-.30081-9.7839-.14171-14.6693.2438-7.4895-.0325-14.9823.2571-22.4665.1238-3.1998.0884-6.4015.2438-9.5973.1994-4.0998.3286-8.2027.5327-12.3012.2323-4.6651.3772-9.3309.5068-13.9989.0971-3.4973.3026-6.9915.4526-10.4874.1093-2.5474.2068-5.0953.30971-7.643.03479-.8619.20909-1.7081.219-2.5785.01019-.8961.426-1.2212,1.35319-1.4546A10.3213,10.3213,0,0,1,373.66738,234.5998Z"/><path class="cls-6" d="M381.09648,207.5671c-2.2048,0-4.4104.0351-6.6143-.0103-2.0284-.0417-4.0555-.162-6.0821-.2667a7.02777,7.02777,0,0,1-1.1479-.2001.63124.63124,0,0,1-.5615-.6177.67848.67848,0,0,1,.5771-.7488,4.95837,4.95837,0,0,1,1.2881-.0776,59.14685,59.14685,0,0,0,6.7426.0823q4.86465-.1371,9.728-.0845c5.9224.0677,11.8419.3379,17.7669.2597a8.53366,8.53366,0,0,1,1.5477.1323.88711.88711,0,0,1-.0388,1.773,9.39833,9.39833,0,0,1-1.0368.0391c-5.0578.0408-10.1083-.2109-15.1616-.3626-2.3338-.07-4.6715-.0119-7.0075-.0119Z"/><path class="cls-7" d="M360.18928,460.2645a45.39968,45.39968,0,0,0-1.1756-5.8305c-2.0009-9.1136-4.0171-18.2231-5.6265-27.4174-1.4144-8.0803-2.8695-16.1536-4.2965-24.2318-.2251-1.2742-.4302-2.554-.57769-3.8389a2.69263,2.69263,0,0,0-.63881-1.5226,55.3323,55.3323,0,0,1-6.9359-10.7814,68.10148,68.10148,0,0,1-5.62229-14.0722,73.98291,73.98291,0,0,1-1.60751-8.6535,69.76573,69.76573,0,0,1-.1709-18.8627,154.551,154.551,0,0,1,5.5688-24.8975c2.2538-7.6806,3.8769-15.5062,5.4981-23.3365,1.3748-6.641,2.5413-13.3261,4.1454-19.9188a19.8012,19.8012,0,0,1,3.71-8.2011,7.07926,7.07926,0,0,1,.9745-1.0393,3.20263,3.20263,0,0,1,3.7477-.3976,6.69212,6.69212,0,0,1,3.23491,4.0517,22.68784,22.68784,0,0,1,1.11379,6.2289c.2881,5.7961.13521,11.5998.2901,17.3966.1029,3.8515.0826,7.7064.2602,11.5531.1158,2.5081.12891,5.018.2525,7.5226.2321,4.6999.5101,9.3984.9532,14.0854.2803,2.9663.58321,5.9315,1.1181,8.8611a16.096,16.096,0,0,0,3.20611,7.4425c2.83219,3.4594,6.584,4.4835,10.86239,3.5122a16.07092,16.07092,0,0,0,8.6497-5.6442.93078.93078,0,0,0-.01509-1.356c-1.678-2.3099-3.33861-4.6324-5.02141-6.9387a51.1119,51.1119,0,0,1-4.6027-7.0594,5.96622,5.96622,0,0,1-.481-1.1977c-.6502-2.5289.7947-4.419,3.3788-4.3936a9.46524,9.46524,0,0,1,3.8469,1.0596,36.23136,36.23136,0,0,1,7.11841,4.4957,1.73763,1.73763,0,0,0,.97239.551,12.93949,12.93949,0,0,0,.2868-2.8776c.2323-2.0138.2115-4.056.4183-6.0739a2.23792,2.23792,0,0,0-.5504-1.7503q-4.2471-5.4879-8.4653-10.9981a44.27086,44.27086,0,0,1-5.9315-9.8757,8.63179,8.63179,0,0,1-.5012-5.8193,4.03378,4.03378,0,0,1,4.1565-3.0253,7.89077,7.89077,0,0,1,3.6603,1.2047,30.22771,30.22771,0,0,1,6.1474,5.1577q1.7751,1.8072,3.5778,3.5871c.1393.1384.2391.3782.6744.2654,0-.5417-.0121-1.1313.0022-1.7202a54.65083,54.65083,0,0,1,.5548-6.3199,3,3,0,0,0-.3394-1.8445c-2.8135-5.6085-5.60009-11.2293-7.3154-17.3065a22.658,22.658,0,0,1-.9952-7.5462,7.69839,7.69839,0,0,1,.7267-2.7358,3.13244,3.13244,0,0,1,4.5085-1.317,12.57911,12.57911,0,0,1,3.6332,3.2838q1.4223,1.8537,2.8602,3.6956c.2813.3609.5818.7067,1.0214,1.2383a19.076,19.076,0,0,0-.2947-3.659c-.303-2.6603-.5243-5.3264-.7154-7.9949-.312-4.3583-.3523-8.728-.463-13.0941a45.36972,45.36972,0,0,1,.5122-6.9713,3.88238,3.88238,0,0,1,2.75641-3.4236,4.23089,4.23089,0,0,1,4.22759.9269,8.91472,8.91472,0,0,1,2.6212,3.9555,43.21229,43.21229,0,0,1,2.0047,8.962,261.07175,261.07175,0,0,0,6.395,31.0805c1.4596,5.4723,2.8858,10.9548,4.0931,16.4904a3.324,3.324,0,0,0,.61341,1.2695,17.32958,17.32958,0,0,1,3.42989,11.1905,18.04471,18.04471,0,0,1-4.2803,10.7844,30.97667,30.97667,0,0,1-3.4413,3.5321c-.5514.4922-.6851.7812-.2978,1.4816a71.35913,71.35913,0,0,1,3.6382,7.748,18.5909,18.5909,0,0,1,.2952,14.2788,20.81814,20.81814,0,0,1-7.6182,9.4842,1.92835,1.92835,0,0,0-.938,2.2276,24.47552,24.47552,0,0,1-1.5091,13.1919,119.81569,119.81569,0,0,1-6.3191,14.0789,19.05945,19.05945,0,0,0-1.4176,13.97c1.6482,6.6309,3.76511,13.125,5.9522,19.5946,2.1052,6.2272,4.197,12.4594,6.3678,18.6638,2.3995,6.8581,4.4254,13.8375,6.8024,20.7019.5939,1.7151,1.2002,3.4258,1.8008,5.1385Z"/><path class="cls-8" d="M409.171,345.6814a20.02921,20.02921,0,0,0-1.49831-4.3966,64.12839,64.12839,0,0,0-8.4098-14.4239c-3.5612-4.7938-7.4076-9.3649-10.9984-14.1347a115.49468,115.49468,0,0,1-9.576-14.5037,19.294,19.294,0,0,1-2.27949-6.3101,5.836,5.836,0,0,1,.47129-3.4183,4.48365,4.48365,0,0,1,5.3342-2.6429,14.35309,14.35309,0,0,1,6.0208,3.4291c4.4986,3.8646,8.6322,8.1244,13.1161,12.0045,1.4707,1.2726,2.8081,2.6988,4.2145,4.0463a4.34454,4.34454,0,0,0,1.142.9796,2.70673,2.70673,0,0,0-.5715-1.1848c-4.1026-6.7216-8.2569-13.412-12.3102-20.163a45.71754,45.71754,0,0,1-6.1991-16.2627,18.17188,18.17188,0,0,1,.1387-8.09,7.72881,7.72881,0,0,1,.6406-1.5556,3.15557,3.15557,0,0,1,4.0404-1.6483,8.022,8.022,0,0,1,3.8971,2.8978,117.76545,117.76545,0,0,1,7.9479,10.8923A131.18829,131.18829,0,0,0,414.571,284.8861c1.99679,2.2736,4.07339,4.4773,6.11609,6.7105a3.94916,3.94916,0,0,1,.74391.8937c.14209.2931.211.5771-.05181.8316a.68046.68046,0,0,1-.8447.0634,2.14192,2.14192,0,0,1-.5064-.3915,141.08808,141.08808,0,0,1-18.889-23.8708,48.29549,48.29549,0,0,0-6.88-8.7673,6.32472,6.32472,0,0,0-1.7649-1.3033,1.97512,1.97512,0,0,0-2.9843,1.0429,8.52209,8.52209,0,0,0-.9115,4.5246,44.0322,44.0322,0,0,0,3.8875,14.5824,95.1294,95.1294,0,0,0,6.57511,11.3278q8.70254,13.9248,17.43369,27.8315c.1604.2561.2949.5283.4457.7907a.58734.58734,0,0,1-.1539.8086.60485.60485,0,0,1-.8258-.0122,3.87344,3.87344,0,0,1-.9209-1.0814q-2.1714-3.2331-4.3083-6.4893a3.98309,3.98309,0,0,0-1.6676-1.7133,6.23944,6.23944,0,0,1-1.6651-1.4275c-4.3107-4.3858-8.87379-8.4991-13.47279-12.5767-2.32951-2.0655-4.58691-4.2126-6.87211-6.328a12.17419,12.17419,0,0,0-4.6072-2.8317c-2.76069-.8679-4.82869.8127-4.58,3.7308a11.04843,11.04843,0,0,0,.7074,3.0185,35.67331,35.67331,0,0,0,2.4745,4.9972,128.68382,128.68382,0,0,0,12.7489,17.9792,126.81542,126.81542,0,0,1,11.2087,15.096,50.73354,50.73354,0,0,1,5.9762,13.8957,8.59188,8.59188,0,0,1,.2258,1.1434,7.06616,7.06616,0,0,0,1.3189,3.7279,2.459,2.459,0,0,1,.3505.832.58865.58865,0,0,1-.3121.7645.62269.62269,0,0,1-.81949-.1606c-.29111-.3747-.55531-.772-.81081-1.1725a144.39307,144.39307,0,0,0-12.5797-16.9963,32.68833,32.68833,0,0,0-4.9423-4.7726,92.97751,92.97751,0,0,0-8.25919-6.0583,13.05746,13.05746,0,0,0-3.993-1.499c-2.29961-.4901-3.60921,1.0016-2.92281,3.2661.0999.3299.242.6472.3676.9691a18.94463,18.94463,0,0,0,2.4607,4.2578c3.3952,4.6464,6.7728,9.3054,10.2591,13.885,1.0729,1.4095,2.0241,2.913,3.0055,4.3904a11.79356,11.79356,0,0,1,1.6938,9.4266,32.70461,32.70461,0,0,1-1.4673,4.8382,2.97775,2.97775,0,0,1-.1274.3673c-.2301.4133-.4471.9508-1.0508.683-.491-.2178-.3806-.6775-.2613-1.1308.4295-1.6316.81-3.2759,1.2304-4.91a10.23323,10.23323,0,0,0-1.308-8.0727c-2.04049-3.4289-4.5522-6.5226-6.8848-9.7439q-3.655-5.0475-7.29369-10.1071a14.8941,14.8941,0,0,1-2.03951-4.1827c-1.1506-3.6069,1.19751-6.1992,4.8773-5.41a14.35257,14.35257,0,0,1,4.7855,1.9517,62.30466,62.30466,0,0,1,12.0799,9.7746,107.74475,107.74475,0,0,1,7.8453,9.6696C407.27328,343.1231,408.14318,344.2921,409.171,345.6814Z"/><path class="cls-8" d="M388.87588,324.9077v.0009c-2.1602,1.5821-3.9326,2.1993-5.5781,1.9454a6.89575,6.89575,0,0,1-2.7334-1.2383c-.6568-.4414-1.3013-.9024-1.9458-1.3633l-.8179-.583a.67525.67525,0,0,0-.97269.1709.78724.78724,0,0,0,.17389,1.1094c.3335.2363.6694.4863,1.0102.7412,1.6031,1.1943,3.2608,2.4306,5.2471,2.6758a6.21738,6.21738,0,0,0,.7637.0468,9.73236,9.73236,0,0,0,5.6587-2.2295.79647.79647,0,0,0,.1552-1.125A.65855.65855,0,0,0,388.87588,324.9077Z"/><path class="cls-8" d="M390.23918,292.2153a4.57419,4.57419,0,0,1-5.667.2119,20.81478,20.81478,0,0,1-2.3096-1.9141l-.2754-.25a15.807,15.807,0,0,1-2.4326-2.6699.77961.77961,0,0,0-1.0957-.1875.68369.68369,0,0,0-.1885.9815,17.32238,17.32238,0,0,0,2.8208,3.0986l.3394.3076a16.79458,16.79458,0,0,0,2.8725,2.2442,6.02263,6.02263,0,0,0,6.982-.7354.69019.69019,0,0,0,.0527-1.0068A.76251.76251,0,0,0,390.23918,292.2153Z"/><path class="cls-8" d="M408.29578,310.9086a.80794.80794,0,0,0-.63179-.0605.662.662,0,0,0-.41311.3545,31.05188,31.05188,0,0,1-2.5996,4.6719.6926.6926,0,0,0-.0957.5478.78615.78615,0,0,0,.35741.499.7359.7359,0,0,0,.37209.1016.79321.79321,0,0,0,.6523-.3584,31.45609,31.45609,0,0,0,2.64261-4.7471A.76424.76424,0,0,0,408.29578,310.9086Z"/><path class="cls-8" d="M410.30748,313.9331a.71407.71407,0,0,0-.51849.5136,18.85376,18.85376,0,0,1-2.14941,5.3487.68384.68384,0,0,0-.0577.6953.81458.81458,0,0,0,.6719.4326c.0166.001.03221.001.0489.001a.73934.73934,0,0,0,.625-.3418,20.25094,20.25094,0,0,0,2.3154-5.7285.70515.70515,0,0,0-.16409-.7022A.816.816,0,0,0,410.30748,313.9331Z"/><path class="cls-8" d="M402.82318,337.4604l-.0225.001a.69189.69189,0,0,0-.59469.3828,26.1314,26.1314,0,0,1-3.57231,5.0986.7595.7595,0,0,0,.0732,1.0948.74765.74765,0,0,0,.49611.1972.68186.68186,0,0,0,.51569-.2431,27.65174,27.65174,0,0,0,3.8007-5.4014.72978.72978,0,0,0-.0166-.7451A.8155.8155,0,0,0,402.82318,337.4604Z"/><path class="cls-8" d="M418.41688,294.6381a.82062.82062,0,0,0-.7676-.2295.72377.72377,0,0,0-.5371.5098l-1.333,4.333a.70844.70844,0,0,0,.4922.9082.83348.83348,0,0,0,.2422.0362.72821.72821,0,0,0,.7187-.5293l1.3321-4.3331A.69829.69829,0,0,0,418.41688,294.6381Z"/><path class="cls-8" d="M400.071,265.9408a.80991.80991,0,0,0-.51371-.6045.766.766,0,0,0-.7724.1231,2.81732,2.81732,0,0,1-2.7881.417,7.89123,7.89123,0,0,1-2.5147-1.8692,13.91032,13.91032,0,0,1-3.2773-5.2158.74408.74408,0,0,0-.5752-.5.80727.80727,0,0,0-.7568.251.67775.67775,0,0,0-.1143.6826,15.46611,15.46611,0,0,0,4.1221,6.2969,7.17645,7.17645,0,0,0,3.3388,1.9863,4.37492,4.37492,0,0,0,.8008.0752,4.424,4.424,0,0,0,2.793-1.0215A.65864.65864,0,0,0,400.071,265.9408Z"/><path class="cls-8" d="M402.28508,264.1254h.0312a.72619.72619,0,0,0,.624-.3515,4.78568,4.78568,0,0,1,2.2774-1.6074l.082-.0342a10.39667,10.39667,0,0,1,3.2051-.9805.74449.74449,0,0,0,.6338-.4277.81169.81169,0,0,0-.0449-.7959.66746.66746,0,0,0-.626-.2842,12.53969,12.53969,0,0,0-3.9395,1.1846,6.08147,6.08147,0,0,0-2.8818,2.1679.68947.68947,0,0,0-.041.7061A.812.812,0,0,0,402.28508,264.1254Z"/><path class="cls-8" d="M374.06488,349.4047a.67927.67927,0,0,0-.9776.1817.78306.78306,0,0,0,.1826,1.1015,25.989,25.989,0,0,1,8.2852,9.4981.69309.69309,0,0,0,.4502.3701.65242.65242,0,0,0,.1631.0195.77709.77709,0,0,0,.3525-.0869.76211.76211,0,0,0,.3516-1.041A27.55364,27.55364,0,0,0,374.06488,349.4047Z"/><path class="cls-8" d="M362.20688,334.312a41.15336,41.15336,0,0,0-15.06289,1.832.72751.72751,0,0,0-.50791.5439.81317.81317,0,0,0,.2334.7657.67022.67022,0,0,0,.45851.1777.76709.76709,0,0,0,.23489-.0371,40.09249,40.09249,0,0,1,14.6123-1.7744.6772.6772,0,0,0,.75-.6699A.76452.76452,0,0,0,362.20688,334.312Z"/><path class="cls-8" d="M351.20738,311.4926a.831.831,0,0,0,.2173-.0302,22.62088,22.62088,0,0,1,8.2681-.71.6624.6624,0,0,0,.7534-.626.79246.79246,0,0,0-.7051-.8828,23.906,23.906,0,0,0-8.7187.7617.76113.76113,0,0,0,.185,1.4873Z"/><path class="cls-8" d="M361.222,400.6372a18.85223,18.85223,0,0,1-6.02151-.7695,18.21869,18.21869,0,0,1-2.7783-1.081c-.2505-.1221-.4986-.25-.7457-.378a15.06744,15.06744,0,0,0-2.0722-.9375.68229.68229,0,0,0-.6856.1221.81353.81353,0,0,0-.2456.7607.73869.73869,0,0,0,.5025.5645,13.3408,13.3408,0,0,1,1.8613.8506c.3442.1797.6885.3594,1.0405.5215a19.999,19.999,0,0,0,8.4917,1.8672c.2227,0,.4458-.004.669-.0108a.725.725,0,0,0,.6342-.3857.81356.81356,0,0,0-.0195-.8008A.7292.7292,0,0,0,361.222,400.6372Z"/><path class="cls-9" d="M464.61758,188.6327a1.57067,1.57067,0,0,1-.749,1.6081c-1.8907,1.202-3.7775,2.4104-5.6742,3.603a1.47681,1.47681,0,0,1-1.643-.0199,53,53,0,0,1-11.0621-8.1569,35.98023,35.98023,0,0,1-10.4284-18.3751c-1.2526-5.2683-2.6424-10.5041-3.9884-15.75a27.75573,27.75573,0,0,0-1.1172-3.2224c-.14329-.3647-.4476-.8267.058-1.1617.4503-.2983.82-.0565,1.1432.2782a53.9135,53.9135,0,0,0,5.712,4.7459q4.8705,3.82155,9.8041,7.5622a65.29084,65.29084,0,0,1,9.48741,8.9787,33.51277,33.51277,0,0,1,5.94329,9.2942A35.15775,35.15775,0,0,1,464.61758,188.6327Z"/><path class="cls-10" d="M614.44487,396.3485a2.109,2.109,0,0,1-1.0773-.683c-.8468-.8769-1.6648-1.7826-2.53258-2.6379-4.26-4.1986-8.37822-8.5366-12.42021-12.9404-4.3551-4.7452-8.5709-9.619-12.8115-14.4683-7.0084-8.0141-13.7627-16.2435-20.55329-24.4408-4.28611-5.1742-8.44441-10.4548-12.63591-15.7069-6.3477-7.9537-12.7097-15.8964-19.0003-23.8951-6.36779-8.0968-12.5594-16.3298-18.7235-24.5829-10.7734-14.4244-21.4648-28.9093-31.7465-43.69-3.8169-5.4869-7.4577-11.096-11.20179-16.6339-4.00841-5.9291-8.02791-11.8505-11.79961-17.9349-.8701-1.4036-1.68439-2.8396-2.4566-4.3013a.75866.75866,0,0,1,.28921-1.1628c1.75739-1.2632,3.49039-2.5604,5.23789-3.8376.7437-.5436.7493-.5349,1.4546.0827,3.7949,3.3231,7.268,6.9718,10.8028,10.5632a228.62456,228.62456,0,0,1,15.2348,17.6842c5.7982,7.2373,11.63491,14.4442,17.3002,21.7866,4.3971,5.6986,8.48071,11.6229,12.5625,17.5486,4.19421,6.0891,8.0487,12.3998,12.1716,18.5361q8.02695,11.94735,16.8299,23.3281c4.8988,6.3041,9.5064,12.8266,14.2865,19.22,5.3685,7.1803,10.4881,14.5382,15.69121,21.837,3.74289,5.2503,7.49389,10.4922,11.01759,15.8938,2.1266,3.2601,4.2332,6.5351,6.43941,9.741,2.69459,3.9157,5.54988,7.7215,8.21668,11.6555,3.6614,5.4014,7.2618,10.8465,10.444,16.5526a6.28475,6.28475,0,0,1,.45832.9531C616.24157,395.7184,615.62347,396.4882,614.44487,396.3485Z"/><path class="cls-11" d="M464.35318,188.1138a1.31589,1.31589,0,0,1,1.0283.486c2.1583,2.2867,4.3103,4.5795,6.4848,6.8508,3.071,3.2075,5.9663,6.5732,8.9152,9.8899,2.7137,3.0523,5.3386,6.1834,8.0397,9.247q3.81721,4.3293,7.5065,8.7662a10.99138,10.99138,0,0,1,1.6339,2.2996c.3571.7658.3321,1.2478-.2853,1.6746-3.0147,2.0838-5.4856,4.8215-8.4502,6.9644-1.37109.9911-2.7919,1.9039-4.2043,2.8309-1.1814.7754-1.72179.7221-2.5935-.4238-1.2609-1.6574-2.4647-3.3589-3.6686-5.0587-4.1613-5.8755-7.779-12.0953-11.5238-18.2344-2.947-4.8313-6.0184-9.587-8.8254-14.5033-.7012-1.2281-1.3852-2.466-2.0716-3.7025-.4064-.7323-.3907-1.1509.2445-1.6574a62.42684,62.42684,0,0,1,6.5708-4.9846A2.22813,2.22813,0,0,1,464.35318,188.1138Z"/><path class="cls-12" d="M455.86468,189.8574c-.1063.3069-.3082.5449-.68469.3935a3.05113,3.05113,0,0,1-.68011-.4536,61.26734,61.26734,0,0,1-6.099-5.3631,47.36454,47.36454,0,0,1-8.76-11.907,46.30492,46.30492,0,0,1-3.1534-8.8619c-.84849-3.1034-1.6691-6.2145-2.5038-9.3217-.0811-.3018-.2428-.6428.1175-.8408.41281-.227.6913.09.8579.394a8.30308,8.30308,0,0,1,.6271,1.6461c1.1176,3.7603,1.9906,7.5877,3.1617,11.3342a39.68863,39.68863,0,0,0,6.9706,12.737,57.27462,57.27462,0,0,0,8.6069,8.5177c.4229.3507.8357.714,1.2405,1.0855A.72676.72676,0,0,1,455.86468,189.8574Z"/><path class="cls-12" d="M460.14168,187.577c-.071.6007-.5326.7446-.9118.3964a15.75325,15.75325,0,0,1-1.2942-1.3686,198.018,198.018,0,0,1-13.181-16.6001,64.82565,64.82565,0,0,1-4.8134-8.1062c-.1898-.3875-.3604-.7858-.5166-1.1881a.41786.41786,0,0,1,.202-.5032.35253.35253,0,0,1,.5166.0927,5.01111,5.01111,0,0,1,.5425.7687,117.071,117.071,0,0,0,13.8147,19.6276c1.6591,1.9924,3.3399,3.9668,4.9887,5.9677C459.75068,186.9813,460.13578,187.2577,460.14168,187.577Z"/><path class="cls-12" d="M459.85858,180.4526a.56084.56084,0,0,1-.3065.5367.37147.37147,0,0,1-.5126-.1416,8.93694,8.93694,0,0,1-.705-1.0831,74.70864,74.70864,0,0,0-9.2882-13.0188,81.94238,81.94238,0,0,0-9.0302-8.9457,12.98954,12.98954,0,0,1-1.1906-1.3023.383.383,0,0,1-.0251-.533.42457.42457,0,0,1,.62761-.079c.43809.3304.85329.6915,1.27349,1.0453a77.853,77.853,0,0,1,6.42651,5.888,85.74721,85.74721,0,0,1,11.88629,15.7731A6.59878,6.59878,0,0,1,459.85858,180.4526Z"/><path class="cls-13" d="M526.49978,461.0415a22.5813,22.5813,0,0,0-1.8597-3.7988,139.45035,139.45035,0,0,0-8.37409-14.6293c-2.27671-3.2512-4.63461-6.446-6.97661-9.6511a63.58951,63.58951,0,0,1-10.8185-27.5955c-.1426-1.1308-.1433-2.2698-.2373-3.4042-.6382-7.696.6432-14.9464,5.021-21.4942a78.74209,78.74209,0,0,1,6.7915-8.4391c2.0152-2.267,4.24291-4.3255,6.376-6.4768.3895-.3928.4342-.6317.0133-1.0403-2.5699-2.494-5.11439-5.0142-7.6707-7.5223-.0478-.047-.1362-.0528-.2751-.1027-1.376,2.0725-2.87459,4.0794-4.4215,6.0515a69.89874,69.89874,0,0,1-10.4004,11.0553,28.13613,28.13613,0,0,1-6.8709,4.3072,8.80117,8.80117,0,0,1-1.6822.5372,3.1935,3.1935,0,0,1-4.0015-3.0346,6.34477,6.34477,0,0,1,.44391-2.7684,24.002,24.002,0,0,1,2.73209-4.944c4.1157-6.0991,7.9274-12.3865,11.7702-18.6575a32.58317,32.58317,0,0,1,6.71471-8.1635,10.82892,10.82892,0,0,1,9.11989-2.5176c.6849.1148,1.3722.2152,2.1172.3314a2.79226,2.79226,0,0,0-1.2349-.7922,54.463,54.463,0,0,0-19.54819-5.3525c-1.997-.1633-3.99861-.2782-6.00611-.2715-4.60189.0156-9.2001-.1279-13.7891-.4744a48.76948,48.76948,0,0,1-7.5782-1.0727,9.64692,9.64692,0,0,1-3.2283-1.3877,3.606,3.606,0,0,1-1.6302-4.1734,6.51384,6.51384,0,0,1,3.8593-4.6083,23.92059,23.92059,0,0,1,5.7692-1.6357c5.3168-1.0886,10.70941-1.6384,16.09741-2.2162,5.38619-.5777,10.77759-1.1104,16.13869-1.9021,1.0334-.1526,1.0282-.1567.9027-1.1702-.38039-3.0728-.7438-6.1477-1.1123-9.222-.3733-3.1137-.8045-6.2219-1.0992-9.343-.25789-2.7325-.5326-5.4665-.6112-8.2149-.0426-1.4905-.1856-2.9762-.1588-4.4717a22.02171,22.02171,0,0,1,.56-4.7829,5.16413,5.16413,0,0,1,1.6397-2.8055c.3981-.3376.39-.5577.1088-.9614q-1.9212-2.75805-3.7833-5.5574a41.45186,41.45186,0,0,1-3.9208-7.1184,7.06485,7.06485,0,0,1-.5659-4.5909,6.57722,6.57722,0,0,1,1.7861-3.1383,4.2743,4.2743,0,0,1,4.3781-1.0085,11.074,11.074,0,0,1,3.604,1.9657,119.28581,119.28581,0,0,1,13.9096,12.3731c3.3032,3.4789,6.548,7.0132,9.8272,10.5149,2.0159,2.1527,4.0473,4.291,6.0728,6.4348q1.0938,1.1577,2.194,2.3095a.45823.45823,0,0,0,.4525.1992,65.399,65.399,0,0,0-3.0421-6.089,160.75846,160.75846,0,0,0-16.0485-23.2649c-3.1692-3.9054-6.3819-7.781-9.1513-11.99a20.29384,20.29384,0,0,1-3.1801-6.6628,6.452,6.452,0,0,1,.28731-3.8119,2.27405,2.27405,0,0,1,2.24739-1.5758,6.64323,6.64323,0,0,1,3.0713.7096,25.81116,25.81116,0,0,1,4.6142,3.0543,155.4554,155.4554,0,0,1,13.5097,11.5808q5.427,5.1732,10.7016,10.4981a94.74257,94.74257,0,0,1,14.4827,18.5442,113.41543,113.41543,0,0,1,7.0366,14.526c2.2693,5.5664,4.5527,11.1256,6.3391,16.8774,1.7598,5.6663,3.3547,11.3733,4.60741,17.1726a5.39316,5.39316,0,0,0,.808,1.8113c1.79329,2.7733,3.55359,5.5664,5.13519,8.4676a19.93632,19.93632,0,0,1,2.296,6.6523,12.565,12.565,0,0,1-1.8597,8.0068,28.28811,28.28811,0,0,1-3.74449,4.8357c-.88521,1.0084-1.88441,1.8941-2.83911,2.8281a1.34352,1.34352,0,0,0-.5071.8882,116.76964,116.76964,0,0,1-1.8539,11.7323c-.9598,5.2501-1.87,10.5092-2.8162,15.7618-.6259,3.4741-1.2378,6.9514-1.6019,10.4635a28.2464,28.2464,0,0,0,2.175,14.2901,42.702,42.702,0,0,0,2.285,4.6556c1.8029,3.0956,3.364,6.3155,4.9835,9.5065,4.3244,8.5202,8.7293,16.9985,13.3606,25.3571,1.6383,2.9568,3.2963,5.9028,4.9475,8.8525a1.41153,1.41153,0,0,1,.3004.7539ZM521.55068,298.47a1.96948,1.96948,0,0,0,.0758,1.0636q2.4231,9.58725,4.2794,19.2999a1.94412,1.94412,0,0,0,1.4944,1.6689c3.1083,1.1135,6.276,2.0403,9.4112,3.068,1.815.595,3.6336,1.1787,5.5933,1.8138C535.369,316.3981,528.366,307.5985,521.55068,298.47Z"/><path class="cls-14" d="M540.71208,323.9794c-1.2038-1.5089-2.3534-2.9001-3.449-4.3326-2.96-3.87-5.8744-7.775-8.8489-11.6337-3.8388-4.9801-7.7539-9.9016-11.5704-14.8985-3.9121-5.1219-8.0917-10.0351-11.8605-15.2684a121.96752,121.96752,0,0,1-8.3854-12.3977,18.59682,18.59682,0,0,1-2.1198-5.7195,6.56668,6.56668,0,0,1-.1015-1.286.65024.65024,0,0,1,1.2806-.1676,2.12937,2.12937,0,0,1,.0932.3395,25.20048,25.20048,0,0,0,4.1345,9.1788c4.0095,6.0287,8.30411,11.8481,12.8023,17.5203q7.07115,8.91645,13.9125,18.0113c5.0616,6.7164,10.1157,13.4395,15.3697,20.0086a.49775.49775,0,0,1,.0737.0918c.6921,1.5156,2.0875,2.024,3.5311,2.4465a94.97907,94.97907,0,0,1,9.9532,3.6385,24.69066,24.69066,0,0,1,10.8252,8.8221,31.24189,31.24189,0,0,1,5.6069,12.8575,43.40761,43.40761,0,0,1,.5656,6.7953,3.59748,3.59748,0,0,1-.2822,1.3739.46421.46421,0,0,1-.45489.315.442.442,0,0,1-.41411-.3553,6.44247,6.44247,0,0,1-.1903-1.8695,29.06045,29.06045,0,0,0-2.1781-11.3749,30.39136,30.39136,0,0,0-8.4004-11.6583,28.11425,28.11425,0,0,0-7.8509-4.2373c-5.3775-2.1073-10.8918-3.8266-16.3344-5.7482-5.2285-1.8461-10.3707-3.8991-15.5141-5.9578a40.76113,40.76113,0,0,0-11.0231-2.8974,36.89624,36.89624,0,0,0-5.2992-.0452,5.71037,5.71037,0,0,1-.9433-.0247.61462.61462,0,0,1-.5515-.6541.59047.59047,0,0,1,.4195-.6382,3.09084,3.09084,0,0,1,.8042-.1602,37.231,37.231,0,0,1,6.93571.145,48.76738,48.76738,0,0,1,12.29359,3.5924c5.4992,2.2376,11.1196,4.1435,16.6903,6.1855A2.42618,2.42618,0,0,0,540.71208,323.9794Z"/><path class="cls-14" d="M510.02978,339.728a11.2142,11.2142,0,0,0-6.1849,1.613c-.42189.2394-.8645.6849-1.3462.1157-.313-.3699-.1133-.8847.5916-1.3199a13.00749,13.00749,0,0,1,6.5503-2.0388,30.16908,30.16908,0,0,1,11.5703,2.3735,91.21269,91.21269,0,0,1,13.5488,6.5687c2.6845,1.553,5.433,2.9957,8.0384,4.6843a7.94921,7.94921,0,0,1,1.4297,1.0311.696.696,0,0,1,.13221.9549.68295.68295,0,0,1-.93631.2033,23.90848,23.90848,0,0,1-2.3719-1.3072,132.0728,132.0728,0,0,0-17.0246-9.0787,51.32248,51.32248,0,0,0-10.9589-3.5419A25.39,25.39,0,0,0,510.02978,339.728Z"/><path class="cls-14" d="M577.23358,333.9346a.69332.69332,0,0,1-.3768.7663.5113.5113,0,0,1-.6293-.1687,2.55527,2.55527,0,0,1-.2874-.373,108.39289,108.39289,0,0,0-7.2447-9.5814q-7.09875-8.7987-14.3425-17.4799c-3.0388-3.6522-6.165-7.23-9.4735-10.6478q-3.80955-3.93555-7.3269-8.1437a4.66983,4.66983,0,0,1-.8776-1.2474c-.1036-.2669-.1485-.5793.11811-.7534a.591.591,0,0,1,.75379.1316c.3934.3854.8021.7575,1.16921,1.1668q4.36813,4.87035,8.88419,9.6034c4.4672,4.6959,8.7226,9.5825,12.8315,14.5961q7.8417,9.5682,15.237,19.4851a12.661,12.661,0,0,1,1.3291,2.0841C577.09878,333.5833,577.17928,333.8039,577.23358,333.9346Z"/><path class="cls-14" d="M471.15208,319.2251a.80831.80831,0,0,0-.7822.0673.65067.65067,0,0,0-.25.6172,9.61566,9.61566,0,0,1-.1592,3.25l-.042.1963a1.93406,1.93406,0,0,1-.43069,1.0508,4.776,4.776,0,0,1-1.29681.6689,7.71532,7.71532,0,0,1-2.8379.2774l-3.8672-.0869a.722.722,0,0,0-.5489.2265.76433.76433,0,0,0-.1884.4951.73816.73816,0,0,0,.7265.7784l1.3555.0312c.9043.0205,1.8076.042,2.7119.0596.1338.0029.2686.0039.40431.0039a7.66068,7.66068,0,0,0,3.31839-.6201,4.276,4.276,0,0,0,1.4199-.9014,3.4995,3.4995,0,0,0,.6689-1.5605l.0166-.0674a10.84149,10.84149,0,0,0,.24521-3.8584A.76459.76459,0,0,0,471.15208,319.2251Z"/><path class="cls-14" d="M485.85948,367.1149a.6615.6615,0,0,0-.6368-.2422.80179.80179,0,0,0-.59269.5234.74671.74671,0,0,0,.14159.75c1.205,1.4122,2.4101,3.0713,1.457,4.9024-.9248,1.7744-2.8994,2.5752-4.64059,3.2822a.76528.76528,0,0,0-.48151.6172.8.8,0,0,0,.2744.7354.61433.61433,0,0,0,.3829.1308.72944.72944,0,0,0,.2773-.0566c1.92091-.7783,4.5498-1.8447,5.62791-4.249a4.45106,4.45106,0,0,0,.168-3.375A9.90074,9.90074,0,0,0,485.85948,367.1149Z"/><path class="cls-14" d="M524.089,370.9487l-.11131-.0469a15.92328,15.92328,0,0,1-4.7109-2.6494,15.23289,15.23289,0,0,1-1.9102-2.3066l-1.93059-2.6631a.78723.78723,0,0,0-1.11141-.1602.65609.65609,0,0,0-.1562.958l2.0644,2.8487a15.71337,15.71337,0,0,0,1.9991,2.3974,17.3193,17.3193,0,0,0,5.1679,2.9463.7925.7925,0,0,0,.3115.0645.82661.82661,0,0,0,.7442-.5108A.64122.64122,0,0,0,524.089,370.9487Z"/><path class="cls-14" d="M505.30878,342.3725a.80687.80687,0,0,0-.667.4297.67718.67718,0,0,0,.0576.6904,11.51017,11.51017,0,0,1,1.89261,5.4014.77486.77486,0,0,0,.792.709c.02239,0,.04389-.001.06639-.0029a.67279.67279,0,0,0,.63961-.7471,13.048,13.048,0,0,0-2.11131-6.1426A.7491.7491,0,0,0,505.30878,342.3725Z"/><path class="cls-14" d="M509.01478,341.6547a.76529.76529,0,0,0-1.0117-.248.78034.78034,0,0,0-.3594.5117.66323.66323,0,0,0,.1026.5342,10.82827,10.82827,0,0,1,1.59271,3.1943.76675.76675,0,0,0,.72759.544.73071.73071,0,0,0,.1933-.0264.75694.75694,0,0,0,.458-.3672.71623.71623,0,0,0,.0635-.5605A12.09284,12.09284,0,0,0,509.01478,341.6547Z"/><path class="cls-14" d="M507.43768,325.7202a.695.695,0,0,0-.0918.5468.767.767,0,0,0,.3535.4922.72886.72886,0,0,0,.3701.1016.78511.78511,0,0,0,.6484-.3584,4.42341,4.42341,0,0,0,.62211-2.2822c.03909-.8399.01859-1.6924-.00881-2.4893a.74316.74316,0,0,0-.7685-.7236h-.0283a.70028.70028,0,0,0-.7032.7412c.0323.9336.0362,1.6455.0147,2.3076A3.11065,3.11065,0,0,1,507.43768,325.7202Z"/><path class="cls-14" d="M512.11048,320.6147a.73573.73573,0,0,0-.7978.7227c-.0166.4502-.0059.9121.0058,1.3769a7.60714,7.60714,0,0,1-.5478,3.8027.72519.72519,0,0,0,.0185.7413.80886.80886,0,0,0,.6729.3808l.0254-.001a.68571.68571,0,0,0,.5879-.3808,9.04441,9.04441,0,0,0,.7304-4.5235c-.00479-.4609-.0097-.9218.0069-1.3789A.69872.69872,0,0,0,512.11048,320.6147Z"/><path class="cls-14" d="M541.86738,331.9008h-.001a.71837.71837,0,0,0-.7481.7334,20.77039,20.77039,0,0,1-.5625,4.833.746.746,0,0,0,.57621.9082.78777.78777,0,0,0,.18559.0215.68355.68355,0,0,0,.68941-.5488,22.418,22.418,0,0,0,.61129-5.2139A.72841.72841,0,0,0,541.86738,331.9008Z"/><path class="cls-14" d="M546.41328,303.1274a.77982.77982,0,0,0-.6241-.0606.66138.66138,0,0,0-.4131.3516,5.45305,5.45305,0,0,1-1.2343,1.5537l-1.7637,1.7471a.71752.71752,0,0,0,.00591,1.0459.78453.78453,0,0,0,.54779.2344.70877.70877,0,0,0,.5049-.2168l1.8086-1.793a6.567,6.567,0,0,0,1.4492-1.8574A.75755.75755,0,0,0,546.41328,303.1274Z"/><path class="cls-14" d="M517.73158,279.1293a.7034.7034,0,0,0-.2324.5254.73385.73385,0,0,0,.2266.5567.7615.7615,0,0,0,.5175.206.79961.79961,0,0,0,.5215-.2011,13.49544,13.49544,0,0,0,2.7696-3.3116.75545.75545,0,0,0,.0712-.5908.71215.71215,0,0,0-.34959-.4424.76373.76373,0,0,0-1.01461.2725A11.99027,11.99027,0,0,1,517.73158,279.1293Z"/><path class="cls-14" d="M524.46108,278.5903a.76072.76072,0,0,0-1.0205.2598,8.32457,8.32457,0,0,1-3.0908,2.831.71141.71141,0,0,0-.3467.4414.76068.76068,0,0,0,.0703.5889.74394.74394,0,0,0,.6465.3681.78656.78656,0,0,0,.37111-.0937,9.92822,9.92822,0,0,0,3.63379-3.3594.70923.70923,0,0,0,.0879-.5537A.76365.76365,0,0,0,524.46108,278.5903Z"/><path class="cls-14" d="M516.55778,301.3686a.67343.67343,0,0,0,.5234-.4453.80529.80529,0,0,0-.1709-.7744.74947.74947,0,0,0-.7177-.2344,30.09714,30.09714,0,0,1-8.4873.1006.66706.66706,0,0,0-.7471.6406.77848.77848,0,0,0,.706.8574c1.6709.1377,3.2002.2471,4.67.2471A20.837,20.837,0,0,0,516.55778,301.3686Z"/><path class="cls-14" d="M534.16718,256.6196a.757.757,0,0,0-.0176-1.0576.858.858,0,0,0-.5791-.209.68543.68543,0,0,0-.4834.2275,7.62114,7.62114,0,0,1-2.7236,1.9795.67187.67187,0,0,0-.3604.4317.74777.74777,0,0,0,.0723.6152.73315.73315,0,0,0,.6318.3535.8944.8944,0,0,0,.3643-.0801A9.14072,9.14072,0,0,0,534.16718,256.6196Z"/><path class="cls-14" d="M535.301,258.142a.6408.6408,0,0,0-.459.2364,8.962,8.962,0,0,1-1.02931,1.0918c-.0938.082-.1885.1631-.2823.2402l-.1503.1201.156.1951H533.536l-.22821-.1414c-.2041.1514-.415.294-.6309.4268a.77834.77834,0,0,0-.3486.4912.698.698,0,0,0,.0898.54.78113.78113,0,0,0,.6534.3623.70781.70781,0,0,0,.372-.1044,9.62673,9.62673,0,0,0,2.4971-2.2032.79683.79683,0,0,0,.2002-.5088.76087.76087,0,0,0-.2275-.538A.83092.83092,0,0,0,535.301,258.142Z"/><path class="cls-14" d="M556.28338,287.1586a.77994.77994,0,0,0-.3555-.5039h-.001a.75705.75705,0,0,0-1.0146.253,2.28661,2.28661,0,0,1-.2412.2959c-.0996.1054-.20609.208-.3135.3027a5.84689,5.84689,0,0,1-.71.5195c-.43259.2774-.8789.5342-1.3252.791l-.4873.2823a.75211.75211,0,0,0-.3447.459.74194.74194,0,0,0,.0752.5664.76009.76009,0,0,0,.6553.3691.73533.73533,0,0,0,.37111-.0996q.27388-.1596.55559-.3174a8.66382,8.66382,0,0,0,3.0381-2.3789A.67555.67555,0,0,0,556.28338,287.1586Z"/><path class="cls-14" d="M509.363,242.9051c.53839.507,1.07919,1.0096,1.62009,1.5132l.8671.8125a1.257,1.257,0,0,0,1.0034.5016l.0359-.0043a1.53674,1.53674,0,0,0,.8833-.6375c.0489-.0574.09621-.1127.1414-.1617l4.8033-5.1376a.65467.65467,0,0,0,.1676-.6461.80167.80167,0,0,0-.5879-.5214.76672.76672,0,0,0-.7465.2278l-4.4891,4.8009c-.0521.056-.1129.1329-.1805.2177-.0426.0536-.0876.1104-.1337.1665l-.0131-.0149c-.0538-.0583-.1051-.112-.1496-.1539l-1.9953-1.8604a16.80745,16.80745,0,0,1-2.2842-2.4499c-1.07219-1.4971-1.5806-3.6584-.299-5.1137a.66873.66873,0,0,0,.1491-.665.80546.80546,0,0,0-.6041-.5103.74268.74268,0,0,0-.722.247,4.98372,4.98372,0,0,0-.83819,4.7372A10.98289,10.98289,0,0,0,509.363,242.9051Z"/><path class="cls-14" d="M510.281,259.6852a.80666.80666,0,0,0-.54881-.5752.73165.73165,0,0,0-.7159.1767h.001a51.33377,51.33377,0,0,1-5.94529,4.8018,28.71218,28.71218,0,0,1-3.50681-4.5342,10.43022,10.43022,0,0,1-1.3946-2.6123,4.53256,4.53256,0,0,1,.3399-3.1406.65861.65861,0,0,0-.4004-.8867.78874.78874,0,0,0-1.0313.4433,6.16456,6.16456,0,0,0-.4843,3.4639,9.30108,9.30108,0,0,0,1.4824,3.1982,28.38615,28.38615,0,0,0,4.3838,5.5821.82933.82933,0,0,0,.5429.2128.65309.65309,0,0,0,.3721-.1123,53.3375,53.3375,0,0,0,6.6904-5.3447A.69026.69026,0,0,0,510.281,259.6852Z"/><path class="cls-15" d="M341.58788,180.9932A32.44918,32.44918,0,0,1,338.438,194.893a34.05141,34.05141,0,0,1-4.67261,7.8888,33.56781,33.56781,0,0,1-11.5573,8.9634,27.021,27.021,0,0,1-9.4214,2.4168,25.588,25.588,0,0,1-6.6908-.2503c-1.0353-.2013-1.0543-.1872-1.526.7537-2.0978,4.1839-4.21489,8.3585-6.2726,12.5622-5.0141,10.2434-10.3036,20.3484-15.3488,30.5758-3.9318,7.9701-8.0517,15.8453-11.9414,23.8367q-6.8151,14.00115-13.7332,27.9521c-2.4756,5.0065-5.297,9.8289-7.9646,14.7332-2.104,3.868-4.1342,7.7759-6.2157,11.6562-3.0308,5.6499-6.357,11.1275-9.7053,16.5923-2.2391,3.6544-4.28029,7.4279-6.6052,11.0307a41.43827,41.43827,0,0,1-5.8019,7.5664,13.29167,13.29167,0,0,1-7.9943,3.9157,4.988,4.988,0,0,1-2.0861-.2279,6.86784,6.86784,0,0,1-4.9149-5.0881,13.04117,13.04117,0,0,1,.1139-6.6304,83.98425,83.98425,0,0,1,5.8737-15.3949c4.61051-9.4307,9.1517-18.8949,13.8388-28.2888,3.0893-6.1914,6.0319-12.4563,9.0122-18.7017,1.6928-3.5472,3.30251-7.134,4.997-10.6804,3.1193-6.5287,6.4348-12.9599,9.7553-19.3874,2.7609-5.3443,5.6518-10.6215,8.401-15.9718,3.7921-7.38,8.011-14.5285,11.78821-21.9164q6.87329-13.4433,14.37939-26.5461c.47761-.8329.4352-.7997-.2142-1.454-4.9183-4.9544-8.6741-10.5347-9.6829-17.6558a35.22651,35.22651,0,0,1-.36629-8.6906,33.62372,33.62372,0,0,1,8.60269-19.502,30.7047,30.7047,0,0,1,6.6449-5.429,27.09236,27.09236,0,0,1,8.2203-3.1468,39.35033,39.35033,0,0,1,10.2583-1.3047,7.90059,7.90059,0,0,0,.9365-.0833,1.24468,1.24468,0,0,1,1.3642,1.8095,3.22217,3.22217,0,0,1-.5761.8866,38.51215,38.51215,0,0,0-5.6376,9.2316,64.54838,64.54838,0,0,0-4.0244,10.1804,36.33133,36.33133,0,0,0-1.519,8.2001,12.39109,12.39109,0,0,0,.9397,5.6462c1.4516,3.2952,4.2127,4.8534,7.56,5.567a10.22284,10.22284,0,0,0,7.654-1.5662,30.09872,30.09872,0,0,0,7.91151-7.504,73.35526,73.35526,0,0,0,8.166-13.6319c.83419-1.7362,1.62219-3.4948,2.41629-5.2499.6393-1.4127,1.8223-1.6154,2.8381-.4209a18.72232,18.72232,0,0,1,2.555,3.9553,30.58694,30.58694,0,0,1,3.2573,11.964C341.49768,179.0327,341.56878,180.011,341.58788,180.9932Zm-120.4101,178.53a4.32823,4.32823,0,0,0-4.4549-4.0998,4.14461,4.14461,0,0,0-4.1824,4.1916,4.34533,4.34533,0,0,0,4.2888,4.2788A4.44144,4.44144,0,0,0,221.17778,359.5232Z"/><path class="cls-6" d="M227.56818,347.3651a1.77727,1.77727,0,0,1-1.5809-2.5498c.1805-.4296.4983-.7995.7055-1.2202,4.5705-9.278,9.5513-18.3442,14.2376-27.5615,3.99261-7.8526,8.2023-15.5896,12.26261-23.4058,2.86349-5.5126,5.77919-10.9982,8.65159-16.5063,4.1633-7.9835,8.28341-15.9896,12.4707-23.9604,2.5413-4.8378,5.1863-9.6211,7.7632-14.4404,2.855-5.3391,5.6834-10.6924,8.5281-16.0371a26.69853,26.69853,0,0,1,1.99941-3.3342c.29619-.4022.62589-.936,1.23339-.5735.5207.3108.313.8457.1454,1.2784-.31179.8048-.6342,1.61-1.0213,2.3803-3.3196,6.6055-6.6644,13.1984-9.9819,19.805-2.2407,4.4622-4.41,8.9607-6.6819,13.4069-3.6856,7.2131-7.4433,14.3894-11.144,21.595-3.1611,6.155-6.272,12.3358-9.4281,18.4935q-7.53225,14.6958-15.0958,29.3757c-2.1045,4.0908-4.2684,8.1518-6.319,12.2693-1.4384,2.8882-3.0163,5.6979-4.53779,8.5395-.24021.4485-.42241.9277-.64831,1.3843A1.88673,1.88673,0,0,1,227.56818,347.3651Z"/><path class="cls-6" d="M288.445,215.1385a4.64579,4.64579,0,0,1-.60841,2.021c-1.4322,2.933-2.8461,5.8759-4.3341,8.7806q-5.94345,11.6025-11.9434,23.1759-6.90255,13.36485-13.8249,26.7195c-3.30919,6.3467-6.555,12.7252-9.7993,19.1051-5.2765,10.3761-10.6554,20.7-15.9662,31.0587-2.5303,4.9354-5.0081,9.8978-7.4988,14.8535a29.15724,29.15724,0,0,1-1.7717,2.9241c-.5775.8758-1.3256,1.1764-1.9648.8784-.7107-.3314-.9235-1.1289-.5525-2.1653a49.21067,49.21067,0,0,1,3.0964-6.3538c2.57671-4.8653,5.1631-9.7256,7.7126-14.6051,3.6968-7.0752,7.3498-14.1731,11.0493-21.2468,2.8609-5.4701,5.7773-10.9112,8.6439-16.3783,1.6255-3.1002,3.1776-6.2389,4.8025-9.3395,4.6365-8.8471,9.091-17.788,13.7681-26.6147,3.3879-6.3937,6.6522-12.8528,10.0059-19.2648,2.1687-4.1463,4.3948-8.2626,6.6066-12.3862a5.28611,5.28611,0,0,1,1.1581-1.6222.81212.81212,0,0,1,.97371-.1961A.79845.79845,0,0,1,288.445,215.1385Z"/><path class="cls-6" d="M306.06048,196.3798a12.74627,12.74627,0,0,1-10.5386-6.095,14.34592,14.34592,0,0,1-2.1794-9.5594,50.05994,50.05994,0,0,1,.9034-6.9944,62.22352,62.22352,0,0,1,4.232-11.6102,47.04806,47.04806,0,0,1,5.8653-9.6527,19.94988,19.94988,0,0,1,1.4694-1.6893c.5463-.5534,1.00641-.6322,1.3276-.3001.4415.4565.1576.8678-.12,1.2633-.7677,1.094-1.5207,2.1991-2.315,3.2736a47.98835,47.98835,0,0,0-5.5758,9.9552,54.463,54.463,0,0,0-3.4412,10.5087,34.27474,34.27474,0,0,0-.7663,6.6524c.0004,4.9559,1.9359,8.9754,6.4182,11.403a11.94522,11.94522,0,0,0,10.9058.1798,17.56248,17.56248,0,0,0,4.9122-3.4258,58.31354,58.31354,0,0,0,13.4617-18.6038,68.15818,68.15818,0,0,0,2.6866-6.5305,5.20389,5.20389,0,0,1,.428-.966.63052.63052,0,0,1,.8065-.3117.67628.67628,0,0,1,.4797.7292,6.07158,6.07158,0,0,1-.15059.8077,33.06926,33.06926,0,0,1-2.06541,5.6396,58.02343,58.02343,0,0,1-10.8337,16.7523,31.60745,31.60745,0,0,1-7.3886,6.3665A17.31573,17.31573,0,0,1,306.06048,196.3798Z"/><path class="cls-16" d="M170.82719,452.2535c2.4758-8.4007,4.9711-16.7957,7.4216-25.2039,2.1756-7.4651,4.1011-14.9982,6.0004-22.5373,2.2054-8.7536,4.3637-17.5191,6.5749-26.2712,2.1842-8.645,4.6121-17.2226,7.1915-25.7582a100.52284,100.52284,0,0,0,3.3925-13.8295c.16-1.0448.2218-2.1045.3382-3.1563a44.879,44.879,0,0,0-1.755-16.7529,40.32394,40.32394,0,0,1-1.7777-12.4289c.1765-3.7003.9883-7.2274,3.4906-10.1702a8.79931,8.79931,0,0,1,3.154-2.4108.92478.92478,0,0,0,.60281-1.277,18.19436,18.19436,0,0,1,1.57169-12.2626,9.1096,9.1096,0,0,1,6.4957-5.1775,14.52378,14.52378,0,0,1,4.672-.4626c.6983.0681.7635-.2125.8001-.7693a26.78931,26.78931,0,0,1,.70551-5.2382,16.54062,16.54062,0,0,1,5.731-8.5862,9.0946,9.0946,0,0,1,6.12259-1.6927,22.06846,22.06846,0,0,1,3.9671.5106c.797.153.806.1279,1.0148-.6511a23.04453,23.04453,0,0,1,3.7382-8.2134,20.97634,20.97634,0,0,1,3.5546-3.7637,10.07612,10.07612,0,0,1,3.6878-1.7832,17.69655,17.69655,0,0,1,15.7421,3.022,51.20249,51.20249,0,0,1,5.2803,4.5184,48.394,48.394,0,0,1,7.6839,8.759,40.07134,40.07134,0,0,1,3.9165,8.4213,3.6311,3.6311,0,0,0,.448,1.087,7.08008,7.08008,0,0,0,1.0558-1.4166,82.64139,82.64139,0,0,1,9.9642-11.7811,44.21905,44.21905,0,0,1,12.9669-9.0961,12.72364,12.72364,0,0,1,4.9037-1.134,3.81025,3.81025,0,0,1,4.05551,3.9562,10.84319,10.84319,0,0,1-1.63691,5.7052q-3.381,5.8101-6.731,11.6384a121.02247,121.02247,0,0,0-5.6238,12.0656c-2.9054,6.6681-4.6736,13.6666-6.3684,20.7003-2.2908,9.5067-4.5364,19.0282-7.7852,28.2714a83.46484,83.46484,0,0,1-9.2868,19.283,60.91315,60.91315,0,0,1-7.5412,9.3483,39.21537,39.21537,0,0,1-8.80569,6.6771,1.96706,1.96706,0,0,0-1.11831,1.6096c-1.1815,7.2388-2.4404,14.4649-3.6466,21.6997-.7484,4.4888-1.4196,8.9906-2.1716,13.4788-.81049,4.837-1.685,9.6631-2.513,14.4971q-1.5003,8.75865-2.9651,17.5232-1.15485,6.9642-2.2361,13.9406c-.2669,1.7047-.4606,3.4209-.8149,5.1117Z"/><path class="cls-17" d="M276.62738,292.1572a91.93011,91.93011,0,0,1,3.8705,11.8958,27.95458,27.95458,0,0,1,.9496,6.0318c.10251,3.81-3.0229,5.6774-6.38549,4.5443a15.677,15.677,0,0,1-3.29221-1.573c-.3645-.2274-.7331-.4483-1.0955-.6696-.2869.3364.0046.5526.095.7759,1.371,3.3881,2.7018,6.7911,3.8871,10.2493a16.61319,16.61319,0,0,1,.8838,5.3182,3.60764,3.60764,0,0,1-4.3495,3.7244,10.53078,10.53078,0,0,1-4.5945-2.0361,48.62206,48.62206,0,0,1-7.1737-6.4686c-.95749-1.0352-1.9009-2.0836-2.9841-3.2722a7.40236,7.40236,0,0,0,.5895,2.0836,62.66947,62.66947,0,0,1,2.73411,9.1283,6.65389,6.65389,0,0,1-.10691,3.3759,2.94472,2.94472,0,0,1-2.011,1.9819,6.79944,6.79944,0,0,1-5.4614-.6248,14.14346,14.14346,0,0,1-3.369-2.5625c-1.6176-1.6113-3.1849-3.2766-4.8574-4.8286a26.63015,26.63015,0,0,0-6.4945-4.2279,105.77446,105.77446,0,0,0-10.8542-4.5948c-1.5135-.5458-3.0753-.9578-4.6145-1.4327-.9676-.2986-1.3153-.627-1.0696-1.0977.351-.6724.9811-.3594,1.4641-.2266a113.1608,113.1608,0,0,1,10.8862,3.8266,73.809,73.809,0,0,1,7.4523,3.5376,24.61454,24.61454,0,0,1,4.4855,3.4255c1.6139,1.3881,2.9762,3.0304,4.5616,4.4418a12.64778,12.64778,0,0,0,4.901,2.9612,5.65451,5.65451,0,0,0,1.7471.2004,2.07423,2.07423,0,0,0,2.2453-2.195,7.91307,7.91307,0,0,0-.2648-2.5688,87.03653,87.03653,0,0,0-5.3532-14.7076,21.349,21.349,0,0,0-5.85559-7.0013,52.08136,52.08136,0,0,0-10.95031-6.8856,109.63,109.63,0,0,0-18.9433-7.4599,30.7178,30.7178,0,0,0-7.203-1.1255c-.9803-.043-1.959-.1289-2.9421-.1169a.859.859,0,0,1-.2351-.0109c-.4247-.1172-1.0813-.0048-1.0385-.6845.0368-.5855.6242-.6757,1.0835-.6978a24.60691,24.60691,0,0,1,2.83281-.0038,49.547,49.547,0,0,1,14.85649,3.4612,133.458,133.458,0,0,1,14.4912,6.554,46.41923,46.41923,0,0,1,11.2428,8.1119,19.94277,19.94277,0,0,1,3.3741,4.3778,15.79344,15.79344,0,0,0,1.9089,2.6702,77.36615,77.36615,0,0,0,11.0966,10.8764,12.56341,12.56341,0,0,0,3.4953,2.1559,4.74948,4.74948,0,0,0,1.73361.285,2.07584,2.07584,0,0,0,2.28469-1.9125,6.92482,6.92482,0,0,0-.30369-3.7136c-2.56191-7.443-5.29131-14.8113-9.89321-21.311a61.34205,61.34205,0,0,0-6.3804-7.7073,50.56551,50.56551,0,0,0-10.4672-7.7989,138.199,138.199,0,0,0-17.2691-8.3811c-3.3022-1.3764-6.5314-2.9155-9.7795-4.4123-.0357-.0164-.0738-.0281-.1087-.0462-.74489-.3873-.9823-.7242-.7416-1.1184.3664-.6.9029-.3704,1.36171-.1778,1.73849.7302,3.46179,1.4964,5.19189,2.2467,5.9122,2.5639,11.8444,5.0878,17.5667,8.0613a59.54831,59.54831,0,0,1,11.9979,7.6686,57.204,57.204,0,0,1,13.3821,16.6182,3.07793,3.07793,0,0,0,1.3655,1.3224c1.1246.633,2.13791,1.4627,3.31991,2.0131a10.49119,10.49119,0,0,0,2.98549,1.0612,3.029,3.029,0,0,0,3.6541-2.8831,9.36643,9.36643,0,0,0-.2414-3.043c-1.6193-7.1549-3.7793-14.1179-7.5006-20.5015a47.6613,47.6613,0,0,0-6.4042-8.8753,43.35816,43.35816,0,0,0-8.0385-6.5305c-3.8944-2.5212-7.8203-4.9905-11.885-7.2344-1.9651-1.0848-4.0107-1.9905-6.0518-2.9116-.824-.372-1.6467-.748-2.4573-1.1481-.3503-.173-.6662-.415-1.0014-.6198a.58713.58713,0,0,1-.3098-.6964c.1145-.4033.473-.377.7772-.3346a6.07331,6.07331,0,0,1,.9054.2518,36.84022,36.84022,0,0,1,6.1761,2.6191A153.58874,153.58874,0,0,1,261.393,272.2175a41.38246,41.38246,0,0,1,12.19349,13.8839c.7003,1.2294,1.334,2.4969,1.9991,3.7464.1402.2633.18641.5665.6131.6032a4.6872,4.6872,0,0,0,3.5292-1.0118,2.75526,2.75526,0,0,0,.9258-1.6022,26.47331,26.47331,0,0,0,.396-7.5085c-.0982-1.5237-.1169-3.0531-.3175-4.5767a62.21984,62.21984,0,0,0-1.6958-9.1335,4.74325,4.74325,0,0,1-.2838-1.8512c.0345-.3083.1601-.5274.4896-.5634a.51459.51459,0,0,1,.5684.3232,5.89281,5.89281,0,0,1,.2482.6595,67.30337,67.30337,0,0,1,2.5068,13.2771,41.43947,41.43947,0,0,1,.1875,5.8863,27.74289,27.74289,0,0,1-.40509,3.3815,5.13316,5.13316,0,0,1-4.46661,4.2464C277.49818,292.0541,277.10688,292.0898,276.62738,292.1572Z"/><path class="cls-17" d="M257.97558,364.5981a14.46575,14.46575,0,0,1-5.9014.5908c-.2836-.0108-.5664-.0215-.8476-.0293l-1.4951-.0401c-1.8687-.0488-3.8003-.0986-5.6919-.2295-5.4893-.3798-9.0547-2.0283-10.8999-5.04a.73935.73935,0,0,0-1.0396-.2353.70732.70732,0,0,0-.2505,1.0009,12.32386,12.32386,0,0,0,8.1206,5.2364,48.60934,48.60934,0,0,0,9.5811.7812c.7998.0127,1.5962.0244,2.3862.0469l.3443.0098c.5493.0156,1.103.0322,1.65821.0322a11.99582,11.99582,0,0,0,4.48629-.6944.79372.79372,0,0,0,.4326-1.0459A.65129.65129,0,0,0,257.97558,364.5981Z"/><path class="cls-17" d="M253.39108,333.5031a12.719,12.719,0,0,0,.8155,1.6054c.1015.1641.2212.3233.3418.4834a3.21323,3.21323,0,0,1,.4961.8008.75484.75484,0,0,0,.729.5049.81755.81755,0,0,0,.2827-.0498.67342.67342,0,0,0,.4223-.8906,6.36981,6.36981,0,0,0-.8017-1.4102,8.28229,8.28229,0,0,1-.5977-.958,12.63436,12.63436,0,0,1-1.11809-2.7959,2.0027,2.0027,0,0,1,.77339-2.1777,19.68424,19.68424,0,0,1,1.8643-1.2217c.2685-.1621.5366-.3232.7988-.4893a.74541.74541,0,0,0,.2231-1.0527.70091.70091,0,0,0-.99459-.2344c-.25631.1621-.53171.3233-.81441.4883-1.5713.918-3.5264,2.0596-3.4214,4.2246a8.17587,8.17587,0,0,0,.8711,2.8789Z"/><path class="cls-17" d="M272.13268,318.6488a13.987,13.987,0,0,0-3.5576,1.8203,2.76231,2.76231,0,0,0-1.044,3.1182,21.85743,21.85743,0,0,0,1.3203,3.8994c.2847.6407.6128,1.2881.97561,1.9239l.09669.1689a5.90454,5.90454,0,0,1,.752,1.6953.67633.67633,0,0,0,.4521.5225.74649.74649,0,0,0,.2271.0351.82563.82563,0,0,0,.5473-.2109.73449.73449,0,0,0,.2271-.7158,7.88842,7.88842,0,0,0-1.0025-2.2627c-.1562-.2715-.3129-.542-.4545-.8184a20.02991,20.02991,0,0,1-1.36429-3.3955l-.04251-.1406a9.82692,9.82692,0,0,1-.3647-1.4776,1.20089,1.20089,0,0,1,.6211-1.1845,12.65811,12.65811,0,0,1,3.0522-1.544.78486.78486,0,0,0,.4468-1.0263A.66324.66324,0,0,0,272.13268,318.6488Z"/><path class="cls-17" d="M278.27638,300.2282a18.3052,18.3052,0,0,0-4.3758,1.9442,2.75463,2.75463,0,0,0-1.2841,3.3304,21.30069,21.30069,0,0,0,1.624,4.1648,22.03677,22.03677,0,0,0,1.2,2.0548l.1189.1804a5.928,5.928,0,0,1,.9249,1.8107.764.764,0,0,0,.5561.558,1.04232,1.04232,0,0,0,.2793.0376,1.10753,1.10753,0,0,0,.6732-.2253.72434.72434,0,0,0,.2793-.7646,7.92062,7.92062,0,0,0-1.233-2.4166c-.19219-.29-.385-.5789-.5591-.8741a19.86854,19.86854,0,0,1-1.67809-3.6266l-.05221-.1502a9.367,9.367,0,0,1-.4486-1.5781c-.0769-.4902.1513-.8688.7639-1.2652a16.596,16.596,0,0,1,3.7542-1.649.80627.80627,0,0,0,.5496-1.0962A.85385.85385,0,0,0,278.27638,300.2282Z"/><path class="cls-17" d="M278.29348,294.9252l-1.1402-.5713a.74271.74271,0,0,0-.7529.0381.806.806,0,0,0-.3667.7031.67639.67639,0,0,0,.3892.5694c.4223.2129.8462.4228,1.2695.6337a34.72763,34.72763,0,0,1,8.1699,5.0538.74062.74062,0,0,0,.5005.2011.72961.72961,0,0,0,.2261-.0361.80626.80626,0,0,0,.5415-.5811.68223.68223,0,0,0-.2241-.6601A36.65166,36.65166,0,0,0,278.29348,294.9252Z"/><path class="cls-17" d="M272.09908,280.5541a26.189,26.189,0,0,0-1.5444,2.2852.69522.69522,0,0,0-.0249.7119.80828.80828,0,0,0,.6821.4092.69879.69879,0,0,0,.6338-.3594c.4038-.667.8228-1.2998,1.2456-1.8789.0743-.1006.1514-.2129.232-.3301a2.28886,2.28886,0,0,1,3.1543-1.207,3.48446,3.48446,0,0,1,1.62641.874,8.72474,8.72474,0,0,1,1.979,3.2617,7.19279,7.19279,0,0,1,.49859,4.3154.74649.74649,0,0,0,.5781.9092.77544.77544,0,0,0,.1841.0215.68359.68359,0,0,0,.6885-.5488,8.73352,8.73352,0,0,0-.5874-5.3164,9.6792,9.6792,0,0,0-2.6514-4.0244,4.94506,4.94506,0,0,0-2.3027-1.0147,5.05177,5.05177,0,0,0-2.5513.0967,4.17317,4.17317,0,0,0-1.6533,1.5449Z"/><path class="cls-17" d="M294.81688,267.7729a24.29626,24.29626,0,0,0-8.6826-4.6075.70059.70059,0,0,0-.6948.1582.80822.80822,0,0,0-.2207.7647.7131.7131,0,0,0,.5093.5215,22.51851,22.51851,0,0,1,8.0634,4.2568.76209.76209,0,0,0,.4868.1787.78123.78123,0,0,0,.275-.0508.80171.80171,0,0,0,.5146-.5966A.66112.66112,0,0,0,294.81688,267.7729Z"/><path class="cls-17" d="M265.44,266.5736a.72983.72983,0,0,0,.37109.1006.77311.77311,0,0,0,.6494-.3613,14.26416,14.26416,0,0,1,3.8554-3.6152.75881.75881,0,0,0,.2476-1.0127.78257.78257,0,0,0-.5156-.3604.6676.6676,0,0,0-.5318.1045,16.14092,16.14092,0,0,0-4.3408,4.1094.71345.71345,0,0,0-.0859.5547A.75867.75867,0,0,0,265.44,266.5736Z"/><path class="cls-17" d="M267.32418,270.477a.67724.67724,0,0,0,.1695.0214.712.712,0,0,0,.5132-.2275,28.00389,28.00389,0,0,1,4.4672-3.7451.75914.75914,0,0,0,.2554-1.0176.77935.77935,0,0,0-.4951-.3545.69038.69038,0,0,0-.54439.0947,29.732,29.732,0,0,0-4.74951,3.9678.714.714,0,0,0-.1856.7061A.809.809,0,0,0,267.32418,270.477Z"/><path class="cls-17" d="M265.96928,282.7494a.71133.71133,0,0,0-.5479.0928,22.51585,22.51585,0,0,0-4.5786,4.0166.76282.76282,0,0,0,.0117,1.0478.77837.77837,0,0,0,.54451.2178h.02729a.6843.6843,0,0,0,.5015-.2304,21.078,21.078,0,0,1,4.2754-3.7725.75706.75706,0,0,0,.2563-1.0186A.7668.7668,0,0,0,265.96928,282.7494Z"/><path class="cls-17" d="M254.10058,304.0922a.77371.77371,0,0,0,.5288-.21l2.5884-2.3906a3.55774,3.55774,0,0,1,.6797-.5371.72837.72837,0,0,0,.3457-.4492.748.748,0,0,0-1.09419-.8516,4.99892,4.99892,0,0,0-.93171.7217l-2.6338,2.4326a.70852.70852,0,0,0-.2246.5147.76578.76578,0,0,0,.2168.5527A.73737.73737,0,0,0,254.10058,304.0922Z"/><path class="cls-17" d="M260.126,302.1547a.68863.68863,0,0,0-.54641.0937,14.8013,14.8013,0,0,0-3.6709,3.5284.66022.66022,0,0,0-.1064.5302.789.789,0,0,0,.3608.5186.72263.72263,0,0,0,.3672.1016.80829.80829,0,0,0,.6445-.3487,13.19815,13.19815,0,0,1,3.189-3.0527.7574.7574,0,0,0,.2554-1.0166A.77447.77447,0,0,0,260.126,302.1547Z"/><path class="cls-17" d="M238.91158,313.9545a.81538.81538,0,0,0,.52841-.2041,34.79863,34.79863,0,0,1,3.332-2.5176.75639.75639,0,0,0,.25679-1.0176.7718.7718,0,0,0-.4912-.3545.70962.70962,0,0,0-.5473.0928,37.48712,37.48712,0,0,0-3.5826,2.709.683.683,0,0,0-.2319.499.78344.78344,0,0,0,.2178.5762A.72664.72664,0,0,0,238.91158,313.9545Z"/><path class="cls-17" d="M240.00828,316.8158a.76334.76334,0,0,0,.0186,1.0391.79918.79918,0,0,0,.5527.2187c.0147,0,.0293,0,.044-.0009a.652.652,0,0,0,.4829-.2383,16.34446,16.34446,0,0,1,5.2016-4.3067.69468.69468,0,0,0,.3662-.456.77611.77611,0,0,0-1.1035-.8506A17.70544,17.70544,0,0,0,240.00828,316.8158Z"/><path class="cls-17" d="M224.62548,301.6899a.67135.67135,0,0,0-.54149.0976,9.08182,9.08182,0,0,0-3.14211,3.7568.74128.74128,0,0,0,.66311,1.0987.82206.82206,0,0,0,.24809-.0381.65432.65432,0,0,0,.4091-.3525,7.64217,7.64217,0,0,1,2.6114-3.1905.76466.76466,0,0,0,.2529-1.0156A.78032.78032,0,0,0,224.62548,301.6899Z"/><path class="cls-18" d="M222.308,319.3773q-4.63082,9.11895-9.24471,18.246a83.98016,83.98016,0,0,0-6.1054,15.3045,13.04185,13.04185,0,0,0-.214,6.6279,6.868,6.868,0,0,0,4.8375,5.1618,4.98925,4.98925,0,0,0,2.0825.2593,13.29278,13.29278,0,0,0,8.0525-3.7946,41.43375,41.43375,0,0,0,5.9154-7.4779c2.379-3.5673,4.477-7.3096,6.771-10.9298,2.9586-4.669,5.8889-9.3551,8.6411-14.1486A47.83682,47.83682,0,0,0,222.308,319.3773Zm-4.63331,34.4659a4.34537,4.34537,0,0,1-4.22369-4.3431,4.14453,4.14453,0,0,1,4.24529-4.1279,4.328,4.328,0,0,1,4.3924,4.1665A4.44138,4.44138,0,0,1,217.67468,353.8432Z"/><path class="cls-6" d="M233.56358,322.8948c-1.9392,3.5828-3.8644,7.1732-5.7201,10.8009-.21349.4175-.5368.7826-.7238,1.2094a1.77725,1.77725,0,0,0,1.5422,2.5733,1.88667,1.88667,0,0,0,1.5744-1.0376c.23271-.4532.4222-.9295.6691-1.3744,1.5643-2.8183,3.1844-5.6038,4.6662-8.47.3692-.7141.75441-1.4198,1.1295-2.1307C235.67118,323.9053,234.62848,323.3743,233.56358,322.8948Z"/><path class="cls-6" d="M227.562,320.6688q-1.51412,2.7567-3.021,5.5173a49.20606,49.20606,0,0,0-3.19191,6.3063c-.3866,1.0307-.1859,1.8313.5198,2.1733.6345.3077,1.3872.0184,1.9777-.8486a29.11494,29.11494,0,0,0,1.8157-2.897q2.41725-4.63395,4.8403-9.2651Q229.05,321.11815,227.562,320.6688Z"/></g><path class="cls-19" d="M285.65188,134.6035c-1.5441,0-3.0887.0301-4.6315-.014a.93387.93387,0,0,0-1.0803.8745,6.71509,6.71509,0,0,1-.5712,1.8649c-.743,1.3039-.2247,2.1258.74911,3.0412,1.59989,1.5042,3.08739,3.1312,4.57839,4.747,1.045,1.1327,1.012,1.1626.24161,2.4353a22.29607,22.29607,0,0,1-5.40531,6.3507c-1.0141.7768-1.0161.7772-1.84669-.1648-1.64951-1.8707-3.31981-3.7238-4.93521-5.6235-.6387-.7514-1.1735-.9655-2.06779-.3292a12.18973,12.18973,0,0,1-2.55811,1.2376,1.34626,1.34626,0,0,0-.9693,1.2779c-.2649,2.59-.6164,5.1712-.9298,7.7563-.1772,1.4613-.1982,1.4871-1.6375,1.3629a62.22132,62.22132,0,0,1-8.5829-1.5981.98023.98023,0,0,1-.90139-1.2383c.18609-1.8291-.04-3.68.29849-5.5073a1.38751,1.38751,0,0,0-1.132-1.846,12.01857,12.01857,0,0,1-3.8223-1.8731,1.19512,1.19512,0,0,0-1.7005.0604c-1.289,1.0516-2.6228,2.0497-3.9615,3.0382-1.1075.8174-1.15019.8215-2.0363-.1917a49.59521,49.59521,0,0,1-4.8795-7.4522c-.3291-.5498-.1178-.865.2948-1.2005,1.2443-1.0113,2.457-2.0631,3.72481-3.0441a1.37309,1.37309,0,0,0,.55989-1.8275,6.4775,6.4775,0,0,1-.484-1.8909c-.07989-.9628-.60389-1.1233-1.4351-1.1312-1.662-.0157-3.3231-.1244-4.9847-.1929-.6984-.0289-1.3109-.171-1.4425-1.0117a20.65181,20.65181,0,0,1-.2253-7.2729c.3371-1.7023.3528-1.7297,2.0412-1.7012,1.9012.0319,3.8036.0899,5.701.2081a1.683,1.683,0,0,0,1.9239-1.1545,13.67219,13.67219,0,0,1,1.5157-2.6164c.4446-.6227.3258-.9901-.1609-1.5053a63.98571,63.98571,0,0,1-4.6828-5.3647c-.8273-1.0978-.8311-1.1417.0773-2.0769a28.13617,28.13617,0,0,1,6.741-4.6253c.6344-.3553,1.0035.0245,1.3704.4285,1.3977,1.5389,2.786,3.086,4.1825,4.6259.4692.5174.8459,1.3676,1.5779,1.3057a12.84127,12.84127,0,0,0,3.0792-.806c.4268-.149.3852-.6996.4132-1.106.1343-1.9515.2428-3.9049.3829-5.8562.0421-.5884.1824-1.1698.2286-1.7582a.73009.73009,0,0,1,.78261-.7679c3.22009-.1904,6.41909-.2331,9.513.9361a1.17636,1.17636,0,0,1,.89869,1.3144c-.0768,1.6024-.0626,3.2118-.2115,4.8068-.0776.8302-.14919,1.6553-.1465,2.4869a2.37918,2.37918,0,0,0,1.9144,2.5436c.59391.1543.8838-.2841,1.217-.5742,1.478-1.2865,2.9238-2.6102,4.3864-3.9147.2649-.2364.5632-.4353.83-.6699.4039-.3553.7394-.2387,1.0841.098a34.243,34.243,0,0,1,5.5498,6.7276c.4104.6796.1787,1.0893-.3188,1.5189q-2.22585,1.9227-4.4439,3.8545c-.4764.4128-1.1155.6886-.6709,1.5692.3633.72.6004,1.3016,1.6201,1.3096,2.1333.0167,4.2643.2427,6.3984.3167.8983.0312,1.4388.2998,1.6133,1.2548a34.04985,34.04985,0,0,1,.7718,7.2589c-.0299.9191-.3127,1.2906-1.2665,1.1737a17.687,17.687,0,0,0-2.13989-.017Zm-24.3047-12.2311a9.33163,9.33163,0,0,0-8.9938,9.5978,9.46251,9.46251,0,0,0,9.3041,9.3411c5.22151.0272,9.199-4.2785,9.1802-9.9636C270.81928,125.8239,266.52228,122.4528,261.34718,122.3724Z"/><path class="cls-19" d="M334.77138,121.9114c-.981,0-1.96239.0191-2.9426-.0089a.59328.59328,0,0,0-.6863.5556,4.26646,4.26646,0,0,1-.363,1.1849c-.472.8284-.1427,1.3506.4759,1.9322,1.01661.9557,1.96161,1.9894,2.9089,3.016.664.7196.643.7386.1535,1.5472a14.16327,14.16327,0,0,1-3.4342,4.0349c-.6443.4935-.64559.4938-1.1733-.1047-1.048-1.1885-2.1092-2.3659-3.1355-3.5729-.4059-.4773-.7456-.6134-1.31379-.2092a7.74291,7.74291,0,0,1-1.62531.7864.8553.8553,0,0,0-.6158.8119c-.1683,1.6455-.3917,3.2855-.5908,4.9279-.1126.9284-.1259.9448-1.0403.8659a39.5453,39.5453,0,0,1-5.4532-1.0153.62288.62288,0,0,1-.5727-.7868c.1183-1.1621-.0254-2.338.1897-3.499a.88162.88162,0,0,0-.7192-1.1729,7.6355,7.6355,0,0,1-2.4285-1.19.75918.75918,0,0,0-1.0804.0384c-.8189.6681-1.6664,1.3022-2.5169,1.9302-.7037.5194-.7308.522-1.2938-.1217a31.51852,31.51852,0,0,1-3.1001-4.7347c-.2091-.3494-.0749-.5497.18731-.7628.79049-.6425,1.561-1.3108,2.36649-1.9341a.87221.87221,0,0,0,.3557-1.161,4.11559,4.11559,0,0,1-.3075-1.2014c-.05069-.6117-.3836-.7137-.9118-.7187-1.05589-.0099-2.1113-.079-3.167-.1225-.4437-.0184-.8328-.1087-.9165-.6429a13.12359,13.12359,0,0,1-.1431-4.6207c.2142-1.0816.2241-1.099,1.2969-1.0809,1.2079.0203,2.4166.0571,3.6221.1322a1.069,1.069,0,0,0,1.2223-.7335,8.69047,8.69047,0,0,1,.963-1.6623c.2825-.3956.207-.6291-.1022-.9564a40.63237,40.63237,0,0,1-2.9752-3.4084c-.5257-.6975-.528-.7254.0491-1.3196a17.878,17.878,0,0,1,4.2829-2.9386c.4031-.2257.6376.0156.8706.2722.8881.9777,1.7701,1.9607,2.6574,2.9391.2981.3287.5374.8689,1.0025.8296a8.16419,8.16419,0,0,0,1.95631-.5122c.27119-.0946.24469-.4444.26259-.7027.0853-1.2398.1542-2.4809.2432-3.7206.0268-.3739.1159-.7433.1453-1.1171a.4638.4638,0,0,1,.4972-.4879,14.33515,14.33515,0,0,1,6.044.5947.74741.74741,0,0,1,.571.8351c-.0488,1.0181-.0397,2.0407-.1344,3.054-.0493.5275-.0947,1.0517-.093,1.5801a1.51151,1.51151,0,0,0,1.2162,1.616c.3774.0981.5616-.1805.7733-.3648.939-.8174,1.85761-1.6584,2.7868-2.4872.1683-.1502.3579-.2766.5274-.4256.2566-.2257.4698-.1516.6888.0623a21.758,21.758,0,0,1,3.526,4.2743c.2607.4318.1135.6921-.2025.965q-1.41434,1.2216-2.8234,2.449c-.3027.2623-.7088.4375-.4263.9969.23081.4575.3814.827,1.0293.8321,1.3554.0107,2.7093.1542,4.0652.2012.5707.0198.9141.1905,1.025.7973a21.63541,21.63541,0,0,1,.4904,4.6118c-.019.584-.1987.8201-.8047.7457a11.26471,11.26471,0,0,0-1.3596-.0107Zm-15.4419-7.771a5.92883,5.92883,0,0,0-5.7141,6.0979,6.01193,6.01193,0,0,0,5.9113,5.9349c3.3174.0173,5.8445-2.7183,5.8326-6.3304C325.34758,116.3333,322.61748,114.1915,319.32948,114.1404Z"/><path class="cls-20" d="M379.91358,176.8297a5.16576,5.16576,0,0,1,5.2141,4.7968c-.0055,3.0629-2.7266,5.662-5.0033,5.5642a5.327,5.327,0,0,1-5.05839-5.2903C375.19788,179.0055,377.18038,176.8207,379.91358,176.8297Z"/><path class="cls-20" d="M365.89438,129.6522a2.98376,2.98376,0,0,1-3.123-3.0992,3.48372,3.48372,0,0,1,3.2423-3.0049,3.05321,3.05321,0,1,1-.1193,6.1041Z"/><path class="cls-20" d="M396.22558,136.4006a3.58779,3.58779,0,0,1-3.7239-3.4498,4.10865,4.10865,0,0,1,3.9566-4.0056,3.73546,3.73546,0,1,1-.2327,7.4554Z"/><path class="cls-20" d="M382.33218,150.0209a4.21064,4.21064,0,0,1-4.3704-4.0486,4.82193,4.82193,0,0,1,4.6435-4.701,4.38391,4.38391,0,1,1-.2731,8.7496Z"/><path class="cls-20" d="M400.08938,168.2166a4.2107,4.2107,0,0,1-4.3703-4.0487,4.82182,4.82182,0,0,1,4.6434-4.7009,4.38391,4.38391,0,1,1-.2731,8.7496Z"/><path class="cls-20" d="M389.14338,100.726a3.26461,3.26461,0,0,1,3.3553,3.3747,3.46154,3.46154,0,0,1-3.096,3.557,3.74143,3.74143,0,0,1-3.6544-3.7271A3.34683,3.34683,0,0,1,389.14338,100.726Z"/><path class="cls-21" d="M430.01858,129.8024c-.672,1.5545-1.3472,3.1075-2.0133,4.6646a2.71327,2.71327,0,0,1-.6262.9426c-.4746.4485-.8704.405-1.1829-.1521a17.95724,17.95724,0,0,1-1.061-2.0304,56.2571,56.2571,0,0,1-4.4477-18.3801,24.19894,24.19894,0,0,1,2.1177-11.9602,8.2695,8.2695,0,0,1,5.533-4.7243c2.3583-.5972,3.9194-.0135,5.1381,2.0901a13.55253,13.55253,0,0,1,1.7462,7.0681,62.96468,62.96468,0,0,1-1.9153,13.2551A39.45637,39.45637,0,0,1,430.01858,129.8024Z"/><path class="cls-21" d="M480.63988,139.7063a13.21288,13.21288,0,0,1-5.3366,3.9607,30.40675,30.40675,0,0,1-13.5826,2.5324,130.77939,130.77939,0,0,1-13.6939-1.4166c-.7783-.1065-1.9343-.0462-2.1351-.8913-.248-1.0429.9899-1.2451,1.66331-1.7405a98.35163,98.35163,0,0,1,14.43459-8.7298,31.143,31.143,0,0,1,10.9875-3.6411,9.5061,9.5061,0,0,1,6.8575,1.5831,5.44026,5.44026,0,0,1,1.3879,7.5488C481.045,139.1875,480.83488,139.442,480.63988,139.7063Z"/><path class="cls-21" d="M450.79878,114.5139c1.583-2.9048,2.89121-6.3569,5.3279-9.1557a16.37048,16.37048,0,0,1,4.0305-3.5681,7.44138,7.44138,0,0,1,1.6407-.7333c2.82811-.8303,4.1707.5285,4.40311,2.9945a8.56482,8.56482,0,0,1-1.13971,4.7127,24.52588,24.52588,0,0,1-4.5865,5.9369,78.09626,78.09626,0,0,1-10.5116,8.8668c-.4956.3524-1.0373,1.0265-1.7368.5475-.67039-.459-.1265-1.146.0034-1.66A56.38336,56.38336,0,0,1,450.79878,114.5139Z"/><path class="cls-22" d="M110.00605,403.40025c-18.68059,6.65975-26.94979,31.7086-77.30148,37.14392-11.99652,1.2955,20.83917,8.0208,31.59215,8.865,9.2665.72564-4.56875,9.82986-11.42692,13.50685-27.5573,14.772,61.84137-2.11048,69.90739-19.41612C130.84506,426.1931,123.46383,398.60272,110.00605,403.40025Z"/><path class="cls-23" d="M125.98166,430.74124c1.08564-13.52037-4.06172-27.359-12.45478-27.87479.12221.01583.24974.03271.38446.04738,7.39575.81821,3.15607,10.65039-4.69426,12.82742l9.3276,16.68727Z"/><path class="cls-24" d="M209.16187,446.94541c15.02137-5.01431,16.9247-50.38543,0-49.43293-14.61336.82272-60.89431,22.28044-95.77706,18.12617-21.833-2.60141-20.5622,42.017,0,44.48969C141.997,463.56714,185.706,454.77668,209.16187,446.94541Z"/><path class="cls-23" d="M209.16187,446.94541c14.70868-4.91043,16.83653-48.50528,1.02988-49.42507,5.38993.47405,9.89554,9.41242,3.77592,13.79808-5.947,4.26152-18.60331.73246-23.39474,5.49958,6.57623,13.03279,11.15012,23.15055,14.901,31.31475C206.75,447.73543,207.98292,447.33927,209.16187,446.94541Z"/><path class="cls-22" d="M635.598,494.382c21.48258-.02034,48.319-19.26717,96.40611-8.43164,11.45934,2.58327-11.84908-13.42329-20.54785-17.48177-7.49642-3.49738,11.68571-7.145,20.53717-8.22394,35.56737-4.3371-55.481-17.28195-76.07211-4.71292C635.33207,468.1007,620.12372,494.39663,635.598,494.382Z"/><path class="cls-23" d="M643.13215,465.64491c-11.54725,11.43255-17.91681,25.06918-11.01707,28.113-.09349-.052-.19232-.10507-.2983-.16029-5.79262-2.99861,5.60559-10.24533,14.14422-9.71373l4.96406-17.40722Z"/><path class="cls-24" d="M583.43666,425.824c-17.00916-.27875-54.23729,38.62237-38.75951,43.026,13.36431,3.80226,70.47184-.56651,97.57622,13.83529,16.96407,9.01281,50.84216-30.21432,34.88277-38.72386C654.92917,432.12261,609.991,426.25968,583.43666,425.824Z"/><path class="cls-23" d="M583.43482,425.824c-16.65155-.27424-52.68456,37.013-39.64915,42.70211-4.31863-2.08,1.677-7.47117,10.62893-9.01617,17.09548-2.949,39.47652,6.06841,47.38445,3.40148,4.495-13.37812-17.35957-28.71439-14.22337-36.98018C586.154,425.88166,584.7702,425.84549,583.43482,425.824Z"/><path class="cls-25" d="M596.66439,462.38778c-111.25686-41.016-301.61934,59.52134-397.61743,1.68843-20.11113-12.11762-17.35056-57.07687,0-47.239,84.7887,48.07295,279.2705-45.41076,389.55675-3.37443C605.49785,419.90236,616.41241,469.66825,596.66439,462.38778Z"/><path class="cls-26" d="M302.03289,437.49775q0,15.81051,0,31.62109-4.11134.10749-8.22267.109,0-15.81051,0-31.62109Q297.92152,437.60685,302.03289,437.49775Z"/><path class="cls-26" d="M323.693,436.273v31.62109q-3.60351.30387-7.207.54541-2.13867-7.04479-4.27734-14.11359v14.375q-3.43752.19044-6.875.31525,0-15.81051,0-31.62109,3.43748-.12378,6.875-.31525,2.30467,6.99151,4.6094,13.95453V436.796Q320.25555,436.56376,323.693,436.273Z"/><path class="cls-26" d="M344.41572,443.64338q-3.81835.47946-7.63674.90863,0-1.17187,0-2.34375a4.36578,4.36578,0,0,0-.293-2.05713.96891.96891,0,0,0-.97653-.34125,1.41867,1.41867,0,0,0-1.12308.7273,3.75391,3.75391,0,0,0-.38086,1.87866,4.90747,4.90747,0,0,0,.42824,2.33789,5.2779,5.2779,0,0,0,2.32374,1.67853c3.66,1.76166,5.96534,3.25384,6.916,4.53045q1.42548,1.91281,1.42578,6.55927a12.56227,12.56227,0,0,1-.791,5.0802,7.37675,7.37675,0,0,1-3.05661,3.061,12.90428,12.90428,0,0,1-5.27344,1.69275,10.96179,10.96179,0,0,1-5.6348-.65881,5.32469,5.32469,0,0,1-3.05662-2.89063,15.71154,15.71154,0,0,1-.72268-5.42193v-2.07031q3.81835-.34708,7.63674-.75714,0,1.92379,0,3.84765a4.82059,4.82059,0,0,0,.32225,2.25055,1.12124,1.12124,0,0,0,1.14258.38348,1.52665,1.52665,0,0,0,1.22073-.78009,3.94362,3.94362,0,0,0,.40036-1.95916q-.00014-2.79365-.76172-3.56678a21.362,21.362,0,0,0-3.84764-2.45629,31.50426,31.50426,0,0,1-4.06251-2.544,6.04846,6.04846,0,0,1-1.65038-2.38452,10.68885,10.68885,0,0,1-.65428-4.081,12.0589,12.0589,0,0,1,.9277-5.39733,7.20811,7.20811,0,0,1,2.99808-2.91382,13.12086,13.12086,0,0,1,5-1.46753,12.72329,12.72329,0,0,1,5.459.4115,4.83559,4.83559,0,0,1,2.98829,2.24334,13.06758,13.06758,0,0,1,.73242,5.25031Z"/><path class="cls-26" d="M347.67741,433.65479q4.1406-.54153,8.28128-1.13275a19.5872,19.5872,0,0,1,5.166-.22455,4.87131,4.87131,0,0,1,2.71488,1.11627,4.35048,4.35048,0,0,1,1.23043,2.225,20.82517,20.82517,0,0,1,.3223,4.33557v2.75391a12.26184,12.26184,0,0,1-.625,4.50946,5.30866,5.30866,0,0,1-2.29492,2.47577,11.89219,11.89219,0,0,1-4.36524,1.38635q-1.10352.16013-2.207.31726V464.1515q-4.11135.58529-8.22268,1.12439Zm8.22268,4.28577v8.04687c.23432-.02069.4361-.04254.60544-.06689a2.20926,2.20926,0,0,0,1.57227-.7832,4.45439,4.45439,0,0,0,.43945-2.3783v-2.59766q0-1.6214-.50778-2.03558A2.97148,2.97148,0,0,0,355.90009,437.94056Z"/><path class="cls-26" d="M375.97819,429.461V461.0821q-4.11132.66265-8.22266,1.30176v-31.6211Q371.86685,430.12529,375.97819,429.461Z"/><path class="cls-26" d="M379.279,428.92585q2.91013-.47433,5.82031-.95612a45.22464,45.22464,0,0,1,7.88132-.8609,4.41237,4.41237,0,0,1,3.35937,1.73468q1.29791,1.62891,1.29883,5.67218-.00054,3.69205-.918,5.114a5.86124,5.86124,0,0,1-3.61325,2.126,5.19132,5.19132,0,0,1,3.28122,1.07392,3.914,3.914,0,0,1,1.04492,1.691,28.67352,28.67352,0,0,1,.20508,4.64355V457.504q-3.81839.63621-7.63669,1.27308V448.26923a6.74886,6.74886,0,0,0-.40039-3.07794q-.40137-.53833-2.09964-.25647v14.25781q-4.11159.68244-8.22311,1.35431Zm8.22311,4.05585V440.013a4.12429,4.12429,0,0,0,1.94339-.70386q.55674-.47333.55664-2.56329v-1.73829q0-1.5044-.53714-1.8833A2.81413,2.81413,0,0,0,387.50211,432.9817Z"/><path class="cls-26" d="M415.03632,423.02918q2.35108,15.435,4.70215,30.87787-4.20168.65625-8.40335,1.339-.22073-2.80619-.44137-5.612-1.47075.23859-2.94141.47961-.24711,2.88227-.49417,5.76459-4.25047.69708-8.501,1.40619,2.09715-16.1596,4.19434-32.3175Q409.0939,423.98338,415.03632,423.02918Zm-4.35843,21.03443q-.624-5.2717-1.25192-13.07752-1.2567,9.28656-1.57818,13.53925Q409.26288,444.29353,410.67789,444.06361Z"/><path class="cls-26" d="M440.33414,433.063q-4.1113.5429-8.22268,1.13385v-5.4961a9.41577,9.41577,0,0,0-.26367-2.95337q-.26368-.55691-1.16208-.42694a1.44638,1.44638,0,0,0-1.28907.91071,11.45409,11.45409,0,0,0-.27346,3.16516v14.6875a9.77622,9.77622,0,0,0,.27346,2.96765q.27237.66366,1.23047.52362a1.38189,1.38189,0,0,0,1.20117-.87866,12.00013,12.00013,0,0,0,.28318-3.34918v-3.97461q4.11135-.58943,8.22268-1.13385v1.23242a25.37075,25.37075,0,0,1-.69336,7.05481,8.63724,8.63724,0,0,1-3.0664,4.01452,12.04782,12.04782,0,0,1-5.84958,2.372,11.49368,11.49368,0,0,1-5.95706-.42444,5.13524,5.13524,0,0,1-3.10547-3.14752,22.54,22.54,0,0,1-.76172-6.84491v-9.23828a42.06341,42.06341,0,0,1,.23438-5.16333,8.401,8.401,0,0,1,1.39648-3.50665,9.665,9.665,0,0,1,3.22266-2.98078,12.82868,12.82868,0,0,1,4.73635-1.60931,10.68646,10.68646,0,0,1,5.99607.55536,5.54548,5.54548,0,0,1,3.10547,3.08044,20.07386,20.07386,0,0,1,.74218,6.426Z"/><path class="cls-26" d="M451.506,417.92042v31.62109q-4.11132.46482-8.22263.99036v-31.6211Q447.39473,418.38682,451.506,417.92042Z"/><path class="cls-26" d="M473.59583,434.45637q0,4.76459-.22458,6.76239a8.08294,8.08294,0,0,1-1.40625,3.71563,8.47863,8.47863,0,0,1-3.19336,2.7486,12.57628,12.57628,0,0,1-4.6875,1.26,11.77424,11.77424,0,0,1-4.56054-.41089,6.57831,6.57831,0,0,1-3.252-2.16382,6.71933,6.71933,0,0,1-1.46484-3.45916,65.97025,65.97025,0,0,1-.23437-6.81086v-5.41015q-.00038-4.76487.2246-6.772a8.36713,8.36713,0,0,1,1.40625-3.77118,8.69125,8.69125,0,0,1,3.19336-2.84063,12.06724,12.06724,0,0,1,4.6875-1.31049,11.21363,11.21363,0,0,1,4.56052.45856,6.73235,6.73235,0,0,1,3.252,2.25629,6.9873,6.9873,0,0,1,1.46485,3.5166,66.2323,66.2323,0,0,1,.23437,6.821Zm-2.87109-24.61182q-3.21286,2.874-6.42575,5.79858-1.98245.17112-3.96485.36,1.71873-2.81012,3.43753-5.60712Q467.24816,410.09177,470.72474,409.84455Zm-5.35153,14.82831a9.56425,9.56425,0,0,0-.24417-2.80176.8831.8831,0,0,0-1.00583-.52917,1.24459,1.24459,0,0,0-.98636.58471,7.29863,7.29863,0,0,0-.34177,2.97v14.76563a14.18943,14.18943,0,0,0,.22458,3.37829.889.889,0,0,0,1.045.55262,1.12451,1.12451,0,0,0,1.07419-.83417,15.93862,15.93862,0,0,0,.23438-3.55487Z"/><path class="cls-26" d="M495.02164,415.23371V446.8548q-3.60351-.00009-7.207.084-2.13867-7.13818-4.27734-14.24872v14.375q-3.43749.12342-6.875.31452v-31.6211q3.43749-.19016,6.875-.31451,2.30471,7.03638,4.60937,14.10455V415.31031Q491.58413,415.2347,495.02164,415.23371Z"/><path class="cls-27" d="M302.03289,437.49775q0,15.81051,0,31.62109-4.11134.10749-8.22267.109,0-15.81051,0-31.62109Q297.92152,437.60685,302.03289,437.49775Z"/><path class="cls-27" d="M323.693,436.273v31.62109q-3.60351.30387-7.207.54541-2.13867-7.04479-4.27734-14.11359v14.375q-3.43752.19044-6.875.31525,0-15.81051,0-31.62109,3.43748-.12378,6.875-.31525,2.30467,6.99151,4.6094,13.95453V436.796Q320.25555,436.56376,323.693,436.273Z"/><path class="cls-27" d="M344.41572,443.64338q-3.81835.47946-7.63674.90863,0-1.17187,0-2.34375a4.36578,4.36578,0,0,0-.293-2.05713.96891.96891,0,0,0-.97653-.34125,1.41867,1.41867,0,0,0-1.12308.7273,3.75391,3.75391,0,0,0-.38086,1.87866,4.90747,4.90747,0,0,0,.42824,2.33789,5.2779,5.2779,0,0,0,2.32374,1.67853c3.66,1.76166,5.96534,3.25384,6.916,4.53045q1.42548,1.91281,1.42578,6.55927a12.56227,12.56227,0,0,1-.791,5.0802,7.37675,7.37675,0,0,1-3.05661,3.061,12.90428,12.90428,0,0,1-5.27344,1.69275,10.96179,10.96179,0,0,1-5.6348-.65881,5.32469,5.32469,0,0,1-3.05662-2.89063,15.71154,15.71154,0,0,1-.72268-5.42193v-2.07031q3.81835-.34708,7.63674-.75714,0,1.92379,0,3.84765a4.82059,4.82059,0,0,0,.32225,2.25055,1.12124,1.12124,0,0,0,1.14258.38348,1.52665,1.52665,0,0,0,1.22073-.78009,3.94362,3.94362,0,0,0,.40036-1.95916q-.00014-2.79365-.76172-3.56678a21.362,21.362,0,0,0-3.84764-2.45629,31.50426,31.50426,0,0,1-4.06251-2.544,6.04846,6.04846,0,0,1-1.65038-2.38452,10.68885,10.68885,0,0,1-.65428-4.081,12.0589,12.0589,0,0,1,.9277-5.39733,7.20811,7.20811,0,0,1,2.99808-2.91382,13.12086,13.12086,0,0,1,5-1.46753,12.72329,12.72329,0,0,1,5.459.4115,4.83559,4.83559,0,0,1,2.98829,2.24334,13.06758,13.06758,0,0,1,.73242,5.25031Z"/><path class="cls-27" d="M347.67741,433.65479q4.1406-.54153,8.28128-1.13275a19.5872,19.5872,0,0,1,5.166-.22455,4.87131,4.87131,0,0,1,2.71488,1.11627,4.35048,4.35048,0,0,1,1.23043,2.225,20.82517,20.82517,0,0,1,.3223,4.33557v2.75391a12.26184,12.26184,0,0,1-.625,4.50946,5.30866,5.30866,0,0,1-2.29492,2.47577,11.89219,11.89219,0,0,1-4.36524,1.38635q-1.10352.16013-2.207.31726V464.1515q-4.11135.58529-8.22268,1.12439Zm8.22268,4.28577v8.04687c.23432-.02069.4361-.04254.60544-.06689a2.20926,2.20926,0,0,0,1.57227-.7832,4.45439,4.45439,0,0,0,.43945-2.3783v-2.59766q0-1.6214-.50778-2.03558A2.97148,2.97148,0,0,0,355.90009,437.94056Z"/><path class="cls-27" d="M375.97819,429.461V461.0821q-4.11132.66265-8.22266,1.30176v-31.6211Q371.86685,430.12529,375.97819,429.461Z"/><path class="cls-27" d="M379.279,428.92585q2.91013-.47433,5.82031-.95612a45.22464,45.22464,0,0,1,7.88132-.8609,4.41237,4.41237,0,0,1,3.35937,1.73468q1.29791,1.62891,1.29883,5.67218-.00054,3.69205-.918,5.114a5.86124,5.86124,0,0,1-3.61325,2.126,5.19132,5.19132,0,0,1,3.28122,1.07392,3.914,3.914,0,0,1,1.04492,1.691,28.67352,28.67352,0,0,1,.20508,4.64355V457.504q-3.81839.63621-7.63669,1.27308V448.26923a6.74886,6.74886,0,0,0-.40039-3.07794q-.40137-.53833-2.09964-.25647v14.25781q-4.11159.68244-8.22311,1.35431Zm8.22311,4.05585V440.013a4.12429,4.12429,0,0,0,1.94339-.70386q.55674-.47333.55664-2.56329v-1.73829q0-1.5044-.53714-1.8833A2.81413,2.81413,0,0,0,387.50211,432.9817Z"/><path class="cls-27" d="M415.03632,423.02918q2.35108,15.435,4.70215,30.87787-4.20168.65625-8.40335,1.339-.22073-2.80619-.44137-5.612-1.47075.23859-2.94141.47961-.24711,2.88227-.49417,5.76459-4.25047.69708-8.501,1.40619,2.09715-16.1596,4.19434-32.3175Q409.0939,423.98338,415.03632,423.02918Zm-4.35843,21.03443q-.624-5.2717-1.25192-13.07752-1.2567,9.28656-1.57818,13.53925Q409.26288,444.29353,410.67789,444.06361Z"/><path class="cls-27" d="M440.33414,433.063q-4.1113.5429-8.22268,1.13385v-5.4961a9.41577,9.41577,0,0,0-.26367-2.95337q-.26368-.55691-1.16208-.42694a1.44638,1.44638,0,0,0-1.28907.91071,11.45409,11.45409,0,0,0-.27346,3.16516v14.6875a9.77622,9.77622,0,0,0,.27346,2.96765q.27237.66366,1.23047.52362a1.38189,1.38189,0,0,0,1.20117-.87866,12.00013,12.00013,0,0,0,.28318-3.34918v-3.97461q4.11135-.58943,8.22268-1.13385v1.23242a25.37075,25.37075,0,0,1-.69336,7.05481,8.63724,8.63724,0,0,1-3.0664,4.01452,12.04782,12.04782,0,0,1-5.84958,2.372,11.49368,11.49368,0,0,1-5.95706-.42444,5.13524,5.13524,0,0,1-3.10547-3.14752,22.54,22.54,0,0,1-.76172-6.84491v-9.23828a42.06341,42.06341,0,0,1,.23438-5.16333,8.401,8.401,0,0,1,1.39648-3.50665,9.665,9.665,0,0,1,3.22266-2.98078,12.82868,12.82868,0,0,1,4.73635-1.60931,10.68646,10.68646,0,0,1,5.99607.55536,5.54548,5.54548,0,0,1,3.10547,3.08044,20.07386,20.07386,0,0,1,.74218,6.426Z"/><path class="cls-27" d="M451.506,417.92042v31.62109q-4.11132.46482-8.22263.99036v-31.6211Q447.39473,418.38682,451.506,417.92042Z"/><path class="cls-27" d="M473.59583,434.45637q0,4.76459-.22458,6.76239a8.08294,8.08294,0,0,1-1.40625,3.71563,8.47863,8.47863,0,0,1-3.19336,2.7486,12.57628,12.57628,0,0,1-4.6875,1.26,11.77424,11.77424,0,0,1-4.56054-.41089,6.57831,6.57831,0,0,1-3.252-2.16382,6.71933,6.71933,0,0,1-1.46484-3.45916,65.97025,65.97025,0,0,1-.23437-6.81086v-5.41015q-.00038-4.76487.2246-6.772a8.36713,8.36713,0,0,1,1.40625-3.77118,8.69125,8.69125,0,0,1,3.19336-2.84063,12.06724,12.06724,0,0,1,4.6875-1.31049,11.21363,11.21363,0,0,1,4.56052.45856,6.73235,6.73235,0,0,1,3.252,2.25629,6.9873,6.9873,0,0,1,1.46485,3.5166,66.2323,66.2323,0,0,1,.23437,6.821Zm-2.87109-24.61182q-3.21286,2.874-6.42575,5.79858-1.98245.17112-3.96485.36,1.71873-2.81012,3.43753-5.60712Q467.24816,410.09177,470.72474,409.84455Zm-5.35153,14.82831a9.56425,9.56425,0,0,0-.24417-2.80176.8831.8831,0,0,0-1.00583-.52917,1.24459,1.24459,0,0,0-.98636.58471,7.29863,7.29863,0,0,0-.34177,2.97v14.76563a14.18943,14.18943,0,0,0,.22458,3.37829.889.889,0,0,0,1.045.55262,1.12451,1.12451,0,0,0,1.07419-.83417,15.93862,15.93862,0,0,0,.23438-3.55487Z"/><path class="cls-27" d="M495.02164,415.23371V446.8548q-3.60351-.00009-7.207.084-2.13867-7.13818-4.27734-14.24872v14.375q-3.43749.12342-6.875.31452v-31.6211q3.43749-.19016,6.875-.31451,2.30471,7.03638,4.60937,14.10455V415.31031Q491.58413,415.2347,495.02164,415.23371Z"/></svg>