<svg id="Layer_1" data-name="Layer 1" xmlns="http://www.w3.org/2000/svg" xmlns:xlink="http://www.w3.org/1999/xlink" viewBox="0 0 1743.63 1295.2"><defs><style>.cls-1{fill:url(#Новый_образец_градиента_2);}.cls-2{fill:#f7a491;}.cls-3{fill:#f47458;}.cls-4{fill:#fcc13f;}.cls-5{fill:#fff;}.cls-6{fill:#e0973f;}.cls-7{fill:#ff7a03;}.cls-8{fill:#ffa42f;}.cls-9{fill:#fee2bf;}.cls-10{fill:#352e73;}.cls-11{fill:#7271b3;}.cls-12{fill:#50bfa5;}.cls-13{fill:#2d2861;}.cls-14{fill:#fc008b;}.cls-15{fill:#d6007e;}.cls-16{fill:#8cd334;}.cls-17{fill:#f48c7f;}.cls-18{fill:#ffd14a;}.cls-19,.cls-26{fill:none;stroke:#fff;stroke-linecap:round;stroke-linejoin:round;}.cls-19{stroke-width:2px;}.cls-20{fill:#2ba14c;}.cls-21{fill:#966259;}.cls-22{fill:#6b4744;}.cls-23{fill:#efefef;}.cls-24{fill:#f27a6a;}.cls-25{fill:#adeff7;}.cls-26{stroke-width:2.67px;}</style><linearGradient id="Новый_образец_градиента_2" x1="1023.28" y1="182.46" x2="1040.24" y2="1396.93" gradientUnits="userSpaceOnUse"><stop offset="0" stop-color="#8bf9fd"/><stop offset="0.99" stop-color="#fafee5"/></linearGradient></defs><path class="cls-1" d="M1767.45,1406.77c175.06-89,186.5-520.63-152.07-621.66S1339.54,429.16,1054.7,238.6C795.06,64.9,365.54,212.14,222.48,663.87c-102,322.11,17,726.18,98.25,742.9Z" transform="translate(-183.08 -115.51)"/><path class="cls-2" d="M858.87,432.79s-.1,40,2.34,46.6c1.07,2.88,6.54,7.38,10.49,15.34,6.43,12.93,7.91,31.4,7.91,31.4l12.56,45.7,19.71-27.9s-6.65-27.69-8-37.07c-2.53-17.33-1.81-27.73-1.81-27.73s-11.73-10.95-12.91-14.41c-3.33-9.74-11.76-25.1-15.46-28.8-5-4.95,2.37,29.94,2.37,29.94s-6.14-38.42-10.6-38.42.14,24.35.14,24.35S865.8,430.31,858.87,432.79Z" transform="translate(-183.08 -115.51)"/><path class="cls-2" d="M1174,403.33c-2.37-.28-3.44,1.72-3.81,4.55-.82-4.77-2-8.69-3.83-8.28-2.46.58-2.66,13.33-2.37,24.25-.63-8.73-1.76-17.28-3.73-14.13-2.77,4.44-5.18,25.26-6.23,35.49-.37,3.64-2.08,5.18-5.13,7.21,0,0-3.8-25.82-7.65-19.64s3.55,50.84,3.55,50.84l2.65,39.94,24,3.34,1.11-23.49a53.15,53.15,0,0,1-1.35-23c1.93-12.52,9.22-28.22,11-31.12C1185.94,443.31,1174,403.33,1174,403.33Z" transform="translate(-183.08 -115.51)"/><path class="cls-3" d="M1175.31,420.8s1.14,10.79-3.09,18.16-22.2,16.78-22.2,16.78l-1.3-3.9Z" transform="translate(-183.08 -115.51)"/><path class="cls-4" d="M1208.17,315.3c0,21.53-20.32,39.59-26.63,59-6.53,20.14-.94,46.64-13.14,63.4-12.32,16.93-39.34,19.75-56.27,32.07-16.76,12.19-27.72,37.09-47.85,43.63-19.43,6.31-42.84-7.19-64.37-7.19s-44.95,13.5-64.37,7.19c-20.14-6.54-30.4-34-47.16-46.2-16.93-12.32-44.65-12.57-57-29.5-12.2-16.76-6.6-43.26-13.14-63.4-6.31-19.43-26.62-37.49-26.62-59s20.31-39.59,26.62-59c6.54-20.13.94-46.64,13.14-63.4,12.32-16.93,39.34-19.74,56.27-32.06,16.76-12.2,27.72-37.1,47.86-43.63,19.42-6.31,42.84,7.18,64.37,7.18s44.94-13.49,64.37-7.18c20.13,6.53,31.09,31.43,47.85,43.63,16.93,12.32,43.95,15.13,56.27,32.06,12.2,16.76,6.61,43.27,13.14,63.4C1187.85,275.71,1208.17,293.77,1208.17,315.3Z" transform="translate(-183.08 -115.51)"/><circle class="cls-5" cx="999.91" cy="315.3" r="165.06" transform="translate(-113.17 683.89) rotate(-45)"/><path class="cls-6" d="M1085.87,228.7a11.73,11.73,0,0,1-1.66,4.26c-1.6,1.6-3.12,3.26-4.55,4.95,1-.06,2-.09,3-.09,9.89,0,19.09,2.88,25.91,8.11,6.09,4.68,9.44,10.67,9.44,16.88s-3.35,12.2-9.44,16.88c-6.82,5.23-16,8.12-25.91,8.12s-19-2.87-25.84-8.08l-1.49,3.64A9.25,9.25,0,1,0,1067.6,295a56.85,56.85,0,0,0,15,2c24.62,0,44.57-15.32,44.57-34.21C1127.21,244.75,1109,230,1085.87,228.7Z" transform="translate(-183.08 -115.51)"/><path class="cls-6" d="M913.12,228.7a11.73,11.73,0,0,0,1.66,4.26c1.6,1.6,3.11,3.26,4.55,4.95-1-.06-2-.09-3-.09-9.88,0-19.08,2.88-25.9,8.11-6.09,4.68-9.45,10.67-9.45,16.88s3.36,12.2,9.45,16.88c6.82,5.23,16,8.12,25.9,8.12s19-2.87,25.85-8.08c.49,1.22,1,2.42,1.48,3.64A9.25,9.25,0,1,1,931.39,295a56.87,56.87,0,0,1-15,2c-24.61,0-44.56-15.32-44.56-34.21C871.78,244.75,890,230,913.12,228.7Z" transform="translate(-183.08 -115.51)"/><path class="cls-7" d="M1085.87,228.7a11.73,11.73,0,0,1-1.66,4.26c-1.6,1.6-3.12,3.26-4.55,4.95,1-.06,2-.09,3-.09,9.89,0,19.09,2.88,25.91,8.11,6.09,4.68,9.44,10.67,9.44,16.88s-3.35,12.2-9.44,16.88c-6.82,5.23-16,8.12-25.91,8.12s-19-2.87-25.84-8.08l-1.49,3.64A9.25,9.25,0,1,0,1067.6,295a56.85,56.85,0,0,0,15,2c24.62,0,44.57-15.32,44.57-34.21C1127.21,244.75,1109,230,1085.87,228.7Z" transform="translate(-183.08 -115.51)"/><path class="cls-7" d="M913.12,228.7a11.73,11.73,0,0,0,1.66,4.26c1.6,1.6,3.11,3.26,4.55,4.95-1-.06-2-.09-3-.09-9.88,0-19.08,2.88-25.9,8.11-6.09,4.68-9.45,10.67-9.45,16.88s3.36,12.2,9.45,16.88c6.82,5.23,16,8.12,25.9,8.12s19-2.87,25.85-8.08c.49,1.22,1,2.42,1.48,3.64A9.25,9.25,0,1,1,931.39,295a56.87,56.87,0,0,1-15,2c-24.61,0-44.56-15.32-44.56-34.21C871.78,244.75,890,230,913.12,228.7Z" transform="translate(-183.08 -115.51)"/><path class="cls-8" d="M1087.5,222.1v9.45a77.3,77.3,0,0,1-77.29,77.29H989.44a77.14,77.14,0,0,1-13.34-1.16,75.13,75.13,0,0,1-13-3.45q-2.4-.86-4.72-1.89a77.21,77.21,0,0,1-23-15.51c-.94-.92-1.86-1.86-2.74-2.83q-2.43-2.61-4.61-5.46a76.9,76.9,0,0,1-15.93-47V222.1Z" transform="translate(-183.08 -115.51)"/><path class="cls-4" d="M986.24,222.1,958.4,302.34a77.21,77.21,0,0,1-23-15.51l22.45-64.73Z" transform="translate(-183.08 -115.51)"/><path class="cls-4" d="M1005.79,222.1,976.1,307.68a75.13,75.13,0,0,1-13-3.45L991.6,222.1Z" transform="translate(-183.08 -115.51)"/><path class="cls-4" d="M954.16,222.1,932.68,284q-2.43-2.61-4.61-5.46l19.58-56.44Z" transform="translate(-183.08 -115.51)"/><path class="cls-8" d="M1079.84,216.75H920.24c-5.83,0-10.57,3.24-10.91,7.33h181.42C1090.42,220,1085.67,216.75,1079.84,216.75Z" transform="translate(-183.08 -115.51)"/><polygon class="cls-8" points="787.11 191.07 796.14 237.43 835.63 237.43 846.81 191.07 787.11 191.07"/><polygon class="cls-7" points="846.82 191.07 844.29 201.53 789.15 201.53 787.11 191.07 846.82 191.07"/><polygon class="cls-8" points="846.82 294.78 787.11 294.78 791.59 271.77 796.13 248.42 835.63 248.42 841.27 271.77 846.82 294.78"/><polygon class="cls-7" points="846.82 294.78 787.11 294.78 791.59 271.77 841.27 271.77 846.82 294.78"/><rect class="cls-4" x="784.95" y="237.43" width="61.86" height="10.99" rx="4.21"/><path class="cls-8" d="M780,276.5h72a10.9,10.9,0,0,1,10.9,10.9v4.23a0,0,0,0,1,0,0H769.06a0,0,0,0,1,0,0v-4.23A10.91,10.91,0,0,1,780,276.5Z"/><path class="cls-8" d="M1076.92,416.19v4.61H921.15v-4.61a9.62,9.62,0,0,1,9.62-9.61H1067.3A9.62,9.62,0,0,1,1076.92,416.19Z" transform="translate(-183.08 -115.51)"/><polygon class="cls-4" points="774.75 291.07 769.82 305.29 763.32 305.29 768.24 291.07 774.75 291.07"/><polygon class="cls-4" points="765.44 291.07 760.51 305.29 754 305.29 758.94 291.07 765.44 291.07"/><polygon class="cls-4" points="783.02 291.07 778.09 305.29 771.58 305.29 776.52 291.07 783.02 291.07"/><path class="cls-8" d="M1050,297.82v3.47a10.88,10.88,0,0,1-10.88,10.89H960.53a10.88,10.88,0,0,1-10.89-10.89v-3.47Z" transform="translate(-183.08 -115.51)"/><path class="cls-7" d="M1050,301.29a10.81,10.81,0,0,1-2.11,6.64,11,11,0,0,1-5.75,4.06,11.6,11.6,0,0,1-3.55.47l-3.53,0-7,.07-28.21.11-28.21-.11-7-.07-3.53,0a11.6,11.6,0,0,1-3.55-.47,11,11,0,0,1-5.75-4.06,10.81,10.81,0,0,1-2.11-6.64,11,11,0,0,0,2.31,6.49,10.7,10.7,0,0,0,5.68,3.76,11.89,11.89,0,0,0,3.42.37l3.53,0,7-.07,28.21-.11,28.21.11,7,.07,3.53,0a11.51,11.51,0,0,0,3.42-.37,10.7,10.7,0,0,0,5.68-3.76A11,11,0,0,0,1050,301.29Z" transform="translate(-183.08 -115.51)"/><path class="cls-2" d="M1144.18,429.86c-8.2,6.24.62,53.76.62,53.76l10.72-31a6.31,6.31,0,0,1-5.68-3.67C1145.89,441.12,1149.56,425.76,1144.18,429.86Z" transform="translate(-183.08 -115.51)"/><path class="cls-9" d="M183.59,1402.57h0c0,4.5,3.11,8.14,6.94,8.14H1919.78c3.83,0,6.93-3.64,6.93-8.14h0c0-4.49-3.1-8.13-6.93-8.13H190.53C186.7,1394.44,183.59,1398.08,183.59,1402.57Z" transform="translate(-183.08 -115.51)"/><path class="cls-10" d="M1791.35,1004.29s8.14,102.31,8.14,111.19-34.66,11.41-34.66,11.41l-10.6-105Z" transform="translate(-183.08 -115.51)"/><path class="cls-11" d="M1739.64,979.38s22.5-12.26,41-1,23.59,77.27,23.59,77.27l-59.4,7.25Z" transform="translate(-183.08 -115.51)"/><path class="cls-12" d="M1700.54,984.32c-2.25.79-11.47,7.47-16.83,18s-19.54,54.51-19.54,54.51l23.32,8.7Z" transform="translate(-183.08 -115.51)"/><path class="cls-2" d="M1817.93,1347s3.84,13.9,6.89,17,13.15,15.15,10.66,21.12-64,14.52-66.38,12.14,10.64-12.45,18-18.62,12.62-13.76,9.54-23-3.08-8.3-3.08-9.21S1817.93,1347,1817.93,1347Z" transform="translate(-183.08 -115.51)"/><path class="cls-13" d="M1769.1,1397.26c-2.66-2.28,5.87-11.64,18.4-19a78.39,78.39,0,0,0,18.17-1.88c9.28-2.36,16.39-10.54,18.5-13.2.2.27,15.12,14.91,12.21,21.91C1833.89,1391.09,1771.74,1399.52,1769.1,1397.26Z" transform="translate(-183.08 -115.51)"/><path class="cls-2" d="M1715.78,1353.75s-1.13,14.27,1.18,18,10.38,18.39,5.88,23c-4.06,4.14-60.45,1.48-62.22-1.36s7.88-11.32,16.38-15.71,15.26-10.63,14.23-20.3-1.23-8.78-1-9.67S1715.78,1353.75,1715.78,1353.75Z" transform="translate(-183.08 -115.51)"/><path class="cls-13" d="M1653.62,1395.63c-2.94-1.9,10.05-13.88,23.86-18.25a78.54,78.54,0,0,0,18.13,2.21c9.56-.25,18.26-6.65,20.89-8.78.13.31,13,19.26,7.21,24.09C1719.22,1398.68,1658.08,1398.52,1653.62,1395.63Z" transform="translate(-183.08 -115.51)"/><path class="cls-14" d="M1711.67,1151.62l36.41,107.43,41.76,99.46,35-9s-12.63-68.94-24.48-90.6c-9-16.39-15.24-110.43-15.24-110.43Z" transform="translate(-183.08 -115.51)"/><path class="cls-15" d="M1729.15,1169.7l-12.61,188.81h-29.82s-13-197.82-8.25-216.64,54.44-14.57,54.44-14.57Z" transform="translate(-183.08 -115.51)"/><path class="cls-16" d="M1700.54,984.32s38.42-11.73,44.33-11c6.48.83,22.22,9.32,22.22,9.32s-1,67.93,1.81,87.13,22.26,80.74,22.26,80.74-27.42,16.19-73.53,10.93-42.93-16.6-42.93-16.6,4.37-68,8.75-98S1700.54,984.32,1700.54,984.32Z" transform="translate(-183.08 -115.51)"/><path class="cls-7" d="M1827.77,889s2,9.55-7.76,12.91-15.87-31.71-21.44-38.64-22.44-8.82-31.22,5c-4.82,7.61-6.33,10.92-6.71,12.37-.31,1.17.13,1.1.13,1.1l2.65,5s8.49-5.25,11.7,4.34-6.25,25.27,1.85,38.29,23,3.82,23,3.82c12.32,8.43,26.49-4.44,31-16.63S1827.77,889,1827.77,889Z" transform="translate(-183.08 -115.51)"/><path class="cls-2" d="M1731.15,937.57l1.34,14.1,12.38,21.68s-24.41,30.09-31.95,22.91c-1.68-1.61-5.93-33.46-5.93-33.46Z" transform="translate(-183.08 -115.51)"/><path class="cls-17" d="M1732.49,951.67l2.59,4.81a89.91,89.91,0,0,1-26.6,16.82c-.87-5.84-1.49-10.5-1.49-10.5l24.16-25.23Z" transform="translate(-183.08 -115.51)"/><path class="cls-2" d="M1706,891.27s-6.46,6-8.83,9.33c-14.11,20-2.68,59.52,4.69,62.81,11.15,5,25.68-1.72,42-13s21.53-29.6,6.55-45.52S1706,891.27,1706,891.27Z" transform="translate(-183.08 -115.51)"/><path class="cls-7" d="M1760.31,887.75l-4.46-4.35c-17.48,0-31.41-10.73-51,.06-13,7.12-7.63,17.14-7.63,17.14,48,0,30.65,38.49,36.53,53.8S1776.26,936.6,1760.31,887.75Z" transform="translate(-183.08 -115.51)"/><path class="cls-2" d="M1726.77,931.09s.68-12.64,8.28-10.13,1.68,21.53-4.63,20.86S1726.77,931.09,1726.77,931.09Z" transform="translate(-183.08 -115.51)"/><path class="cls-11" d="M1761.57,878.23s-7.22,4.56-10.14,4.18,4.46,9.24,8.37,10.24,2.53-2.84,3.36-4.15,3.86-.29,4.56-1.26C1769.32,885,1765,878.65,1761.57,878.23Z" transform="translate(-183.08 -115.51)"/><path class="cls-10" d="M1760.93,979.53s-8.64-1.33-16.06,27.24c-8.4,32.37.65,65.9,14.55,74.4S1779,1088,1779,1088l1.48,20s-44.73-9.36-50.32-45.11c-9.16-58.59,17.88-88.77,17.88-88.77a32.47,32.47,0,0,1,6.66,1.49C1756.45,976.23,1760.93,979.53,1760.93,979.53Z" transform="translate(-183.08 -115.51)"/><path class="cls-4" d="M1729.29,1066.27a4.32,4.32,0,0,0,3.5,3c7.91,1,19.61,9.62,25.06,14.71l-7.24,39.07c-6.88,2.6-20.79,6-28.5,3.87a4.16,4.16,0,0,0-4.31,1.41l-19.56,23.63a4.68,4.68,0,0,0-.71,4.68c3.07,7.72,1.83,22.65.35,30.16l-35.84,13c-5.56-5-15.29-15.9-17.39-24a4.35,4.35,0,0,0-3.31-3.22l-29.24-5.92a4.21,4.21,0,0,0-4.22,1.69c-4.83,6.67-17.77,13-24.7,15.46l-28.6-26.06c1.31-7.55,5.49-21.89,11.1-27.84a4.65,4.65,0,0,0,1-4.62l-9.69-29.56a4.33,4.33,0,0,0-3.5-3c-7.91-1-19.61-9.62-25.06-14.71l7.24-39.07c6.88-2.59,20.79-6,28.5-3.87a4.15,4.15,0,0,0,4.31-1.4l19.55-23.64a4.66,4.66,0,0,0,.72-4.68c-3.07-7.71-1.83-22.65-.36-30.16l35.85-13c5.56,4.94,15.29,15.9,17.39,24a4.35,4.35,0,0,0,3.31,3.21l29.24,5.92a4.17,4.17,0,0,0,4.22-1.69c4.83-6.67,17.77-13,24.7-15.45l28.6,26.06c-1.31,7.54-5.5,21.88-11.11,27.84a4.66,4.66,0,0,0-1,4.62Z" transform="translate(-183.08 -115.51)"/><ellipse class="cls-5" cx="1460.06" cy="965.51" rx="74.42" ry="75.79"/><path class="cls-18" d="M1643.23,1142a60.36,60.36,0,1,1,42.68-17.68A60,60,0,0,1,1643.23,1142Z" transform="translate(-183.08 -115.51)"/><path class="cls-19" d="M1658.87,1076.67a18.15,18.15,0,0,0,22.43-25.36l-10.74,10.74-7.73,0,0-7.73,10.74-10.74A18.13,18.13,0,0,0,1648.2,1066l-20.59,20.56a18.15,18.15,0,0,0-22.43,25.36l10.74-10.74,7.73,0,0,7.73-10.74,10.74a18.13,18.13,0,0,0,25.35-22.44Z" transform="translate(-183.08 -115.51)"/><path class="cls-2" d="M1763,1047.79l-16.37,38.36c-2.85,6.69-29.68,48.6-45.53,60s-35.73,23.16-38.75,23-10.19,1-11.84-3.28-4.54-3.92-7.5-7.14,3.44-6.71,10.76-9.65,9-3.7,8.46-4.94-6.67,1.76-8.54,0,5-8,11.86-8.15,18.25-1.49,20.32-4,1.75-1.73,2.06-2.48,25.92-42.81,29.67-51.6,18.49-36.25,18.49-36.25Z" transform="translate(-183.08 -115.51)"/><path class="cls-20" d="M1767.13,980.9c3.13,1.89,10.39,11.41,10.39,25,0,12.38-3,42-10.91,56.46,0,0-37.49-11-36.85-12.48s7.2-44.33,18.31-59.57C1757.75,977,1761.68,977.62,1767.13,980.9Z" transform="translate(-183.08 -115.51)"/><path class="cls-13" d="M1057.48,583.59s-15.93-16.8-28.74,3.63c0,0-9.87-5.54-16.8,4.33,0,0-17.83-5.37-22.16,21.3,0,0-9.18-1.73-10.39,9.17a27,27,0,0,0,4.33,18.18s-5.16,3.87-2.82,13.9c2,8.53,9.05,9.82,9.05,9.82s1.91,14.38,8.14,18.7,14.72,2.26,14.72,2.26,2.25,7.79,9.52,7.09,16.27-7.62,24.41-4.5,29.26-.17,29.26-.17,23.72-10.56,16.63-34.8c0,0,12.46-11.26,1.55-24.76,0,0,8-21.13-7.79-33.59S1057.48,583.59,1057.48,583.59Z" transform="translate(-183.08 -115.51)"/><path class="cls-2" d="M880.45,1176.76s-27.47-3.14-32-5.37-27.6,19.78-23,30.82c2.58,6.23,10.72,5.43,10.72,5.43l6.59-6.43,34.85,7.27Z" transform="translate(-183.08 -115.51)"/><path class="cls-2" d="M1037.18,1292.49s-14.46,23.55-18.41,26.73,6.25,33.38,18.19,33.91c6.73.3,9.45-7.42,9.45-7.42l-3-8.68,21.33-28.51Z" transform="translate(-183.08 -115.51)"/><path class="cls-13" d="M1019.64,1318.3s8.31,10.59,12.84,14.8a151.64,151.64,0,0,0,13.35,10.77s8.48,15.4,10.8,20.78c5.17,12,11,25.3,10.13,32-.27,2.15-5.1,4.43-9.12,3.19-16.77-5.16-59.62-44.36-65-54.89C986.36,1332.81,1019.64,1318.3,1019.64,1318.3Z" transform="translate(-183.08 -115.51)"/><path class="cls-15" d="M1142,959.51c-1.56-4.36-3-8.39-4.49-12.18-17.83,3.9-38,8.17-58.68,12.59l-2.53,75.93c0-5.87,15.58,121.1,15.58,121.1s-42.32,84-69.85,136c11.3,14.1,20,20.27,36.34,29.88,42.74-51.23,97.35-141.53,99.67-157.12C1159.36,1156.73,1160.56,1011.79,1142,959.51Z" transform="translate(-183.08 -115.51)"/><path class="cls-14" d="M982.85,981.47c4.85,52.63,12.86,132.31,14.33,159.12-34,4.9-114.43,29.08-129.42,29.06-5.67,12.71-8.81,28.14-4.88,40.81.78,2.5,158.6,7.53,199.34-18.47,10.63-6.78,13.9-79.47,14.06-156.14l2.53-75.93C1044.29,967.28,1012.56,974.49,982.85,981.47Z" transform="translate(-183.08 -115.51)"/><path class="cls-9" d="M1096.19,711.78l-38.72,5.84s-29.2.45-37,.52c-.67,0-31.06,148.21-38.44,204s-1.67,65.65-1.67,65.65,51.51,11.58,89.62,8.2c39.63-3.51,84.22-24.9,84.22-24.9s-38.37-106.45-45.09-139.91S1096.19,711.78,1096.19,711.78Z" transform="translate(-183.08 -115.51)"/><path class="cls-16" d="M1175.82,505s-3.4,137.29-7.57,145.74c-6.06,12.3-49.38,99.95-49.38,99.95s32.59,136.38,46.29,183.47c1.38,4.74,7.48,35.38,7.48,38.37,0,6.62-28.83,15-32.25,14.53-3.06-.45-28.22-130.18-44.27-193.65a181.77,181.77,0,0,0-27.55-60l-11.17-15.86,66.19-80.11s14.33-126.76,14.33-134.68C1137.92,500.67,1171.66,497.18,1175.82,505Z" transform="translate(-183.08 -115.51)"/><path class="cls-16" d="M1020.48,718.15l-66.32-100s-43-105.07-44.1-108.95-34.87.54-45.57-.5c-3.43-.33,38,110.66,43.15,129.1,6.05,21.78,45.44,106.67,45.44,106.67s22.37,51,18.88,90.47c-5.79,65.5-17.29,159.88-14.49,162.71,17.37,10.94,72,10.55,76.24,3.75C1080.31,926.35,1020.48,718.15,1020.48,718.15Z" transform="translate(-183.08 -115.51)"/><path class="cls-2" d="M1054.79,697.61l2.88,21.39s6.46,30.82-1.85,36.76-35.34-37.64-35.34-37.64l2.85-54.2Z" transform="translate(-183.08 -115.51)"/><path class="cls-3" d="M1022.41,681.48c6.87,18.49,23.22,29.86,34.82,34.27l-2.44-18.14-31.46-33.69Z" transform="translate(-183.08 -115.51)"/><path class="cls-13" d="M979.11,627.07c0,8.26,4.69,14.95,10.49,14.95s10.48-6.69,10.48-14.95-4.69-15-10.48-15S979.11,618.82,979.11,627.07Z" transform="translate(-183.08 -115.51)"/><path class="cls-13" d="M1010.57,594.94c0,4.75,5.71,8.59,12.76,8.59s12.75-3.84,12.75-8.59-5.71-8.59-12.75-8.59S1010.57,590.2,1010.57,594.94Z" transform="translate(-183.08 -115.51)"/><path class="cls-2" d="M1042.54,607A28.58,28.58,0,0,1,1080,629.75a216,216,0,0,1,2.32,27.44c.46,25-12.48,49.31-23.82,49.31s-42.71-16.18-43.84-51.65C1013.91,633,1024.84,613.06,1042.54,607Z" transform="translate(-183.08 -115.51)"/><path class="cls-2" d="M1023,657.66c0,5.51-3.66,10-8.16,10s-8.16-4.47-8.16-10,3.65-10,8.16-10S1023,652.14,1023,657.66Z" transform="translate(-183.08 -115.51)"/><path class="cls-13" d="M1091.69,594.53c11.72,9.29,15.83,23.39,9.18,31.51s-21.55,7.17-33.27-2.11-15.83-23.39-9.17-31.51S1080,585.25,1091.69,594.53Z" transform="translate(-183.08 -115.51)"/><path class="cls-13" d="M1061.05,602.15c0,4-4.87,7.3-10.88,7.3s-10.88-3.27-10.88-7.3,4.87-7.31,10.88-7.31S1061.05,598.11,1061.05,602.15Z" transform="translate(-183.08 -115.51)"/><path class="cls-13" d="M1093.43,633.2a9.29,9.29,0,1,1-9.29-9.4A9.34,9.34,0,0,1,1093.43,633.2Z" transform="translate(-183.08 -115.51)"/><path class="cls-13" d="M849.64,1171.78s-6.08,12-8,17.9a154,154,0,0,0-4.1,16.65s-10.37,14.21-14.26,18.58c-8.66,9.75-19.25,21.27-25.68,23.35-2.06.66-7.92-1.09-7.86-5.63.21-17.54,17-74.71,24.3-84.07C822.4,1147.77,849.64,1171.78,849.64,1171.78Z" transform="translate(-183.08 -115.51)"/><path class="cls-4" d="M445.16,650.84c-23.38,0-42.11,19.56-41.85,43.62S422.74,738,446.11,738s42.11-19.56,41.85-43.62S468.53,650.81,445.16,650.84Z" transform="translate(-183.08 -115.51)"/><path class="cls-4" d="M531.6,679.45c-4.81-2.92-14.79-7.45-20.84-7a3.28,3.28,0,0,1-3.05-1.67l-11.56-20.19a3.46,3.46,0,0,1,.07-3.54c3.32-5.2,4.34-16.32,4.21-22l-25.15-14.81c-4.81,2.81-13.53,9.39-16.15,15a3.22,3.22,0,0,1-2.9,1.87l-22.67,0a3.28,3.28,0,0,1-2.94-1.87c-2.75-5.59-11.61-12.16-16.48-15l-24.82,14.88c0,5.71,1.26,16.84,4.69,22a3.46,3.46,0,0,1,.15,3.53L383,670.91a3.19,3.19,0,0,1-3,1.68c-6.06-.4-15.94,4.16-20.68,7.08l.32,29.69c4.81,2.91,14.79,7.44,20.84,7a3.29,3.29,0,0,1,3.05,1.66l11.56,20.2a3.42,3.42,0,0,1-.08,3.53c-3.31,5.2-4.33,16.33-4.2,22L416,778.64c4.81-2.81,13.53-9.4,16.15-15a3.22,3.22,0,0,1,2.9-1.87l22.67,0a3.29,3.29,0,0,1,2.94,1.86c2.75,5.6,11.61,12.16,16.48,15L502,763.68c0-5.72-1.26-16.84-4.69-22a3.47,3.47,0,0,1-.15-3.53l11.12-20.23a3.19,3.19,0,0,1,3-1.67c6.06.4,15.94-4.16,20.68-7.08Zm-85.37,69c-29,0-52.79-24.13-53.11-54S416,640.38,445,640.35s52.79,24.13,53.11,54S475.23,748.42,446.23,748.46Z" transform="translate(-183.08 -115.51)"/><path class="cls-4" d="M1721.42,685.22c-4.66-2.82-14.32-7.21-20.18-6.81a3.17,3.17,0,0,1-3-1.61l-11.19-19.55a3.33,3.33,0,0,1,.07-3.42c3.21-5,4.19-15.81,4.07-21.34l-24.35-14.34c-4.66,2.71-13.1,9.09-15.64,14.52a3.11,3.11,0,0,1-2.8,1.81l-22,0a3.19,3.19,0,0,1-2.85-1.81c-2.66-5.41-11.24-11.77-16-14.48l-24,14.41c0,5.53,1.22,16.3,4.53,21.33a3.33,3.33,0,0,1,.15,3.42L1577.59,677a3.1,3.1,0,0,1-2.92,1.62c-5.86-.39-15.43,4-20,6.86l.31,28.74c4.66,2.82,14.32,7.21,20.18,6.81a3.17,3.17,0,0,1,2.95,1.61l11.19,19.56a3.31,3.31,0,0,1-.07,3.41c-3.21,5-4.19,15.81-4.07,21.34l24.34,14.35c4.66-2.72,13.1-9.1,15.64-14.52a3.11,3.11,0,0,1,2.81-1.81l22,0a3.18,3.18,0,0,1,2.84,1.8c2.67,5.42,11.24,11.78,16,14.48l24-14.4c0-5.54-1.22-16.31-4.53-21.33A3.31,3.31,0,0,1,1688,742l10.76-19.59a3.11,3.11,0,0,1,2.92-1.61c5.86.38,15.43-4,20-6.86ZM1638.76,752c-28.08,0-51.1-23.37-51.42-52.27s22.19-52.37,50.27-52.41,51.11,23.37,51.43,52.28S1666.85,752,1638.76,752Z" transform="translate(-183.08 -115.51)"/><path class="cls-4" d="M1637.73,657.52c-22.64,0-40.78,18.94-40.52,42.23s18.81,42.16,41.44,42.13,40.77-18.94,40.52-42.23S1660.36,657.49,1637.73,657.52Z" transform="translate(-183.08 -115.51)"/><path class="cls-16" d="M1303.35,422c-14.78,0-26.61,12.36-26.45,27.56s12.28,27.51,27,27.49,26.61-12.36,26.44-27.56S1318.12,422,1303.35,422Z" transform="translate(-183.08 -115.51)"/><path class="cls-16" d="M1358,440.09c-3-1.84-9.35-4.7-13.17-4.44a2.07,2.07,0,0,1-1.93-1l-7.3-12.76a2.15,2.15,0,0,1,0-2.23c2.09-3.29,2.73-10.32,2.65-13.93l-15.89-9.36c-3,1.77-8.55,5.94-10.21,9.48a2,2,0,0,1-1.83,1.18L1296,407a2.1,2.1,0,0,1-1.86-1.18c-1.73-3.54-7.33-7.69-10.41-9.45l-15.69,9.4c0,3.61.8,10.64,3,13.92a2.18,2.18,0,0,1,.1,2.23l-7,12.78a2,2,0,0,1-1.91,1.06c-3.82-.25-10.07,2.63-13.06,4.47l.2,18.77c3,1.84,9.35,4.7,13.17,4.44a2.06,2.06,0,0,1,1.92,1.05l7.31,12.76a2.15,2.15,0,0,1,0,2.23c-2.09,3.29-2.74,10.32-2.65,13.93l15.88,9.36c3-1.77,8.55-5.94,10.21-9.48a2,2,0,0,1,1.83-1.18l14.33,0a2.07,2.07,0,0,1,1.85,1.18c1.74,3.54,7.34,7.69,10.42,9.45l15.68-9.4c0-3.61-.8-10.64-3-13.92a2.16,2.16,0,0,1-.09-2.23l7-12.78a2,2,0,0,1,1.9-1.06c3.83.25,10.07-2.63,13.07-4.48Zm-54,43.61c-18.33,0-33.35-15.25-33.56-34.11s14.48-34.18,32.81-34.2,33.36,15.25,33.56,34.11S1322.35,483.68,1304,483.7Z" transform="translate(-183.08 -115.51)"/><path class="cls-4" d="M783.69,543.34a4.54,4.54,0,0,1-3.62-3.17l-9.51-30.87a4.77,4.77,0,0,1,1.17-4.76c6.06-6,10.83-20.79,12.39-28.57l-29.55-27.7c-7.37,2.33-21.18,8.61-26.43,15.4a4.48,4.48,0,0,1-4.49,1.65l-30.72-6.85a4.56,4.56,0,0,1-3.41-3.41c-2-8.42-12-20-17.77-25.27L633.62,442.4c-1.75,7.74-3.42,23.18-.36,31.25a4.75,4.75,0,0,1-.87,4.83l-21.2,24a4.43,4.43,0,0,1-4.58,1.34c-8.08-2.38-22.85.79-30.16,3.31l-8.58,40.31c5.62,5.4,17.76,14.57,26.08,15.85a4.55,4.55,0,0,1,3.62,3.18l9.51,30.86a4.74,4.74,0,0,1-1.17,4.76c-6.06,6-10.82,20.79-12.39,28.57l29.55,27.71c7.37-2.34,21.18-8.62,26.44-15.4a4.45,4.45,0,0,1,4.49-1.66l30.71,6.86a4.53,4.53,0,0,1,3.41,3.41c2,8.41,12,20,17.78,25.26L744,664.26c1.74-7.74,3.41-23.19.35-31.26a4.77,4.77,0,0,1,.87-4.83l21.2-24a4.44,4.44,0,0,1,4.58-1.35c8.09,2.38,22.85-.79,30.16-3.31l8.58-40.3C804.15,553.79,792,544.62,783.69,543.34Z" transform="translate(-183.08 -115.51)"/><path class="cls-5" d="M671.19,631.89A80.51,80.51,0,1,1,767.38,571,80.61,80.61,0,0,1,671.19,631.89Z" transform="translate(-183.08 -115.51)"/><path class="cls-4" d="M726.25,601.21l-5.18-35.67,26.45-24.49a5,5,0,0,0-2.53-8.51l-35.52-6.1-15.12-32.72a5,5,0,0,0-8.88-.23l-16.78,31.9-35.79,4.27a5,5,0,0,0-3,8.37l25.16,25.82-7,35.36a5,5,0,0,0,7,5.4l32.33-16,31.46,17.59A5,5,0,0,0,726.25,601.21Z" transform="translate(-183.08 -115.51)"/><path class="cls-2" d="M1356.56,931.63s-19.65-36.64-22.38-48.44.73-60.67,1.45-64.51,14.92-13.23,13.12-16.47-19.8-7.4-22.92-7.09-11.68-2-11.68,1.45c0,3.66,4.44,15.22,4.11,17.44-2.29,15.12-15.46,62.74-13.84,76.09,1.87,15.35,29.86,66.45,29.86,66.45Z" transform="translate(-183.08 -115.51)"/><path class="cls-13" d="M1433.57,865.29c8.77,15.64,4.94,46.58-2.36,56.54s-24.67,13.08-24.67,13.08l-25.48,7.84s-18.34-25.33-23.41-41.31c-2-6.18-2.29-10.2,0-23.31,3-16.94,7.34-25.71,25.83-27.75C1401.43,848.39,1423,846.36,1433.57,865.29Z" transform="translate(-183.08 -115.51)"/><path class="cls-2" d="M1352.25,907c.88,5.69,4.81,9.83,8.77,9.25s6.45-5.67,5.56-11.36-4.81-9.83-8.77-9.25S1351.36,901.32,1352.25,907Z" transform="translate(-183.08 -115.51)"/><path class="cls-2" d="M1457.46,1295.43c2.54,5,14.64,13.51,14.64,13.51-10.35,12.31-43.52,38.44-43.52,38.44s-4.2-4.34-2.31-8.34,11.08-28.67,6.92-36.79c-1.09-2.11-9.07-17.86-16-26.61,9.31-3.13,18.32-7.63,27-11.67C1449.58,1275.19,1456.62,1293.79,1457.46,1295.43Z" transform="translate(-183.08 -115.51)"/><path class="cls-13" d="M1459.61,1298.36s-24.37,25.94-29.08,28.7c-3.84,2.25-8.88,29.77-3.37,30.59s46.64-41.14,47.84-46.86S1459.61,1298.36,1459.61,1298.36Z" transform="translate(-183.08 -115.51)"/><path class="cls-2" d="M1339.34,1236.6c3,4.78,15.8,12.56,15.8,12.56-9.22,12.92-40,41.06-40,41.06s-4.57-4.07-3-8.17,8.5-29.29,3.62-37.12c-1.27-2-10.63-17.25-18.36-25.53,9-3.71,17.6-8.76,25.88-13.34C1329.69,1216.91,1338.36,1235,1339.34,1236.6Z" transform="translate(-183.08 -115.51)"/><path class="cls-13" d="M1344.14,1241.49s-24.1,25.75-28.8,28.53c-3.82,2.27-8.73,29.8-3.22,30.6s48.51-38.33,49.69-44S1344.14,1241.49,1344.14,1241.49Z" transform="translate(-183.08 -115.51)"/><path class="cls-13" d="M1355.87,1081.25s-85.82,36.88-92.2,64.81c-3.46,15.1,40.19,95,40.19,95l34.06-14.19s-7.11-29.38-16.06-48.74c-4.15-9-6.94-14.24-6.94-14.24,7-5.88,87.69-30.23,87.69-30.23l-14.43-47.76Z" transform="translate(-183.08 -115.51)"/><path class="cls-10" d="M1456.77,1081.25s6.91,10.94-5.75,40.14c-8.3,19.16-34.57,75.15-33.9,76.28,18.58,31.44,43.05,78.18,43.05,78.18l-40.33,19.67c-.59,1-51.23-68.08-53.2-89-1.5-16,12-121.69,12-121.69Z" transform="translate(-183.08 -115.51)"/><path class="cls-2" d="M1496.13,885c7.81-9,23.84-39.57,29.26-50-.16-1-.83-6.83,3.41-15.68,3-6.26,3.37-18.7,6.94-16.22s-1.06,13.6,2.1,12.76,14.37-23.42,17.61-21.17-8.69,22.88-5.86,22.14,11.73-20.74,16.31-17.57-12.55,22.57-10.09,24.27,13-10.8,16.64-8.24-15.11,16.39-13.45,16,13.56-4.17,14.23-1.82c.76,2.66-28.6,15.47-31.18,21.17h0c-4.74,15.29-13,43.12-24.79,57.63-14.37,17.75-46,57.07-46,57.07l-28.82-21.78S1486.87,895.64,1496.13,885Z" transform="translate(-183.08 -115.51)"/><path class="cls-17" d="M1539.26,821.63a13.26,13.26,0,0,1,2.45,4.69,13.49,13.49,0,0,1-1.47,11.26C1541.2,833.6,1542.25,829.19,1539.26,821.63Z" transform="translate(-183.08 -115.51)"/><path class="cls-4" d="M1456.74,922.6s30.8,27,30.58,27.62C1485.68,955,1454,976.1,1454,988.89c0,14.5,10.06,112.92,10.06,112.92s-27.77,9.15-61.72,4S1345,1084.9,1345,1084.9s2.08-26.77,2.08-51.51a296.13,296.13,0,0,0-3.77-46l-25.89-58.1,32.2-17.76s22.31,42.84,28.21,42.84c16.75,0,35.81-2.9,35.81-2.9Z" transform="translate(-183.08 -115.51)"/><path class="cls-2" d="M1380.21,932.75s3.81,27-4.27,34.25c-8.53,7.7,30.88,5.58,33.66-7.14,1.5-6.87-3.88-37.21-3.88-37.21Z" transform="translate(-183.08 -115.51)"/><path class="cls-17" d="M1405.72,922.65l-25.51,10.1a111.1,111.1,0,0,1,.9,14.16c6.24.89,13.32-.41,21-4.77a42.67,42.67,0,0,0,6-4.14C1407,929.84,1405.72,922.65,1405.72,922.65Z" transform="translate(-183.08 -115.51)"/><path class="cls-2" d="M1396,865.66a35,35,0,0,1,19.13,14.48c7.08,11.39,11,44.31-14.3,58.7s-43.68-7.9-43.2-29S1367.79,861.79,1396,865.66Z" transform="translate(-183.08 -115.51)"/><path class="cls-2" d="M1396,865.66a35,35,0,0,1,19.13,14.48c7.08,11.39,11,44.31-14.3,58.7s-43.68-7.9-43.2-29S1367.79,861.79,1396,865.66Z" transform="translate(-183.08 -115.51)"/><path class="cls-2" d="M1414.44,909.46c-2,5.41-.56,10.87,3.21,12.18s8.44-2,10.44-7.43.57-10.87-3.2-12.19S1416.44,904,1414.44,909.46Z" transform="translate(-183.08 -115.51)"/><path class="cls-11" d="M1421.39,691.58a4.42,4.42,0,0,0,3.59,3c8.11,1.06,20.11,9.69,25.7,14.82l-7.43,39.35c-7,2.61-21.32,6-29.22,3.89a4.34,4.34,0,0,0-4.43,1.42l-20,23.8a4.63,4.63,0,0,0-.73,4.71c3.15,7.77,1.88,22.82.36,30.38l-36.76,13.11c-5.7-5-15.68-16-17.84-24.15a4.44,4.44,0,0,0-3.39-3.24l-30-6a4.33,4.33,0,0,0-4.32,1.71c-5,6.71-18.23,13.12-25.34,15.56l-29.33-26.25c1.34-7.59,5.64-22,11.39-28a4.64,4.64,0,0,0,1-4.65l-9.94-29.77a4.41,4.41,0,0,0-3.59-3c-8.11-1-20.11-9.69-25.7-14.81l7.43-39.35c7.05-2.61,21.32-6,29.23-3.9a4.29,4.29,0,0,0,4.42-1.41l20-23.81a4.63,4.63,0,0,0,.74-4.71c-3.16-7.77-1.89-22.81-.37-30.37l36.76-13.11c5.71,5,15.69,16,17.84,24.14a4.41,4.41,0,0,0,3.39,3.24l30,6a4.31,4.31,0,0,0,4.32-1.7c5-6.72,18.22-13.13,25.33-15.56l29.33,26.24c-1.34,7.6-5.63,22-11.38,28a4.62,4.62,0,0,0-1,4.65Z" transform="translate(-183.08 -115.51)"/><path class="cls-5" d="M1315.45,781.27a76.32,76.32,0,1,1,89.81-59.87A76.41,76.41,0,0,1,1315.45,781.27Z" transform="translate(-183.08 -115.51)"/><path class="cls-11" d="M1330.42,773.14a66.65,66.65,0,1,1,47.13-19.52A66.19,66.19,0,0,1,1330.42,773.14Z" transform="translate(-183.08 -115.51)"/><path class="cls-19" d="M1349.87,720.18a26.88,26.88,0,0,0-.8-6.39l7.48-5.75-6.1-10.58-8.72,3.61a26.63,26.63,0,0,0-11.07-6.4l-1.24-9.34h-12.21l-1.23,9.34a26.67,26.67,0,0,0-11.08,6.4l-8.71-3.61L1290.08,708l7.49,5.75a25.61,25.61,0,0,0,0,12.78l-7.49,5.75,6.11,10.57,8.71-3.6a26.54,26.54,0,0,0,11.08,6.39l1.23,9.35h12.21l1.24-9.35a26.5,26.5,0,0,0,11.07-6.39l8.72,3.6,6.1-10.57-7.48-5.75A26.88,26.88,0,0,0,1349.87,720.18Z" transform="translate(-183.08 -115.51)"/><circle class="cls-19" cx="1140.24" cy="604.67" r="14.64"/><path class="cls-19" d="M1362,686.58a13.34,13.34,0,0,0,2.09-2.69l5,.65,1.68-6.25-4.62-1.91a14.1,14.1,0,0,0-1.75-6.55l3-4-4.58-4.58-4,3a14.1,14.1,0,0,0-6.55-1.75l-1.91-4.62-6.25,1.68.65,5a13.34,13.34,0,0,0-2.69,2.09,14.06,14.06,0,0,0-2.1,2.69l-5-.65-1.68,6.25,4.62,1.92a13.94,13.94,0,0,0,1.75,6.54l-3,4,4.58,4.58,4-3a13.94,13.94,0,0,0,6.54,1.75l1.92,4.62,6.25-1.68-.65-5A14.06,14.06,0,0,0,1362,686.58Z" transform="translate(-183.08 -115.51)"/><path class="cls-19" d="M1357.58,682.12a7.76,7.76,0,1,0-11,0A7.76,7.76,0,0,0,1357.58,682.12Z" transform="translate(-183.08 -115.51)"/><path class="cls-21" d="M553.15,943.41c-8.67-9.38-26.91-48.44-33.08-59.54.14-1.11.63-7.57-4.22-17-3.43-6.69-4.3-20.36-8-17.4s1.65,14.91-1.76,14.2-16.2-24.85-19.57-22.16,10.14,24.63,7.09,24-13.29-22.07-18-18.27,14.23,24,11.68,26.06-14.22-11-18.06-8S485.89,882.33,484.1,882s-14.61-3.7-15.23-1.07c-.71,3,31.06,15.15,34,21.26h0c5.64,16.53,15.53,46.63,28.6,61.84,16,18.6,62,70.2,62,70.2l19.12-36.28S563.42,954.54,553.15,943.41Z" transform="translate(-183.08 -115.51)"/><path class="cls-22" d="M504.78,870.06a15.83,15.83,0,0,0-.45,17.62C503.16,883.37,501.88,878.58,504.78,870.06Z" transform="translate(-183.08 -115.51)"/><path class="cls-21" d="M706.22,1328.54s2.92,25.39,7.67,36.47,20.41,18.07,34.18,20.79,9.18,4.88,7.16,6.9-61.7,3.38-72.23,1.48c0,0,4-20.8,4-24s-16.47-54.3-16.47-54.3Z" transform="translate(-183.08 -115.51)"/><path class="cls-14" d="M683,1394.18s.82-4.24,1.73-9.18c11.51,1.55,37.86-1.15,51-2.69,4.05,1.52,9,2,13,2.78,13.77,2.72,12.74,6.33,9.29,8.84C755.75,1395.61,693.53,1396.08,683,1394.18Z" transform="translate(-183.08 -115.51)"/><path class="cls-21" d="M588.79,1322.59s1.61,31.21-1.73,42.42c-3.44,11.55-8.37,13.53-21.89,17.3-13.28,3.69-8.24,9.6-6.22,11.62s48.47,2.15,59,.25c0,0-4.05-20.8-4.05-24s4.92-55.72,4.92-55.72Z" transform="translate(-183.08 -115.51)"/><path class="cls-14" d="M618,1394.18s-.82-4.24-1.73-9.18c-11.51,1.55-37.85-1.15-51.05-2.69a107.34,107.34,0,0,0-12.28,3.49c-13.19,4.81-12,6.11-10,8.13S607.42,1396.08,618,1394.18Z" transform="translate(-183.08 -115.51)"/><path class="cls-21" d="M675.63,988s4.55,2.84,7.79,11.21,20,77.27,22.47,87.27c1.88,7.72,18.92,30.38,27.38,41.3,2.5,3.22,4.42,5.91,5.63,5.91,7.42,0,19.75,4.12,19.75,7.2s-2.91,3.4-7.77,2.32-1.18,4.19.57,6,9.23,11.77,6.58,14.42-9,4.49-12,4.49c-1.61,0-4.89-.18-10.87-5.07-5-4.11-12.43-12.51-17.86-17.36-19.53-17.42-35.59-54-38.56-62.41S675.63,988,675.63,988Z" transform="translate(-183.08 -115.51)"/><path class="cls-13" d="M721.06,1331.06a291.43,291.43,0,0,1-67.43,8.51c-35.84,0-106.3-18.23-106.3-18.23s19.44-47,26.12-83.08S585,1140.2,585,1140.2H691.92l6.68,42.92Z" transform="translate(-183.08 -115.51)"/><path class="cls-4" d="M675.63,988s7,8.11,7,33.23,1.22,62.82,3.25,75.78,8.09,45.19,8.09,45.19-17.81,14.79-64,10.74-48.6-10.27-48.6-10.27,6.48-104.42,6.48-115.36,9.91-42.6,9.91-42.6,26.67-2.75,38.82-1.82S675.63,988,675.63,988Z" transform="translate(-183.08 -115.51)"/><path class="cls-13" d="M696.61,889.37s19.43,5.52,17.82,25.47c-1.49,18.4-10.53,17.47-10.53,17.47s6.61,26.09-13.37,33.65c-18.83,7.13-25.91,0-25.91,0s-8.18,21.66-36.12,13.3-25.44-25.32-25.44-25.32-11.91,4.68-25.67-17.2-5.92-37.64,12.3-47.37c0,0-6.06-27.86,21.8-32.32s34.7,10.84,34.7,10.84,5-17.08,34.62-5.33C700.25,870.26,696.61,889.37,696.61,889.37Z" transform="translate(-183.08 -115.51)"/><path class="cls-21" d="M619.63,931.13c2,5.73.58,11.5-3.29,12.89s-8.67-2.13-10.72-7.86-.58-11.5,3.29-12.88S617.58,925.41,619.63,931.13Z" transform="translate(-183.08 -115.51)"/><path class="cls-21" d="M683,936.82c-.94,6-5,10.37-9.05,9.74s-6.59-6-5.66-12,5-10.37,9.05-9.73S683.92,930.81,683,936.82Z" transform="translate(-183.08 -115.51)"/><path class="cls-21" d="M649.67,963.13l-1.08,23.64s-.54,9.19-10.13,10.41S620.1,991,620.1,983.53c0-.94,4.73-33.36,4.73-33.36Z" transform="translate(-183.08 -115.51)"/><path class="cls-22" d="M624.83,950.17l24.84,13-.39,8.41c-4.49,0-11.15-.32-16.49-3.51-4.48-2.68-7-6.08-9-10.77Z" transform="translate(-183.08 -115.51)"/><path class="cls-21" d="M636.9,886.5a35.39,35.39,0,0,0-18.8,15.24c-7,11.87-11.29,46,13.1,60.54s40.7-8.81,42.41-30.56C675.63,906,664.41,882.13,636.9,886.5Z" transform="translate(-183.08 -115.51)"/><path class="cls-14" d="M785.28,1072.81c-5.83-3.54-17.94-9-25.29-8.54a4,4,0,0,1-3.69-2l-14-24.53a4.18,4.18,0,0,1,.08-4.29c4-6.32,5.26-19.83,5.1-26.77l-30.52-18c-5.84,3.41-16.42,11.41-19.6,18.21a3.9,3.9,0,0,1-3.52,2.27l-27.52,0a4,4,0,0,1-3.56-2.26c-3.34-6.8-14.09-14.77-20-18.17l-30.12,18.07c0,6.95,1.53,20.46,5.69,26.76a4.18,4.18,0,0,1,.18,4.29L605,1062.45a3.9,3.9,0,0,1-3.65,2c-7.36-.48-19.35,5.06-25.11,8.61l.4,36.06c5.84,3.54,18,9,25.29,8.54a4,4,0,0,1,3.7,2l14,24.53a4.18,4.18,0,0,1-.09,4.29c-4,6.31-5.26,19.82-5.1,26.77l30.52,18c5.84-3.41,16.42-11.41,19.6-18.22a3.91,3.91,0,0,1,3.52-2.27l27.52,0a4,4,0,0,1,3.56,2.26c3.34,6.79,14.09,14.77,20,18.16l30.12-18.07c0-6.94-1.53-20.45-5.68-26.75a4.19,4.19,0,0,1-.19-4.29l13.49-24.57a3.89,3.89,0,0,1,3.66-2c7.35.48,19.34-5,25.1-8.6Z" transform="translate(-183.08 -115.51)"/><ellipse class="cls-5" cx="497.87" cy="975.47" rx="68.68" ry="68.73"/><path class="cls-4" d="M713.88,1106.84a37,37,0,1,1-16.23-49.71A36.93,36.93,0,0,1,713.88,1106.84Z" transform="translate(-183.08 -115.51)"/><path class="cls-23" d="M660.67,1086.39a19.76,19.76,0,1,0,35.23,17.89Z" transform="translate(-183.08 -115.51)"/><path class="cls-14" d="M481.42,522.67l-9.61-18.38-20.58-2.5a2.86,2.86,0,0,1-1.7-4.83l14.52-14.81-4-20.36a2.85,2.85,0,0,1,4.06-3.1l18.58,9.23,18.13-10.08a2.85,2.85,0,0,1,4.2,2.91l-3,20.52,15.18,14.13a2.84,2.84,0,0,1-1.46,4.89l-20.45,3.46-8.75,18.81A2.85,2.85,0,0,1,481.42,522.67Z" transform="translate(-183.08 -115.51)"/><path class="cls-14" d="M1585.38,509.42l-56,26.7a13.26,13.26,0,0,1-17.67-6.27l-15-31.55a13.26,13.26,0,0,1,6.26-17.67l56-26.69a13.25,13.25,0,0,1,17.67,6.26l15,31.55A13.25,13.25,0,0,1,1585.38,509.42Z" transform="translate(-183.08 -115.51)"/><polygon class="cls-14" points="1323.4 397.13 1311.4 432.89 1338.06 413.18 1323.4 397.13"/><path class="cls-5" d="M1526.26,498.82l7.09-3.6s5.74-11.11,4.86-13.62-4.8-6.83-3.71-8.14a5.21,5.21,0,0,1,7.21-1c2.47,1.63,5.39,10.52,6.5,10.67.69.1,4.83-1.86,7.82-3.34a5.92,5.92,0,0,1,6.09.53h0a3.14,3.14,0,0,1,1,3.82l-1,2.11,2.07,1.06a3.15,3.15,0,0,1,1.37,4.21l-.79,1.57,1.34.56a3.15,3.15,0,0,1,1.52,4.43l-.74,1.33.32.22a3.14,3.14,0,0,1,.88,4.16l-.76,1.29-18.88,9.58a14.5,14.5,0,0,1-5.69,1.55l-7.19,2.28a1.66,1.66,0,0,1-2-.84L1525.53,501A1.64,1.64,0,0,1,1526.26,498.82Z" transform="translate(-183.08 -115.51)"/><polygon class="cls-14" points="146.48 610.01 132.6 612.78 134.32 625.85 120.78 629.18 120.88 641.88 111.15 646.03 113.25 650.95 126.27 645.4 126.17 633.37 140.26 629.91 138.57 617.05 151.14 614.54 146.48 610.01"/><polygon class="cls-14" points="1115.83 171 1101.95 173.77 1103.67 186.84 1090.13 190.17 1090.23 202.87 1080.5 207.02 1082.6 211.94 1095.62 206.4 1095.52 194.36 1109.61 190.9 1107.92 178.04 1120.49 175.53 1115.83 171"/><polygon class="cls-16" points="527.07 202.71 509.03 207.39 499.36 183.86 476.86 185.91 467.65 168.29 459.38 173.59 473.39 195.46 495.14 191.61 505.7 216.07 528.46 209.08 527.07 202.71"/><polygon class="cls-16" points="1611.54 634.88 1608.97 646.47 1592.82 645.14 1587.46 658.49 1574.81 658.6 1575.41 664.83 1591.87 663.22 1595.99 649.77 1612.92 650.87 1615.56 635.94 1611.54 634.88"/><path class="cls-2" d="M1331.34,790.66c1.51,2.72-9.79,7.91-12.84,12.15l-3.83-7.42C1317.63,793.91,1329.61,787.55,1331.34,790.66Z" transform="translate(-183.08 -115.51)"/><path class="cls-17" d="M326.88,974.25s17.77,4.42,23.55,26.54,8.72,73.91,13.73,79.31,37.76,33.49,43.67,32.52,19.13-17.57,23.24-17.57,3.6,4,1.55,6.22-4.56,4.78-3.34,6.09l1.22,1.32s14-4.18,17.09-2.24-4.25,12.07-4.62,15.73-9.44,11-11,12.71-7.28,3.62-27.06.72a94.08,94.08,0,0,1-61.77-37c-17.85-23.8-25-96.82-24.63-104.28C319.5,975.47,326.88,974.25,326.88,974.25Z" transform="translate(-183.08 -115.51)"/><path class="cls-3" d="M354.12,997.68c-6.23-22.12-26.59-23.43-26.59-23.43s-10.07,1.22-11.18,20.11c-.25,4.34,2.15,33.11,8.09,59.23,9.56-7.15,26.28-13.21,38.17-15.32A346.58,346.58,0,0,0,354.12,997.68Z" transform="translate(-183.08 -115.51)"/><path class="cls-2" d="M396,1311.88s11.87,48.42,20.72,56,37.7,22.15,30.15,23.71-63.43,2.87-61.9-6.46,3.14-15.26,3.14-15.26l-14.78-34.58Z" transform="translate(-183.08 -115.51)"/><path class="cls-13" d="M450.58,1393.6c-13.63,1.35-53.42,2.78-65,1.3,0,0-2.17-.42-.64-9.75.38-2.27.76-4.35,1.11-6.19,10.52,2.76,33.42-3.11,42.49-4.32,9.85,4.72,21,11.76,24.54,12.35C458.25,1387.85,458.25,1392.83,450.58,1393.6Z" transform="translate(-183.08 -115.51)"/><path class="cls-2" d="M267.48,1346s2.2,19.61,2.2,25-5,20.63-2.7,23,68.89,2,68.89-.16-11.76-8.83-27.75-13.4-12-23.73-14.05-34.4Z" transform="translate(-183.08 -115.51)"/><path class="cls-13" d="M336.94,1395.53c0-5.13-10.91-9.94-25.05-14.26-15.06,5.09-36,.89-43.82-.61-2.4,6.28-3.39,14.81-1.7,15.24C268.36,1396.42,336.94,1396.47,336.94,1395.53Z" transform="translate(-183.08 -115.51)"/><polygon class="cls-13" points="174.52 994 231.18 1227.88 195.32 1235.91 109.8 1007.4 174.52 994"/><path class="cls-10" d="M344.38,1120.56,325.9,1174.9l-23.37,179.88-35.65-2.32s-12-179.25-7.89-228.1Z" transform="translate(-183.08 -115.51)"/><path class="cls-14" d="M371.41,1121.43c-7.6-28.72-17.53-67.61-20.25-84.42-4.56-28.23-19.93-62.69-19.93-62.69s-16.9-2.67-29.47-2c-24.29,1.35-59,8.36-59,8.36l11.94,157.66C293,1137.52,335.07,1134.18,371.41,1121.43Z" transform="translate(-183.08 -115.51)"/><path class="cls-4" d="M471,1031.11a4,4,0,0,0,3.73,2c7.4-.5,19.62,5,25.5,8.61l.4,36.34c-5.81,3.58-17.9,9.16-25.31,8.67a3.9,3.9,0,0,0-3.69,2L458,1113.56a4.21,4.21,0,0,0,.18,4.33c4.19,6.35,5.74,20,5.73,27l-30.37,18.21c-6-3.42-16.82-11.46-20.18-18.3a4,4,0,0,0-3.59-2.28l-27.76,0a3.92,3.92,0,0,0-3.54,2.29c-3.21,6.86-13.88,14.92-19.77,18.36L327.92,1145c-.16-7,1.09-20.62,5.14-27a4.19,4.19,0,0,0,.09-4.32L319,1089a4,4,0,0,0-3.73-2c-7.4.5-19.62-5-25.5-8.61l-.4-36.34c5.81-3.58,17.9-9.16,25.31-8.67a3.92,3.92,0,0,0,3.69-2l13.6-24.75a4.21,4.21,0,0,0-.18-4.33c-4.19-6.35-5.74-20-5.73-27l30.37-18.21c6,3.42,16.82,11.45,20.18,18.3a4,4,0,0,0,3.59,2.28l27.76,0a3.92,3.92,0,0,0,3.54-2.29c3.21-6.86,13.88-14.93,19.77-18.36l30.78,18.13c.16,7-1.09,20.62-5.14,27a4.19,4.19,0,0,0-.09,4.32Z" transform="translate(-183.08 -115.51)"/><path class="cls-13" d="M247,896.48c-.26,14.67,4.55,21.06,13.71,32.58S286,954.16,286,954.16l45.4-28.93s-.31-6.22-1.95-24.61C322.75,825.46,247.18,885.11,247,896.48Z" transform="translate(-183.08 -115.51)"/><path class="cls-2" d="M258.45,927.31c1.84,5.74,6.47,9.4,10.36,8.16s5.54-6.91,3.7-12.65-6.47-9.39-10.35-8.15S256.62,921.57,258.45,927.31Z" transform="translate(-183.08 -115.51)"/><path class="cls-2" d="M320.8,916.8c-1.71,5.78.07,11.4,4,12.56s8.46-2.59,10.17-8.37-.06-11.4-4-12.56S322.52,911,320.8,916.8Z" transform="translate(-183.08 -115.51)"/><path class="cls-2" d="M279.52,945.11l-1.69,30.7s3.72,10.39,20.55,10.42c12.43,0,11-27.68,11-27.68l-1-13.44Z" transform="translate(-183.08 -115.51)"/><path class="cls-24" d="M308.83,968.24h.26a73.07,73.07,0,0,0,.28-9.69l-1-13.44H279.52l-.22,4.11C282.92,955.38,293.55,968.24,308.83,968.24Z" transform="translate(-183.08 -115.51)"/><path class="cls-2" d="M291.83,874.9c-9.72,1.44-16.83,8.32-22,16.73-10.24,16.67-1.91,41.2.9,46.82s14,20.08,30.71,20.08,26.59-19.41,28-34.27c1.89-19.89-1.71-40.53-20.65-47.45A35.64,35.64,0,0,0,291.83,874.9Z" transform="translate(-183.08 -115.51)"/><path class="cls-13" d="M265,914.57s4.73-26.55,19.79-32.51,37.35-4.4,44.19,21.49c0,0-4.23-31.16-12.42-39.36s-24.8-9.1-24.8-9.1l5.48,5.46a52.21,52.21,0,0,0-14.93-2c-8.94,0-10.59,2.15-10.59,2.15s6.12,1,6.12,3-16.22,2.65-16.22,2.65-1.3,13.22-6.56,18.48S265,914.57,265,914.57Z" transform="translate(-183.08 -115.51)"/><circle class="cls-5" cx="394.98" cy="1060.05" r="69.27" transform="translate(-881.91 1233.16) rotate(-84.35)"/><path class="cls-7" d="M395,1117.52a57.47,57.47,0,1,1,40.63-16.83A57.11,57.11,0,0,1,395,1117.52Z" transform="translate(-183.08 -115.51)"/><path class="cls-4" d="M389.48,1024.66c25.1-2.25,42.09,28.08,26.69,47.71a18.6,18.6,0,0,0-3.75,12.69l1,15.93a7.85,7.85,0,0,1-7.12,8.46l-9.5.85a8.87,8.87,0,0,1-9.3-7c-3.51-15.79-3.68-21.81-10.69-27.42C356.3,1059.5,364.37,1026.92,389.48,1024.66Z" transform="translate(-183.08 -115.51)"/><path class="cls-9" d="M384.47,1058.71a25,25,0,0,1-3.58-1.18c-6.8-2.91-6.37-9.14-3.28-10.89,2-1.13,4.83-.49,6.67,1.75,1.66,2,2.18,4.72,2.83,7.54a35.47,35.47,0,0,0,12.48.46c-.41-7.83,3.8-11,7.18-9.58a6,6,0,0,1,3.4,5.88c-.12,1.48-1.05,5-7.08,6.47,1.72,13.77,5.19,32.39,5.2,32.45l-3.19.43c0-.06-3.45-18.57-5.18-32.3a38.87,38.87,0,0,1-12-.25c3.88,16.71,6.39,31,6.49,31.46l-3.19.42C391,1090.33,388.64,1076.55,384.47,1058.71Zm-5.36-9c-.81.7-1.09,3.57,4.49,5.33C382.69,1051.13,382.1,1049.79,379.11,1049.68Zm23.69,6.08c2.29-.65,4.83-2.13,4-4.48C405.7,1048.26,402.67,1050.13,402.8,1055.76Z" transform="translate(-183.08 -115.51)"/><path class="cls-25" d="M412.41,1084.67c0,.13,0,.26,0,.39l1,15.93a7.85,7.85,0,0,1-7.12,8.46l-9.5.85a8.87,8.87,0,0,1-9.3-7c-1.56-7-2.46-12.11-3.6-16.09Z" transform="translate(-183.08 -115.51)"/><path class="cls-4" d="M340,1045.35l9.29,1.75c2.42.46,6,1.77,8.3.37a1.32,1.32,0,0,0,.43-1.81c-1.67-2.18-5.27-2.25-7.8-2.71l-9.3-1.7c-2.65-.48-3.59,3.6-.92,4.1Z" transform="translate(-183.08 -115.51)"/><path class="cls-4" d="M352.79,1015.94c12.37,12.11,11.9,11.92,13.57,12.4a1.8,1.8,0,0,0,2.1-2.26c-.5-1.56-.33-1.14-12.83-13.14-1.92-1.84-4.74,1.14-2.84,3Z" transform="translate(-183.08 -115.51)"/><path class="cls-4" d="M392.89,1013.81c.14-3.18.27-6.36.41-9.54.12-2.82.81-6.18-.41-8.82-.54-1.15-2.22-.85-2.76.09-1.41,2.46-.91,6.15-1,8.9l-.36,9.53c-.11,2.67,4,2.49,4.14-.16Z" transform="translate(-183.08 -115.51)"/><path class="cls-4" d="M430.08,1041.66a139.13,139.13,0,0,0,14.18-2.89c2.49-.71,1.3-4.3-1.16-3.79-4.72,1-9.4,2.09-14.16,2.93-2.49.44-1.31,4.17,1.14,3.75Z" transform="translate(-183.08 -115.51)"/><path class="cls-4" d="M418.07,1023c2.28-1.79,4.5-3.66,6.7-5.54,2-1.72,4.91-3.49,5.83-6,.49-1.34-1.1-2.38-2.25-2.08-1.43.36-1.61.87-6.36,5-2.15,1.86-4.33,3.67-6.45,5.55-1.71,1.5.73,4.55,2.53,3.12Z" transform="translate(-183.08 -115.51)"/><path class="cls-2" d="M242.75,980.71s19.16,4.42,25.38,26.54,9.41,73.91,14.8,79.31,40.69,33.49,47.06,32.52,20.62-17.57,25.05-17.57,3.87,4,1.66,6.22-4.91,4.78-3.6,6.09.87,1.2,1.31,1.32c6.49,1.68,19.73-5.19,23-3.25s-3.19,6.5-3.19,9.82.82,3.26.42,6.92-1.31,6.57-3.05,8.31-23.52,8-44.84,5.12-47.33-13.15-66.56-37-27-96.82-26.55-104.28C234.8,981.93,242.75,980.71,242.75,980.71Z" transform="translate(-183.08 -115.51)"/><path class="cls-15" d="M269.34,1004.14c-6.22-22.12-26.59-23.43-26.59-23.43s-10.07,1.22-11.18,20.11c-.25,4.34,2.16,33.11,8.1,59.23,9.55-7.15,26.27-13.21,38.16-15.31A346.35,346.35,0,0,0,269.34,1004.14Z" transform="translate(-183.08 -115.51)"/><path class="cls-2" d="M1181.57,433.72s-4.58-33.13-8.34-34.15-5,5.06-3.46,10.25,2.89,24.84,1.73,32.35S1181.57,433.72,1181.57,433.72Z" transform="translate(-183.08 -115.51)"/><path class="cls-2" d="M859.6,466s-.78-26.17,3.11-34.34c.54-1.13,1.66-2.39,2.82.43,1.63,4,.43,25,.43,25s.17-33.84,4.71-33.84S873,434.84,873,439.5s-.34,20.57-.34,20.57,1.85-35.85,2.33-38,4.07-2.71,5.15.72,1.53,38,1.53,38-2.13-35.63,2.92-35.63,2.17,44.29,6.86,49L902,484.72Z" transform="translate(-183.08 -115.51)"/><path class="cls-18" d="M681,1147.54a57.43,57.43,0,1,1,40.61-16.82A57.09,57.09,0,0,1,681,1147.54Z" transform="translate(-183.08 -115.51)"/><path class="cls-26" d="M690.2,1090.11a9.25,9.25,0,1,0-9.25,9.25A9.25,9.25,0,0,0,690.2,1090.11Z" transform="translate(-183.08 -115.51)"/><ellipse class="cls-26" cx="497.87" cy="974.6" rx="18.99" ry="34.99"/><path class="cls-26" d="M690.44,1073.66c-16.73-9.66-34.55-10.13-39.79-1.05s4.07,24.28,20.81,33.94,34.55,10.13,39.8,1S707.18,1083.33,690.44,1073.66Z" transform="translate(-183.08 -115.51)"/><ellipse class="cls-26" cx="680.95" cy="1090.11" rx="34.99" ry="18.99" transform="translate(-636.91 371.02) rotate(-30)"/></svg>