<svg xmlns="http://www.w3.org/2000/svg" xmlns:xlink="http://www.w3.org/1999/xlink" viewBox="0 0 791.23404 499.99999"><defs><style>.cls-1{isolation:isolate;}.cls-2{fill:#ffecbb;}.cls-3{fill:#3758a3;}.cls-4{fill:#fff;}.cls-5{fill:#d1d9e0;}.cls-6{fill:#ffcd69;}.cls-7{fill:#edb145;}.cls-10,.cls-13,.cls-8{fill:none;}.cls-8{stroke:#434360;}.cls-10,.cls-8{stroke-miterlimit:10;}.cls-9{fill:#ffe2b0;}.cls-10{stroke:#ffb692;stroke-width:22px;}.cls-11{fill:#d88d87;}.cls-12{fill:#434360;}.cls-13{stroke:#ffcd69;stroke-linecap:round;stroke-linejoin:round;stroke-width:3px;}.cls-14{fill:#ea6a60;}.cls-15{fill:#5295fe;}.cls-16{fill:#ffb692;}.cls-17{fill:#323244;}.cls-18{fill:#563b29;}.cls-19{fill:#6b4931;}.cls-20{fill:#7c5032;}.cls-21{fill:#92a6cc;}.cls-22{fill:#c2d5f2;}.cls-23{fill:#f29d7e;}.cls-24{fill:#ff9843;}.cls-25,.cls-29{fill:#fffeff;}.cls-26{fill:#c5f4fc;}.cls-27{fill:#a0d33c;}.cls-28{fill:#83a52f;}.cls-29{mix-blend-mode:soft-light;opacity:0.46;}.cls-30{fill:#d8b071;}.cls-31{fill:#eabe83;}.cls-32{fill:#b78a4f;}.cls-33{fill:#af5954;}.cls-34{fill:#21273b;}.cls-35{fill:url(#Nueva_muestra_de_degradado);}</style><linearGradient id="Nueva_muestra_de_degradado" x1="251.30455" y1="413.9711" x2="526.98215" y2="413.9711" gradientUnits="userSpaceOnUse"><stop offset="0" stop-color="#ad286b"/><stop offset="1" stop-color="#45296b"/></linearGradient></defs><g class="cls-1"><g id="BACKGROUND"><path class="cls-2" d="M152.98219,211.67879,357.27454,122.7417c20.69114-9.0077,46.14188-7.6557,65.116,3.459L638.39284,252.731c42.16956,24.7022,26.98422,77.1761-24.59453,84.9869l-294.58653,44.6107c-17.70238,2.6809-35.99674-1.0237-49.87558-10.0994l-125.70783-82.2039C110.87727,268.60839,115.73839,227.89249,152.98219,211.67879Z"/></g><g id="OBJECTS"><path class="cls-3" d="M485.7693,65.3399h47.5225a15.73145,15.73145,0,0,1,15.7315,15.7315v27.7764a15.73148,15.73148,0,0,1-15.7315,15.7316H502.25l-17.6045,17.6043-5.7452-8.4582,5.6814-9.2105a15.71884,15.71884,0,0,1-14.544-15.6672V81.0714A15.73154,15.73154,0,0,1,485.7693,65.3399Z"/><path class="cls-4" d="M527.5465,56.8818H480.0239a15.73161,15.73161,0,0,0-15.7315,15.7316v27.7763a15.72083,15.72083,0,0,0,14.6079,15.6748v17.6611l17.6044-17.6044h31.0418a15.73142,15.73142,0,0,0,15.7316-15.7315V72.6134A15.73157,15.73157,0,0,0,527.5465,56.8818Z"/><path class="cls-4" d="M498.2952,104.0236h10.712a0,0,0,0,1,0,0v.9679a4.4628,4.4628,0,0,1-4.4628,4.4628h-1.7863a4.4629,4.4629,0,0,1-4.4629-4.4629v-.9678A0,0,0,0,1,498.2952,104.0236Z"/><path class="cls-5" d="M498.2952,106.306a3.12417,3.12417,0,0,0,.4943,1.68009l10.1959-1.46349c.005-.0728.0218-.1424.0218-.2166v-2.2824h-10.712Z"/><path class="cls-6" d="M520.9248,79.7865a17.1396,17.1396,0,1,0-23.352,15.9738v7.8545h12.4248V95.7603A17.14172,17.14172,0,0,0,520.9248,79.7865Z"/><path class="cls-7" d="M517.4753,87.2238c-7.6824,3.7682-20.4444-4.68-29.1636-6.336a15.50371,15.50371,0,0,0,29.1636,6.336Z"/><path class="cls-8" d="M501.8537,103.6148V80.9362a2.76942,2.76942,0,0,0-2.7694-2.7695h0a2.76944,2.76944,0,0,0-2.7695,2.7695v.1045a2.7695,2.7695,0,0,0,2.7695,2.7695h6.172"/><path class="cls-8" d="M505.7167,103.6148V80.9362a2.7695,2.7695,0,0,1,2.7695-2.7695h0a2.76952,2.76952,0,0,1,2.7696,2.7695v.1045a2.76959,2.76959,0,0,1-2.7696,2.7695h-6.172"/><path class="cls-9" d="M516.1934,74.5277c-1.2699,2.19939-4.962,2.445-8.2466.5486-3.2846-1.8963-4.9179-5.2166-3.6481-7.416,1.2699-2.1994,4.962-2.4451,8.2465-.5486C515.8299,69.008,517.4631,72.3283,516.1934,74.5277Z"/><rect class="cls-4" x="496.6752" y="101.24109" width="13.9521" height="4.72521"/><path class="cls-10" d="M447.125,317.89329c86.9943,47.91593,106.934-50.3063,106.934-50.3063"/><path class="cls-11" d="M475.2471,317.79829a104.02606,104.02606,0,0,1-22.815-9.5399L441.8188,327.528a124.69014,124.69014,0,0,0,29.2655,11.9464Z"/><path class="cls-12" d="M475.9953,306.95419l-17.1125,38.2423-22.9583-10.2732a20.94828,20.94828,0,0,1-10.565-27.6774h0a20.94823,20.94823,0,0,1,27.6774-10.5649Z"/><line class="cls-13" x1="475.9953" y1="306.95419" x2="458.8828" y2="345.19649"/><path class="cls-10" d="M335.2822,317.89329c-86.9943,47.91593-106.934-50.3063-106.934-50.3063"/><path class="cls-11" d="M307.1601,317.79829a104.02606,104.02606,0,0,0,22.815-9.5399l10.6133,19.2696a124.69014,124.69014,0,0,1-29.2655,11.9464Z"/><path class="cls-12" d="M306.4119,306.95419l17.1125,38.2423,22.9583-10.2732a20.94828,20.94828,0,0,0,10.565-27.6774h0a20.94823,20.94823,0,0,0-27.6774-10.5649Z"/><line class="cls-13" x1="306.4119" y1="306.95419" x2="323.5244" y2="345.19649"/><path class="cls-12" d="M405.0219,257.71429H374.6571a44.55188,44.55188,0,0,0-44.5519,44.5519v121.0517H449.5738V302.26609A44.5518,44.5518,0,0,0,405.0219,257.71429Z"/><path class="cls-14" d="M394.3147,325.10049a4.06449,4.06449,0,0,0,1.1407,5.6343l3.6294,2.4076-4.2691.8646a4.06467,4.06467,0,0,0-3.1775,4.7902l.3952,1.9511a4.065,4.065,0,0,0,4.7904,3.1774l4.2698-.8644-2.4077,3.6299a4.06447,4.06447,0,0,0,1.1401,5.6342l1.6591,1.10057a4.06475,4.06475,0,0,0,5.6343-1.14118l2.4073-3.62959.8648,4.26936a4.06479,4.06479,0,0,0,4.7902,3.17735l1.951-.3951a4.06468,4.06468,0,0,0,3.1773-4.79021l-.8639-4.2694,3.63,2.4074a4.0646,4.0646,0,0,0,5.634-1.1408l1.1001-1.6582a4.06548,4.06548,0,0,0-1.1402-5.6347l-3.6298-2.4076,4.269-.8646a4.06528,4.06528,0,0,0,3.1774-4.7906l-.3953-1.9507a4.06425,4.06425,0,0,0-4.7902-3.1774l-4.2696.8642,2.4078-3.6301a4.06487,4.06487,0,0,0-1.1405-5.6342l-1.659-1.1004a4.06475,4.06475,0,0,0-5.6338,1.141l-2.408,3.6305-.8644-4.2698a4.06424,4.06424,0,0,0-4.7906-3.1773l-1.9509.3947a4.06493,4.06493,0,0,0-3.1774,4.7905l.8646,4.2695-3.63-2.4079a4.0651,4.0651,0,0,0-5.6346,1.1414Zm12.2501,6.9304a6.59737,6.59737,0,1,1,1.8508,9.145A6.59667,6.59667,0,0,1,406.5648,332.03089Z"/><path class="cls-6" d="M373.7901,320.52039l3.049-.9689a7.72969,7.72969,0,0,0,1.8616,2.2203l-1.4664,2.8338a1.58356,1.58356,0,1,0,2.8125,1.4562l1.467-2.8339a7.7317,7.7317,0,0,0,2.8877.2381l.9694,3.0489a1.58359,1.58359,0,1,0,3.0185-.959l-.9688-3.0491a7.739,7.739,0,0,0,2.2202-1.8617l2.8337,1.4664a1.58372,1.58372,0,1,0,1.4561-2.8129l-2.8336-1.4669a7.71792,7.71792,0,0,0,.2381-2.8876l3.0493-.9691a1.58392,1.58392,0,1,0-.9596-3.019l-3.0494.9695a7.72165,7.72165,0,0,0-1.8615-2.2203l1.4671-2.834a1.58387,1.58387,0,0,0-2.8133-1.456l-1.467,2.834a7.72332,7.72332,0,0,0-2.8879-.2384l-.969-3.0493a1.58335,1.58335,0,1,0-3.0179.9593l.9687,3.0494a7.7236,7.7236,0,0,0-2.2208,1.8618l-2.8335-1.4672a1.58369,1.58369,0,0,0-1.456,2.8129l2.8336,1.467a7.73168,7.73168,0,0,0-.2381,2.8876l-3.0489.9696a1.58362,1.58362,0,1,0,.9592,3.0185Zm5.9914-6.7625a4.3083,4.3083,0,1,1,1.8453,5.8067A4.3083,4.3083,0,0,1,379.7815,313.75789Z"/><path class="cls-15" d="M388.4955,343.60129l-5.2978.4392a12.82667,12.82667,0,0,0-2.1911-4.2868l3.4262-4.0453a2.63107,2.63107,0,1,0-4.0153-3.4011l-3.4264,4.0453a12.82353,12.82353,0,0,0-4.5885-1.4563l-.4385-5.2977a2.63143,2.63143,0,0,0-5.2449.4345l.4388,5.297a12.8411,12.8411,0,0,0-4.2864,2.192l-4.0453-3.4263a2.63113,2.63113,0,1,0-3.4014,4.0152l4.0455,3.4259a12.829,12.829,0,0,0-1.4566,4.5886l-5.297.4386a2.6309,2.6309,0,1,0,.4344,5.24383l5.297-.43783a12.81593,12.81593,0,0,0,2.1919,4.28657l-3.4266,4.0454a2.63081,2.63081,0,1,0,4.015,3.40065l3.4263-4.04521a12.832,12.832,0,0,0,4.5887,1.45731l.4385,5.29687a2.63128,2.63128,0,0,0,5.2446-.43447l-.4387-5.29717a12.82978,12.82978,0,0,0,4.2865-2.192l4.0456,3.42664a2.63077,2.63077,0,1,0,3.4005-4.015l-4.0449-3.42676a12.83084,12.83084,0,0,0,1.4566-4.58887l5.297-.4381a2.63125,2.63125,0,0,0-.4337-5.2446Zm-9.9956,10.60646a10.0608,10.0608,0,1,1-1.1743-14.17976A10.06118,10.06118,0,0,1,378.4999,354.20775Z"/><path class="cls-16" d="M413.273,269.83849c4.9718-3.3779,2.942-11.1189-3.0278-11.8196a44.80873,44.80873,0,0,0-5.2233-.3046H374.6571q-1.21905,0-2.4218.0659a6.50883,6.50883,0,0,0-3.4777,11.743c5.2972,3.7738,13.4084,6.1878,22.5034,6.1878C400.0962,275.711,407.9862,273.43029,413.273,269.83849Z"/><path class="cls-13" d="M417.4692,266.05059a4.525,4.525,0,0,0-2.4992-7.2166,44.56354,44.56354,0,0,0-9.9481-1.1197H374.6571a44.41749,44.41749,0,0,0-7.2602.5968,4.52444,4.52444,0,0,0-2.887,7.086c4.3173,6.0515,14.6655,10.3139,26.7511,10.3139C402.9021,275.711,412.9026,271.75159,417.4692,266.05059Z"/><path class="cls-16" d="M411.0258,255.30629c0-48.5784-9.4854-23.3321-21.1863-23.3321s-21.1863-22.1138-21.1863,23.3321c0,17.0247,9.4854,15.5546,21.1863,15.5546S411.0258,272.331,411.0258,255.30629Z"/><path class="cls-11" d="M369.0953,242.79479c1.9959-26.0059,10.5248-9.1413,20.7442-9.1413,11.3297,0,20.5819-23.668,21.1578,18.9292C392.8947,258.50049,378.8496,251.63159,369.0953,242.79479Z"/><path class="cls-16" d="M429.0615,183.3334c-2.1456,8.7819.8609,17.196,6.7158,18.79379,5.8553,1.5985,12.3414-4.22539,14.4875-13.00629,2.1464-8.78181-.8603-17.1962-6.7159-18.794C437.6941,168.72909,431.208,174.5523,429.0615,183.3334Z"/><path class="cls-11" d="M435.2764,184.7256a5.09983,5.09983,0,0,0-2.7083.0279c.0315-.14641.0558-.29141.0917-.4381,1.4175-5.801,5.7026-9.6482,9.5707-8.5927,3.8679,1.0561,5.8549,6.6148,4.4366,12.4156-1.0897,4.4604-3.8755,7.7549-6.8624,8.5652C441.02,191.06309,439.0468,185.7544,435.2764,184.7256Z"/><path class="cls-16" d="M348.57,182.23509c3.8776,8.166,2.6357,17.0143-2.7752,19.7638-5.4107,2.7498-12.9408-1.6414-16.8189-9.80639-3.8789-8.166-2.6364-17.0146,2.7744-19.7641C337.1612,169.67909,344.6913,174.0698,348.57,182.23509Z"/><path class="cls-11" d="M342.7652,184.8557a5.10233,5.10233,0,0,1,2.6579-.5205c-.0606-.1369-.1133-.274-.1782-.4106-2.5622-5.3944-7.5368-8.2952-11.1114-6.4787-3.5743,1.8165-4.3953,7.6623-1.8333,13.0567,1.9698,4.1474,5.3645,6.8104,8.4533,6.9998C338.4226,192.2244,339.2809,186.6258,342.7652,184.8557Z"/><path class="cls-16" d="M379.3344,118.6315h24.0065a34.15975,34.15975,0,0,1,34.0596,34.0592v49.58249a47.70076,47.70076,0,0,1-47.561,47.5607h-.0002a47.70066,47.70066,0,0,1-47.5605-47.5607v-46.586A37.16486,37.16486,0,0,1,379.3344,118.6315Z"/><path class="cls-11" d="M437.4005,154.61709V152.6907a34.15975,34.15975,0,0,0-34.0596-34.0592H379.3344a37.20135,37.20135,0,0,0-35.4167,26.188C372.117,162.1036,406.7759,161.30509,437.4005,154.61709Z"/><path class="cls-11" d="M401.4495,200.67649s-12.411,2.2718-12.4665,4.599,5.9839,3.4348,7.646,2.4377C398.2914,206.71629,401.4495,200.67649,401.4495,200.67649Z"/><path class="cls-11" d="M391.4355,173.7266c1.3981,6.00249,3.1921,11.8154,5.1163,17.5891.9759,2.88239,1.953,5.7597,3.0501,8.60809l.2066.5335c.0856.2339-.0856-.1606.0285-.3633.0704-.1511.0053-.03.0261-.0506a3.60077,3.60077,0,0,1-.528.6674l-1.5639,1.5547c-1.0783,1.0638-2.1929,2.1274-3.2227,3.3425a21.35377,21.35377,0,0,0,4.3023-1.9103,16.23708,16.23708,0,0,0,1.9942-1.3406,5.7751,5.7751,0,0,0,1.0205-1.0178,2.0399,2.0399,0,0,0,.2933-.5525,1.73793,1.73793,0,0,0,.0157-.9215l-.1836-.5452c-.9833-2.90649-2.0863-5.78329-3.1907-8.65569C396.5637,184.92909,394.1973,179.23309,391.4355,173.7266Z"/><path class="cls-11" d="M410.3393,213.55619a1.63465,1.63465,0,0,0-2.1565-.8164c-23.6273,10.6588-33.7567-4.3055-35.3902-7.0897l1.5104-.7257a6.3882,6.3882,0,0,0-2.9839-.5251,1.59044,1.59044,0,0,0-.9573.1418,1.50923,1.50923,0,0,0-.1277.1027,5.114,5.114,0,0,0-2.7526,3.5585l2.372-1.1399a26.7343,26.7343,0,0,0,22.9098,12.6723,40.78293,40.78293,0,0,0,16.7599-4.0218A1.63062,1.63062,0,0,0,410.3393,213.55619Z"/><path class="cls-17" d="M412.8093,184.2327a4.97735,4.97735,0,1,1-4.9774-4.9773A4.97745,4.97745,0,0,1,412.8093,184.2327Z"/><path class="cls-17" d="M378.8828,184.2327a4.9773,4.9773,0,1,1-4.9773-4.9773A4.97736,4.97736,0,0,1,378.8828,184.2327Z"/><path class="cls-18" d="M405.4187,168.0574l17.5966,6.8375S419.9988,158.4043,405.4187,168.0574Z"/><path class="cls-18" d="M378.9331,168.0574l-17.5967,6.8375S364.353,158.4043,378.9331,168.0574Z"/><path class="cls-19" d="M342.2788,187.2138l-6.6786-51.7105a25.28122,25.28122,0,0,1,16.5444-27.10821,96.79576,96.79576,0,0,1,65.8012.11251V89.3104s18.8889,7.3045,13.1112,33.43l12.8888-26.0967s15.2996,28.2223-4.2825,52.6667l-2.4721,36.6053s-12.5787-3.5949-10.5787-39.4942H352.1681S357.945,182.2283,342.2788,187.2138Z"/><path class="cls-20" d="M448.4271,109.7055a146.04409,146.04409,0,0,1-16.4257,11.12259l-.9445,1.91231c.1165-.5264.2068-1.0328.3036-1.544-23.8891,13.6722-58.1847,23.4613-93.7511.6951a25.40071,25.40071,0,0,0-2.0092,13.6118l.8172,6.3279c40.3205,2.9986,86.5574-10.99111,113.206-20.794A53.877,53.877,0,0,0,448.4271,109.7055Z"/><rect class="cls-16" x="535.6808" y="242.38269" width="37.6111" height="37.7706" rx="12"/><path class="cls-21" d="M558.3624,307.75729a6.59837,6.59837,0,0,0,.9157-.0426l.0056.005.0051-.0064a6.92465,6.92465,0,0,0,6.1002-6.7311c.0048-.1712-.0033-.3401-.0103-.5076l.0461-.0547,1.4321-66.5993,11.6498-6.3952.4342-20.1934-7.9337-4.8114-.3686,17.1241-9.5712,5.2556-9.3366-5.6619.3679-17.125-8.1333,4.4653-.4345,20.1936,9.6895,5.8757-1.4576,67.7708c-.0063.0888-.018.1759-.0207.2649-.0034.1225.0051.2414.0076.3625l-.0041.1597.0067.0054A6.88474,6.88474,0,0,0,558.3624,307.75729Z"/><path class="cls-22" d="M551.7421,300.58369c-.0034.1225.0051.2414.0076.3625l-.0041.1597.0067.0054a6.88474,6.88474,0,0,0,6.6101,6.646,6.59837,6.59837,0,0,0,.9157-.0426l.0056.005,1.7837-82.9194-9.3366-5.6619.3679-17.125-8.1333,4.4653-.4345,20.1936,9.6895,5.8757-1.4576,67.7708C551.7565,300.40759,551.7448,300.49469,551.7421,300.58369Z"/><path class="cls-16" d="M569.7392,245.88169s-9.5988,6.0714-9.8674,8.2018c-.2685,2.1303.4364,22.5952,1.3658,23.3883.9293.7931,6.5794-1.0804,9.494-4.1795S569.7392,245.88169,569.7392,245.88169Z"/><path class="cls-23" d="M542.2856,244.54469l23.1354,10.461s-2.4382,10.1608-14.3732,4.3267c0,0-1.1045,9.6026-10.3303,8.0938C531.4916,265.91729,534.3145,249.60779,542.2856,244.54469Z"/><polygon class="cls-24" points="224.731 213.236 223.576 217.903 223.576 213.236 212.199 213.236 214.199 231.459 229.199 231.459 231.199 213.236 224.731 213.236"/><path class="cls-16" d="M219.1782,242.38269h13.61107a12,12,0,0,1,12,12v13.77057a12,12,0,0,1-12,12H219.1782a12,12,0,0,1-12-12v-13.7706A12,12,0,0,1,219.1782,242.38269Z" transform="translate(451.96751 522.53598) rotate(180)"/><path class="cls-14" d="M221.69864,315.73829h0a3.423,3.423,0,0,1-3.41993-3.2784l-3.2296-76.4288h13.29907l-3.22966,76.4288A3.4229,3.4229,0,0,1,221.69864,315.73829Z"/><path class="cls-16" d="M210.7309,245.88169s9.59884,6.0714,9.86744,8.2018c.26851,2.1303-.43639,22.5952-1.36584,23.3883-.9293.7931-6.5794-1.0804-9.494-4.1795S210.7309,245.88169,210.7309,245.88169Z"/><path class="cls-23" d="M238.1845,244.54469l-23.1354,10.461s2.4382,10.1608,14.3732,4.3267c0,0,1.1045,9.6026,10.3303,8.0938C248.9785,265.91729,246.1556,249.60779,238.1845,244.54469Z"/><rect class="cls-22" x="213.6431" y="229.64379" width="16.11109" height="9.6667"/><path class="cls-4" d="M213.6431,235.29179a23.21731,23.21731,0,0,0,16.11111,2.3747v-4.022c-4.18451,1.5449-10.52061,2.8154-16.11111-.4404Z"/><path class="cls-10" d="M350.4569,277.07959c-76.3962,18.1152-80.8074-92.84689-80.8074-92.84689"/><path class="cls-11" d="M310.9669,260.57609c.1417.1295.275.2692.4191.3957,8.4849,7.4541,20.4351,9.2202,36.5328,5.4041l5.0755,21.4065c-12.7169,3.016-24.1327,3.3409-34.166.9915a50.104,50.104,0,0,1-19.216-9.0358Z"/><path class="cls-12" d="M317.4883,252.56839l-7.5723,41.2064,24.7379,4.546a20.94823,20.94823,0,0,0,24.3893-16.8171h0a20.94825,20.94825,0,0,0-16.8171-24.3894Z"/><line class="cls-13" x1="317.4883" y1="252.56839" x2="309.916" y2="293.77479"/><path class="cls-16" d="M259.41677,156.62893h13.611a12,12,0,0,1,12,12v13.7705a12,12,0,0,1-12,12H259.41672a11.99995,11.99995,0,0,1-11.99995-11.99995V168.62893a12,12,0,0,1,12-12Z" transform="translate(399.31908 465.28099) rotate(-148.06638)"/><rect class="cls-22" x="262.70917" y="134.23363" width="8.05552" height="61.13153" transform="translate(127.53444 -116.14561) rotate(31.93331)"/><path class="cls-19" d="M248.1652,194.5973h0a5.9312,5.9312,0,0,1-1.8964-8.1708l18.8776-30.2885a5.9311,5.9311,0,0,1,8.1707-1.8964h0a5.93122,5.93122,0,0,1,1.8964,8.1708l-18.8776,30.2885A5.9311,5.9311,0,0,1,248.1652,194.5973Z"/><path class="cls-16" d="M261.4162,154.3886s4.9348,10.2298,4.0359,12.1799c-.8989,1.9499-12.3218,18.9448-13.5301,19.1263-1.2082.1815-5.0121-4.397-5.8464-8.56871C245.2412,172.9543,261.4162,154.3886,261.4162,154.3886Z"/><path class="cls-23" d="M285.4222,167.7752l-25.1673-3.3593s-3.3052,9.9127,9.9094,11.2744c0,0-4.1418,8.7336,4.4859,12.333C283.2779,191.6226,289.5089,176.2882,285.4222,167.7752Z"/><path class="cls-22" d="M309.2552,114.9998,292.7183,104.693a4.73756,4.73756,0,0,0-6.5264,1.5148l-15.0435,24.1368a4.73758,4.73758,0,0,0,1.5147,6.52649l16.537,10.30681a4.73765,4.73765,0,0,0,6.5264-1.5147L310.77,121.5263A4.73759,4.73759,0,0,0,309.2552,114.9998Zm-33.5121,19.0535a1.84133,1.84133,0,0,1-.5887-2.5366l13.2404-21.2439a1.84132,1.84132,0,1,1,3.1253,1.9479l-13.2404,21.2439A1.84135,1.84135,0,0,1,275.7431,134.0533Zm10.1206,3.88279a1.84129,1.84129,0,1,1-3.1253-1.94779l13.2405-21.244a1.84128,1.84128,0,0,1,3.1252,1.9479Zm20.212-16.89879-13.2404,21.2439a1.84129,1.84129,0,1,1-3.1253-1.9478l13.2405-21.244a1.84128,1.84128,0,0,1,3.1252,1.9479Z"/><path class="cls-10" d="M433.9959,277.07959c76.3962,18.1152,80.8073-92.84689,80.8073-92.84689"/><path class="cls-11" d="M473.4858,260.57609c-.1416.1295-.2749.2692-.419.3957-8.485,7.4541-20.4351,9.2202-36.5328,5.4041l-5.0755,21.4065c12.7169,3.016,24.1326,3.3409,34.1659.9915a50.10379,50.10379,0,0,0,19.2161-9.0358Z"/><path class="cls-12" d="M466.9645,252.56839l7.5723,41.2064-24.7379,4.546a20.94823,20.94823,0,0,1-24.3893-16.8171h0a20.94825,20.94825,0,0,1,16.8171-24.3894Z"/><line class="cls-13" x1="466.9645" y1="252.56839" x2="474.5368" y2="293.77479"/><path class="cls-16" d="M511.42485,156.629H525.036a12,12,0,0,1,12,12v13.77047a12,12,0,0,1-12,12H511.42486a11.99993,11.99993,0,0,1-11.99993-11.99993V168.62888A11.99993,11.99993,0,0,1,511.42485,156.629Z" transform="translate(-14.4081 300.67093) rotate(-31.9334)"/><path class="cls-25" d="M510.7012,146.3556l-13.419,7.8507,30.064,51.33229a7.75932,7.75932,0,0,0,10.6155,2.7791h0a7.75931,7.75931,0,0,0,2.7792-10.6156Z"/><path class="cls-26" d="M536.6055,205.99929a5.079,5.079,0,0,1-6.9409-1.8173L500.9711,155.1599l8.768-5.1296,28.6834,49.02809A5.07906,5.07906,0,0,1,536.6055,205.99929Z"/><path class="cls-27" d="M509.8391,170.2946,529.6646,204.182a5.07327,5.07327,0,1,0,8.7579-5.1236L518.5969,165.1709Z"/><path class="cls-28" d="M536.6055,205.99929a5.07906,5.07906,0,0,0,1.817-6.9409l-2.92-4.99109c-4.9774-.70221-11.0179-4.1166-15.5301-6.452l9.6922,16.56669A5.079,5.079,0,0,0,536.6055,205.99929Z"/><path class="cls-29" d="M537.3098,205.49589a5.07771,5.07771,0,0,0,1.1127-6.4375L509.7391,150.0303l-3.6348,2.1265Z"/><polygon class="cls-30" points="507.946 144.395 496.784 150.925 501.334 156.043 510.178 150.868 507.946 144.395"/><polygon class="cls-31" points="506.529 153.003 510.178 150.868 507.946 144.394 503.138 147.208 506.529 153.003"/><path class="cls-32" d="M498.896,153.3005l10.0862-5.9008-.9993-2.8987a1.52764,1.52764,0,0,0-.435.1649l-10.3036,6.0281a1.52565,1.52565,0,0,0-.379.3225Z"/><path class="cls-30" d="M508.6028,146.46909l-10.3036,6.028a1.54183,1.54183,0,0,1-2.1095-.55219h0a1.54188,1.54188,0,0,1,.5523-2.1095l10.3036-6.0281a1.542,1.542,0,0,1,2.1095.5523h0A1.54178,1.54178,0,0,1,508.6028,146.46909Z"/><path class="cls-16" d="M523.0366,154.3886s-4.9348,10.2298-4.0359,12.1799c.8989,1.9499,12.3218,18.9448,13.53,19.1263s5.0122-4.397,5.8465-8.56871C539.2116,172.9543,523.0366,154.3886,523.0366,154.3886Z"/><path class="cls-23" d="M499.0306,167.7752l25.1673-3.3593s3.3052,9.9127-9.9094,11.2744c0,0,4.1418,8.7336-4.4859,12.333C501.1748,191.6226,494.9439,176.2882,499.0306,167.7752Z"/><path class="cls-14" d="M252.407,380.03579s-18.94455-14.04511-34.6229-39.5224l-2.9396,30.70338-32.0098-5.87936s18.9446,33.96948,47.68812,58.14018l28.41678-30.05Z"/><polygon class="cls-33" points="251.019 391.06 222.716 393.744 230.523 423.477 257.38 395.077 251.019 391.06"/><path class="cls-14" d="M529.716,380.03579s18.9446-14.04511,34.6228-39.5224l2.9397,30.70338,32.00979-5.87936s-18.94449,33.96948-47.68809,58.14018l-28.4167-30.05Z"/><polygon class="cls-33" points="531.104 391.06 559.407 393.744 551.6 423.477 524.743 395.077 531.104 391.06"/><path class="cls-14" d="M495.9927,439.67689a230.66586,230.66586,0,0,0,63.842-45.7985l-37.5516-40.44006c-32.9714,34.622-80.8131,54.91226-130.9419,54.91226-50.4322,0-98.5358-20.5218-131.5256-55.51749l-37.09951,40.911a230.64654,230.64654,0,0,0,63.86911,45.8822,242.04844,242.04844,0,0,0,209.4075.0506Z"/><path class="cls-34" d="M282.95773,393.084q-6.12457,10.15425-12.24912,20.3085-2.81765-1.70127-5.59772-3.48967,4.32479-6.73683,8.65008-13.4733-5.35879,6.07152-10.86464,12.03062-1.96041-1.29309-3.90069-2.63,3.28794-7.234,6.73809-14.37514-4.51736,6.38607-9.0352,12.77177-2.71817-1.9217-5.394-3.93052,7.11972-9.48258,14.23945-18.96517,3.55419,2.66856,7.19229,5.16579-.88616,1.98586-2.16793,4.62563-1.28707,2.77256-2.54992,5.55876,3.77706-4.13163,7.48733-8.31538Q279.19318,390.81158,282.95773,393.084Z"/><path class="cls-34" d="M285.28715,394.46982q4.85232,2.844,9.81846,5.4034-1.08672,2.10976-2.17347,4.2195-2.03253-1.04794-4.04745-2.1425l-2.1452,3.95271q1.92568,1.04616,3.86738,2.05061l-2.07168,4.00827q-1.982-1.02537-3.94788-2.0933-1.2438,2.29181-2.48759,4.5836,2.364,1.2843,4.75109,2.50843l-2.16441,4.22416q-5.75709-2.95257-11.38213-6.248Z"/><path class="cls-34" d="M304.588,404.46043l-6.534,14.44144q-1.4673,3.24335-1.96608,4.13464a3.14626,3.14626,0,0,1-1.48755,1.34338,3.65408,3.65408,0,0,1-2.23267.21774,14.96572,14.96572,0,0,1-3.47122-1.30775q-1.67607-.81681-3.34187-1.66221l1.875-3.69756q.56975.33841.83436.47047a2.06943,2.06943,0,0,0,1.24776.26225,1.165,1.165,0,0,0,.81616-.47916,15.1449,15.1449,0,0,0,.86368-1.59952l7.36335-14.9731Q301.55355,403.0869,304.588,404.46043Z"/><path class="cls-34" d="M316.40627,424.16567a43.93811,43.93811,0,0,1-1.87095,4.70649,5.12505,5.12505,0,0,1-2.08323,2.14218,6.4968,6.4968,0,0,1-3.32617.79177,11.64806,11.64806,0,0,1-4.16693-.89677,11.98954,11.98954,0,0,1-3.56891-2.11977,6.523,6.523,0,0,1-1.95618-2.85613,5.08609,5.08609,0,0,1-.114-3.00432,42.32519,42.32519,0,0,1,1.8701-4.77856q.81509-1.85808,1.63012-3.71613a47.18016,47.18016,0,0,1,2.20368-4.56091,5.48766,5.48766,0,0,1,2.14275-2.03133,6.29526,6.29526,0,0,1,3.12593-.72749,10.50029,10.50029,0,0,1,3.74987.81047,10.7283,10.7283,0,0,1,3.20222,1.89945,6.21227,6.21227,0,0,1,1.82362,2.661,5.46548,5.46548,0,0,1,.215,2.95474,46.01821,46.01821,0,0,1-1.52566,4.899Q317.08187,422.25249,316.40627,424.16567Zm-3.79116-9.71891a6.75811,6.75811,0,0,0,.58151-2.04591.80793.80793,0,0,0-.59982-.73086.95461.95461,0,0,0-.8901.04782,4.88346,4.88346,0,0,0-1.08152,1.94245q-2.061,5.13972-4.12208,10.27944a9.27063,9.27063,0,0,0-.76458,2.43967q.0046.52248.6797.79057a.89286.89286,0,0,0,1.08693-.17106,9.994,9.994,0,0,0,1.15485-2.39572Q310.63755,419.525,312.61511,414.44676Z"/><path class="cls-34" d="M323.35853,411.87659q2.2128.75165,4.4385,1.452a46.6403,46.6403,0,0,1,5.95736,2.127,4.47278,4.47278,0,0,1,2.15,2.37463,7.43036,7.43036,0,0,1-.10794,4.541q-.70213,2.67809-1.68909,3.40245a4.21061,4.21061,0,0,1-3.23378.30028,5.62208,5.62208,0,0,1,2.35486,1.90631,3.57954,3.57954,0,0,1,.5001,1.57949,19.52888,19.52888,0,0,1-.72175,3.43845q-.79412,3.02514-1.58824,6.05029-3.28957-.86248-6.55853-1.82332,1.11232-3.78046,2.22466-7.56094a4.856,4.856,0,0,0,.33825-2.3592c-.13248-.35512-.66044-.66845-1.58307-.94917l-3.11747,10.22968q-3.5114-1.06925-6.9953-2.2525Q319.54281,423.1048,323.35853,411.87659Zm5.09485,5.90313q-.76867,2.52239-1.53737,5.04477a3.27012,3.27012,0,0,0,1.63925.19365q.52761-.14167.96909-1.64566l.368-1.25079a1.87126,1.87126,0,0,0-.00364-1.54375A2.70172,2.70172,0,0,0,328.45338,417.77972Z"/><path class="cls-34" d="M350.97565,419.1768q-.3978,11.99818-.36969,24.03972-3.67253-.63581-7.32795-1.39072.2399-2.12688.4869-4.25263-1.25543-.26154-2.50852-.53739-.66976,2.03505-1.34735,4.068-3.68813-.81929-7.35414-1.76043,4.76147-11.02074,9.157-22.16342Q346.32522,418.28523,350.97565,419.1768Zm-6.53244,14.243q.303-4.0538,1.041-9.96178c-1.62368,4.29634-2.77906,7.44167-3.41014,9.45272Q343.25753,433.17184,344.44321,433.41984Z"/><path class="cls-34" d="M376.23936,422.43124q-.79366,11.83138-1.58735,23.66278-3.62945-.24281-7.25194-.59969.48955-4.9564.97914-9.91282-1.03734-.10219-2.07387-.21418-.53623,4.95162-1.07251,9.90319-3.61921-.391-7.22779-.896,1.64744-11.74321,3.29487-23.4864,3.238.4532,6.48645.8041-.4566,4.21612-.91321,8.43227,1.01184.1093,2.02443.20907.41685-4.22022.83371-8.44047Q372.98176,422.21333,376.23936,422.43124Z"/><path class="cls-34" d="M390.13135,422.89528q1.86627,11.85787,4.1589,23.67844-3.7151.06671-7.431.01435-.165-2.13389-.32287-4.268-1.2765-.02014-2.55281-.05462-.27245,2.12478-.55284,4.24891-3.75729-.10856-7.5107-.339,2.58036-11.72184,4.78206-23.49367Q385.41418,422.89537,390.13135,422.89528Zm-3.71254,15.21823q-.46371-4.038-.8524-9.9789c-.78075,4.52527-1.3192,7.83191-1.55774,9.92586Q385.21364,438.09349,386.41881,438.11351Z"/><path class="cls-34" d="M394.97087,422.8389q3.25447-.07577,6.50626-.25341a19.90415,19.90415,0,0,1,4.7.14528,4.74948,4.74948,0,0,1,2.72891,1.61563,7.872,7.872,0,0,1,1.40392,4.34672,4.41067,4.41067,0,0,1-.44692,2.95233,5.13718,5.13718,0,0,1-2.74037,1.49464,5.39414,5.39414,0,0,1,3.36981,1.32388,5.68453,5.68453,0,0,1,1.183,3.33991q.106,1.094.212,2.188a7.57643,7.57643,0,0,1-.29567,3.60682,3.3011,3.3011,0,0,1-1.90616,1.75957,22.42264,22.42264,0,0,1-5.75552.84157q-4.2.2505-8.40568.34842Q395.24766,434.69359,394.97087,422.8389Zm6.744,3.79729q.14441,2.63279.28885,5.26555.43613-.03852.6786-.05287c.66863-.03879,1.08553-.21523,1.24915-.524a6.64213,6.64213,0,0,0,.108-2.56792,3.85066,3.85066,0,0,0-.32317-1.54295,1.02981,1.02981,0,0,0-.61186-.52628A5.68508,5.68508,0,0,0,401.71486,426.63619Zm.491,8.95142.36347,6.62581a3.36719,3.36719,0,0,0,1.898-.52276q.38963-.39163.29654-1.82448l-.14392-2.20724q-.09931-1.52024-.48254-1.81853A3.64,3.64,0,0,0,402.2059,435.58761Z"/><path class="cls-34" d="M418.955,420.8881q1.64747,11.7432,3.29489,23.48641-3.60812.505-7.22781.896-1.27677-11.78917-2.55351-23.57831Q415.71656,421.34133,418.955,420.8881Z"/><path class="cls-34" d="M428.00623,419.41681q1.73148,9.32585,3.463,18.65171,2.13684-.396,4.26752-.83324.47794,2.32455.95584,4.64907-5.75235,1.18061-11.548,2.06633-1.79593-11.72146-3.59182-23.44293Q424.78607,420.01344,428.00623,419.41681Z"/><path class="cls-34" d="M439.86549,416.85844q2.84244,11.51289,5.68488,23.02582-3.55236.87585-7.12552,1.63765-2.477-11.59692-4.954-23.19381Q436.67709,417.64443,439.86549,416.85844Z"/><path class="cls-34" d="M442.42175,416.21091q2.37933-.61884,4.74672-1.295a38.9751,38.9751,0,0,1,6.3021-1.47821,5.2183,5.2183,0,0,1,2.86735.4816,4.2097,4.2097,0,0,1,1.72,1.62349,29.11332,29.11332,0,0,1,1.669,4.20657q1.339,3.9314,2.678,7.86278a16.41842,16.41842,0,0,1,1.042,4.15551,3.16322,3.16322,0,0,1-.6386,1.99145,5.52859,5.52859,0,0,1-1.82051,1.49008,21.37833,21.37833,0,0,1-3.68885,1.40728q-4.43,1.34379-8.90015,2.50623Q445.41031,427.68682,442.42175,416.21091Zm7.48511,2.13606q2.20418,7.483,4.40834,14.966c.99661-.2936,1.55695-.6511,1.68216-1.06138a6.76487,6.76487,0,0,0-.50607-2.8851q-1.346-4.40627-2.69211-8.81252a11.34945,11.34945,0,0,0-.71075-1.94275.99278.99278,0,0,0-.6836-.48969A3.64285,3.64285,0,0,0,449.90686,418.347Z"/><path class="cls-34" d="M470.04224,406.90685q6.31977,10.21255,13.02841,20.22057-3.46861,1.52339-6.975,2.92764-.97667-1.90494-1.94655-3.813-1.20509.4803-2.41444.94628.563,2.06736,1.11819,4.13725-3.56238,1.36479-7.15866,2.60771-2.10132-11.821-4.5737-23.54279Q465.612,408.75559,470.04224,406.90685Zm2.37654,15.49871q-1.99-3.5458-4.64232-8.87724c1.01079,4.48152,1.77959,7.74345,2.3624,9.76916Q471.2807,422.858,472.41878,422.40556Z"/><path class="cls-34" d="M474.57034,404.953q2.27472-1.01387,4.53023-2.085a40.39515,40.39515,0,0,1,6.0589-2.5386,5.33182,5.33182,0,0,1,2.94354-.017,4.1877,4.1877,0,0,1,1.97968,1.309,28.64748,28.64748,0,0,1,2.3421,3.87233q1.9681,3.65712,3.93616,7.31425a16.16982,16.16982,0,0,1,1.70691,3.93,3.16924,3.16924,0,0,1-.31983,2.07961,5.67505,5.67505,0,0,1-1.58139,1.78668,21.97886,21.97886,0,0,1-3.46075,2.02357q-4.21034,2.08586-8.484,3.9903Q479.39611,415.78554,474.57034,404.953Zm7.81537.83931q3.40173,7.02006,6.80345,14.04012c.94846-.46013,1.45078-.9095,1.5102-1.33642a6.67555,6.67555,0,0,0-.96814-2.76542q-2.05121-4.12545-4.10234-8.2509a11.18641,11.18641,0,0,0-1.02156-1.79888.99413.99413,0,0,0-.76139-.36719A3.748,3.748,0,0,0,482.38571,405.79231Z"/><path class="cls-34" d="M490.65959,396.9261q4.9032-2.71831,9.68985-5.72117,1.26064,2.01062,2.52118,4.02122-1.95909,1.2295-3.93823,2.41236,1.15269,1.93068,2.30542,3.86135,1.89153-1.13055,3.76532-2.30281,1.19568,1.913,2.39129,3.826-1.91258,1.19666-3.84368,2.35075,1.33666,2.23881,2.67337,4.47766,2.32214-1.38791,4.61859-2.836,1.26494,2.00787,2.52987,4.01573-5.53852,3.49267-11.22247,6.64251Q496.4048,407.29993,490.65959,396.9261Z"/><path class="cls-34" d="M518.54771,387.42506q-2.64348,1.97355-5.33181,3.85575-.50387-.72007-1.00788-1.44017a3.10554,3.10554,0,0,0-1.1018-1.14209.95981.95981,0,0,0-.86969.19456,1.09057,1.09057,0,0,0-.52283.912,2.39385,2.39385,0,0,0,.51157,1.31985,3.46134,3.46134,0,0,0,1.312,1.26855,5.05622,5.05622,0,0,0,2.4704.052c3.52816-.48283,5.95669-.62517,7.25506-.2849,1.29755.33805,2.65,1.42758,4.04642,3.286a7.38415,7.38415,0,0,1,1.65976,3.4234,5.37475,5.37475,0,0,1-1.08093,3.29689,12.79025,12.79025,0,0,1-3.51285,3.4965,12.31114,12.31114,0,0,1-4.83182,2.14776,5.0104,5.0104,0,0,1-3.64453-.46927,10.20352,10.20352,0,0,1-2.77295-3.11056q-.4189-.65368-.83774-1.30738,2.84688-1.826,5.651-3.74672.81505,1.19061,1.63019,2.38122.75293,1.10005,1.20908,1.24893a1.23479,1.23479,0,0,0,1.07223-.27733,1.29926,1.29926,0,0,0,.63556-1.03247,2.37,2.37,0,0,0-.52789-1.38341q-1.2047-1.71355-2.13214-1.85064a24.31218,24.31218,0,0,0-4.03254.15906,28.43858,28.43858,0,0,1-4.18847.12761,5.044,5.044,0,0,1-2.2348-.8207,7.337,7.337,0,0,1-2.14808-2.31147,7.90555,7.90555,0,0,1-1.49487-3.77555,5.17408,5.17408,0,0,1,1.00763-3.013,11.37392,11.37392,0,0,1,3.03079-2.90763,12.56387,12.56387,0,0,1,4.15067-1.985,4.77055,4.77055,0,0,1,3.1781.09477,9.38681,9.38681,0,0,1,2.89236,2.84211Z"/><path class="cls-35" d="M282.95773,393.084q-6.12457,10.15425-12.24912,20.3085-2.81765-1.70127-5.59772-3.48967,4.32479-6.73683,8.65008-13.4733-5.35879,6.07152-10.86464,12.03062-1.96041-1.29309-3.90069-2.63,3.28794-7.234,6.73809-14.37514-4.51736,6.38607-9.0352,12.77177-2.71817-1.9217-5.394-3.93052,7.11972-9.48258,14.23945-18.96517,3.55419,2.66856,7.19229,5.16579-.88616,1.98586-2.16793,4.62563-1.28707,2.77256-2.54992,5.55876,3.77706-4.13163,7.48733-8.31538Q279.19318,390.81158,282.95773,393.084Z"/><path class="cls-35" d="M285.28715,394.46982q4.85232,2.844,9.81846,5.4034-1.08672,2.10976-2.17347,4.2195-2.03253-1.04794-4.04745-2.1425l-2.1452,3.95271q1.92568,1.04616,3.86738,2.05061l-2.07168,4.00827q-1.982-1.02537-3.94788-2.0933-1.2438,2.29181-2.48759,4.5836,2.364,1.2843,4.75109,2.50843l-2.16441,4.22416q-5.75709-2.95257-11.38213-6.248Z"/><path class="cls-35" d="M304.588,404.46043l-6.534,14.44144q-1.4673,3.24335-1.96608,4.13464a3.14626,3.14626,0,0,1-1.48755,1.34338,3.65408,3.65408,0,0,1-2.23267.21774,14.96572,14.96572,0,0,1-3.47122-1.30775q-1.67607-.81681-3.34187-1.66221l1.875-3.69756q.56975.33841.83436.47047a2.06943,2.06943,0,0,0,1.24776.26225,1.165,1.165,0,0,0,.81616-.47916,15.1449,15.1449,0,0,0,.86368-1.59952l7.36335-14.9731Q301.55355,403.0869,304.588,404.46043Z"/><path class="cls-35" d="M316.40627,424.16567a43.93811,43.93811,0,0,1-1.87095,4.70649,5.12505,5.12505,0,0,1-2.08323,2.14218,6.4968,6.4968,0,0,1-3.32617.79177,11.64806,11.64806,0,0,1-4.16693-.89677,11.98954,11.98954,0,0,1-3.56891-2.11977,6.523,6.523,0,0,1-1.95618-2.85613,5.08609,5.08609,0,0,1-.114-3.00432,42.32519,42.32519,0,0,1,1.8701-4.77856q.81509-1.85808,1.63012-3.71613a47.18016,47.18016,0,0,1,2.20368-4.56091,5.48766,5.48766,0,0,1,2.14275-2.03133,6.29526,6.29526,0,0,1,3.12593-.72749,10.50029,10.50029,0,0,1,3.74987.81047,10.7283,10.7283,0,0,1,3.20222,1.89945,6.21227,6.21227,0,0,1,1.82362,2.661,5.46548,5.46548,0,0,1,.215,2.95474,46.01821,46.01821,0,0,1-1.52566,4.899Q317.08187,422.25249,316.40627,424.16567Zm-3.79116-9.71891a6.75811,6.75811,0,0,0,.58151-2.04591.80793.80793,0,0,0-.59982-.73086.95461.95461,0,0,0-.8901.04782,4.88346,4.88346,0,0,0-1.08152,1.94245q-2.061,5.13972-4.12208,10.27944a9.27063,9.27063,0,0,0-.76458,2.43967q.0046.52248.6797.79057a.89286.89286,0,0,0,1.08693-.17106,9.994,9.994,0,0,0,1.15485-2.39572Q310.63755,419.525,312.61511,414.44676Z"/><path class="cls-35" d="M323.35853,411.87659q2.2128.75165,4.4385,1.452a46.6403,46.6403,0,0,1,5.95736,2.127,4.47278,4.47278,0,0,1,2.15,2.37463,7.43036,7.43036,0,0,1-.10794,4.541q-.70213,2.67809-1.68909,3.40245a4.21061,4.21061,0,0,1-3.23378.30028,5.62208,5.62208,0,0,1,2.35486,1.90631,3.57954,3.57954,0,0,1,.5001,1.57949,19.52888,19.52888,0,0,1-.72175,3.43845q-.79412,3.02514-1.58824,6.05029-3.28957-.86248-6.55853-1.82332,1.11232-3.78046,2.22466-7.56094a4.856,4.856,0,0,0,.33825-2.3592c-.13248-.35512-.66044-.66845-1.58307-.94917l-3.11747,10.22968q-3.5114-1.06925-6.9953-2.2525Q319.54281,423.1048,323.35853,411.87659Zm5.09485,5.90313q-.76867,2.52239-1.53737,5.04477a3.27012,3.27012,0,0,0,1.63925.19365q.52761-.14167.96909-1.64566l.368-1.25079a1.87126,1.87126,0,0,0-.00364-1.54375A2.70172,2.70172,0,0,0,328.45338,417.77972Z"/><path class="cls-35" d="M350.97565,419.1768q-.3978,11.99818-.36969,24.03972-3.67253-.63581-7.32795-1.39072.2399-2.12688.4869-4.25263-1.25543-.26154-2.50852-.53739-.66976,2.03505-1.34735,4.068-3.68813-.81929-7.35414-1.76043,4.76147-11.02074,9.157-22.16342Q346.32522,418.28523,350.97565,419.1768Zm-6.53244,14.243q.303-4.0538,1.041-9.96178c-1.62368,4.29634-2.77906,7.44167-3.41014,9.45272Q343.25753,433.17184,344.44321,433.41984Z"/><path class="cls-35" d="M376.23936,422.43124q-.79366,11.83138-1.58735,23.66278-3.62945-.24281-7.25194-.59969.48955-4.9564.97914-9.91282-1.03734-.10219-2.07387-.21418-.53623,4.95162-1.07251,9.90319-3.61921-.391-7.22779-.896,1.64744-11.74321,3.29487-23.4864,3.238.4532,6.48645.8041-.4566,4.21612-.91321,8.43227,1.01184.1093,2.02443.20907.41685-4.22022.83371-8.44047Q372.98176,422.21333,376.23936,422.43124Z"/><path class="cls-35" d="M390.13135,422.89528q1.86627,11.85787,4.1589,23.67844-3.7151.06671-7.431.01435-.165-2.13389-.32287-4.268-1.2765-.02014-2.55281-.05462-.27245,2.12478-.55284,4.24891-3.75729-.10856-7.5107-.339,2.58036-11.72184,4.78206-23.49367Q385.41418,422.89537,390.13135,422.89528Zm-3.71254,15.21823q-.46371-4.038-.8524-9.9789c-.78075,4.52527-1.3192,7.83191-1.55774,9.92586Q385.21364,438.09349,386.41881,438.11351Z"/><path class="cls-35" d="M394.97087,422.8389q3.25447-.07577,6.50626-.25341a19.90415,19.90415,0,0,1,4.7.14528,4.74948,4.74948,0,0,1,2.72891,1.61563,7.872,7.872,0,0,1,1.40392,4.34672,4.41067,4.41067,0,0,1-.44692,2.95233,5.13718,5.13718,0,0,1-2.74037,1.49464,5.39414,5.39414,0,0,1,3.36981,1.32388,5.68453,5.68453,0,0,1,1.183,3.33991q.106,1.094.212,2.188a7.57643,7.57643,0,0,1-.29567,3.60682,3.3011,3.3011,0,0,1-1.90616,1.75957,22.42264,22.42264,0,0,1-5.75552.84157q-4.2.2505-8.40568.34842Q395.24766,434.69359,394.97087,422.8389Zm6.744,3.79729q.14441,2.63279.28885,5.26555.43613-.03852.6786-.05287c.66863-.03879,1.08553-.21523,1.24915-.524a6.64213,6.64213,0,0,0,.108-2.56792,3.85066,3.85066,0,0,0-.32317-1.54295,1.02981,1.02981,0,0,0-.61186-.52628A5.68508,5.68508,0,0,0,401.71486,426.63619Zm.491,8.95142.36347,6.62581a3.36719,3.36719,0,0,0,1.898-.52276q.38963-.39163.29654-1.82448l-.14392-2.20724q-.09931-1.52024-.48254-1.81853A3.64,3.64,0,0,0,402.2059,435.58761Z"/><path class="cls-35" d="M418.955,420.8881q1.64747,11.7432,3.29489,23.48641-3.60812.505-7.22781.896-1.27677-11.78917-2.55351-23.57831Q415.71656,421.34133,418.955,420.8881Z"/><path class="cls-35" d="M428.00623,419.41681q1.73148,9.32585,3.463,18.65171,2.13684-.396,4.26752-.83324.47794,2.32455.95584,4.64907-5.75235,1.18061-11.548,2.06633-1.79593-11.72146-3.59182-23.44293Q424.78607,420.01344,428.00623,419.41681Z"/><path class="cls-35" d="M439.86549,416.85844q2.84244,11.51289,5.68488,23.02582-3.55236.87585-7.12552,1.63765-2.477-11.59692-4.954-23.19381Q436.67709,417.64443,439.86549,416.85844Z"/><path class="cls-35" d="M442.42175,416.21091q2.37933-.61884,4.74672-1.295a38.9751,38.9751,0,0,1,6.3021-1.47821,5.2183,5.2183,0,0,1,2.86735.4816,4.2097,4.2097,0,0,1,1.72,1.62349,29.11332,29.11332,0,0,1,1.669,4.20657q1.339,3.9314,2.678,7.86278a16.41842,16.41842,0,0,1,1.042,4.15551,3.16322,3.16322,0,0,1-.6386,1.99145,5.52859,5.52859,0,0,1-1.82051,1.49008,21.37833,21.37833,0,0,1-3.68885,1.40728q-4.43,1.34379-8.90015,2.50623Q445.41031,427.68682,442.42175,416.21091Zm7.48511,2.13606q2.20418,7.483,4.40834,14.966c.99661-.2936,1.55695-.6511,1.68216-1.06138a6.76487,6.76487,0,0,0-.50607-2.8851q-1.346-4.40627-2.69211-8.81252a11.34945,11.34945,0,0,0-.71075-1.94275.99278.99278,0,0,0-.6836-.48969A3.64285,3.64285,0,0,0,449.90686,418.347Z"/><path class="cls-35" d="M470.04224,406.90685q6.31977,10.21255,13.02841,20.22057-3.46861,1.52339-6.975,2.92764-.97667-1.90494-1.94655-3.813-1.20509.4803-2.41444.94628.563,2.06736,1.11819,4.13725-3.56238,1.36479-7.15866,2.60771-2.10132-11.821-4.5737-23.54279Q465.612,408.75559,470.04224,406.90685Zm2.37654,15.49871q-1.99-3.5458-4.64232-8.87724c1.01079,4.48152,1.77959,7.74345,2.3624,9.76916Q471.2807,422.858,472.41878,422.40556Z"/><path class="cls-35" d="M474.57034,404.953q2.27472-1.01387,4.53023-2.085a40.39515,40.39515,0,0,1,6.0589-2.5386,5.33182,5.33182,0,0,1,2.94354-.017,4.1877,4.1877,0,0,1,1.97968,1.309,28.64748,28.64748,0,0,1,2.3421,3.87233q1.9681,3.65712,3.93616,7.31425a16.16982,16.16982,0,0,1,1.70691,3.93,3.16924,3.16924,0,0,1-.31983,2.07961,5.67505,5.67505,0,0,1-1.58139,1.78668,21.97886,21.97886,0,0,1-3.46075,2.02357q-4.21034,2.08586-8.484,3.9903Q479.39611,415.78554,474.57034,404.953Zm7.81537.83931q3.40173,7.02006,6.80345,14.04012c.94846-.46013,1.45078-.9095,1.5102-1.33642a6.67555,6.67555,0,0,0-.96814-2.76542q-2.05121-4.12545-4.10234-8.2509a11.18641,11.18641,0,0,0-1.02156-1.79888.99413.99413,0,0,0-.76139-.36719A3.748,3.748,0,0,0,482.38571,405.79231Z"/><path class="cls-35" d="M490.65959,396.9261q4.9032-2.71831,9.68985-5.72117,1.26064,2.01062,2.52118,4.02122-1.95909,1.2295-3.93823,2.41236,1.15269,1.93068,2.30542,3.86135,1.89153-1.13055,3.76532-2.30281,1.19568,1.913,2.39129,3.826-1.91258,1.19666-3.84368,2.35075,1.33666,2.23881,2.67337,4.47766,2.32214-1.38791,4.61859-2.836,1.26494,2.00787,2.52987,4.01573-5.53852,3.49267-11.22247,6.64251Q496.4048,407.29993,490.65959,396.9261Z"/><path class="cls-35" d="M518.54771,387.42506q-2.64348,1.97355-5.33181,3.85575-.50387-.72007-1.00788-1.44017a3.10554,3.10554,0,0,0-1.1018-1.14209.95981.95981,0,0,0-.86969.19456,1.09057,1.09057,0,0,0-.52283.912,2.39385,2.39385,0,0,0,.51157,1.31985,3.46134,3.46134,0,0,0,1.312,1.26855,5.05622,5.05622,0,0,0,2.4704.052c3.52816-.48283,5.95669-.62517,7.25506-.2849,1.29755.33805,2.65,1.42758,4.04642,3.286a7.38415,7.38415,0,0,1,1.65976,3.4234,5.37475,5.37475,0,0,1-1.08093,3.29689,12.79025,12.79025,0,0,1-3.51285,3.4965,12.31114,12.31114,0,0,1-4.83182,2.14776,5.0104,5.0104,0,0,1-3.64453-.46927,10.20352,10.20352,0,0,1-2.77295-3.11056q-.4189-.65368-.83774-1.30738,2.84688-1.826,5.651-3.74672.81505,1.19061,1.63019,2.38122.75293,1.10005,1.20908,1.24893a1.23479,1.23479,0,0,0,1.07223-.27733,1.29926,1.29926,0,0,0,.63556-1.03247,2.37,2.37,0,0,0-.52789-1.38341q-1.2047-1.71355-2.13214-1.85064a24.31218,24.31218,0,0,0-4.03254.15906,28.43858,28.43858,0,0,1-4.18847.12761,5.044,5.044,0,0,1-2.2348-.8207,7.337,7.337,0,0,1-2.14808-2.31147,7.90555,7.90555,0,0,1-1.49487-3.77555,5.17408,5.17408,0,0,1,1.00763-3.013,11.37392,11.37392,0,0,1,3.03079-2.90763,12.56387,12.56387,0,0,1,4.15067-1.985,4.77055,4.77055,0,0,1,3.1781.09477,9.38681,9.38681,0,0,1,2.89236,2.84211Z"/></g></g></svg>