<?xml version="1.0" ?><svg width="512px" height="512px" viewBox="0 0 512 512" enable-background="new 0 0 512 512" id="flat" version="1.1" xml:space="preserve" xmlns="http://www.w3.org/2000/svg" xmlns:xlink="http://www.w3.org/1999/xlink"><ellipse cx="256" cy="336" fill="#797FA0" rx="144" ry="168"/><path d="M432.573,304.53c22.267,64.762-12.64,135.47-12.64,135.47s-71.008-34.293-93.274-99.055  c-22.267-64.762-16.607-125.415,12.64-135.47C368.546,195.419,410.306,239.767,432.573,304.53z" fill="#4D5166"/><path d="M434.45,397.192c-24.051-0.76-54.632-35.062-72.31-83.28c-16.688-45.523-16.579-89.02-1.483-107.314  c25.75,9.895,54.679,47.791,71.92,97.928C443.803,337.171,440.492,371.335,434.45,397.192z" fill="#323542"/><path d="M79.427,304.53C57.161,369.292,92.068,440,92.068,440s71.008-34.293,93.274-99.055  s16.607-125.415-12.64-135.47C143.454,195.419,101.694,239.767,79.427,304.53z" fill="#4D5166"/><path d="M77.55,397.192c24.051-0.76,54.632-35.062,72.31-83.28c16.688-45.523,16.579-89.02,1.483-107.314  c-25.75,9.895-54.679,47.791-71.92,97.928C68.197,337.171,71.508,371.335,77.55,397.192z" fill="#323542"/><path d="M372.547,8c0,0-56.576,31.068-72.477,85.217l87.37,25.657C403.342,64.725,372.547,8,372.547,8z" fill="#4D5166"/><path d="M139.453,8c0,0,56.576,31.068,72.477,85.217l-87.37,25.657C108.658,64.725,139.453,8,139.453,8z" fill="#4D5166"/><path d="M318.775,253.957L318.775,253.957c-41.286-10.069-84.263-10.069-125.549,0l0,0  c-48.229,11.763-93.403-28.907-88.917-80.053l0,0c5.551-63.288,56.744-111.746,118.053-111.746h67.277  c61.309,0,112.502,48.458,118.053,111.746l0,0C412.177,225.05,367.004,265.72,318.775,253.957z" fill="#8A91B6"/><path d="M208,232L208,232c30.217-15.108,65.783-15.108,96,0l0,0l-48,72L208,232z" fill="#E6C067"/><g><path d="M256,128c-4.418,0-8-3.582-8-8c0-8.822-7.178-16-16-16h-16c-8.822,0-16-7.178-16-16c0-4.418,3.582-8,8-8   s8,3.582,8,8c0,0.007,0,0.01,0,0.01L232,88c9.547,0,18.132,4.203,24,10.855C261.868,92.203,270.453,88,280,88h16   c0-4.418,3.582-8,8-8s8,3.582,8,8c0,8.822-7.178,16-16,16h-16c-8.822,0-16,7.178-16,16C264,124.418,260.418,128,256,128z" fill="#323542"/></g><ellipse cx="328" cy="160" fill="#4D5166" rx="48" ry="56"/><ellipse cx="184" cy="160" fill="#4D5166" rx="48" ry="56"/><path d="M285.41,175.306l54.024-40.518l3.929,17.678c4.29,19.303-13.77,36.094-32.71,30.412L285.41,175.306z" fill="#E65C64"/><path d="M226.59,175.306l-54.024-40.518l-3.929,17.678c-4.29,19.303,13.77,36.094,32.71,30.412L226.59,175.306z" fill="#E65C64"/><path d="M312,432c0,24.11-4.42,46.3-11.83,63.94C286.25,501.18,271.41,504,256,504s-30.25-2.82-44.17-8.06  C204.42,478.3,200,456.11,200,432c0-57.44,25.07-104,56-104S312,374.56,312,432z" fill="#E65C64"/><path d="M333.325,440h-10.65C299.106,440,280,459.106,280,482.675v0c0,11.777,9.548,21.325,21.325,21.325h53.35  c11.777,0,21.325-9.548,21.325-21.325v0C376,459.106,356.894,440,333.325,440z" fill="#4D5166"/><g><path d="M328,504c-4.418,0-8-3.582-8-8v-16c0-4.418,3.582-8,8-8s8,3.582,8,8v16C336,500.418,332.418,504,328,504z" fill="#2E303D"/></g><g><path d="M360.006,504.002c-2.935,0-5.76-1.621-7.162-4.424l-8-16c-1.976-3.952-0.375-8.758,3.578-10.733   s8.758-0.373,10.733,3.577l8,16c1.976,3.952,0.375,8.758-3.578,10.733C362.429,503.729,361.208,504.002,360.006,504.002z" fill="#2E303D"/></g><g><path d="M295.994,504.002c-1.202,0-2.423-0.272-3.571-0.847c-3.952-1.976-5.554-6.781-3.578-10.733l8-16   c1.976-3.95,6.781-5.554,10.733-3.577c3.952,1.976,5.554,6.781,3.578,10.733l-8,16   C301.754,502.381,298.928,504.002,295.994,504.002z" fill="#2E303D"/></g><path d="M178.675,440h10.65C212.894,440,232,459.106,232,482.675v0c0,11.777-9.548,21.325-21.325,21.325h-53.35  C145.548,504,136,494.452,136,482.675v0C136,459.106,155.106,440,178.675,440z" fill="#4D5166"/><g><path d="M184,504c-4.418,0-8-3.582-8-8v-16c0-4.418,3.582-8,8-8s8,3.582,8,8v16C192,500.418,188.418,504,184,504z" fill="#2E303D"/></g><g><path d="M151.994,504.002c-1.202,0-2.423-0.272-3.571-0.847c-3.952-1.976-5.554-6.781-3.578-10.733l8-16   c1.975-3.95,6.781-5.554,10.733-3.577c3.952,1.976,5.554,6.781,3.578,10.733l-8,16   C157.754,502.381,154.928,504.002,151.994,504.002z" fill="#2E303D"/></g><g><path d="M216.006,504.002c-2.935,0-5.76-1.621-7.162-4.424l-8-16c-1.976-3.952-0.375-8.758,3.578-10.733   c3.953-1.976,8.758-0.373,10.733,3.577l8,16c1.976,3.952,0.375,8.758-3.578,10.733   C218.429,503.729,217.208,504.002,216.006,504.002z" fill="#2E303D"/></g></svg>