<svg xmlns="http://www.w3.org/2000/svg" xmlns:xlink="http://www.w3.org/1999/xlink" viewBox="0 0 3558.12766 2792.2382"><defs><style>.cls-1{isolation:isolate;}.cls-2{opacity:0.3;fill:url(#linear-gradient);}.cls-3{fill:url(#linear-gradient-2);}.cls-12,.cls-4{opacity:0.63;}.cls-11,.cls-16,.cls-21,.cls-5{fill:#fff;}.cls-5{mix-blend-mode:overlay;}.cls-6{opacity:0.5;}.cls-7{fill:url(#linear-gradient-3);}.cls-8{fill:url(#linear-gradient-4);}.cls-9{fill:url(#linear-gradient-5);}.cls-10{fill:url(#linear-gradient-6);}.cls-12{fill:url(#linear-gradient-7);}.cls-13{fill:url(#linear-gradient-8);}.cls-14{fill:url(#linear-gradient-9);}.cls-15{fill:url(#linear-gradient-10);}.cls-16{opacity:0.42;}.cls-17{fill:url(#linear-gradient-11);}.cls-18{fill:url(#linear-gradient-12);}.cls-19{fill:url(#linear-gradient-13);}.cls-20{fill:url(#linear-gradient-14);}.cls-21{opacity:0.8;}.cls-22{fill:url(#linear-gradient-15);}.cls-23{fill:url(#linear-gradient-16);}.cls-24{fill:url(#linear-gradient-17);}.cls-25{fill:url(#linear-gradient-18);}.cls-26{fill:url(#linear-gradient-19);}.cls-27{fill:url(#linear-gradient-20);}.cls-28{fill:url(#linear-gradient-21);}.cls-29{fill:url(#linear-gradient-22);}.cls-30{fill:url(#linear-gradient-23);}.cls-31{fill:url(#linear-gradient-24);}.cls-32{fill:url(#linear-gradient-25);}.cls-33{fill:url(#linear-gradient-26);}.cls-34{fill:url(#linear-gradient-27);}.cls-35{fill:url(#linear-gradient-28);}.cls-36{fill:url(#linear-gradient-29);}.cls-37,.cls-81{mix-blend-mode:soft-light;}.cls-37{opacity:0.7;}.cls-38{fill:url(#linear-gradient-30);}.cls-39{fill:url(#linear-gradient-31);}.cls-40{fill:url(#linear-gradient-32);}.cls-41{fill:url(#linear-gradient-33);}.cls-42{fill:url(#linear-gradient-34);}.cls-43{fill:url(#linear-gradient-35);}.cls-44{fill:url(#linear-gradient-36);}.cls-45{fill:url(#linear-gradient-37);}.cls-46{fill:url(#linear-gradient-38);}.cls-47{fill:url(#linear-gradient-39);}.cls-48{fill:url(#linear-gradient-40);}.cls-49{fill:url(#linear-gradient-41);}.cls-50{fill:url(#linear-gradient-42);}.cls-51{fill:url(#linear-gradient-43);}.cls-52{fill:url(#linear-gradient-44);}.cls-53{fill:url(#linear-gradient-45);}.cls-54{fill:url(#linear-gradient-46);}.cls-55{fill:url(#linear-gradient-47);}.cls-56{fill:url(#linear-gradient-48);}.cls-57{fill:url(#linear-gradient-49);}.cls-58{fill:url(#linear-gradient-50);}.cls-59{fill:url(#linear-gradient-51);}.cls-60{fill:url(#linear-gradient-52);}.cls-61{fill:url(#linear-gradient-53);}.cls-62{fill:url(#linear-gradient-54);}.cls-63{fill:url(#linear-gradient-55);}.cls-64{fill:url(#linear-gradient-56);}.cls-65{fill:url(#linear-gradient-57);}.cls-66{fill:url(#linear-gradient-58);}.cls-67{fill:url(#linear-gradient-59);}.cls-68{fill:url(#linear-gradient-60);}.cls-69{fill:url(#linear-gradient-61);}.cls-70{fill:url(#linear-gradient-62);}.cls-71{fill:url(#linear-gradient-63);}.cls-72{fill:url(#linear-gradient-64);}.cls-73{fill:url(#linear-gradient-65);}.cls-74{fill:url(#linear-gradient-66);}.cls-75{fill:url(#linear-gradient-67);}.cls-76{fill:url(#linear-gradient-68);}.cls-77{fill:url(#linear-gradient-69);}.cls-78{fill:url(#radial-gradient);}.cls-79{fill:url(#linear-gradient-70);}.cls-80{fill:url(#linear-gradient-71);}.cls-82{fill:url(#linear-gradient-72);}.cls-83{fill:url(#linear-gradient-73);}.cls-84{fill:url(#linear-gradient-74);}.cls-85{fill:url(#linear-gradient-75);}.cls-86{fill:url(#linear-gradient-76);}.cls-87{opacity:0.26;fill:url(#linear-gradient-77);}.cls-88{fill:url(#linear-gradient-78);}.cls-89{fill:url(#linear-gradient-79);}.cls-90{fill:url(#linear-gradient-80);}.cls-91{fill:url(#linear-gradient-81);}.cls-92{fill:url(#linear-gradient-82);}.cls-93{fill:url(#linear-gradient-83);}.cls-94{fill:url(#linear-gradient-84);}.cls-95{fill:url(#linear-gradient-85);}.cls-96{fill:url(#linear-gradient-86);}</style><linearGradient id="linear-gradient" x1="3558.36989" y1="3389.49195" x2="1226.65377" y2="872.71877" gradientUnits="userSpaceOnUse"><stop offset="0" stop-color="#b37cff"/><stop offset="1" stop-color="#f895e7"/></linearGradient><linearGradient id="linear-gradient-2" x1="1606.1147" y1="2024.14959" x2="2209.625" y2="2024.14959" gradientTransform="matrix(-1, 0, 0, 1, 2599.1294, 0)" xlink:href="#linear-gradient"/><linearGradient id="linear-gradient-3" x1="3877.62048" y1="1901.2695" x2="4033.98108" y2="310.46892" gradientTransform="translate(-2900.48687 2880.48885) rotate(-38.71529)" gradientUnits="userSpaceOnUse"><stop offset="0" stop-color="#b37cff"/><stop offset="0.77172" stop-color="#e88fec"/><stop offset="1" stop-color="#f895e7"/></linearGradient><linearGradient id="linear-gradient-4" x1="4101.9376" y1="1597.51774" x2="4247.17525" y2="119.88126" gradientTransform="translate(-2950.22898 2653.83879) rotate(-29.9595)" xlink:href="#linear-gradient-3"/><linearGradient id="linear-gradient-5" x1="3943.75493" y1="1745.97617" x2="4037.43499" y2="792.88249" xlink:href="#linear-gradient-3"/><linearGradient id="linear-gradient-6" x1="1917.60674" y1="967.11659" x2="567.25595" y2="2439.00107" gradientUnits="userSpaceOnUse"><stop offset="0" stop-color="#a737d5"/><stop offset="1" stop-color="#ef497a"/></linearGradient><linearGradient id="linear-gradient-7" x1="625.79436" y1="-1666.00876" x2="1782.92903" y2="-1666.00876" gradientTransform="translate(759.42677 58.55927) rotate(79.58343)" xlink:href="#linear-gradient"/><linearGradient id="linear-gradient-8" x1="2109.74797" y1="1644.71205" x2="6163.11613" y2="4425.80927" gradientUnits="userSpaceOnUse"><stop offset="0" stop-color="#2b3582"/><stop offset="1" stop-color="#150e42"/></linearGradient><linearGradient id="linear-gradient-9" x1="2248.51519" y1="2685.85623" x2="548.14639" y2="-2434.86058" gradientUnits="userSpaceOnUse"><stop offset="0" stop-color="#53d8ff"/><stop offset="1" stop-color="#3840f7"/></linearGradient><linearGradient id="linear-gradient-10" x1="1814.10477" y1="-108.26631" x2="1807.69341" y2="282.82269" gradientUnits="userSpaceOnUse"><stop offset="0" stop-color="#8d55d1"/><stop offset="0.99638" stop-color="#1c2873"/></linearGradient><linearGradient id="linear-gradient-11" x1="1272.3558" y1="193.86274" x2="1255.33338" y2="1123.24803" gradientUnits="userSpaceOnUse"><stop offset="0" stop-color="#c32b78"/><stop offset="1" stop-color="#593092"/></linearGradient><linearGradient id="linear-gradient-12" x1="843.53303" y1="186.01004" x2="826.51068" y2="1115.39138" xlink:href="#linear-gradient-11"/><linearGradient id="linear-gradient-13" x1="1356.258" y1="687.95335" x2="1608.4155" y2="687.95335" gradientTransform="translate(920.62284 -846.67348) rotate(45)" gradientUnits="userSpaceOnUse"><stop offset="0" stop-color="#cb236d"/><stop offset="1" stop-color="#4c246d"/></linearGradient><linearGradient id="linear-gradient-14" x1="1356.02795" y1="818.70355" x2="1608.42838" y2="818.70355" gradientTransform="matrix(1, 0, 0, 1, 0, 0)" xlink:href="#linear-gradient-13"/><linearGradient id="linear-gradient-15" x1="1727.27935" y1="491.808" x2="884.03977" y2="1166.77849" gradientUnits="userSpaceOnUse"><stop offset="0" stop-color="#fdf53f"/><stop offset="1" stop-color="#d93c65"/></linearGradient><linearGradient id="linear-gradient-16" x1="1672.3798" y1="2047.99975" x2="1924.5373" y2="2047.99975" gradientTransform="translate(1974.91082 -671.85702) rotate(45)" xlink:href="#linear-gradient-13"/><linearGradient id="linear-gradient-17" x1="1672.14975" y1="2178.74995" x2="1924.55027" y2="2178.74995" gradientTransform="matrix(1, 0, 0, 1, 0, 0)" xlink:href="#linear-gradient-13"/><linearGradient id="linear-gradient-18" x1="2043.40105" y1="1851.85452" x2="1200.16188" y2="2526.82468" xlink:href="#linear-gradient-15"/><linearGradient id="linear-gradient-19" x1="-180.94689" y1="2449.47186" x2="-171.65524" y2="2561.85671" gradientTransform="matrix(-1, 0, 0, 1, 1068.7026, 0)" xlink:href="#linear-gradient-8"/><linearGradient id="linear-gradient-20" x1="-196.9537" y1="2455.4934" x2="-180.7911" y2="2455.4934" gradientTransform="matrix(-1, 0, 0, 1, 1068.7026, 0)" xlink:href="#linear-gradient-8"/><linearGradient id="linear-gradient-21" x1="-196.9537" y1="2556.07685" x2="-180.7911" y2="2556.07685" gradientTransform="matrix(-1, 0, 0, 1, 1068.7026, 0)" xlink:href="#linear-gradient-8"/><linearGradient id="linear-gradient-22" x1="-509.0407" y1="2764.6635" x2="-453.8913" y2="2764.6635" gradientTransform="matrix(-1, 0, 0, 1, 1068.7026, 0)" gradientUnits="userSpaceOnUse"><stop offset="0" stop-color="#7a2ddb"/><stop offset="1" stop-color="#7077ff"/></linearGradient><linearGradient id="linear-gradient-23" x1="-501.1368" y1="2764.6635" x2="-461.7952" y2="2764.6635" gradientTransform="matrix(-1, 0, 0, 1, 1068.7026, 0)" xlink:href="#linear-gradient-8"/><linearGradient id="linear-gradient-24" x1="-302.2609" y1="2764.6635" x2="-247.1114" y2="2764.6635" xlink:href="#linear-gradient-22"/><linearGradient id="linear-gradient-25" x1="-294.357" y1="2764.6635" x2="-255.0153" y2="2764.6635" gradientTransform="matrix(-1, 0, 0, 1, 1068.7026, 0)" xlink:href="#linear-gradient-8"/><linearGradient id="linear-gradient-26" x1="-492.20308" y1="2399.53534" x2="-546.21697" y2="2977.93469" xlink:href="#linear-gradient-22"/><linearGradient id="linear-gradient-27" x1="-308.17204" y1="2416.72067" x2="-362.18593" y2="2995.12002" xlink:href="#linear-gradient-22"/><linearGradient id="linear-gradient-28" x1="1951.88506" y1="1681.59081" x2="1136.65051" y2="3008.24495" gradientTransform="matrix(1, 0, 0, 1, 0, 0)" xlink:href="#linear-gradient-22"/><linearGradient id="linear-gradient-29" x1="1146.43603" y1="2989.40283" x2="1574.04865" y2="2298.47209" gradientTransform="matrix(1, 0, 0, 1, 0, 0)" xlink:href="#linear-gradient-22"/><linearGradient id="linear-gradient-30" x1="1471.35195" y1="1327.63898" x2="1440.96991" y2="2213.76249" gradientTransform="matrix(1, 0, 0, 1, 0, 0)" xlink:href="#linear-gradient-22"/><linearGradient id="linear-gradient-31" x1="3181.9454" y1="2769.68249" x2="3368.28691" y2="2769.68249" gradientTransform="translate(-2209.0936)" xlink:href="#linear-gradient-8"/><linearGradient id="linear-gradient-32" x1="1181.47083" y1="2526.10812" x2="928.29269" y2="3002.08256" gradientTransform="matrix(1, 0, 0, 1, 0, 0)" xlink:href="#linear-gradient-13"/><linearGradient id="linear-gradient-33" x1="3199.1492" y1="2682.17465" x2="3251.6377" y2="2682.17465" gradientTransform="translate(-2209.0936)" gradientUnits="userSpaceOnUse"><stop offset="0" stop-color="#f9b776"/><stop offset="1" stop-color="#f47960"/></linearGradient><linearGradient id="linear-gradient-34" x1="2810.45806" y1="2765.66406" x2="2881.8671" y2="2765.66406" gradientTransform="translate(-2209.0936)" xlink:href="#linear-gradient-8"/><linearGradient id="linear-gradient-35" x1="2810.9774" y1="2710.68112" x2="2915.79218" y2="2710.68112" gradientTransform="translate(-2209.0936)" xlink:href="#linear-gradient-11"/><linearGradient id="linear-gradient-36" x1="2865.45825" y1="2638.41801" x2="2928.1877" y2="2638.41801" xlink:href="#linear-gradient-33"/><linearGradient id="linear-gradient-37" x1="1324.44387" y1="1863.09912" x2="772.51659" y2="2551.74352" gradientTransform="matrix(1, 0, 0, 1, 0, 0)" xlink:href="#linear-gradient-13"/><linearGradient id="linear-gradient-38" x1="1158.98244" y1="1537.54761" x2="308.30243" y2="2621.15075" gradientUnits="userSpaceOnUse"><stop offset="0" stop-color="#fdf53f"/><stop offset="0.42543" stop-color="#e57a58"/><stop offset="1" stop-color="#d93c65"/></linearGradient><linearGradient id="linear-gradient-39" x1="3076.84726" y1="2406.11315" x2="3106.90552" y2="2345.99676" gradientTransform="translate(-2209.0936)" xlink:href="#linear-gradient-8"/><linearGradient id="linear-gradient-40" x1="3152.84938" y1="1724.05952" x2="2929.54367" y2="1921.80166" xlink:href="#linear-gradient-33"/><linearGradient id="linear-gradient-41" x1="1015.10813" y1="1424.60011" x2="164.43058" y2="2508.20011" xlink:href="#linear-gradient-38"/><linearGradient id="linear-gradient-42" x1="1320.05192" y1="1663.99508" x2="469.3737" y2="2747.59593" xlink:href="#linear-gradient-38"/><linearGradient id="linear-gradient-43" x1="3571.4607" y1="1742.76383" x2="3747.3223" y2="1742.76383" xlink:href="#linear-gradient-33"/><linearGradient id="linear-gradient-44" x1="3401.08318" y1="1176.26881" x2="3399.16242" y2="1504.67817" xlink:href="#linear-gradient-33"/><linearGradient id="linear-gradient-45" x1="2911.71216" y1="1871.58982" x2="3832.6235" y2="1871.58982" gradientTransform="translate(-2209.0936)" xlink:href="#linear-gradient-8"/><linearGradient id="linear-gradient-46" x1="-2204.37729" y1="1093.89571" x2="-3097.66753" y2="2600.89524" gradientTransform="matrix(-1, 0, 0, 1, -427.8032, 0)" xlink:href="#linear-gradient-8"/><linearGradient id="linear-gradient-47" x1="3287.32051" y1="1782.65462" x2="3064.01597" y2="1980.39574" xlink:href="#linear-gradient-33"/><linearGradient id="linear-gradient-48" x1="3728.63891" y1="1722.10982" x2="3791.6164" y2="1722.10982" xlink:href="#linear-gradient-33"/><linearGradient id="linear-gradient-49" x1="-4033.82708" y1="-429.30033" x2="-4149.85346" y2="-16.2743" gradientTransform="matrix(-0.8909, -0.4541, -0.4541, 0.8909, -2524.85377, -231.30156)" xlink:href="#linear-gradient-33"/><linearGradient id="linear-gradient-50" x1="-4115.5393" y1="-541.50747" x2="-3836.12556" y2="-181.76289" gradientTransform="matrix(-0.8909, -0.4541, -0.4541, 0.8909, -2524.85377, -231.30156)" xlink:href="#linear-gradient-8"/><linearGradient id="linear-gradient-51" x1="-3980.8912" y1="-413.99771" x2="-4096.90552" y2="-1.01462" gradientTransform="matrix(-0.8909, -0.4541, -0.4541, 0.8909, -2524.85377, -231.30156)" xlink:href="#linear-gradient-33"/><linearGradient id="linear-gradient-52" x1="1980.5389" y1="805.83135" x2="2391.5087" y2="805.83135" gradientTransform="translate(1210.08034 -1309.72972) rotate(45)" xlink:href="#linear-gradient-13"/><linearGradient id="linear-gradient-53" x1="1980.16395" y1="1018.92986" x2="2391.52983" y2="1018.92986" gradientTransform="matrix(1, 0, 0, 1, 0, 0)" xlink:href="#linear-gradient-13"/><linearGradient id="linear-gradient-54" x1="2585.23453" y1="486.15107" x2="1210.91144" y2="1586.22695" xlink:href="#linear-gradient-15"/><linearGradient id="linear-gradient-55" x1="3707.58494" y1="2103.846" x2="3885.61401" y2="2508.90227" gradientTransform="translate(-1770.71951 518.57251) rotate(-18.33711)" xlink:href="#linear-gradient-33"/><linearGradient id="linear-gradient-56" x1="3672.39879" y1="2119.31184" x2="3850.4281" y2="2524.36865" gradientTransform="translate(-1770.71951 518.57251) rotate(-18.33711)" xlink:href="#linear-gradient-33"/><linearGradient id="linear-gradient-57" x1="3590.23977" y1="1971.20468" x2="3627.03188" y2="1971.20468" gradientTransform="translate(-1770.71951 518.57251) rotate(-18.33711)" xlink:href="#linear-gradient-33"/><linearGradient id="linear-gradient-58" x1="2943.43922" y1="1840.43804" x2="2577.1584" y2="1209.15204" xlink:href="#linear-gradient-11"/><linearGradient id="linear-gradient-59" x1="7007.15383" y1="2433.05241" x2="7092.65833" y2="2433.05241" gradientTransform="translate(-3944.08247 146.5182) rotate(1.32356)" xlink:href="#linear-gradient-6"/><linearGradient id="linear-gradient-60" x1="6645.85286" y1="2770.23662" x2="6768.89959" y2="1332.12732" gradientTransform="translate(-3944.08247 146.5182) rotate(1.32356)" xlink:href="#linear-gradient-33"/><linearGradient id="linear-gradient-61" x1="6609.90885" y1="2417.44406" x2="6748.26127" y2="2417.44406" gradientTransform="translate(-3944.08247 146.5182) rotate(1.32356)" xlink:href="#linear-gradient-6"/><linearGradient id="linear-gradient-62" x1="6893.36929" y1="2791.63137" x2="7016.44801" y2="1353.14832" gradientTransform="translate(-3944.08247 146.5182) rotate(1.32356)" xlink:href="#linear-gradient-33"/><linearGradient id="linear-gradient-63" x1="2659.48861" y1="1528.82361" x2="2990.3249" y2="3243.76918" xlink:href="#linear-gradient-38"/><linearGradient id="linear-gradient-64" x1="2639.78272" y1="1532.62527" x2="2970.61944" y2="3247.57305" xlink:href="#linear-gradient-38"/><linearGradient id="linear-gradient-65" x1="6634.53928" y1="1268.57613" x2="6619.68557" y2="974.20031" gradientTransform="translate(-3944.08247 146.5182) rotate(1.32356)" xlink:href="#linear-gradient-33"/><linearGradient id="linear-gradient-66" x1="6516.13662" y1="1295.53135" x2="6714.07243" y2="1429.9782" gradientTransform="translate(-3814.80324 -486.41852) rotate(4.55427)" xlink:href="#linear-gradient-33"/><linearGradient id="linear-gradient-67" x1="6528.00133" y1="1278.06277" x2="6725.9364" y2="1412.50912" gradientTransform="translate(-3814.80324 -486.41852) rotate(4.55427)" xlink:href="#linear-gradient-33"/><linearGradient id="linear-gradient-68" x1="2986.77749" y1="1815.29174" x2="2620.49509" y2="1184.00303" xlink:href="#linear-gradient-11"/><linearGradient id="linear-gradient-69" x1="599.52728" y1="1188.69609" x2="914.46567" y2="1512.27964" gradientTransform="matrix(-0.9525, -0.3044, -0.3044, 0.9525, 3737.08189, 268.72081)" xlink:href="#linear-gradient-11"/><radialGradient id="radial-gradient" cx="1979.14235" cy="1592.36052" r="261.24674" gradientTransform="matrix(-0.00002, -1.00002, -1.00002, 0.00002, 4364.17968, 3276.85588)" gradientUnits="userSpaceOnUse"><stop offset="0" stop-color="#d93c65"/><stop offset="1" stop-color="#fdf53f"/><stop offset="1" stop-color="#fbe941"/></radialGradient><linearGradient id="linear-gradient-70" x1="1853.63757" y1="1601.67534" x2="2073.25562" y2="1601.67534" gradientTransform="matrix(-0.878, -0.4787, -0.4787, 0.878, 5231.19715, 785.50781)" xlink:href="#linear-gradient-15"/><linearGradient id="linear-gradient-71" x1="1849.33361" y1="1640.48943" x2="2076.96839" y2="1640.48943" gradientTransform="matrix(-0.878, -0.4787, -0.4787, 0.878, 5231.19715, 785.50781)" gradientUnits="userSpaceOnUse"><stop offset="0" stop-color="#c4421b"/><stop offset="1" stop-color="#5c0e16"/></linearGradient><linearGradient id="linear-gradient-72" x1="2675.24856" y1="1563.22366" x2="2678.62419" y2="2096.61263" xlink:href="#linear-gradient-38"/><linearGradient id="linear-gradient-73" x1="-2173.27368" y1="2162.71656" x2="-2060.87984" y2="2081.83049" gradientTransform="matrix(-0.9985, 0.0547, 0.0547, 0.9985, 692.63641, 46.46744)" xlink:href="#linear-gradient-8"/><linearGradient id="linear-gradient-74" x1="-2665.19436" y1="2284.82726" x2="-2636.85616" y2="2264.43321" gradientTransform="matrix(-0.9919, 0.1273, 0.1273, 0.9919, 66.0025, 142.61817)" xlink:href="#linear-gradient-8"/><linearGradient id="linear-gradient-75" x1="-2544.60766" y1="2286.23471" x2="-2512.48058" y2="2263.11393" gradientTransform="matrix(-0.9919, 0.1273, 0.1273, 0.9919, 66.0025, 142.61817)" xlink:href="#linear-gradient-8"/><linearGradient id="linear-gradient-76" x1="3095.49804" y1="1933.1287" x2="2825.42883" y2="2454.69967" gradientTransform="translate(306.17305 -357.35108) rotate(7.31386)" xlink:href="#linear-gradient-22"/><linearGradient id="linear-gradient-77" x1="-2480.81084" y1="2277.69942" x2="-3003.47216" y2="2940.74928" gradientTransform="matrix(-0.9919, 0.1273, 0.1273, 0.9919, 66.0025, 142.61817)" xlink:href="#linear-gradient"/><linearGradient id="linear-gradient-78" x1="-2855.53632" y1="2516.28502" x2="-2139.59058" y2="2001.04287" gradientTransform="matrix(-0.9919, 0.1273, 0.1273, 0.9919, 66.0025, 142.61817)" xlink:href="#linear-gradient-22"/><linearGradient id="linear-gradient-79" x1="-2286.37743" y1="2218.16261" x2="-2229.30806" y2="2177.0917" gradientTransform="matrix(-0.9985, 0.0547, 0.0547, 0.9985, 692.63641, 46.46744)" xlink:href="#linear-gradient-8"/><linearGradient id="linear-gradient-80" x1="-2743.46387" y1="2365.09004" x2="-2727.26411" y2="2353.43162" gradientTransform="matrix(-1.00004, -0.00012, -0.00012, 1.00004, 344.35695, -225.1049)" xlink:href="#linear-gradient-8"/><linearGradient id="linear-gradient-81" x1="-2725.49046" y1="2365.09022" x2="-2709.29067" y2="2353.43178" gradientTransform="matrix(-1.00004, -0.00015, -0.00015, 1.00004, 344.57311, -222.89531)" xlink:href="#linear-gradient-8"/><linearGradient id="linear-gradient-82" x1="-2598.71822" y1="2518.10778" x2="-1869.95316" y2="1993.64" gradientTransform="matrix(-0.9919, 0.1273, 0.1273, 0.9919, 66.0025, 142.61817)" xlink:href="#linear-gradient-22"/><linearGradient id="linear-gradient-83" x1="-2026.02471" y1="2236.58036" x2="-1970.45495" y2="2196.58866" gradientTransform="matrix(-0.9985, 0.0547, 0.0547, 0.9985, 692.63641, 46.46744)" xlink:href="#linear-gradient-8"/><linearGradient id="linear-gradient-84" x1="-2484.64665" y1="2365.09242" x2="-2468.44689" y2="2353.434" gradientTransform="matrix(-1.00004, -0.00012, -0.00012, 1.00004, 346.46284, -192.12743)" xlink:href="#linear-gradient-8"/><linearGradient id="linear-gradient-85" x1="-2463.07856" y1="2365.09263" x2="-2446.87877" y2="2353.43418" gradientTransform="matrix(-1.00004, -0.00012, -0.00012, 1.00004, 346.63833, -189.37931)" xlink:href="#linear-gradient-8"/><linearGradient id="linear-gradient-86" x1="6831.09263" y1="1551.6376" x2="6786.17687" y2="1089.64935" gradientTransform="translate(-3944.08247 146.5182) rotate(1.32356)" xlink:href="#linear-gradient-33"/></defs><g class="cls-1"><g id="Capa_2" data-name="Capa 2"><g id="Illustration"><path class="cls-2" d="M3408.9451,1883.963c-360.45224,655.8045-1311.93011,937.4882-2057.42741,889.4606-203.55133-13.1133-613.10044-39.4983-932.88045-274.8869C-195.47745,2046.4875-100.898,1101.579,486.986,545.269,562.69329,473.628,1086.72805-6.3607,1903.33811.0639c597.8775,4.7042,1017.522,267.5918,1068.549,300.3427,64.46087,41.373,206.63589,139.6886,334.7698,295.6598C3607.72661,962.5445,3634.19155,1474.1504,3408.9451,1883.963Z"/><path class="cls-3" d="M413.2866,1482.6156c.1678-7.5913,7.4924-13.7,16.4691-13.7h544.498c9.0979,0,18.761,6.2968,18.761,13.9918V2557.7649c0,5.7436-3.8468,11.2514-8.6549,15.3073-4.8083,4.0559-11.8992,6.3262-18.6903,6.3113l-550.4617-1.2713a28.42088,28.42088,0,0,1-18.3388-6.497,20.08226,20.08226,0,0,1-7.3602-15.5426Z"/><g class="cls-4"><polygon class="cls-5" points="725.985 1545.088 904.102 1544.567 904.036 1525.717 726.117 1526.193 725.985 1545.088"/><polygon class="cls-5" points="725.496 1614.521 904.347 1613.831 904.279 1594.825 725.63 1595.469 725.496 1614.521"/><polygon class="cls-5" points="725.004 1684.526 904.593 1683.665 904.525 1664.503 725.139 1665.318 725.004 1684.526"/><polygon class="cls-5" points="724.507 1755.115 904.841 1754.078 904.772 1734.757 724.643 1735.746 724.507 1755.115"/><polygon class="cls-5" points="724.007 1826.29 905.091 1825.076 905.022 1805.594 724.144 1806.76 724.007 1826.29"/><polygon class="cls-5" points="722.993 1970.435 905.597 1968.858 905.528 1949.048 723.132 1950.575 722.993 1970.435"/><polygon class="cls-5" points="721.44 2191.254 906.373 2189.108 906.302 2168.791 721.583 2170.883 721.44 2191.254"/><polygon class="cls-5" points="723.502 1898.061 905.343 1896.667 905.273 1877.022 723.64 1878.367 723.502 1898.061"/><polygon class="cls-5" points="722.48 2043.421 905.854 2041.657 905.783 2021.68 722.62 2023.393 722.48 2043.421"/><polygon class="cls-5" points="721.962 2117.024 906.113 2115.071 906.042 2094.925 722.104 2096.826 721.962 2117.024"/><polygon class="cls-5" points="720.913 2266.118 906.637 2263.776 906.565 2243.286 721.058 2245.573 720.913 2266.118"/><polygon class="cls-5" points="720.383 2341.624 906.902 2339.083 906.829 2318.417 720.528 2320.903 720.383 2341.624"/><polygon class="cls-5" points="719.846 2417.783 907.169 2415.04 907.097 2394.196 719.994 2396.883 719.846 2417.783"/><polygon class="cls-5" points="719.306 2494.599 907.439 2491.651 907.366 2470.626 719.455 2473.519 719.306 2494.599"/><polygon class="cls-5" points="492.458 1545.772 671.694 1545.248 671.888 1526.338 492.854 1526.816 492.458 1545.772"/><polygon class="cls-5" points="491.005 1615.426 670.981 1614.732 671.177 1595.665 491.403 1596.313 491.005 1615.426"/><polygon class="cls-5" points="489.538 1685.657 670.264 1684.789 670.46 1665.566 489.941 1666.385 489.538 1685.657"/><polygon class="cls-5" points="488.06 1756.474 669.539 1755.431 669.738 1736.047 488.466 1737.042 488.06 1756.474"/><polygon class="cls-5" points="486.57 1827.882 668.809 1826.66 669.009 1807.115 486.979 1808.287 486.57 1827.882"/><polygon class="cls-5" points="483.551 1972.504 667.33 1970.916 667.534 1951.04 483.967 1952.577 483.551 1972.504"/><polygon class="cls-5" points="478.926 2194.067 665.065 2191.908 665.274 2171.521 479.353 2173.628 478.926 2194.067"/><polygon class="cls-5" points="485.067 1899.889 668.073 1898.486 668.275 1878.777 485.479 1880.129 485.067 1899.889"/><polygon class="cls-5" points="482.023 2045.734 666.582 2043.958 666.787 2023.915 482.442 2025.639 482.023 2045.734"/><polygon class="cls-5" points="480.481 2119.585 665.827 2117.62 666.034 2097.406 480.904 2099.319 480.481 2119.585"/><polygon class="cls-5" points="477.359 2269.188 664.297 2266.831 664.508 2246.27 477.789 2248.573 477.359 2269.188"/><polygon class="cls-5" points="475.777 2344.956 663.522 2342.399 663.735 2321.66 476.211 2324.163 475.777 2344.956"/><polygon class="cls-5" points="474.182 2421.38 662.741 2418.619 662.955 2397.702 474.62 2400.407 474.182 2421.38"/><polygon class="cls-5" points="472.573 2498.467 661.953 2495.499 662.17 2474.4 473.015 2477.311 472.573 2498.467"/></g><g class="cls-6"><path class="cls-7" d="M1482.2278,1906.0056S787.7603,1604.6372,491.1657,945.4473c-257.8781-573.1428,128.5866-649.8831,82.1837-319.936-13.6782,97.2591-67.2557,216.9706-36.7138,302.0885C674.2982,1311.2543,1028.5199,1647.1614,1482.2278,1906.0056Z"/><path class="cls-8" d="M1567.9111,1979.8513S981.4709,1586.3,773.2465,957.3081C592.2022,410.4216,938.012,417.0379,870.9563,694.9149c-19.7665,81.9109-76.3911,175.7622-56.3214,255.5094C905.0955,1309.8734,1189.7117,1668.9074,1567.9111,1979.8513Z"/><path class="cls-9" d="M1369.2222,1756.6298s-416.0754-180.5583-593.7734-575.4977c-154.5019-343.3862,77.0401-389.3633,49.2385-191.683-8.195,58.2708-40.2944,129.9934-21.996,180.9896C885.1685,1400.2973,1097.3929,1601.5493,1369.2222,1756.6298Z"/></g><path class="cls-10" d="M713.6937,1266.8089c.2792-14.927,12.3753-27.2102,27.203-27.2102H1301.34c15.0261,0,29.7833,12.9242,29.7833,28.0545V2619.9873c0,7.2788-4.165,14.2586-9.2828,19.3988a28.628,28.628,0,0,1-19.9308,7.997l-585.9743-1.6106a27.48346,27.48346,0,0,1-19.5304-8.2336,27.95443,27.95443,0,0,1-7.8385-19.8411Z"/><g class="cls-6"><polygon class="cls-11" points="1126.431 1398.955 1286.089 1398.739 1287.356 1316.337 1127.542 1316.337 1126.431 1398.955"/><polygon class="cls-11" points="947.472 1398.914 1106.97 1398.698 1108.063 1316.337 948.41 1316.337 947.472 1398.914"/><polygon class="cls-11" points="768.694 1398.872 928.031 1398.656 928.95 1316.337 769.458 1316.337 768.694 1398.872"/><polygon class="cls-11" points="1124.436 1546.863 1283.815 1546.966 1285.078 1465.102 1125.543 1465.036 1124.436 1546.863"/><polygon class="cls-11" points="945.789 1546.748 1105.009 1546.851 1106.098 1465.028 946.723 1464.961 945.789 1546.748"/><polygon class="cls-11" points="767.321 1546.633 926.381 1546.735 927.297 1464.953 768.083 1464.887 767.321 1546.633"/><polygon class="cls-11" points="1122.447 1693.755 1281.55 1693.923 1282.808 1612.343 1123.551 1612.211 1122.447 1693.755"/><polygon class="cls-11" points="944.111 1693.566 1103.054 1693.734 1104.139 1612.195 945.042 1612.064 944.111 1693.566"/><polygon class="cls-11" points="765.954 1693.377 924.738 1693.546 925.65 1612.047 766.713 1611.916 765.954 1693.377"/><polygon class="cls-11" points="1120.466 1840.138 1279.292 1840.372 1280.545 1759.074 1121.566 1758.877 1120.466 1840.138"/><polygon class="cls-11" points="942.439 1839.877 1101.107 1840.109 1102.188 1758.853 943.367 1758.656 942.439 1839.877"/><polygon class="cls-11" points="764.591 1839.616 923.099 1839.848 924.009 1758.632 765.347 1758.435 764.591 1839.616"/><polygon class="cls-11" points="1118.491 1986.016 1277.042 1986.314 1278.291 1905.297 1119.588 1905.035 1118.491 1986.016"/><polygon class="cls-11" points="940.773 1985.682 1099.165 1985.979 1100.243 1905.003 941.698 1904.741 940.773 1985.682"/><polygon class="cls-11" points="763.232 1985.348 921.467 1985.645 922.373 1904.709 763.986 1904.448 763.232 1985.348"/><polygon class="cls-11" points="1116.524 2131.39 1274.8 2131.752 1276.045 2051.015 1117.616 2050.688 1116.524 2131.39"/><polygon class="cls-11" points="939.113 2130.984 1097.231 2131.346 1098.305 2050.649 940.034 2050.322 939.113 2130.984"/><polygon class="cls-11" points="761.879 2130.579 919.839 2130.94 920.743 2050.283 762.63 2049.957 761.879 2130.579"/><polygon class="cls-11" points="1114.562 2276.264 1272.565 2276.689 1273.806 2196.23 1115.651 2195.84 1114.562 2276.264"/><polygon class="cls-11" points="937.458 2275.786 1095.303 2276.212 1096.373 2195.792 938.377 2195.402 937.458 2275.786"/><polygon class="cls-11" points="760.529 2275.31 918.218 2275.734 919.118 2195.355 761.278 2194.965 760.529 2275.31"/><polygon class="cls-11" points="1112.608 2420.639 1270.338 2421.128 1271.575 2340.945 1113.693 2340.491 1112.608 2420.639"/><polygon class="cls-11" points="935.809 2420.091 1093.383 2420.579 1094.449 2340.436 936.724 2339.983 935.809 2420.091"/><polygon class="cls-11" points="759.185 2419.544 916.602 2420.031 917.499 2339.928 759.932 2339.475 759.185 2419.544"/><polygon class="cls-11" points="1110.66 2564.519 1268.119 2565.071 1269.351 2485.164 1111.742 2484.646 1110.66 2564.519"/><polygon class="cls-11" points="934.165 2563.9 1091.468 2564.451 1092.531 2484.583 935.078 2484.067 934.165 2563.9"/><polygon class="cls-11" points="757.845 2563.283 914.992 2563.833 915.886 2484.004 758.589 2483.488 757.845 2563.283"/></g><path class="cls-12" d="M2823.4802,768.1525c48.2515-46.9224,242.2525,39.3556,323.3113-78.255l-33.8827-139.9866s-140.2083,112.9184-220.046,111.5751c-79.8377-1.3429-61.0923-49.4678-16.8819-69.7482,44.2082-20.2801,184.5854-24.1772,212.4355-77.3312,0,0,21.7473-42.2651-37.6096-59.2721-59.3567-17.0056-85.6905-121.9701-74.3726-167.8666,0,0-22.4414,16.3269-90.5753,29.3221-68.1344,12.9949-137.6416,21.1995-130.7503,83.451,6.8894,62.2509,47.0048,137.2491,14.31,157.7128-32.6956,20.4619-134.2095-100.8161-65.2082-204.5965,0,0-109.9416,12.406-131.6755,39.2699-21.7342,26.8627-17.8067,94.9338,51.2259,159.7959,69.0343,64.8613,81.2295,115.2448,56.7078,130.5921-24.5214,15.3472-196.5184-202.7043-134.6071-283.9319,0,0-179.289,101.7965-192.6701,124.2844-13.3813,22.4865,54.73,122.4186,118.7047,166.3751,63.9726,43.9578,82.2416,119.4359,70.0306,146.7569-12.2115,27.3211-52.9486-63.2136-91.1931-91.6046-38.2446-28.3915-133.0725-199.8197-133.0725-199.8197s.4254,27.6865-54.9617,71.054c-55.388,43.3654-121.2489,147.1525-88.9323,176.9786,32.3184,29.8258,212.8456,140.5434,253.7878,193.0392,40.9421,52.4953,62.6636,103.3516,25.4425,92.1476-37.2235-11.2036-91.0889-78.2072-143.8756-114.8243-52.7841-36.6176-200.1215-113.9004-198.3101-158.2623,0,0-114.1686,150.4864-26.6331,304.7428,0,0,85.3273,41.4435,174.1888,32.6858,88.8636-8.7586,126.58-8.4756,139.6817,19.7271,13.0999,28.203-48.3251,33.6584-103.8242,37.6795-55.4988,4.0206-184.3707,15.987-213.6803-14.366,0,0,145.3149,224.472,313.1109,152.9628,157.362-67.0621,164.5902-93.1827,164.8824-96.1715-.287,11.184-6.0629,349.5328,353.0812,227.0483,0,0-89.7644,5.0284-118.2852-47.9935-28.5208-53.0214-122.3721-103.7643-87.6414-128.7762,34.7312-25.0116,137.8736,167.8089,228.7874,154.5621,90.9141-13.2477,174.2444-126.1049,148.5305-224.1299,0,0-68.542,49.0852-155.0391,15.7674-86.497-33.3177-194.0375-101.7225-123.2311-120.2727s278.464,108.7711,334.1109,81.8073c55.6443-26.9637,45.81-244.1964,45.81-244.1964s-28.0339,16.1972-136.048,32.9292c-108.0164,16.7324-234.2908,13.5038-218.6495-12.6035,15.6441-26.1069,97.9172-18.1861,171.7241-13.888,73.8064,4.2977,163.7138-29.2941,167.991-68.3371,4.2778-39.0421-12.3702-160.8362-12.3702-160.8362s-133.9765,48.9116-192.4646,76.9526C2906.3534,838.3431,2775.2287,815.0744,2823.4802,768.1525Zm-156.091,391.4812c-87.7978-13.3446-25.5199-55.2149,22.6331-74.414C2726.5766,1070.6461,2755.1854,1172.98,2667.3892,1159.6337Zm58.8459-158.1163c-58.2859-7.4948-70.0502-35.5639-41.4171-51.2593C2750.611,914.1951,2784.5214,1009.0117,2726.2351,1001.5174Zm42.5611-174.1322c-31.8661-2.0285-43.4755-11.1087-22.3734-40.5818C2767.5254,757.3303,2800.6602,829.415,2768.7962,827.3852Z"/><path class="cls-13" d="M2563.25257,2618.45772c-.514,49.27747-44.05971,89.22962-97.27722,89.34238l-1286.46268,2.72512c-53.60259.11351-98.09713-39.81084-99.37042-89.28224L1020.1962,291.76768c-1.42552-55.38818,43.56483-100.17857,100.47628-99.91395L2486.237,198.20025c56.47754.263,101.78162,45.283,101.20659,100.42884Z"/><path class="cls-14" d="M2447.29847,433.07346c.38378-53.22363-44.53263-96.65966-100.33952-96.89778l-1083.83971-4.63256c-56.15093-.23979-100.706,42.96367-99.50459,96.37789l44.55514,1980.60832c1.09158,48.51241,45.22356,87.68893,98.5605,87.60646l1029.69027-1.58869c53.02719-.082,96.28477-39.26444,96.6339-87.61943Z"/><path class="cls-15" d="M1968.34577,260.80777a18.75385,18.75385,0,0,1-19.08179,18.60989l-282.06749-1.24289a19.337,19.337,0,0,1-19.40582-18.80086h0a18.58907,18.58907,0,0,1,18.96283-18.6503l282.38808,1.28163a19.10563,19.10563,0,0,1,19.20419,18.80253Z"/><polygon class="cls-16" points="2215.707 1837.934 2378.189 1681.103 2372.164 2011.972 2216.055 1838.307 2215.707 1837.934"/><path class="cls-16" d="M2137.23,1913.69854,2366.87985,2169.334l2.32633,2.62-6.61986,202.5619c-.5274,19.43306-11.22627,38.12792-28.16436,51.95071-14.93143,12.15284-34.31529,19.61031-54.5994,21.20187l-324.49189-358.34176Z"/><polygon class="cls-16" points="2329.796 1578.866 2144.319 1758.616 2066.078 1834.462 1884.16 2010.761 1585.078 1680.533 1585.122 1680.491 1766.338 1501.912 1765.809 1501.904 1764.825 1501.402 1764.825 1501.36 1843.801 1424.463 1844.542 1424.547 1844.732 1424.61 1844.866 1424.547 1844.989 1424.463 2030.556 1241.764 2400.374 878.175 2386.416 1474.613 2329.796 1578.866"/><polygon class="cls-16" points="2136.724 2448.095 1583.259 2448.493 1878.255 2163.712 2136.724 2448.095"/><path class="cls-16" d="M1807.14022,2085.42849l-374.72883,363.17326-34.23865.02436c-22.80743.0164-44.92113-7.4709-61.51918-20.89805-16.65076-13.43511-26.43372-31.69421-27.13986-50.7862l-15.586-409.49516,214.185-211.09151Z"/><polygon class="cls-16" points="1435.826 1676.685 1288.671 1822.452 1276.715 1501.763 1435.693 1676.685 1435.826 1676.685"/><path class="cls-16" d="M2036.87229,1081.896,1739.47235,745.67547l313.33771-315.16313,258.63148-1.61639c55.0598-.344,98.0773,42.0245,96.73517,95.00166l-4.92043,195.51073Z"/><polygon class="cls-16" points="1463.919 434.194 1894.179 431.504 1665.707 662.26 1463.919 434.194"/><polygon class="cls-16" points="1660.446 825.182 1957.795 1160.113 1772.453 1343.517 1694.453 1420.711 1515.581 1600.28 1275.935 1332.262 1275.935 1332.219 1268.034 1222.41 1267.384 1221.808 1660.446 825.182"/><path class="cls-16" d="M1315.9247,437.071l270.72558,305.00787-326.87863,330.06955-20.571-539.30736C1237.38349,485.98965,1270.40909,446.44724,1315.9247,437.071Z"/><path class="cls-17" d="M572.8422,248.9771H1965.8597a39.9973,39.9973,0,0,1,39.9973,39.9973V426.8676a39.9973,39.9973,0,0,1-39.9973,39.9973H572.8424a39.9975,39.9975,0,0,1-39.9975-39.9975V288.9744a39.9973,39.9973,0,0,1,39.9973-39.9973Z"/><path class="cls-11" d="M665.7748,304.9424c-17.7791-16.0612-45.4195-14.4388-61.481,3.3404-16.061,17.7787-14.9004,45.468,2.8788,61.5293,15.6606,14.1475,39.6885,13.7703,54.8477,2.794l11.9769,10.8197c.1407,3.2108,1.0476,7.1142,3.7748,9.5777l39.9144,36.0582c5.0475,4.5594,12.6489,2.9357,17.2088-2.1116l.2655-.2937c4.5594-5.0475,4.4471-11.7138-.6004-16.2737l-39.914-36.0577c-2.7272-2.4637-6.7025-2.9709-8.377-4.4837l-11.977-10.8197C683.6772,342.8287,681.4353,319.0899,665.7748,304.9424Zm-50.4865,58.8909a33.456,33.456,0,1,1,47.253-2.3984A33.45586,33.45586,0,0,1,615.2883,363.8333Z"/><path class="cls-11" d="M623.0751,353.0897a3.43492,3.43492,0,0,1-5.171-.0816,24.94565,24.94565,0,0,1,.5559-32.714,3.43262,3.43262,0,0,1,5.0945,4.6019,18.05834,18.05834,0,0,0-.4087,23.68A3.43249,3.43249,0,0,1,623.0751,353.0897Z"/><path class="cls-11" d="M821.7903,290.918H1936.2812a25.0358,25.0358,0,0,1,25.0358,25.0358v78.8387a25.0358,25.0358,0,0,1-25.0358,25.0358H821.7902a25.0358,25.0358,0,0,1-25.0358-25.0358V315.9539A25.0359,25.0359,0,0,1,821.7903,290.918Z"/><path class="cls-18" d="M839.9722,317.067h.8243a5.262,5.262,0,0,1,5.262,5.262v71.1838a5.2621,5.2621,0,0,1-5.2621,5.2621h-.8242a5.262,5.262,0,0,1-5.262-5.262V322.329a5.262,5.262,0,0,1,5.262-5.262Z"/><circle class="cls-19" cx="1482.33672" cy="687.95333" r="126.07876" transform="translate(-52.29009 1249.66721) rotate(-45)"/><path class="cls-20" d="M1608.1855,681.194H1356.258s-10.0372,69.9794,102.4862,261.6543a27.54169,27.54169,0,0,0,47.1698.0923C1618.4262,751.2491,1608.1855,681.194,1608.1855,681.194Z"/><path class="cls-21" d="M1482.2804,960.3041v.7094h.0389a31.26723,31.26723,0,0,1-26.7318-15.4311c-65.7735-112.0403-89.8748-182.883-98.5082-222.5236a127.15719,127.15719,0,0,1-4.3224-27.2233c-.7618-9.3752-.1791-13.3248-.1103-13.7423l.3315-2.0172c5.0798-67.7252,61.4455-120.4322,129.3586-120.4322,68.8056,0,125.6802,53.454,129.5251,121.7183a56.88906,56.88906,0,0,1,.2085,6.9499l.0057.4651a129.92893,129.92893,0,0,1-5.1999,36.4573c-8.9312,39.6061-33.1804,109.7497-97.8332,219.9005A30.53877,30.53877,0,0,1,1482.2804,960.3041ZM1359.699,686.866c-.0302,1.8907.0274,4.5904.3591,8.6555l.0081-.0132a118.89239,118.89239,0,0,0,4.1035,25.6963l.0433.145c8.5042,39.1029,32.3553,109.0589,97.688,220.3477a23.69315,23.69315,0,0,0,20.3947,11.6128l-.0153,3.6521v-3.6604a24.84668,24.84668,0,0,0,20.4495-11.7134c64.238-109.4452,88.2207-178.9995,97.0164-218.0761l.0653-.2261c3.2759-11.1737,4.2073-22.7847,4.2073-34.5099l-.7354-.5152v-.0414a48.29917,48.29917,0,0,1,.5588-6.1411l.3488-.2119c-3.5792-64.4347-57.0818-114.9083-122.0378-114.9083-64.8313,0-118.4196,51.1856-122.1157,116.1853l-.1047,3.7223Z"/><circle class="cls-11" cx="1482.74345" cy="687.54658" r="72.80015" transform="translate(-90.98662 246.38664) rotate(-9.21746)"/><path class="cls-22" d="M1482.7434,764.414a76.86745,76.86745,0,1,1,76.8676-76.8674A76.95456,76.95456,0,0,1,1482.7434,764.414Zm0-145.6007a68.73335,68.73335,0,1,0,68.7335,68.7333A68.8113,68.8113,0,0,0,1482.7434,618.8133Z"/><path class="cls-11" d="M1413.6849,611.75a1.2199,1.2199,0,0,1-.795-2.1456,112.97756,112.97756,0,0,1,73.5744-27.2368,1.22005,1.22005,0,0,1,0,2.4401,110.54021,110.54021,0,0,0-71.9851,26.6477A1.215,1.215,0,0,1,1413.6849,611.75Z"/><path class="cls-11" d="M1374.7015,696.5705a1.21994,1.21994,0,0,1-1.22-1.2201,112.71478,112.71478,0,0,1,16.9016-59.4734,1.22029,1.22029,0,0,1,2.0741,1.2863,110.274,110.274,0,0,0-16.5356,58.1871A1.22,1.22,0,0,1,1374.7015,696.5705Z"/><circle class="cls-23" cx="1798.45857" cy="2047.99973" r="126.07879" transform="translate(-921.39818 1871.54748) rotate(-45)"/><path class="cls-24" d="M1924.3074,2041.2404H1672.3798s-10.0372,69.9795,102.4862,261.6543a27.54169,27.54169,0,0,0,47.1698.0923C1934.548,2111.2955,1924.3074,2041.2404,1924.3074,2041.2404Z"/><path class="cls-21" d="M1798.4023,2320.3505v.7094h.0389a31.2674,31.2674,0,0,1-26.7319-15.4311c-65.7734-112.0403-89.8748-182.883-98.5082-222.5236a127.16979,127.16979,0,0,1-4.3224-27.2232c-.7618-9.3753-.1791-13.3249-.1102-13.7424l.3314-2.0172c5.0798-67.7252,61.4455-120.4322,129.3587-120.4322,68.8055,0,125.6801,53.454,129.525,121.7183a56.88906,56.88906,0,0,1,.2085,6.9499l.0057.4651a129.92893,129.92893,0,0,1-5.1999,36.4573c-8.9312,39.6062-33.1804,109.7497-97.8332,219.9005A30.53861,30.53861,0,0,1,1798.4023,2320.3505Zm-122.5814-273.4381c-.0303,1.8907.0274,4.5904.359,8.6555l.0081-.0132a118.89239,118.89239,0,0,0,4.1035,25.6963l.0433.145c8.5043,39.1029,32.3553,109.0589,97.688,220.3477a23.69346,23.69346,0,0,0,20.3947,11.6129l-.0152,3.652v-3.6604a24.84658,24.84658,0,0,0,20.4495-11.7134c64.238-109.4452,88.2206-178.9994,97.0164-218.076l.0652-.2262c3.276-11.1737,4.2074-22.7847,4.2074-34.5098l-.7355-.5153v-.0414a48.29917,48.29917,0,0,1,.5588-6.1411l.3489-.2119c-3.5792-64.4347-57.0819-114.9083-122.0378-114.9083-64.8314,0-118.4197,51.1856-122.1157,116.1853l-.1048,3.7223Z"/><circle class="cls-11" cx="1798.86527" cy="2047.59303" r="72.80014" transform="translate(-920.99148 1871.71595) rotate(-45)"/><path class="cls-25" d="M1798.8652,2124.4604a76.86745,76.86745,0,1,1,76.8676-76.8673A76.95445,76.95445,0,0,1,1798.8652,2124.4604Zm0-145.6007a68.73335,68.73335,0,1,0,68.7335,68.7334A68.8113,68.8113,0,0,0,1798.8652,1978.8597Z"/><path class="cls-11" d="M1729.8068,1971.7964a1.2199,1.2199,0,0,1-.7951-2.1456,112.97756,112.97756,0,0,1,73.5744-27.2368,1.22005,1.22005,0,0,1,0,2.4401,110.54041,110.54041,0,0,0-71.9851,26.6477A1.21476,1.21476,0,0,1,1729.8068,1971.7964Z"/><path class="cls-11" d="M1690.8233,2056.6169a1.21994,1.21994,0,0,1-1.22-1.2201,112.7153,112.7153,0,0,1,16.9016-59.4734,1.22029,1.22029,0,0,1,2.0741,1.2863,110.274,110.274,0,0,0-16.5356,58.1871A1.22,1.22,0,0,1,1690.8233,2056.6169Z"/><path class="cls-26" d="M1222.0638,2478.3757v56.2323c0,14.5372,12.027,26.544,27.4299,27.9987a30.70258,30.70258,0,0,0,3.165.1484h4.7475a32.02707,32.02707,0,0,0,8.2501-1.055v-11.0569a22.39353,22.39353,0,0,1-8.2501,1.5619h-4.7475a22.2457,22.2457,0,0,1-3.165-.2329c-9.5582-1.329-16.88-8.6089-16.88-17.3642v-56.2323c0-8.7552,7.3218-16.0351,16.88-17.3642a22.2604,22.2604,0,0,1,3.165-.2328h4.7475a21.98114,21.98114,0,0,1,8.2501,1.5619v-11.0569a32.02272,32.02272,0,0,0-8.2501-1.055h-4.7475a31.33338,31.33338,0,0,0-3.165.1483C1234.0908,2451.8318,1222.0638,2463.8386,1222.0638,2478.3757Z"/><path class="cls-27" d="M1249.4937,2441.0716v28.8435a8.0813,8.0813,0,1,0,16.1626,0v-28.8435a8.0813,8.0813,0,1,0-16.1626,0Z"/><path class="cls-28" d="M1249.4937,2541.6551v28.8435a8.0813,8.0813,0,1,0,16.1626,0v-28.8435a8.0813,8.0813,0,1,0-16.1626,0Z"/><circle class="cls-29" cx="1550.1686" cy="2764.6635" r="27.5747"/><circle class="cls-30" cx="1550.1686" cy="2764.6635" r="19.6708"/><circle class="cls-31" cx="1343.38872" cy="2764.6635" r="27.57474"/><circle class="cls-32" cx="1343.38872" cy="2764.6635" r="19.67084"/><rect class="cls-33" x="1533.2666" y="2078.5104" width="12.66" height="185.6799"/><rect class="cls-34" x="1347.6307" y="2078.5104" width="12.66" height="185.6799"/><path class="cls-35" d="M1321.5767,2252.1643h250.4039c35.7316,0,62.991,27.6696,62.991,65.188v378.9756c0,37.5184-27.2594,66.2335-62.991,66.2335H1321.5767c-35.7315,0-68.7618-28.7151-68.7618-66.2335V2317.3523C1252.8149,2279.8339,1285.8452,2252.1643,1321.5767,2252.1643Z"/><path class="cls-36" d="M1273.3334,2334.452c0-34.1432,26.9369-56.6397,59.4546-56.6397h227.8808c32.5177,0,53.7843,22.4965,53.7843,56.6397v344.7762c0,34.1432-21.2666,60.2499-53.7843,60.2499H1332.788c-32.5177,0-59.4546-26.1067-59.4546-60.2499Z"/><g class="cls-37"><path class="cls-11" d="M1553.8917,2321.4141h3.1414a11.2534,11.2534,0,0,1,11.2534,11.2534v349.3907a11.2534,11.2534,0,0,1-11.2534,11.2534h-3.1414a11.2533,11.2533,0,0,1-11.2533-11.2533V2332.6674a11.2533,11.2533,0,0,1,11.2533-11.2533Z"/><path class="cls-11" d="M1482.0771,2321.4141h3.1415a11.2533,11.2533,0,0,1,11.2533,11.2533v349.3909a11.2533,11.2533,0,0,1-11.2533,11.2533h-3.1414a11.2534,11.2534,0,0,1-11.2534-11.2534V2332.6674A11.2533,11.2533,0,0,1,1482.0771,2321.4141Z"/><path class="cls-11" d="M1407.6976,2321.4141h3.1415a11.2533,11.2533,0,0,1,11.2533,11.2533v349.3909a11.2533,11.2533,0,0,1-11.2533,11.2533h-3.1414a11.2534,11.2534,0,0,1-11.2534-11.2534V2332.6674a11.2533,11.2533,0,0,1,11.2533-11.2533Z"/><path class="cls-11" d="M1330.7533,2321.4141h3.1415a11.2533,11.2533,0,0,1,11.2533,11.2533v349.3909a11.2533,11.2533,0,0,1-11.2533,11.2533h-3.1414a11.2534,11.2534,0,0,1-11.2534-11.2534V2332.6674A11.2533,11.2533,0,0,1,1330.7533,2321.4141Z"/></g><path class="cls-38" d="M1381.2791,1979.3405h123.6142c21.9746,0,44.2203,10.7148,44.2203,31.1946v68.1505a4.04473,4.04473,0,0,1-4.0443,4.0448h-10.9016a4.04469,4.04469,0,0,1-4.0441-4.0448v-68.1505c0-6.501-11.7894-12.2046-25.2303-12.2046H1381.2791c-17.8454,0-17.8454,9.1859-17.8454,12.2046v68.1505a4.04471,4.04471,0,0,1-4.0442,4.0448h-10.9017a4.04463,4.04463,0,0,1-4.0441-4.0448v-68.1505C1344.4437,1995.4539,1354.1201,1979.3405,1381.2791,1979.3405Z"/><path class="cls-11" d="M1570.2136,2753.271h3.6935c30.2498,0,54.8589-26.0494,54.8589-58.0703V2638.715a.79125.79125,0,0,0-1.5825,0v56.4857c0,31.1473-23.8992,56.4878-53.2764,56.4878h-3.6935a.79125.79125,0,1,0,0,1.5825Z"/><path class="cls-11" d="M1627.9748,2625.0886a.79141.79141,0,0,0,.7912-.7912v-32.705a.79125.79125,0,0,0-1.5825,0v32.705A.7915.7915,0,0,0,1627.9748,2625.0886Z"/><path class="cls-39" d="M1153.9316,2760.6694c-31.923,2.7595-87.3258,7.2421-131.0032,9.1643-26.2556,1.1557-41.371-1.4154-50.0766-4.9009.0146.9819.0424,1.9096.0809,2.7702a9.03441,9.03441,0,0,0,8.583,8.5324,1534.33372,1534.33372,0,0,0,171.5344.1719,6.43293,6.43293,0,0,0,5.2403-9.6641A52.63357,52.63357,0,0,0,1153.9316,2760.6694Z"/><path class="cls-40" d="M1022.9284,2769.8337c43.6774-1.9222,99.0802-6.4048,131.0032-9.1643-31.3853-38.506-131.0032-64.4589-131.0032-64.4589H994.7929c-19.3509,27.8941-22.1527,54.4511-21.9411,68.7223C981.5574,2768.4183,996.6728,2770.9894,1022.9284,2769.8337Z"/><path class="cls-41" d="M990.0556,2650.2785l2.6325,52.1011a11.89922,11.89922,0,0,0,10.1589,11.1914,46.28625,46.28625,0,0,0,21.1354-1.7516,14.07817,14.07817,0,0,0,9.4638-10.8217l9.0979-50.7192Z"/><path class="cls-42" d="M624.6173,2769.4426c-13.8441-1.9304-20.1074-9.122-22.7335-16.8102-.0177.0689-.0347.1384-.0518.2067-2.0366,8.1103,2.6849,16.5157,12.124,20.513,11.4094,4.8314,23.8842,5.6548,33.5691,5.2554,10.3902-.4284,19.9279-4.7278,25.1694-11.6091l.079-.1036C662.3442,2772.0548,647.704,2772.6627,624.6173,2769.4426Z"/><path class="cls-43" d="M689.8863,2649.9442H666.684c-35.3422-.7223-57.536,73.821-64.8002,102.6882,2.6261,7.6882,8.8894,14.8798,22.7335,16.8102,23.0867,3.2201,37.7269,2.6122,48.1562-2.5478,19.0938-25.1264,28.5595-61.9257,33.1104-83.4017C711.059,2659.0674,689.8863,2649.9442,689.8863,2649.9442Z"/><path class="cls-44" d="M669.6665,2601.5857l-12.8842,51.2437a13.90879,13.90879,0,0,0,7.2364,15.7631c7.208,3.6984,17.3555,7.5852,26.6815,6.4604a11.623,11.623,0,0,0,9.4783-7.7482l18.9156-53.914Z"/><path class="cls-45" d="M654.2984,2616.3972c16.0297,14.2194,68.1688,16.0961,68.1688,16.0961,187.8131-450.7705,264.6413-514.8087,264.6413-514.8087-27.1181,170.1412-4.372,546.8133-4.372,546.8133,30.9922,13.6759,70.9491,0,70.9491,0a2903.41988,2903.41988,0,0,1,95.9081-712.9716c-126.9383-2.8536-194.4436-46.2915-216.4858-63.7253C827.2956,2058.3914,654.2984,2616.3972,654.2984,2616.3972Z"/><path class="cls-46" d="M965.3456,1369.4139c-24.0263,119.8459-15.4155,334.3482-9.7595,432.1886,1.5898,27.5004-17.6076,65.6235-33.1242,91.6314a8.15645,8.15645,0,0,0,3.294,11.4745c25.9782,13.3512,113.9871,54.7317,215.9866,59.8797a14.54388,14.54388,0,0,0,14.6358-10.8672c75.6611-282.5093,163.5416-463.0343,163.5416-463.0343C1222.8959,1335.7481,965.3456,1369.4139,965.3456,1369.4139Z"/><path class="cls-47" d="M999.9245,2107.0133a6.01686,6.01686,0,0,1-5.1341-9.1396c1.0104-1.6625,25.3052-40.93,74.4675-64.6492a6.01365,6.01365,0,1,1,5.2276,10.8318c-45.8316,22.1155-69.1893,59.6971-69.4212,60.0731A6.01718,6.01718,0,0,1,999.9245,2107.0133Z"/><path class="cls-48" d="M814.6382,1713.3706c7.7179,55.8305,30.5203,116.7275,76.1344,181.4134l17.3397-14.136s-20.017-81.2135-8.6373-173.3821C871.337,1701.7767,838.1053,1707.4346,814.6382,1713.3706Z"/><path class="cls-49" d="M992.1826,1517.2885l-26.837-147.8746s-179.306,137.0586-150.7074,343.9567c23.4671-5.936,56.6988-11.5939,84.8368-6.1047C907.6725,1640.8708,932.1582,1568.7925,992.1826,1517.2885Z"/><path class="cls-50" d="M1319.9199,1490.6866l-69.2114,149.0576c11.1908,89.991,59.5334,128.9015,111.6586,143.8261a316.31524,316.31524,0,0,1,23.244-97.0689C1319.0088,1617.7374,1319.9199,1490.6866,1319.9199,1490.6866Z"/><path class="cls-51" d="M1385.6111,1686.5014a316.31524,316.31524,0,0,0-23.244,97.0689c139.0686,53.957,175.8616-50.6857,175.8616-50.6857l-25.7015-4.5345C1454.4863,1734.4656,1413.9431,1715.7534,1385.6111,1686.5014Z"/><path class="cls-52" d="M1256.1535,1306.6629l-33.4136,122.8316a23.89554,23.89554,0,0,1-31.9572,15.9002c-14.3293-5.728-32.5094-13.547-48.1594-21.9966a32.20029,32.20029,0,0,1-11.3576-46.2764l69.4686-103.5818Z"/><path class="cls-53" d="M1601.9679,1650.6891,745.7763,1962.3089a65.556,65.556,0,0,0-37.2537,88.7424l2.5971,5.7123a60.94061,60.94061,0,0,0,81.0593,30.0804l831.3509-384.5877Z"/><path class="cls-54" d="M1995.5077,1001.4227c-259.7411,0-470.3023,206.7635-470.3023,461.8178,0,255.0569,210.5612,461.8192,470.3023,461.8192,259.741,0,470.3022-206.7623,470.3022-461.8192C2465.8099,1208.1862,2255.2487,1001.4227,1995.5077,1001.4227Zm0,855.7967c-221.5858,0-401.2172-176.3892-401.2172-393.9789,0-217.5883,179.6314-393.9795,401.2172-393.9795,221.5863,0,401.2171,176.3912,401.2171,393.9795C2396.7248,1680.8302,2217.094,1857.2194,1995.5077,1857.2194Z"/><path class="cls-11" d="M1560.959,1520.4505a3.1565,3.1565,0,0,1-3.1285-2.7582c-1.3946-10.9412-2.3822-22.0826-2.925-33.1129a3.157,3.157,0,1,1,6.3062-.3146c.5435,10.8697,1.5121,21.8475,2.8878,32.625a3.16294,3.16294,0,0,1-2.7336,3.5361A3.67779,3.67779,0,0,1,1560.959,1520.4505Zm3.2397-129.136a3.16336,3.16336,0,0,1-3.1165-3.718,425.03578,425.03578,0,0,1,25.3684-86.8234l.0057-.0089c67.7922-164.4762,228.3564-270.753,409.0495-270.753a445.59473,445.59473,0,0,1,236.8717,67.6905,3.16065,3.16065,0,0,1-3.3566,5.3565,439.262,439.262,0,0,0-233.5151-66.7281c-178.1257,0-336.3943,104.74-403.2115,266.8404.0057-.0057.0057-.0026,0,0a418.86056,418.86056,0,0,0-24.9918,85.5426A3.15779,3.15779,0,0,1,1564.1987,1391.3145Z"/><path class="cls-55" d="M900.9625,1878.1861l80.9399-6.5962,35.0534,32.3129s-8.2929,11.463-34.22,4.8743c-25.9264-6.5893-61.441-8.2057-61.441-8.2057s-35.7921,16.1359-36.2287-14.0557Z"/><path class="cls-56" d="M1527.92,1752.0308c6.9995,5.4684,30.9816-5.9486,45.6565-13.8422a16.88473,16.88473,0,0,0,8.1615-19.9512c-3.5316-11.1364-9.4164-25.5119-16.6667-27.3248C1553.0414,1687.9055,1499.0737,1729.4951,1527.92,1752.0308Z"/><path class="cls-11" d="M762.6686,2074.8679a3.17839,3.17839,0,0,1-1.0307-.1725c-33.4578-11.5674-41.2269-31.3259-41.8563-45.8676-.9194-21.2492,12.4217-40.971,33.2108-49.0763l102.8058-40.0883a3.15925,3.15925,0,0,1,2.2957,5.8867l-102.8058,40.0883c-18.2654,7.1246-29.9958,24.3688-29.1876,42.9179.7836,18.2995,13.4397,31.8137,37.5987,40.166a3.15915,3.15915,0,0,1-1.0306,6.1458Z"/><path class="cls-11" d="M888.6204,1933.4151a3.15934,3.15934,0,0,1-1.1475-6.1028l13.3284-5.196a3.15925,3.15925,0,1,1,2.2957,5.8867l-13.3291,5.196A3.12628,3.12628,0,0,1,888.6204,1933.4151Z"/><path class="cls-57" d="M1322.2337,1234.8694s-5.0271,72.5492-19.2735,104.7112c-14.2468,32.1618-18.007,55.8257-56.5766,44.1068-38.5689-11.7191-59.1671-44.9262-59.4151-84.3226,0,0-.8009-60.9189,14.8963-77.6993C1217.562,1204.8852,1322.2337,1234.8694,1322.2337,1234.8694Z"/><path class="cls-58" d="M1205.2587,1283.6695s13.6089,15.2679,17.5072-4.971c3.8982-20.239,2.9745-46.99,30.6852-37.2389s137.7148,43.9274,118.6543-60.4656c0,0-10.5441-25.6232-43.9638,1.1251,0,0-30.1915,13.0701-66.8645-8.3579s-81.8319-9.4192-92.089,27.4928c0,0-79.5388,55.0173,14.3197,110.4017C1183.5078,1311.6557,1196.3568,1310.0533,1205.2587,1283.6695Z"/><path class="cls-59" d="M1208.6558,1289.3912s9.7366-43.0174-12.3916-40.8435c-22.1279,2.1745-13.0916,47.0875-.4035,55.3493Z"/><path class="cls-11" d="M1341.3938,1243.9905a2.113,2.113,0,0,0,1.7172.0888c28.1721-10.6716,15.7524-54.778,15.2102-56.6497a2.10767,2.10767,0,0,0-2.6708-1.4334,2.232,2.232,0,0,0-1.4658,2.7346c.1215.4194,11.8322,42.0376-12.5154,51.2611a2.22983,2.22983,0,0,0-1.3097,2.8125A2.11032,2.11032,0,0,0,1341.3938,1243.9905Z"/><circle class="cls-60" cx="2186.0238" cy="805.83133" r="205.4849" transform="translate(70.46275 1781.77478) rotate(-45)"/><path class="cls-61" d="M2391.134,794.8149H1980.5389s-16.3588,114.0535,167.0334,426.4478a44.88785,44.88785,0,0,0,76.878.1504C2407.8243,908.9916,2391.134,794.8149,2391.134,794.8149Z"/><path class="cls-21" d="M2185.932,1249.7125v1.1561h.0634a50.96,50.96,0,0,1-43.5679-25.1498c-107.1985-182.6049-146.4792-298.0653-160.55-362.6721a207.249,207.249,0,0,1-7.0448-44.3688c-1.2415-15.28-.2918-21.7171-.1797-22.3975l.5402-3.2876c8.2792-110.3795,100.1448-196.2821,210.8306-196.2821,112.1402,0,204.8353,87.1201,211.1017,198.3781a92.70432,92.70432,0,0,1,.3399,11.3271l.0092.758a211.75734,211.75734,0,0,1-8.4749,59.4186c-14.5561,64.5507-54.0778,178.8717-159.4498,358.3969A49.77261,49.77261,0,0,1,2185.932,1249.7125ZM1986.1471,804.0592c-.0493,3.0814.0447,7.4814.5852,14.1068l.0133-.0215a193.76372,193.76372,0,0,0,6.6879,41.8802l.0706.2363c13.8603,63.7305,52.733,177.7458,159.2133,359.1257a38.61568,38.61568,0,0,0,33.2395,18.9269l-.0249,5.9521V1238.3c12.3258.0006,26.4169-7.3147,33.3289-19.0908,104.696-178.3752,143.7833-291.7357,158.1187-355.4233l.1063-.3685c5.3392-18.2111,6.8572-37.1348,6.8572-56.2447l-1.1986-.8397v-.0675c0-5.9481,1.0072-9.1645.9108-10.0088l.5685-.3455c-5.8334-105.0165-93.0328-187.2791-198.8989-187.2791-105.663,0-193.002,83.4231-199.0259,189.3603l-.1707,6.0668Z"/><circle class="cls-11" cx="2186.6867" cy="805.16843" r="118.6507" transform="translate(71.12565 1782.04936) rotate(-45)"/><path class="cls-62" d="M2186.6866,930.448a125.27965,125.27965,0,1,1,125.2798-125.2795A125.42158,125.42158,0,0,1,2186.6866,930.448Zm0-237.302a112.0225,112.0225,0,1,0,112.0228,112.0225A112.14959,112.14959,0,0,0,2186.6866,693.146Z"/><path class="cls-11" d="M2074.1341,681.634a1.98815,1.98815,0,0,1-1.2958-3.4968,184.13225,184.13225,0,0,1,119.9126-44.391,1.98845,1.98845,0,0,1,0,3.9769,180.15984,180.15984,0,0,0-117.3223,43.4308A1.98031,1.98031,0,0,1,2074.1341,681.634Z"/><path class="cls-11" d="M2010.5984,819.8756a1.98825,1.98825,0,0,1-1.9885-1.9884,183.70427,183.70427,0,0,1,27.5466-96.9306,1.98884,1.98884,0,0,1,3.3804,2.0964,179.727,179.727,0,0,0-26.95,94.8342A1.98825,1.98825,0,0,1,2010.5984,819.8756Z"/><path class="cls-63" d="M2292.4006,1254.2452s166.9896,210.0641,341.2376,235.2606c0,0-22.8438,97.6634-47.175,111.1925,0,0-227.4175-151.4409-299.1939-313.4782Z"/><path class="cls-64" d="M2298.4076,1300.5628c.0721,4.6985,17.7184,6.0401,21.076-14.3863-2.4462-8.4457-9.2168-45.8572-16.4523-50.9997-38.5365-27.3881-105.0321-55.692-105.0321-55.692-5.8527,11.464,4.1065,17.5196,4.1065,17.5196l33.583,17.7313c-2.0933,11.1666-5.822,21.2416-5.0238,33.6447a36.84957,36.84957,0,0,0,12.0216,24.59c6.9987,6.4421,16.3789,14.7228,24.6922,20.8803C2283.1153,1305.5053,2298.4076,1300.5628,2298.4076,1300.5628Z"/><path class="cls-65" d="M2294.849,1256.5678l-13.5068-16.834-29.1413-11.7439c-3.9195,3.9753-5.2268,8.8336,2.5742,15.3991,7.8012,6.5661,27.2504,42.4021,27.2504,42.4021Z"/><path class="cls-66" d="M2688.4618,1228.777c29.4356,1.2281,61.0002,12.2256,84.8416,29.3186,44.2445,31.7209,48.9889,84.5269,67.0149,131.7573,9.9044,25.9491,27.5533,57.573,50.6246,74.3029,45.3118,32.8569,98.6516,33.253,134.0974,80.8969,90.3476,121.4385,51.6498,339.6593-117.6308,359.8345-104.6114,12.4658-240.9973-30.096-253.4119-152.0654C2636.7265,1583.1357,2632.2406,1215.4055,2688.4618,1228.777Z"/><path class="cls-67" d="M3006.042,2720.4494l3.9388,40.0858a16.51791,16.51791,0,0,0,14.1498,14.7807c12.7796,1.7598,33.3092,3.7354,53.478,2.0729a14.1446,14.1446,0,0,0,12.298-18.0652c-4.5484-15.5439-12.9866-38.9157-25.6085-52.8464l-44.3423-1.0243A13.664,13.664,0,0,0,3006.042,2720.4494Z"/><path class="cls-68" d="M2669.5508,2244.1677l-8.5012,43.8541s19.1995,254.452,21.3118,356.1041a79.59025,79.59025,0,0,1-12.8199,44.9523l-45.2166,69.7653,112.2711-62.8009,2.5168-13.4648-17.5559-25.3486,30.3194-283.8534a87.28451,87.28451,0,0,0-8.816-48.4915l-21.9158-43.5685Z"/><path class="cls-69" d="M2616.7941,2768.9276l35.3464.8164a21.28715,21.28715,0,0,0,17.0819-7.8905c11.3498-14.0632,34.8248-41.4706,45.758-41.9473,14.7175-.6425,11.6319,51.5579,11.6319,51.5579l8.237.1898,11.9342-64.6773a38.44129,38.44129,0,0,0-19.2384-40.6342h0s-3.9324,24.7661-22.4019,35.3342c-18.4685,10.5675-75.2844,48.6297-75.2844,48.6297a50.51128,50.51128,0,0,0-14.3758.05C2604.2846,2752.1146,2605.461,2768.6654,2616.7941,2768.9276Z"/><path class="cls-70" d="M2820.7747,2268.5833s140.3969,281.9135,162.2685,346.0439c21.8711,64.1299,28.8227,117.368,29.0193,122.3988.308,7.861,9.8978,15.6156,36.81,16.2371,13.8888.3206,20.8192-5.09,24.2738-10.4014a15.69165,15.69165,0,0,0,.9455-15.182c-8.0964-17.3848-33.7806-72.9396-43.1882-98.0841-11.2319-30.0222-33.7551-165.4211-46.7323-212.6167-12.9776-47.195-27.6968-98.4047-87.8441-146.6515C2896.3272,2270.3274,2855.2463,2228.1894,2820.7747,2268.5833Z"/><path class="cls-71" d="M2738.5607,1810.0667c-34.1687-161.3689,63.8783-249.9255,63.8783-249.9255-32.5334-32.7053-80.317-56.193-116.7643-70.7175a90.31892,90.31892,0,0,0-96.0694,18.8669c-28.0691,27.0683-58.1473,64.8748-52.0032,98.3878,6.5026,35.4727,69.1016,213.1644,69.1016,213.1644S2667.677,1850.4426,2738.5607,1810.0667Z"/><path class="cls-72" d="M2820.7013,1891.4623c-14.3419-46.7919-82.1406-81.3956-82.1406-81.3956-70.8837,40.3759-131.857,9.7761-131.857,9.7761s-15.0456,52.5249-6.6376,101.8541c8.4075,49.3298,29.5991,560.8502,29.5991,560.8502,93.8885,21.2918,380.635-31.6499,380.635-31.6499C2952.6802,2342.8341,2835.0422,1938.2542,2820.7013,1891.4623Z"/><path class="cls-73" d="M2674.7387,1389.1454l23.3802,114.6075c2.6669,12.2508-4.9094,13.8512-17.3291,15.5782-19.6711,2.7358-45.0124,3.5368-53.3408-12.3605a14.90484,14.90484,0,0,1-1.4562-5.2487l-11.014-96.22a17.23831,17.23831,0,0,1,10.5044-17.8752l25.7914-10.7298A17.23717,17.23717,0,0,1,2674.7387,1389.1454Z"/><path class="cls-74" d="M2646.6015,1279.2093s-41.995,13.9214-74.2961,70.4325c-32.3005,56.5116-13.8284,85.2621,11.7889,91.0468,25.6167,5.7847,64.4155,8.3033,108.4274-26.3589C2736.5325,1379.667,2701.0377,1263.0783,2646.6015,1279.2093Z"/><path class="cls-75" d="M2675.2407,1391.0386s19.0215-43.013,38.2943-23.7459c19.2725,19.2676-20.0587,39.534-35.3304,45.8968Z"/><path class="cls-76" d="M2667.4622,1380.7911s37.4927-83.4556-38.582-90.5348l-18.9171,11.0987s-24.1501-49.8491,23.5221-68.9311,114.4931,6.6081,129.09,69.9501c14.5974,63.3418-.0038,102.3306-34.827,129.3064-34.8236,26.977-45.5365-7.6076-45.5365-7.6076s19.8836-26.2423,13.8632-41.608c-6.0202-15.3662-24.0441,1.165-24.0441,1.165Z"/><path class="cls-11" d="M3033.7713,1694.1422a1.18078,1.18078,0,0,1-.2621-.0281,1.22343,1.22343,0,0,1-.9362-1.4571c16.909-77.4803-44.31-118.6485-98.3224-154.9721a1.22572,1.22572,0,0,1,1.3682-2.0341c54.6585,36.7588,116.6111,78.4231,99.3476,157.5271A1.22573,1.22573,0,0,1,3033.7713,1694.1422Z"/><path class="cls-11" d="M2844.813,1462.4299a1.22455,1.22455,0,0,1-1.0088-.5275c-13.9996-20.2222-21.4421-44.2374-28.6405-67.4614-7.121-22.9784-14.486-46.7397-28.207-67.1911-11.7183-17.4662-25.657-30.8296-40.4166-44.9776-2.8335-2.7165-5.6918-5.4561-8.5616-8.2518a1.22512,1.22512,0,1,1,1.711-1.7539c2.8649,2.7907,5.7165,5.5254,8.5468,8.237,14.8568,14.2419,28.8894,27.6943,40.7545,45.3814,13.9221,20.7498,21.3398,44.6842,28.5136,67.8307,7.1424,23.046,14.5288,46.8782,28.3141,66.7922a1.22468,1.22468,0,0,1-1.0055,1.922Z"/><path class="cls-77" d="M2683.0676,1346.067s-89.7816-29.1625-96.8245-46.9805c-7.043-17.818,1.6803-36.2586,30.3535-38.8892C2645.2697,1257.5667,2731.9816,1277.257,2683.0676,1346.067Z"/><ellipse class="cls-78" cx="2699.69552" cy="1301.05645" rx="45.24679" ry="259.29202" transform="translate(265.03953 3048.49859) rotate(-61.39907)"/><path class="cls-79" d="M2623.0478,1238.0279s56.7984-94.4362,95.531-69.3365c38.7326,25.0996,105.871,43.1276,111.0819,65.2107,5.2109,22.0832-11.0014,104.1455-11.0014,104.1455S2716.3307,1349.2694,2623.0478,1238.0279Z"/><path class="cls-80" d="M2636.4531,1212.5187a3.23727,3.23727,0,0,1,2.4688-1.3529,3.29868,3.29868,0,0,1,2.6194,1.0815c9.0487,10,39.7859,42.1854,78.564,63.1945,32.0958,17.3881,90.2678,29.4183,104.2045,32.1335a3.27354,3.27354,0,0,1,2.6287,3.6551l-3.8078,27.1772a3.21951,3.21951,0,0,1-3.4645,2.7523c-12.7747-1.034-63.5273-6.3646-110.9151-28.4855-48.3742-22.5804-81.2906-64.3084-88.2895-73.709a3.22243,3.22243,0,0,1-.0584-3.797Z"/><g class="cls-81"><path class="cls-11" d="M2736.0609,1360.013l.0374.0204c105.3677,49.8156,163.5437,69.071,173.9197,55.384,6.6542-8.7786-9.1979-27.0669-9.8779-27.8403a.82729.82729,0,0,0-1.1656-.1048.81741.81741,0,0,0-.066,1.1671c.1563.1783,15.669,17.9576,9.8355,25.6515-6.7554,8.9097-42.0415,6.4226-171.7871-56.01a.99056.99056,0,0,0-.896,1.7321Z"/></g><g class="cls-81"><path class="cls-11" d="M2789.638,1231.8567c12.45,6.792,21.8626,8.9194,28.0186,6.326a8.97309,8.97309,0,0,0,5.3725-5.6451.84838.84838,0,0,0-.6173-1.0113.83539.83539,0,0,0-1.0105.6122,7.33656,7.33656,0,0,1-4.4463,4.5209c-4.3335,1.7976-13.1582,1.7578-30.5574-8.5788-7.0758-4.2047-15.3541-8.9048-24.1206-13.8785-26.7172-15.1637-59.9683-34.0391-60.7933-40.7854a1.09145,1.09145,0,0,1,.3479-1.0108.84061.84061,0,0,0,.0319-1.1867.85134.85134,0,0,0-1.1838-.0303,2.7668,2.7668,0,0,0-.8598,2.4315c.8599,7.0413,26.0865,21.8657,61.6304,42.0397,8.758,4.969,17.0291,9.6651,24.0905,13.862Q2787.6408,1230.7677,2789.638,1231.8567Z"/></g><path class="cls-82" d="M2736.4425,1793.5887a4.35792,4.35792,0,0,1,5.3004,1.2496c5.04,7.5642,7.8375,12.1995,9.1539,15.0069a3.78394,3.78394,0,0,1,.1566,3.1064c-.4312.994-2.093,1.8022-3.1244,2.14-19.6321,6.4229-113.8288,35.5393-144.5539,14.4187l-1.0612-19.3738S2671.2936,1826.6585,2736.4425,1793.5887Z"/><path class="cls-83" d="M2850.8718,2047.1841l4.6704,36.3888,17.8278-2.2881-4.6704-36.3889c-1.1858-9.2385,4.4681-17.9497,13.7067-19.1354l71.3982-9.1639c9.2385-1.1857,17.1106,5.7893,18.2964,15.0279l4.6704,36.3888,17.8278-2.2881-4.6704-36.3889c-2.4118-18.7909-19.1641-29.4137-37.9548-27.0019l-71.3982,9.1638C2861.785,2013.91,2848.46,2028.3932,2850.8718,2047.1841Z"/><path class="cls-84" d="M2965.3433,2063.6879l.036.281c.5277,4.1111,3.2408,5.0906,7.0596,4.6005l27.3044-3.5045c3.8186-.4901,5.3849-2.0189,4.8572-6.13l-.0361-.281c-.5276-4.1111-2.3754-4.7758-6.194-4.2857l-27.3044,3.5045C2967.2472,2058.3628,2964.8156,2059.5768,2965.3433,2063.6879Z"/><path class="cls-85" d="M2840.5486,2079.7051l.0361.2811c.5276,4.1111,5.7931,4.763,9.6118,4.2729l27.3044-3.5045c3.8186-.4901,9.9637-2.6066,9.4361-6.7177l-.0361-.281c-.5277-4.1111-6.9543-4.1881-10.7729-3.698l-27.3044,3.5045C2845.0048,2074.0525,2840.0209,2075.594,2840.5486,2079.7051Z"/><path class="cls-86" d="M2787.134,2065.60306H3110.315a50.5033,50.5033,0,0,1,50.5033,50.5033v200.95746a50.50332,50.50332,0,0,1-50.50332,50.50332h-323.181a50.5033,50.5033,0,0,1-50.5033-50.5033V2116.10647A50.5034,50.5034,0,0,1,2787.134,2065.60306Z" transform="translate(-258.18952 393.42077) rotate(-7.31386)"/><path class="cls-87" d="M2739.7372,2152.1729c-3.1828-24.7982,15.3472-47.0608,41.3022-50.3921l300.8622-38.6152c25.955-3.3313,49.5065,13.5301,52.6893,38.3283l22.6997,176.8593c3.1828,24.7982-15.2777,47.6016-41.2328,50.9329l-300.8621,38.6153c-25.9551,3.3313-49.576-14.071-52.7588-38.8692Z"/><path class="cls-88" d="M3077.7656,2346.6045c.8987,7.0022,5.5866,12.1704,12.7561,11.2502l14.0633-1.805c7.1695-.9202,9.7349-7.0194,8.8362-14.0215l-37.4275-291.6076c-.8987-7.0022-4.9688-12.6261-12.1383-11.7059l-14.0633,1.805c-7.1694.9202-10.3528,7.4751-9.454,14.4772Z"/><path class="cls-89" d="M3035.4233,2129.6558l-2.291-17.8495c-1.1699-9.115,5.3167-15.4662,15.2562-16.742l28.977-3.7191c10.529-1.3514,22.3803,2.9447,23.5125,11.766l2.2909,17.8495c1.1804,9.1963-9.3942,19.0186-19.3965,20.3024l-28.977,3.7191C3045.3366,2146.1962,3036.6449,2139.1743,3035.4233,2129.6558Zm14.3381-23.8948c-5.1633.6627-6.4842.3737-5.9324,4.6724l2.2909,17.8495c.5314,4.1402,2.0526,6.6765,7.3026,6.0026l28.977-3.7191c5.607-.7197,10.5732-4.3335,10.0727-8.2328l-2.2909-17.8495c-.4924-3.8359-5.9563-3.1464-11.4429-2.4422Z"/><path class="cls-90" d="M3079.32858,2120.17791h.43a3.38012,3.38012,0,0,1,3.38012,3.38012v21.99851a3.37986,3.37986,0,0,1-3.37986,3.37986h-.42967a3.38012,3.38012,0,0,1-3.38012-3.38012v-21.9989A3.37948,3.37948,0,0,1,3079.32858,2120.17791Z" transform="translate(-246.86719 409.76322) rotate(-7.31999)"/><path class="cls-91" d="M3061.50105,2122.46611h.42958a3.38032,3.38032,0,0,1,3.38032,3.38032v21.99879a3.37938,3.37938,0,0,1-3.37938,3.37938h-.43015a3.38012,3.38012,0,0,1-3.38012-3.38012v-21.99861A3.37976,3.37976,0,0,1,3061.50105,2122.46611Z" transform="translate(-247.35527 407.60846) rotate(-7.32169)"/><path class="cls-92" d="M2817.4795,2380.0119c.8987,7.0022,8.4065,11.8085,15.576,10.8883l14.0633-1.805c7.1694-.9202,14.0462-7.5727,13.1475-14.5749l-37.4275-291.6076c-.8987-7.0022-9.2801-12.0727-16.4496-11.1525l-14.0633,1.805c-7.1695.9202-13.1726,7.837-12.2739,14.8391Z"/><path class="cls-93" d="M2778.7028,2162.6056l-2.291-17.8496c-1.1699-9.1149,4.571-15.3705,14.5104-16.6462l28.977-3.7191c10.529-1.3514,19.5605,3.3066,20.6927,12.1279l2.291,17.8495c1.1803,9.1963-6.5744,18.6566-16.5768,19.9404l-28.977,3.7192C2787.8703,2179.2417,2779.9245,2172.1241,2778.7028,2162.6056Zm13.5923-23.7991c-5.1633.6627-9.3039.7356-8.7522,5.0343l2.291,17.8495c.5314,4.1402,4.8724,6.3145,10.1223,5.6407l28.977-3.7192c5.6071-.7196,11.3191-4.4291,10.8186-8.3284l-2.291-17.8495c-.4923-3.836-6.7021-3.0507-12.1887-2.3465Z"/><path class="cls-94" d="M2822.60851,2153.12771h.43a3.37974,3.37974,0,0,1,3.37974,3.37974v21.99938a3.37938,3.37938,0,0,1-3.37938,3.37938h-.4301a3.38012,3.38012,0,0,1-3.38012-3.38012v-21.99851a3.37986,3.37986,0,0,1,3.37986-3.37986Z" transform="translate(-253.1576 377.32284) rotate(-7.31999)"/><path class="cls-95" d="M2801.21463,2155.87351h.43015a3.38012,3.38012,0,0,1,3.38012,3.38012v21.999a3.37938,3.37938,0,0,1-3.37938,3.37938h-.43a3.38032,3.38032,0,0,1-3.38032-3.38032v-21.99879a3.37938,3.37938,0,0,1,3.37938-3.37938Z" transform="translate(-253.6818 374.61947) rotate(-7.31999)"/><g class="cls-81"><path class="cls-11" d="M3142.4958,2324.7707a2.7072,2.7072,0,0,0,.9105-.2844,45.01173,45.01173,0,0,0,20.1753-43.4512l-3.1473-24.521a1.80534,1.80534,0,0,0-3.5655.4577l3.1472,24.5209a41.6132,41.6132,0,0,1-18.5681,40.2812,1.64748,1.64748,0,0,0-.4977,2.2695A1.5915,1.5915,0,0,0,3142.4958,2324.7707Z"/></g><g class="cls-81"><path class="cls-11" d="M2758.3117,2328.4689a1.78162,1.78162,0,0,0,1.5745-1.8515l-11.8019-91.9522a1.80538,1.80538,0,0,0-3.5656.4576l11.802,91.9522A1.78155,1.78155,0,0,0,2758.3117,2328.4689Z"/><path class="cls-11" d="M2743.3163,2211.6355a1.78175,1.78175,0,0,0,1.5745-1.8515l-5.415-42.1899a1.8054,1.8054,0,0,0-3.5656.4577l5.415,42.1898A1.7818,1.7818,0,0,0,2743.3163,2211.6355Z"/></g><path class="cls-96" d="M2755.6794,1626.276c5.5239,6.5461,88.6509,95.1155,116.6746,197.4962,28.024,102.3801,24.2975,171.9694,24.2975,171.9694s-21.7788,18.1777-12.9577,29.7422c8.821,11.5634,7.1152,19.8546,17.677,21.6138,10.5625,1.7585,23.6811,4.3337,20.9734-16.1772-2.7066-20.511,21.655-26.0072,16.8885-38.2342-4.7442-12.1701,4.7679-348.06-134.8067-431.3822q-.988-.58965-1.987-1.1628C2746.6602,1583.8173,2746.7986,1615.753,2755.6794,1626.276Z"/></g></g></g></svg>