<svg xmlns="http://www.w3.org/2000/svg" viewBox="0 0 234.7805 234.7805"><defs><style>.cls-1{fill:#fff;}.cls-1,.cls-2{stroke:#ed7b49;stroke-width:10px;}.cls-2{fill:#ed7b49;}</style></defs><g id="Capa_2" data-name="Capa 2"><g id="Capa_1-2" data-name="Capa 1"><circle class="cls-1" cx="117.39025" cy="117.39025" r="112.39025"/><path class="cls-2" d="M118.99445,55.36008c1.81938.33014,3.6747.52868,5.45174,1.01388a26.66325,26.66325,0,0,1,18.56693,33.34191,26.69451,26.69451,0,0,1-30.71072,18.52444A25.68366,25.68366,0,0,1,94.42914,95.41573a26.72216,26.72216,0,0,1,10.66175-36.95334,26.33014,26.33014,0,0,1,9.96449-2.93711c.30886-.032.61305-.10906.9194-.1652Z"/><path class="cls-2" d="M117.44845,174.66812c-11.26,0-22.52026-.043-33.7799.02075a12.85531,12.85531,0,0,1-11.03375-5.41373,11.09763,11.09763,0,0,1-2.16617-6.433,45.17628,45.17628,0,0,1,3.305-18.14976A47.10044,47.10044,0,0,1,164.585,161.9a12.48953,12.48953,0,0,1-9.61894,12.39841,15.25667,15.25667,0,0,1-3.54892.35455Q134.43285,174.691,117.44845,174.66812Z"/></g></g></svg>